%TF.GenerationSoftware,KiCad,Pcbnew,(7.0.0)*%
%TF.CreationDate,2023-02-28T21:07:10-08:00*%
%TF.ProjectId,semiactive,73656d69-6163-4746-9976-652e6b696361,rev?*%
%TF.SameCoordinates,Original*%
%TF.FileFunction,Soldermask,Top*%
%TF.FilePolarity,Negative*%
%FSLAX46Y46*%
G04 Gerber Fmt 4.6, Leading zero omitted, Abs format (unit mm)*
G04 Created by KiCad (PCBNEW (7.0.0)) date 2023-02-28 21:07:10*
%MOMM*%
%LPD*%
G01*
G04 APERTURE LIST*
G04 Aperture macros list*
%AMRoundRect*
0 Rectangle with rounded corners*
0 $1 Rounding radius*
0 $2 $3 $4 $5 $6 $7 $8 $9 X,Y pos of 4 corners*
0 Add a 4 corners polygon primitive as box body*
4,1,4,$2,$3,$4,$5,$6,$7,$8,$9,$2,$3,0*
0 Add four circle primitives for the rounded corners*
1,1,$1+$1,$2,$3*
1,1,$1+$1,$4,$5*
1,1,$1+$1,$6,$7*
1,1,$1+$1,$8,$9*
0 Add four rect primitives between the rounded corners*
20,1,$1+$1,$2,$3,$4,$5,0*
20,1,$1+$1,$4,$5,$6,$7,0*
20,1,$1+$1,$6,$7,$8,$9,0*
20,1,$1+$1,$8,$9,$2,$3,0*%
G04 Aperture macros list end*
%ADD10C,0.010000*%
%ADD11RoundRect,0.225000X0.225000X0.250000X-0.225000X0.250000X-0.225000X-0.250000X0.225000X-0.250000X0*%
%ADD12C,1.500000*%
%ADD13C,2.100000*%
%ADD14R,1.243000X1.243000*%
%ADD15C,1.243000*%
%ADD16R,0.700000X1.200000*%
%ADD17R,0.450000X1.200000*%
%ADD18R,1.600000X1.600000*%
%ADD19C,1.600000*%
%ADD20R,1.500000X0.900000*%
%ADD21RoundRect,0.250000X0.650000X-1.000000X0.650000X1.000000X-0.650000X1.000000X-0.650000X-1.000000X0*%
G04 APERTURE END LIST*
%TO.C,D3*%
G36*
X167749800Y-43274400D02*
G01*
X167099800Y-43274400D01*
X167099800Y-43024400D01*
X166649800Y-43024400D01*
X166649800Y-42374400D01*
X167099800Y-42374400D01*
X167099800Y-41974400D01*
X167749800Y-41974400D01*
X167749800Y-43274400D01*
G37*
D10*
X167749800Y-43274400D02*
X167099800Y-43274400D01*
X167099800Y-43024400D01*
X166649800Y-43024400D01*
X166649800Y-42374400D01*
X167099800Y-42374400D01*
X167099800Y-41974400D01*
X167749800Y-41974400D01*
X167749800Y-43274400D01*
G36*
X170899800Y-42374400D02*
G01*
X171349800Y-42374400D01*
X171349800Y-43024400D01*
X170899800Y-43024400D01*
X170899800Y-43274400D01*
X170249800Y-43274400D01*
X170249800Y-41974400D01*
X170899800Y-41974400D01*
X170899800Y-42374400D01*
G37*
X170899800Y-42374400D02*
X171349800Y-42374400D01*
X171349800Y-43024400D01*
X170899800Y-43024400D01*
X170899800Y-43274400D01*
X170249800Y-43274400D01*
X170249800Y-41974400D01*
X170899800Y-41974400D01*
X170899800Y-42374400D01*
%TO.C,D1*%
G36*
X188006800Y-43274400D02*
G01*
X187356800Y-43274400D01*
X187356800Y-43024400D01*
X186906800Y-43024400D01*
X186906800Y-42374400D01*
X187356800Y-42374400D01*
X187356800Y-41974400D01*
X188006800Y-41974400D01*
X188006800Y-43274400D01*
G37*
X188006800Y-43274400D02*
X187356800Y-43274400D01*
X187356800Y-43024400D01*
X186906800Y-43024400D01*
X186906800Y-42374400D01*
X187356800Y-42374400D01*
X187356800Y-41974400D01*
X188006800Y-41974400D01*
X188006800Y-43274400D01*
G36*
X191156800Y-42374400D02*
G01*
X191606800Y-42374400D01*
X191606800Y-43024400D01*
X191156800Y-43024400D01*
X191156800Y-43274400D01*
X190506800Y-43274400D01*
X190506800Y-41974400D01*
X191156800Y-41974400D01*
X191156800Y-42374400D01*
G37*
X191156800Y-42374400D02*
X191606800Y-42374400D01*
X191606800Y-43024400D01*
X191156800Y-43024400D01*
X191156800Y-43274400D01*
X190506800Y-43274400D01*
X190506800Y-41974400D01*
X191156800Y-41974400D01*
X191156800Y-42374400D01*
%TO.C,D2*%
G36*
X177878300Y-43274400D02*
G01*
X177228300Y-43274400D01*
X177228300Y-43024400D01*
X176778300Y-43024400D01*
X176778300Y-42374400D01*
X177228300Y-42374400D01*
X177228300Y-41974400D01*
X177878300Y-41974400D01*
X177878300Y-43274400D01*
G37*
X177878300Y-43274400D02*
X177228300Y-43274400D01*
X177228300Y-43024400D01*
X176778300Y-43024400D01*
X176778300Y-42374400D01*
X177228300Y-42374400D01*
X177228300Y-41974400D01*
X177878300Y-41974400D01*
X177878300Y-43274400D01*
G36*
X181028300Y-42374400D02*
G01*
X181478300Y-42374400D01*
X181478300Y-43024400D01*
X181028300Y-43024400D01*
X181028300Y-43274400D01*
X180378300Y-43274400D01*
X180378300Y-41974400D01*
X181028300Y-41974400D01*
X181028300Y-42374400D01*
G37*
X181028300Y-42374400D02*
X181478300Y-42374400D01*
X181478300Y-43024400D01*
X181028300Y-43024400D01*
X181028300Y-43274400D01*
X180378300Y-43274400D01*
X180378300Y-41974400D01*
X181028300Y-41974400D01*
X181028300Y-42374400D01*
%TD*%
D11*
%TO.C,C1*%
X169050000Y-45720000D03*
X167500000Y-45720000D03*
%TD*%
D12*
%TO.C,J1*%
X166451000Y-123189000D03*
D13*
X170451000Y-123189000D03*
D12*
X174451000Y-123189000D03*
X178451000Y-123189000D03*
D13*
X182451000Y-123189000D03*
D12*
X186451000Y-123189000D03*
D14*
X187450999Y-111188999D03*
D15*
X185451000Y-111189000D03*
X183451000Y-111189000D03*
X181451000Y-111189000D03*
X179451000Y-111189000D03*
X177451000Y-111189000D03*
X175451000Y-111189000D03*
X173451000Y-111189000D03*
X171451000Y-111189000D03*
X169451000Y-111189000D03*
X167451000Y-111189000D03*
X165451000Y-111189000D03*
X187451000Y-113189000D03*
X185451000Y-113189000D03*
X183451000Y-113189000D03*
X181451000Y-113189000D03*
X179451000Y-113189000D03*
X177451000Y-113189000D03*
X175451000Y-113189000D03*
X173451000Y-113189000D03*
X171451000Y-113189000D03*
X169451000Y-113189000D03*
X167451000Y-113189000D03*
X165451000Y-113189000D03*
X187451000Y-115189000D03*
X185451000Y-115189000D03*
X183451000Y-115189000D03*
X181451000Y-115189000D03*
X179451000Y-115189000D03*
X177451000Y-115189000D03*
X175451000Y-115189000D03*
X173451000Y-115189000D03*
X171451000Y-115189000D03*
X169451000Y-115189000D03*
X167451000Y-115189000D03*
X165451000Y-115189000D03*
X187451000Y-117189000D03*
X185451000Y-117189000D03*
X183451000Y-117189000D03*
X181451000Y-117189000D03*
X179451000Y-117189000D03*
X177451000Y-117189000D03*
X175451000Y-117189000D03*
X173451000Y-117189000D03*
X171451000Y-117189000D03*
X169451000Y-117189000D03*
X167451000Y-117189000D03*
X165451000Y-117189000D03*
X187451000Y-119189000D03*
X185451000Y-119189000D03*
X183451000Y-119189000D03*
X181451000Y-119189000D03*
X179451000Y-119189000D03*
X177451000Y-119189000D03*
X175451000Y-119189000D03*
X173451000Y-119189000D03*
X171451000Y-119189000D03*
X169451000Y-119189000D03*
X167451000Y-119189000D03*
X165451000Y-119189000D03*
%TD*%
D16*
%TO.C,D3*%
X169449799Y-42624399D03*
D17*
X168424799Y-42624399D03*
%TD*%
D16*
%TO.C,D1*%
X189706799Y-42624399D03*
D17*
X188681799Y-42624399D03*
%TD*%
D11*
%TO.C,C3*%
X189497000Y-45847000D03*
X187947000Y-45847000D03*
%TD*%
D18*
%TO.C,U1*%
X145795999Y-44449999D03*
D19*
X145796000Y-46990000D03*
X145796000Y-49530000D03*
X145796000Y-52070000D03*
X145796000Y-54610000D03*
X145796000Y-57150000D03*
X145796000Y-59690000D03*
X145796000Y-62230000D03*
X145796000Y-64770000D03*
X145796000Y-67310000D03*
X145796000Y-69850000D03*
X145796000Y-72390000D03*
X145796000Y-74930000D03*
X145796000Y-77470000D03*
X145796000Y-80010000D03*
X145796000Y-82550000D03*
X145796000Y-85090000D03*
X145796000Y-87630000D03*
X145796000Y-90170000D03*
X145796000Y-92710000D03*
X145796000Y-95250000D03*
X145796000Y-97790000D03*
X145796000Y-100330000D03*
X145796000Y-102870000D03*
X161036000Y-102870000D03*
X161036000Y-100330000D03*
X161036000Y-97790000D03*
X161036000Y-95250000D03*
X161036000Y-92710000D03*
X161036000Y-90170000D03*
X161036000Y-87630000D03*
X161036000Y-85090000D03*
X161036000Y-82550000D03*
X161036000Y-80010000D03*
X161036000Y-77470000D03*
X161036000Y-74930000D03*
X161036000Y-72390000D03*
X161036000Y-69850000D03*
X161036000Y-67310000D03*
X161036000Y-64770000D03*
X161036000Y-62230000D03*
X161036000Y-59690000D03*
X161036000Y-57150000D03*
X161036000Y-54610000D03*
X161036000Y-52070000D03*
X161036000Y-49530000D03*
X161036000Y-46990000D03*
X161036000Y-44450000D03*
%TD*%
D20*
%TO.C,D4*%
X191896999Y-54633999D03*
X191896999Y-51333999D03*
X186996999Y-51333999D03*
X186996999Y-54633999D03*
%TD*%
D11*
%TO.C,C2*%
X179337000Y-45720000D03*
X177787000Y-45720000D03*
%TD*%
D16*
%TO.C,D2*%
X179578299Y-42624399D03*
D17*
X178553299Y-42624399D03*
%TD*%
D20*
%TO.C,D6*%
X171105999Y-54633999D03*
X171105999Y-51333999D03*
X166205999Y-51333999D03*
X166205999Y-54633999D03*
%TD*%
%TO.C,D5*%
X181501499Y-54633999D03*
X181501499Y-51333999D03*
X176601499Y-51333999D03*
X176601499Y-54633999D03*
%TD*%
D21*
%TO.C,D7*%
X164465000Y-47974000D03*
X164465000Y-43974000D03*
%TD*%
M02*
