%TF.GenerationSoftware,KiCad,Pcbnew,(7.0.0)*%
%TF.CreationDate,2023-02-28T21:07:10-08:00*%
%TF.ProjectId,semiactive,73656d69-6163-4746-9976-652e6b696361,rev?*%
%TF.SameCoordinates,Original*%
%TF.FileFunction,Copper,L2,Bot*%
%TF.FilePolarity,Positive*%
%FSLAX46Y46*%
G04 Gerber Fmt 4.6, Leading zero omitted, Abs format (unit mm)*
G04 Created by KiCad (PCBNEW (7.0.0)) date 2023-02-28 21:07:10*
%MOMM*%
%LPD*%
G01*
G04 APERTURE LIST*
%TA.AperFunction,ComponentPad*%
%ADD10R,1.243000X1.243000*%
%TD*%
%TA.AperFunction,ComponentPad*%
%ADD11C,1.243000*%
%TD*%
%TA.AperFunction,ComponentPad*%
%ADD12R,1.600000X1.600000*%
%TD*%
%TA.AperFunction,ComponentPad*%
%ADD13C,1.600000*%
%TD*%
%TA.AperFunction,ViaPad*%
%ADD14C,0.600000*%
%TD*%
%TA.AperFunction,Conductor*%
%ADD15C,0.500000*%
%TD*%
%TA.AperFunction,Conductor*%
%ADD16C,0.250000*%
%TD*%
G04 APERTURE END LIST*
D10*
%TO.P,J1,A1,A1*%
%TO.N,PENC_CHA*%
X187450999Y-111188999D03*
D11*
%TO.P,J1,A2,A2*%
%TO.N,PENC_CHA{slash}*%
X185451000Y-111189000D03*
%TO.P,J1,A3,A3*%
%TO.N,PENc_CHB*%
X183451000Y-111189000D03*
%TO.P,J1,A4,A4*%
%TO.N,PENC_CHB{slash}*%
X181451000Y-111189000D03*
%TO.P,J1,A5,A5*%
%TO.N,SENC_CHA*%
X179451000Y-111189000D03*
%TO.P,J1,A6,A6*%
%TO.N,SENC_CHA{slash}*%
X177451000Y-111189000D03*
%TO.P,J1,A7,A7*%
%TO.N,SENC_CHB*%
X175451000Y-111189000D03*
%TO.P,J1,A8,A8*%
%TO.N,SENC_CHB{slash}*%
X173451000Y-111189000D03*
%TO.P,J1,A9,A9*%
%TO.N,PLOAD_CELL_CLK*%
X171451000Y-111189000D03*
%TO.P,J1,A10,A10*%
%TO.N,PLOAD_CELL_DATA*%
X169451000Y-111189000D03*
%TO.P,J1,A11,A11*%
%TO.N,SLOAD_CELL_CLK*%
X167451000Y-111189000D03*
%TO.P,J1,A12,A12*%
%TO.N,SLOAD_CELL_DATA*%
X165451000Y-111189000D03*
%TO.P,J1,B1,B1*%
%TO.N,unconnected-(J1-PadB1)*%
X187451000Y-113189000D03*
%TO.P,J1,B2,B2*%
%TO.N,ENG_HALL2_IN*%
X185451000Y-113189000D03*
%TO.P,J1,B3,B3*%
%TO.N,unconnected-(J1-PadB3)*%
X183451000Y-113189000D03*
%TO.P,J1,B4,B4*%
%TO.N,unconnected-(J1-PadB4)*%
X181451000Y-113189000D03*
%TO.P,J1,B5,B5*%
%TO.N,unconnected-(J1-PadB5)*%
X179451000Y-113189000D03*
%TO.P,J1,B6,B6*%
%TO.N,unconnected-(J1-PadB6)*%
X177451000Y-113189000D03*
%TO.P,J1,B7,B7*%
%TO.N,PWM1*%
X175451000Y-113189000D03*
%TO.P,J1,B8,B8*%
%TO.N,PWM2*%
X173451000Y-113189000D03*
%TO.P,J1,B9,B9*%
%TO.N,DIRECTION1*%
X171451000Y-113189000D03*
%TO.P,J1,B10,B10*%
%TO.N,DIRECTION2*%
X169451000Y-113189000D03*
%TO.P,J1,B11,B11*%
%TO.N,FBREAK_PRESSURE_IN*%
X167451000Y-113189000D03*
%TO.P,J1,B12,B12*%
%TO.N,RBREAK_PRESSURE_IN*%
X165451000Y-113189000D03*
%TO.P,J1,C1,C1*%
%TO.N,REAR_HALL_IN*%
X187451000Y-115189000D03*
%TO.P,J1,C2,C2*%
%TO.N,ENG_HALL1_IN*%
X185451000Y-115189000D03*
%TO.P,J1,C3,C3*%
%TO.N,SPK_PLUG*%
X183451000Y-115189000D03*
%TO.P,J1,C4,C4*%
%TO.N,THERM_SENS1*%
X181451000Y-115189000D03*
%TO.P,J1,C5,C5*%
%TO.N,THERM_SENS2*%
X179451000Y-115189000D03*
%TO.P,J1,C6,C6*%
%TO.N,THERM_SENS3*%
X177451000Y-115189000D03*
%TO.P,J1,C7,C7*%
%TO.N,THERM_SENS4*%
X175451000Y-115189000D03*
%TO.P,J1,C8,C8*%
%TO.N,36V_SENS*%
X173451000Y-115189000D03*
%TO.P,J1,C9,C9*%
%TO.N,SOLENOID_PWM_1*%
X171451000Y-115189000D03*
%TO.P,J1,C10,C10*%
%TO.N,SOLENOID_PWM_2*%
X169451000Y-115189000D03*
%TO.P,J1,C11,C11*%
%TO.N,unconnected-(J1-PadC11)*%
X167451000Y-115189000D03*
%TO.P,J1,C12,C12*%
%TO.N,IR_SENS_TNC*%
X165451000Y-115189000D03*
%TO.P,J1,D1,D1*%
%TO.N,SDA*%
X187451000Y-117189000D03*
%TO.P,J1,D2,D2*%
%TO.N,SCL*%
X185451000Y-117189000D03*
%TO.P,J1,D3,D3*%
%TO.N,CVT_TX_DAQ_RX*%
X183451000Y-117189000D03*
%TO.P,J1,D4,D4*%
%TO.N,CVT_RX_DAQ_TX*%
X181451000Y-117189000D03*
%TO.P,J1,D5,D5*%
%TO.N,CIPO*%
X179451000Y-117189000D03*
%TO.P,J1,D6,D6*%
%TO.N,COPI*%
X177451000Y-117189000D03*
%TO.P,J1,D7,D7*%
%TO.N,SPI_CLK*%
X175451000Y-117189000D03*
%TO.P,J1,D8,D8*%
%TO.N,CANH*%
X173451000Y-117189000D03*
%TO.P,J1,D9,D9*%
%TO.N,CANL*%
X171451000Y-117189000D03*
%TO.P,J1,D10,D10*%
%TO.N,RPOT1*%
X169451000Y-117189000D03*
%TO.P,J1,D11,D11*%
%TO.N,RPOT2*%
X167451000Y-117189000D03*
%TO.P,J1,D12,D12*%
%TO.N,DIG_OUT*%
X165451000Y-117189000D03*
%TO.P,J1,E1,E1*%
%TO.N,unconnected-(J1-PadE1)*%
X187451000Y-119189000D03*
%TO.P,J1,E2,E2*%
%TO.N,unconnected-(J1-PadE2)*%
X185451000Y-119189000D03*
%TO.P,J1,E3,E3*%
%TO.N,unconnected-(J1-PadE3)*%
X183451000Y-119189000D03*
%TO.P,J1,E4,E4*%
%TO.N,5V*%
X181451000Y-119189000D03*
%TO.P,J1,E5,E5*%
X179451000Y-119189000D03*
%TO.P,J1,E6,E6*%
X177451000Y-119189000D03*
%TO.P,J1,E7,E7*%
%TO.N,+3V3*%
X175451000Y-119189000D03*
%TO.P,J1,E8,E8*%
X173451000Y-119189000D03*
%TO.P,J1,E9,E9*%
X171451000Y-119189000D03*
%TO.P,J1,E10,E10*%
%TO.N,GND*%
X169451000Y-119189000D03*
%TO.P,J1,E11,E11*%
X167451000Y-119189000D03*
%TO.P,J1,E12,E12*%
X165451000Y-119189000D03*
%TD*%
D12*
%TO.P,U1,1,GND*%
%TO.N,GND*%
X145795999Y-44449999D03*
D13*
%TO.P,U1,2,0_RX1_CRX2_CS1*%
%TO.N,unconnected-(U1-0_RX1_CRX2_CS1-Pad2)*%
X145796000Y-46990000D03*
%TO.P,U1,3,1_TX1_CTX2_MISO1*%
%TO.N,unconnected-(U1-1_TX1_CTX2_MISO1-Pad3)*%
X145796000Y-49530000D03*
%TO.P,U1,4,2_OUT2*%
%TO.N,unconnected-(U1-2_OUT2-Pad4)*%
X145796000Y-52070000D03*
%TO.P,U1,5,3_LRCLK2*%
%TO.N,SOLENOID_PWM_1*%
X145796000Y-54610000D03*
%TO.P,U1,6,4_BCLK2*%
%TO.N,SOLENOID_PWM_2*%
X145796000Y-57150000D03*
%TO.P,U1,7,5_IN2*%
%TO.N,ARGBLED*%
X145796000Y-59690000D03*
%TO.P,U1,8,6_OUT1D*%
%TO.N,unconnected-(U1-6_OUT1D-Pad8)*%
X145796000Y-62230000D03*
%TO.P,U1,9,7_RX2_OUT1A*%
%TO.N,CVT_TX_DAQ_RX*%
X145796000Y-64770000D03*
%TO.P,U1,10,8_TX2_IN1*%
%TO.N,CVT_RX_DAQ_TX*%
X145796000Y-67310000D03*
%TO.P,U1,11,9_OUT1C*%
%TO.N,unconnected-(U1-9_OUT1C-Pad11)*%
X145796000Y-69850000D03*
%TO.P,U1,12,10_CS_MQSR*%
%TO.N,unconnected-(U1-10_CS_MQSR-Pad12)*%
X145796000Y-72390000D03*
%TO.P,U1,13,11_MOSI_CTX1*%
%TO.N,unconnected-(U1-11_MOSI_CTX1-Pad13)*%
X145796000Y-74930000D03*
%TO.P,U1,14,12_MISO_MQSL*%
%TO.N,unconnected-(U1-12_MISO_MQSL-Pad14)*%
X145796000Y-77470000D03*
%TO.P,U1,15,3V3*%
%TO.N,unconnected-(U1-3V3-Pad15)*%
X145796000Y-80010000D03*
%TO.P,U1,16,24_A10_TX6_SCL2*%
%TO.N,unconnected-(U1-24_A10_TX6_SCL2-Pad16)*%
X145796000Y-82550000D03*
%TO.P,U1,17,25_A11_RX6_SDA2*%
%TO.N,unconnected-(U1-25_A11_RX6_SDA2-Pad17)*%
X145796000Y-85090000D03*
%TO.P,U1,18,26_A12_MOSI1*%
%TO.N,unconnected-(U1-26_A12_MOSI1-Pad18)*%
X145796000Y-87630000D03*
%TO.P,U1,19,27_A13_SCK1*%
%TO.N,unconnected-(U1-27_A13_SCK1-Pad19)*%
X145796000Y-90170000D03*
%TO.P,U1,20,28_RX7*%
%TO.N,unconnected-(U1-28_RX7-Pad20)*%
X145796000Y-92710000D03*
%TO.P,U1,21,29_TX7*%
%TO.N,unconnected-(U1-29_TX7-Pad21)*%
X145796000Y-95250000D03*
%TO.P,U1,22,30_CRX3*%
%TO.N,unconnected-(U1-30_CRX3-Pad22)*%
X145796000Y-97790000D03*
%TO.P,U1,23,31_CTX3*%
%TO.N,unconnected-(U1-31_CTX3-Pad23)*%
X145796000Y-100330000D03*
%TO.P,U1,24,32_OUT1B*%
%TO.N,unconnected-(U1-32_OUT1B-Pad24)*%
X145796000Y-102870000D03*
%TO.P,U1,25,33_MCLK2*%
%TO.N,unconnected-(U1-33_MCLK2-Pad25)*%
X161036000Y-102870000D03*
%TO.P,U1,26,34_RX8*%
%TO.N,unconnected-(U1-34_RX8-Pad26)*%
X161036000Y-100330000D03*
%TO.P,U1,27,35_TX8*%
%TO.N,unconnected-(U1-35_TX8-Pad27)*%
X161036000Y-97790000D03*
%TO.P,U1,28,36_CS*%
%TO.N,unconnected-(U1-36_CS-Pad28)*%
X161036000Y-95250000D03*
%TO.P,U1,29,37_CS*%
%TO.N,unconnected-(U1-37_CS-Pad29)*%
X161036000Y-92710000D03*
%TO.P,U1,30,38_CS1_IN1*%
%TO.N,unconnected-(U1-38_CS1_IN1-Pad30)*%
X161036000Y-90170000D03*
%TO.P,U1,31,39_MISO1_OUT1A*%
%TO.N,unconnected-(U1-39_MISO1_OUT1A-Pad31)*%
X161036000Y-87630000D03*
%TO.P,U1,32,40_A16*%
%TO.N,unconnected-(U1-40_A16-Pad32)*%
X161036000Y-85090000D03*
%TO.P,U1,33,41_A17*%
%TO.N,unconnected-(U1-41_A17-Pad33)*%
X161036000Y-82550000D03*
%TO.P,U1,34,GND*%
%TO.N,GND*%
X161036000Y-80010000D03*
%TO.P,U1,35,13_SCK_LED*%
%TO.N,unconnected-(U1-13_SCK_LED-Pad35)*%
X161036000Y-77470000D03*
%TO.P,U1,36,14_A0_TX3_SPDIF_OUT*%
%TO.N,unconnected-(U1-14_A0_TX3_SPDIF_OUT-Pad36)*%
X161036000Y-74930000D03*
%TO.P,U1,37,15_A1_RX3_SPDIF_IN*%
%TO.N,unconnected-(U1-15_A1_RX3_SPDIF_IN-Pad37)*%
X161036000Y-72390000D03*
%TO.P,U1,38,16_A2_RX4_SCL1*%
%TO.N,unconnected-(U1-16_A2_RX4_SCL1-Pad38)*%
X161036000Y-69850000D03*
%TO.P,U1,39,17_A3_TX4_SDA1*%
%TO.N,unconnected-(U1-17_A3_TX4_SDA1-Pad39)*%
X161036000Y-67310000D03*
%TO.P,U1,40,18_A4_SDA*%
%TO.N,unconnected-(U1-18_A4_SDA-Pad40)*%
X161036000Y-64770000D03*
%TO.P,U1,41,19_A5_SCL*%
%TO.N,unconnected-(U1-19_A5_SCL-Pad41)*%
X161036000Y-62230000D03*
%TO.P,U1,42,20_A6_TX5_LRCLK1*%
%TO.N,unconnected-(U1-20_A6_TX5_LRCLK1-Pad42)*%
X161036000Y-59690000D03*
%TO.P,U1,43,21_A7_RX5_BCLK1*%
%TO.N,unconnected-(U1-21_A7_RX5_BCLK1-Pad43)*%
X161036000Y-57150000D03*
%TO.P,U1,44,22_A8_CTX1*%
%TO.N,unconnected-(U1-22_A8_CTX1-Pad44)*%
X161036000Y-54610000D03*
%TO.P,U1,45,23_A9_CRX1_MCLK1*%
%TO.N,unconnected-(U1-23_A9_CRX1_MCLK1-Pad45)*%
X161036000Y-52070000D03*
%TO.P,U1,46,3V3*%
%TO.N,unconnected-(U1-3V3-Pad46)*%
X161036000Y-49530000D03*
%TO.P,U1,47,GND*%
%TO.N,GND*%
X161036000Y-46990000D03*
%TO.P,U1,48,VIN*%
%TO.N,Net-(D7-A)*%
X161036000Y-44450000D03*
%TD*%
D14*
%TO.N,5V*%
X162560000Y-113030000D03*
X162559999Y-116840000D03*
X157734000Y-49784000D03*
%TO.N,GND*%
X137372000Y-80734000D03*
X155172000Y-60334000D03*
X157172000Y-89934000D03*
X156172000Y-64934000D03*
X141572000Y-104334000D03*
X190972000Y-67734000D03*
X143256000Y-115570000D03*
X183372000Y-82534000D03*
X175672000Y-46284000D03*
X147772000Y-123734000D03*
X162422000Y-42334000D03*
X141224000Y-90678000D03*
X184772000Y-70134000D03*
X177172000Y-58934000D03*
X174372000Y-121145500D03*
X132772000Y-72934000D03*
X183372000Y-101934000D03*
X126172000Y-106934000D03*
X164372000Y-124934000D03*
X170972000Y-106534000D03*
X125772000Y-96134000D03*
X150572000Y-119934000D03*
X135572000Y-92134000D03*
X151572000Y-48734000D03*
X156842023Y-44404023D03*
X148972000Y-73534000D03*
X171572000Y-90534000D03*
X157172000Y-79934000D03*
X195972000Y-52734000D03*
X120572000Y-103934000D03*
X163195000Y-53086000D03*
X180594000Y-47117000D03*
X158172000Y-102334000D03*
X163772000Y-75334000D03*
X170772000Y-125134000D03*
X127372000Y-86734000D03*
X195172000Y-110534000D03*
X194772000Y-107334000D03*
X156210000Y-50165000D03*
X138972000Y-104934000D03*
X157372000Y-76534000D03*
X182372000Y-41734000D03*
X196572000Y-44334000D03*
X193675000Y-50673000D03*
X178572000Y-56934000D03*
X139372000Y-45734000D03*
X151172000Y-52334000D03*
X121372000Y-86934000D03*
X123572000Y-105534000D03*
X182546038Y-43248900D03*
X180172000Y-76934000D03*
X189572000Y-81334000D03*
X152972000Y-56534000D03*
X196572000Y-103334000D03*
X171772000Y-100734000D03*
X161772000Y-121534000D03*
X158172000Y-97734000D03*
X124572000Y-74934000D03*
X122572000Y-94334000D03*
X193972000Y-118534000D03*
X130048000Y-80518000D03*
X137372000Y-114934000D03*
X169772000Y-121145500D03*
X191972000Y-96334000D03*
X155702000Y-116332000D03*
X157772000Y-94334000D03*
X182499000Y-49784000D03*
X164572000Y-67334000D03*
X136172000Y-95134000D03*
X187972000Y-105134000D03*
X128172000Y-46334000D03*
X148972000Y-62334000D03*
X169572000Y-94534000D03*
X168660615Y-54236692D03*
X161772000Y-110534000D03*
X142572000Y-109334000D03*
X174117000Y-50292000D03*
X195972000Y-119534000D03*
X157772000Y-71734000D03*
X192572000Y-57534000D03*
X173972000Y-87934000D03*
X120972000Y-51134000D03*
X157972000Y-61334000D03*
X141772000Y-54534000D03*
X155222816Y-46312237D03*
X151772000Y-54534000D03*
X148972000Y-115534000D03*
X157572000Y-121734000D03*
X191172000Y-113334000D03*
X147172000Y-109534000D03*
X184985322Y-55359500D03*
X129572000Y-66534000D03*
X187572000Y-42684000D03*
X156172000Y-62534000D03*
X153701454Y-115132546D03*
X173972000Y-55734000D03*
X177772000Y-86134000D03*
X191972000Y-79734000D03*
X174242023Y-107463977D03*
X192972000Y-87934000D03*
X168572000Y-105134000D03*
X158972000Y-59534000D03*
X142572000Y-122134000D03*
X167322000Y-42684000D03*
X119972000Y-117334000D03*
X178972000Y-90934000D03*
X177772000Y-109534000D03*
X161972000Y-123934000D03*
X185072000Y-46334000D03*
X158369000Y-46355000D03*
X137414000Y-109220000D03*
X192572000Y-122734000D03*
X168172000Y-95534000D03*
X192572000Y-92734000D03*
X162772000Y-106334000D03*
X165772000Y-121145500D03*
X175172000Y-124934000D03*
X148372000Y-50734000D03*
X185972000Y-56934000D03*
X177472000Y-42684000D03*
X149372000Y-94134000D03*
X169572000Y-76734000D03*
X158572000Y-55134000D03*
X196172000Y-115134000D03*
X195772000Y-58334000D03*
X149172000Y-45934000D03*
X121972000Y-77534000D03*
X186555511Y-46017511D03*
X173213589Y-43248900D03*
X149372000Y-97934000D03*
X185772000Y-121134000D03*
X169172000Y-86334000D03*
X171972000Y-84134000D03*
X175972000Y-64534000D03*
X173572000Y-107534000D03*
X121412000Y-110744000D03*
X186172000Y-96334000D03*
X170199300Y-46284000D03*
X127972000Y-53334000D03*
X118372000Y-70934000D03*
X194972000Y-65934000D03*
X163449000Y-57785000D03*
X166972000Y-88534000D03*
X153730411Y-48692411D03*
X130372000Y-121934000D03*
X155172000Y-124334000D03*
X148372000Y-67134000D03*
X157372000Y-86334000D03*
X187572000Y-75534000D03*
X183515000Y-52959000D03*
X179372000Y-120734000D03*
X158372000Y-67534000D03*
X165372000Y-81534000D03*
X130172000Y-114334000D03*
X164592000Y-50165000D03*
X169972000Y-59734000D03*
X150172000Y-64934000D03*
X158172000Y-63734000D03*
X131826000Y-106680000D03*
X149172000Y-100934000D03*
X189772000Y-101334000D03*
X136144000Y-61976000D03*
X157372000Y-106334000D03*
X164972000Y-100734000D03*
X179972000Y-64134000D03*
X124372000Y-72934000D03*
X163322000Y-50038000D03*
X196172000Y-48734000D03*
X194172000Y-71534000D03*
X172172000Y-81734000D03*
X148772000Y-70134000D03*
X175372000Y-92534000D03*
X171450000Y-47244000D03*
X196172000Y-78934000D03*
X155772000Y-119334000D03*
X172172000Y-68734000D03*
X165972000Y-94134000D03*
X180372000Y-125334000D03*
X167862927Y-52311119D03*
X174372000Y-94534000D03*
X194172000Y-97534000D03*
X149572000Y-87134000D03*
X159501977Y-52663977D03*
X130972000Y-59134000D03*
X149172000Y-90534000D03*
X198772000Y-86534000D03*
X149372000Y-82334000D03*
X195572000Y-124334000D03*
X124172000Y-60134000D03*
X148972000Y-60439500D03*
X159922000Y-42184000D03*
X140462000Y-68072000D03*
X185547000Y-49784000D03*
X167372000Y-70734000D03*
X149372000Y-78134000D03*
X176572000Y-52369345D03*
X148172000Y-64534000D03*
X185772000Y-125534000D03*
X187972000Y-60534000D03*
X181052074Y-52844500D03*
X165972000Y-62734000D03*
X173172000Y-41934000D03*
X188781757Y-53389288D03*
X184872000Y-43484000D03*
X124172000Y-62334000D03*
X170942000Y-62230000D03*
X183172000Y-94334000D03*
X183172000Y-109134000D03*
X136372000Y-52534000D03*
X177673000Y-46990000D03*
%TO.N,Net-(D4-DOUT)*%
X191897000Y-51334000D03*
X177038000Y-54610000D03*
%TO.N,Net-(D5-DOUT)*%
X181501500Y-51334000D03*
X166624000Y-54610000D03*
%TO.N,ARGBLED*%
X159258000Y-49530000D03*
X184912000Y-52578000D03*
X190831800Y-42624400D03*
%TD*%
D15*
%TO.N,5V*%
X177451000Y-119189000D02*
X176244000Y-120396000D01*
X164592000Y-120396000D02*
X162559999Y-118363999D01*
X176244000Y-120396000D02*
X164592000Y-120396000D01*
X157734000Y-49784000D02*
X154178000Y-53340000D01*
X154178000Y-109220000D02*
X157988000Y-113030000D01*
X162559999Y-118363999D02*
X162559999Y-116840000D01*
X154178000Y-53340000D02*
X154178000Y-109220000D01*
X157988000Y-113030000D02*
X162560000Y-113030000D01*
%TO.N,Net-(D4-DOUT)*%
X177038000Y-54610000D02*
X188621000Y-54610000D01*
X188621000Y-54610000D02*
X191897000Y-51334000D01*
%TO.N,Net-(D5-DOUT)*%
X169900000Y-51334000D02*
X181501500Y-51334000D01*
X166624000Y-54610000D02*
X169900000Y-51334000D01*
%TO.N,ARGBLED*%
X184257000Y-48260000D02*
X160528000Y-48260000D01*
X184297000Y-48260000D02*
X187846000Y-48260000D01*
X184277000Y-48280000D02*
X184257000Y-48260000D01*
X160528000Y-48260000D02*
X159258000Y-49530000D01*
X187846000Y-48260000D02*
X190831800Y-45274200D01*
X184277000Y-48280000D02*
X184297000Y-48260000D01*
X190831800Y-45274200D02*
X190831800Y-42624400D01*
X184277000Y-48280000D02*
X184277000Y-51943000D01*
X184277000Y-51943000D02*
X184912000Y-52578000D01*
%TO.N,SOLENOID_PWM_1*%
X148464396Y-54610000D02*
X145796000Y-54610000D01*
D16*
X164268500Y-114242500D02*
X164211000Y-114300000D01*
X171451000Y-115189000D02*
X170504500Y-114242500D01*
D15*
X152908000Y-109728000D02*
X152908000Y-59053604D01*
X152908000Y-59053604D02*
X148464396Y-54610000D01*
D16*
X170504500Y-114242500D02*
X164268500Y-114242500D01*
D15*
X157480000Y-114300000D02*
X152908000Y-109728000D01*
X164211000Y-114300000D02*
X157480000Y-114300000D01*
%TO.N,SOLENOID_PWM_2*%
X156972000Y-115570000D02*
X163605500Y-115570000D01*
D16*
X168503500Y-116136500D02*
X164172000Y-116136500D01*
D15*
X163605500Y-115570000D02*
X164172000Y-116136500D01*
X145796000Y-57150000D02*
X149098000Y-57150000D01*
X149098000Y-57150000D02*
X151638000Y-59690000D01*
D16*
X169451000Y-115189000D02*
X168503500Y-116136500D01*
D15*
X151638000Y-110236000D02*
X156972000Y-115570000D01*
X151638000Y-59690000D02*
X151638000Y-110236000D01*
%TD*%
%TA.AperFunction,Conductor*%
%TO.N,GND*%
G36*
X163332145Y-116229939D02*
G01*
X163372373Y-116256819D01*
X163740965Y-116625411D01*
X163838236Y-116700862D01*
X163989074Y-116766135D01*
X164151405Y-116791847D01*
X164315029Y-116776379D01*
X164317605Y-116775451D01*
X164379005Y-116777949D01*
X164433089Y-116812007D01*
X164463027Y-116868477D01*
X164460864Y-116932356D01*
X164451000Y-116964875D01*
X164443787Y-116988653D01*
X164443190Y-116994709D01*
X164443189Y-116994717D01*
X164424652Y-117182938D01*
X164424055Y-117189000D01*
X164424652Y-117195062D01*
X164443189Y-117383282D01*
X164443190Y-117383288D01*
X164443787Y-117389347D01*
X164445554Y-117395173D01*
X164445556Y-117395181D01*
X164500457Y-117576162D01*
X164500459Y-117576166D01*
X164502227Y-117581995D01*
X164597126Y-117759540D01*
X164724840Y-117915160D01*
X164729545Y-117919021D01*
X164729546Y-117919022D01*
X164871655Y-118035648D01*
X164906781Y-118082231D01*
X164916717Y-118139721D01*
X164899263Y-118195392D01*
X164874844Y-118220135D01*
X164876590Y-118221901D01*
X164858681Y-118239603D01*
X164864611Y-118249058D01*
X165439457Y-118823904D01*
X165451000Y-118830568D01*
X165462542Y-118823904D01*
X166037387Y-118249058D01*
X166043317Y-118239603D01*
X166025409Y-118221901D01*
X166027154Y-118220135D01*
X166002736Y-118195392D01*
X165985282Y-118139721D01*
X165995218Y-118082231D01*
X166030343Y-118035649D01*
X166177160Y-117915160D01*
X166304874Y-117759540D01*
X166341643Y-117690748D01*
X166387251Y-117642846D01*
X166451000Y-117625204D01*
X166514749Y-117642846D01*
X166560356Y-117690748D01*
X166597126Y-117759540D01*
X166724840Y-117915160D01*
X166729545Y-117919021D01*
X166729546Y-117919022D01*
X166871655Y-118035648D01*
X166906781Y-118082231D01*
X166916717Y-118139721D01*
X166899263Y-118195392D01*
X166874844Y-118220135D01*
X166876590Y-118221901D01*
X166858681Y-118239603D01*
X166864611Y-118249058D01*
X167439457Y-118823904D01*
X167451000Y-118830568D01*
X167462542Y-118823904D01*
X168037387Y-118249058D01*
X168043317Y-118239603D01*
X168025409Y-118221901D01*
X168027154Y-118220135D01*
X168002736Y-118195392D01*
X167985282Y-118139721D01*
X167995218Y-118082231D01*
X168030343Y-118035649D01*
X168177160Y-117915160D01*
X168304874Y-117759540D01*
X168341643Y-117690748D01*
X168387251Y-117642846D01*
X168451000Y-117625204D01*
X168514749Y-117642846D01*
X168560356Y-117690748D01*
X168597126Y-117759540D01*
X168724840Y-117915160D01*
X168729545Y-117919021D01*
X168729546Y-117919022D01*
X168871655Y-118035648D01*
X168906781Y-118082231D01*
X168916717Y-118139721D01*
X168899263Y-118195392D01*
X168874844Y-118220135D01*
X168876590Y-118221901D01*
X168858681Y-118239603D01*
X168864611Y-118249058D01*
X169439457Y-118823904D01*
X169451000Y-118830568D01*
X169462542Y-118823904D01*
X170037387Y-118249058D01*
X170043317Y-118239603D01*
X170025409Y-118221901D01*
X170027154Y-118220135D01*
X170002736Y-118195392D01*
X169985282Y-118139721D01*
X169995218Y-118082231D01*
X170030343Y-118035649D01*
X170177160Y-117915160D01*
X170304874Y-117759540D01*
X170341643Y-117690748D01*
X170387251Y-117642846D01*
X170451000Y-117625204D01*
X170514749Y-117642846D01*
X170560356Y-117690748D01*
X170597126Y-117759540D01*
X170724840Y-117915160D01*
X170880460Y-118042874D01*
X170885832Y-118045745D01*
X170885836Y-118045748D01*
X170949248Y-118079642D01*
X170997153Y-118125251D01*
X171014795Y-118189000D01*
X170997153Y-118252749D01*
X170949248Y-118298358D01*
X170885836Y-118332251D01*
X170885824Y-118332258D01*
X170880460Y-118335126D01*
X170875752Y-118338989D01*
X170875747Y-118338993D01*
X170729546Y-118458977D01*
X170729541Y-118458981D01*
X170724840Y-118462840D01*
X170720981Y-118467541D01*
X170720977Y-118467546D01*
X170607218Y-118606162D01*
X170560631Y-118641290D01*
X170503136Y-118651224D01*
X170447463Y-118633763D01*
X170425481Y-118612065D01*
X170403404Y-118595658D01*
X170391241Y-118602310D01*
X169538680Y-119454871D01*
X169483093Y-119486965D01*
X169418905Y-119486965D01*
X169363318Y-119454871D01*
X168510759Y-118602312D01*
X168497069Y-118594825D01*
X168481181Y-118595929D01*
X168477209Y-118597732D01*
X168424770Y-118597729D01*
X168420798Y-118595925D01*
X168404929Y-118594823D01*
X168391241Y-118602310D01*
X167538680Y-119454871D01*
X167483093Y-119486965D01*
X167418905Y-119486965D01*
X167363318Y-119454871D01*
X166510759Y-118602312D01*
X166497069Y-118594825D01*
X166481181Y-118595929D01*
X166477209Y-118597732D01*
X166424770Y-118597729D01*
X166420798Y-118595925D01*
X166404929Y-118594823D01*
X166391241Y-118602310D01*
X165538680Y-119454871D01*
X165483093Y-119486965D01*
X165418905Y-119486965D01*
X165363318Y-119454871D01*
X164510759Y-118602312D01*
X164498594Y-118595659D01*
X164490671Y-118601548D01*
X164403310Y-118776994D01*
X164399181Y-118787650D01*
X164347152Y-118970513D01*
X164314548Y-119025266D01*
X164259056Y-119056596D01*
X164195331Y-119056228D01*
X164140205Y-119024259D01*
X163246818Y-118130872D01*
X163219938Y-118090644D01*
X163210499Y-118043191D01*
X163210499Y-117122935D01*
X163218557Y-117078965D01*
X163242477Y-117015891D01*
X163242476Y-117015891D01*
X163245139Y-117008872D01*
X163265644Y-116840000D01*
X163245139Y-116671128D01*
X163184817Y-116512070D01*
X163117773Y-116414940D01*
X163096049Y-116351987D01*
X163110026Y-116286874D01*
X163155673Y-116238383D01*
X163219823Y-116220500D01*
X163284692Y-116220500D01*
X163332145Y-116229939D01*
G37*
%TD.AperFunction*%
%TA.AperFunction,Conductor*%
G36*
X199581500Y-41255113D02*
G01*
X199626887Y-41300500D01*
X199643500Y-41362500D01*
X199643500Y-126113500D01*
X199626887Y-126175500D01*
X199581500Y-126220887D01*
X199519500Y-126237500D01*
X114768500Y-126237500D01*
X114706500Y-126220887D01*
X114661113Y-126175500D01*
X114644500Y-126113500D01*
X114644500Y-123239936D01*
X165446631Y-123239936D01*
X165447582Y-123246148D01*
X165447583Y-123246154D01*
X165476491Y-123434856D01*
X165476493Y-123434864D01*
X165477444Y-123441071D01*
X165479625Y-123446961D01*
X165479627Y-123446967D01*
X165545928Y-123625986D01*
X165545930Y-123625990D01*
X165548114Y-123631887D01*
X165655748Y-123804571D01*
X165795941Y-123952053D01*
X165962951Y-124068295D01*
X166149942Y-124148540D01*
X166349259Y-124189500D01*
X166498600Y-124189500D01*
X166501742Y-124189500D01*
X166653438Y-124174074D01*
X166847588Y-124113159D01*
X167025502Y-124014409D01*
X167179895Y-123881866D01*
X167304448Y-123720958D01*
X167394060Y-123538271D01*
X167445063Y-123341285D01*
X167452786Y-123189000D01*
X169145532Y-123189000D01*
X169165365Y-123415692D01*
X169166762Y-123420907D01*
X169166764Y-123420916D01*
X169222858Y-123630263D01*
X169222861Y-123630271D01*
X169224261Y-123635496D01*
X169320432Y-123841734D01*
X169450953Y-124028139D01*
X169611861Y-124189047D01*
X169798266Y-124319568D01*
X170004504Y-124415739D01*
X170224308Y-124474635D01*
X170394216Y-124489500D01*
X170505075Y-124489500D01*
X170507784Y-124489500D01*
X170677692Y-124474635D01*
X170897496Y-124415739D01*
X171103734Y-124319568D01*
X171290139Y-124189047D01*
X171451047Y-124028139D01*
X171581568Y-123841734D01*
X171677739Y-123635496D01*
X171736635Y-123415692D01*
X171752012Y-123239936D01*
X173446631Y-123239936D01*
X173447582Y-123246148D01*
X173447583Y-123246154D01*
X173476491Y-123434856D01*
X173476493Y-123434864D01*
X173477444Y-123441071D01*
X173479625Y-123446961D01*
X173479627Y-123446967D01*
X173545928Y-123625986D01*
X173545930Y-123625990D01*
X173548114Y-123631887D01*
X173655748Y-123804571D01*
X173795941Y-123952053D01*
X173962951Y-124068295D01*
X174149942Y-124148540D01*
X174349259Y-124189500D01*
X174498600Y-124189500D01*
X174501742Y-124189500D01*
X174653438Y-124174074D01*
X174847588Y-124113159D01*
X175025502Y-124014409D01*
X175179895Y-123881866D01*
X175304448Y-123720958D01*
X175394060Y-123538271D01*
X175445063Y-123341285D01*
X175450203Y-123239936D01*
X177446631Y-123239936D01*
X177447582Y-123246148D01*
X177447583Y-123246154D01*
X177476491Y-123434856D01*
X177476493Y-123434864D01*
X177477444Y-123441071D01*
X177479625Y-123446961D01*
X177479627Y-123446967D01*
X177545928Y-123625986D01*
X177545930Y-123625990D01*
X177548114Y-123631887D01*
X177655748Y-123804571D01*
X177795941Y-123952053D01*
X177962951Y-124068295D01*
X178149942Y-124148540D01*
X178349259Y-124189500D01*
X178498600Y-124189500D01*
X178501742Y-124189500D01*
X178653438Y-124174074D01*
X178847588Y-124113159D01*
X179025502Y-124014409D01*
X179179895Y-123881866D01*
X179304448Y-123720958D01*
X179394060Y-123538271D01*
X179445063Y-123341285D01*
X179452786Y-123189000D01*
X181145532Y-123189000D01*
X181165365Y-123415692D01*
X181166762Y-123420907D01*
X181166764Y-123420916D01*
X181222858Y-123630263D01*
X181222861Y-123630271D01*
X181224261Y-123635496D01*
X181320432Y-123841734D01*
X181450953Y-124028139D01*
X181611861Y-124189047D01*
X181798266Y-124319568D01*
X182004504Y-124415739D01*
X182224308Y-124474635D01*
X182394216Y-124489500D01*
X182505075Y-124489500D01*
X182507784Y-124489500D01*
X182677692Y-124474635D01*
X182897496Y-124415739D01*
X183103734Y-124319568D01*
X183290139Y-124189047D01*
X183451047Y-124028139D01*
X183581568Y-123841734D01*
X183677739Y-123635496D01*
X183736635Y-123415692D01*
X183752012Y-123239936D01*
X185446631Y-123239936D01*
X185447582Y-123246148D01*
X185447583Y-123246154D01*
X185476491Y-123434856D01*
X185476493Y-123434864D01*
X185477444Y-123441071D01*
X185479625Y-123446961D01*
X185479627Y-123446967D01*
X185545928Y-123625986D01*
X185545930Y-123625990D01*
X185548114Y-123631887D01*
X185655748Y-123804571D01*
X185795941Y-123952053D01*
X185962951Y-124068295D01*
X186149942Y-124148540D01*
X186349259Y-124189500D01*
X186498600Y-124189500D01*
X186501742Y-124189500D01*
X186653438Y-124174074D01*
X186847588Y-124113159D01*
X187025502Y-124014409D01*
X187179895Y-123881866D01*
X187304448Y-123720958D01*
X187394060Y-123538271D01*
X187445063Y-123341285D01*
X187455369Y-123138064D01*
X187424556Y-122936929D01*
X187353886Y-122746113D01*
X187246252Y-122573429D01*
X187106059Y-122425947D01*
X186939049Y-122309705D01*
X186933275Y-122307227D01*
X186757836Y-122231939D01*
X186757831Y-122231937D01*
X186752058Y-122229460D01*
X186714590Y-122221760D01*
X186558899Y-122189765D01*
X186558894Y-122189764D01*
X186552741Y-122188500D01*
X186400258Y-122188500D01*
X186397147Y-122188816D01*
X186397134Y-122188817D01*
X186254814Y-122203290D01*
X186254811Y-122203290D01*
X186248562Y-122203926D01*
X186242564Y-122205807D01*
X186242563Y-122205808D01*
X186060415Y-122262957D01*
X186060410Y-122262959D01*
X186054412Y-122264841D01*
X186048916Y-122267891D01*
X186048910Y-122267894D01*
X185881997Y-122360538D01*
X185881991Y-122360542D01*
X185876498Y-122363591D01*
X185871733Y-122367680D01*
X185871728Y-122367685D01*
X185726873Y-122492040D01*
X185726868Y-122492044D01*
X185722105Y-122496134D01*
X185718262Y-122501098D01*
X185718255Y-122501106D01*
X185658143Y-122578765D01*
X185597552Y-122657042D01*
X185594784Y-122662683D01*
X185594780Y-122662691D01*
X185510708Y-122834084D01*
X185510704Y-122834092D01*
X185507940Y-122839729D01*
X185506365Y-122845809D01*
X185506364Y-122845814D01*
X185458511Y-123030634D01*
X185456937Y-123036715D01*
X185456619Y-123042982D01*
X185456618Y-123042990D01*
X185446949Y-123233654D01*
X185446949Y-123233659D01*
X185446631Y-123239936D01*
X183752012Y-123239936D01*
X183756468Y-123189000D01*
X183736635Y-122962308D01*
X183677739Y-122742504D01*
X183581568Y-122536266D01*
X183451047Y-122349861D01*
X183290139Y-122188953D01*
X183103734Y-122058432D01*
X182897496Y-121962261D01*
X182892271Y-121960861D01*
X182892263Y-121960858D01*
X182682916Y-121904764D01*
X182682907Y-121904762D01*
X182677692Y-121903365D01*
X182672304Y-121902893D01*
X182672301Y-121902893D01*
X182510484Y-121888736D01*
X182510479Y-121888735D01*
X182507784Y-121888500D01*
X182394216Y-121888500D01*
X182391521Y-121888735D01*
X182391515Y-121888736D01*
X182229698Y-121902893D01*
X182229693Y-121902893D01*
X182224308Y-121903365D01*
X182219094Y-121904762D01*
X182219083Y-121904764D01*
X182009736Y-121960858D01*
X182009724Y-121960862D01*
X182004504Y-121962261D01*
X181999599Y-121964547D01*
X181999594Y-121964550D01*
X181803176Y-122056142D01*
X181803172Y-122056144D01*
X181798266Y-122058432D01*
X181793833Y-122061535D01*
X181793826Y-122061540D01*
X181616296Y-122185847D01*
X181616291Y-122185850D01*
X181611861Y-122188953D01*
X181608037Y-122192776D01*
X181608031Y-122192782D01*
X181454782Y-122346031D01*
X181454776Y-122346037D01*
X181450953Y-122349861D01*
X181447850Y-122354291D01*
X181447847Y-122354296D01*
X181323540Y-122531826D01*
X181323535Y-122531833D01*
X181320432Y-122536266D01*
X181318144Y-122541172D01*
X181318142Y-122541176D01*
X181226550Y-122737594D01*
X181226547Y-122737599D01*
X181224261Y-122742504D01*
X181222862Y-122747724D01*
X181222858Y-122747736D01*
X181166764Y-122957083D01*
X181166762Y-122957094D01*
X181165365Y-122962308D01*
X181145532Y-123189000D01*
X179452786Y-123189000D01*
X179455369Y-123138064D01*
X179424556Y-122936929D01*
X179353886Y-122746113D01*
X179246252Y-122573429D01*
X179106059Y-122425947D01*
X178939049Y-122309705D01*
X178933275Y-122307227D01*
X178757836Y-122231939D01*
X178757831Y-122231937D01*
X178752058Y-122229460D01*
X178714590Y-122221760D01*
X178558899Y-122189765D01*
X178558894Y-122189764D01*
X178552741Y-122188500D01*
X178400258Y-122188500D01*
X178397147Y-122188816D01*
X178397134Y-122188817D01*
X178254814Y-122203290D01*
X178254811Y-122203290D01*
X178248562Y-122203926D01*
X178242564Y-122205807D01*
X178242563Y-122205808D01*
X178060415Y-122262957D01*
X178060410Y-122262959D01*
X178054412Y-122264841D01*
X178048916Y-122267891D01*
X178048910Y-122267894D01*
X177881997Y-122360538D01*
X177881991Y-122360542D01*
X177876498Y-122363591D01*
X177871733Y-122367680D01*
X177871728Y-122367685D01*
X177726873Y-122492040D01*
X177726868Y-122492044D01*
X177722105Y-122496134D01*
X177718262Y-122501098D01*
X177718255Y-122501106D01*
X177658143Y-122578765D01*
X177597552Y-122657042D01*
X177594784Y-122662683D01*
X177594780Y-122662691D01*
X177510708Y-122834084D01*
X177510704Y-122834092D01*
X177507940Y-122839729D01*
X177506365Y-122845809D01*
X177506364Y-122845814D01*
X177458511Y-123030634D01*
X177456937Y-123036715D01*
X177456619Y-123042982D01*
X177456618Y-123042990D01*
X177446949Y-123233654D01*
X177446949Y-123233659D01*
X177446631Y-123239936D01*
X175450203Y-123239936D01*
X175455369Y-123138064D01*
X175424556Y-122936929D01*
X175353886Y-122746113D01*
X175246252Y-122573429D01*
X175106059Y-122425947D01*
X174939049Y-122309705D01*
X174933275Y-122307227D01*
X174757836Y-122231939D01*
X174757831Y-122231937D01*
X174752058Y-122229460D01*
X174714590Y-122221760D01*
X174558899Y-122189765D01*
X174558894Y-122189764D01*
X174552741Y-122188500D01*
X174400258Y-122188500D01*
X174397147Y-122188816D01*
X174397134Y-122188817D01*
X174254814Y-122203290D01*
X174254811Y-122203290D01*
X174248562Y-122203926D01*
X174242564Y-122205807D01*
X174242563Y-122205808D01*
X174060415Y-122262957D01*
X174060410Y-122262959D01*
X174054412Y-122264841D01*
X174048916Y-122267891D01*
X174048910Y-122267894D01*
X173881997Y-122360538D01*
X173881991Y-122360542D01*
X173876498Y-122363591D01*
X173871733Y-122367680D01*
X173871728Y-122367685D01*
X173726873Y-122492040D01*
X173726868Y-122492044D01*
X173722105Y-122496134D01*
X173718262Y-122501098D01*
X173718255Y-122501106D01*
X173658143Y-122578765D01*
X173597552Y-122657042D01*
X173594784Y-122662683D01*
X173594780Y-122662691D01*
X173510708Y-122834084D01*
X173510704Y-122834092D01*
X173507940Y-122839729D01*
X173506365Y-122845809D01*
X173506364Y-122845814D01*
X173458511Y-123030634D01*
X173456937Y-123036715D01*
X173456619Y-123042982D01*
X173456618Y-123042990D01*
X173446949Y-123233654D01*
X173446949Y-123233659D01*
X173446631Y-123239936D01*
X171752012Y-123239936D01*
X171756468Y-123189000D01*
X171736635Y-122962308D01*
X171677739Y-122742504D01*
X171581568Y-122536266D01*
X171451047Y-122349861D01*
X171290139Y-122188953D01*
X171103734Y-122058432D01*
X170897496Y-121962261D01*
X170892271Y-121960861D01*
X170892263Y-121960858D01*
X170682916Y-121904764D01*
X170682907Y-121904762D01*
X170677692Y-121903365D01*
X170672304Y-121902893D01*
X170672301Y-121902893D01*
X170510484Y-121888736D01*
X170510479Y-121888735D01*
X170507784Y-121888500D01*
X170394216Y-121888500D01*
X170391521Y-121888735D01*
X170391515Y-121888736D01*
X170229698Y-121902893D01*
X170229693Y-121902893D01*
X170224308Y-121903365D01*
X170219094Y-121904762D01*
X170219083Y-121904764D01*
X170009736Y-121960858D01*
X170009724Y-121960862D01*
X170004504Y-121962261D01*
X169999599Y-121964547D01*
X169999594Y-121964550D01*
X169803176Y-122056142D01*
X169803172Y-122056144D01*
X169798266Y-122058432D01*
X169793833Y-122061535D01*
X169793826Y-122061540D01*
X169616296Y-122185847D01*
X169616291Y-122185850D01*
X169611861Y-122188953D01*
X169608037Y-122192776D01*
X169608031Y-122192782D01*
X169454782Y-122346031D01*
X169454776Y-122346037D01*
X169450953Y-122349861D01*
X169447850Y-122354291D01*
X169447847Y-122354296D01*
X169323540Y-122531826D01*
X169323535Y-122531833D01*
X169320432Y-122536266D01*
X169318144Y-122541172D01*
X169318142Y-122541176D01*
X169226550Y-122737594D01*
X169226547Y-122737599D01*
X169224261Y-122742504D01*
X169222862Y-122747724D01*
X169222858Y-122747736D01*
X169166764Y-122957083D01*
X169166762Y-122957094D01*
X169165365Y-122962308D01*
X169145532Y-123189000D01*
X167452786Y-123189000D01*
X167455369Y-123138064D01*
X167424556Y-122936929D01*
X167353886Y-122746113D01*
X167246252Y-122573429D01*
X167106059Y-122425947D01*
X166939049Y-122309705D01*
X166933275Y-122307227D01*
X166757836Y-122231939D01*
X166757831Y-122231937D01*
X166752058Y-122229460D01*
X166714590Y-122221760D01*
X166558899Y-122189765D01*
X166558894Y-122189764D01*
X166552741Y-122188500D01*
X166400258Y-122188500D01*
X166397147Y-122188816D01*
X166397134Y-122188817D01*
X166254814Y-122203290D01*
X166254811Y-122203290D01*
X166248562Y-122203926D01*
X166242564Y-122205807D01*
X166242563Y-122205808D01*
X166060415Y-122262957D01*
X166060410Y-122262959D01*
X166054412Y-122264841D01*
X166048916Y-122267891D01*
X166048910Y-122267894D01*
X165881997Y-122360538D01*
X165881991Y-122360542D01*
X165876498Y-122363591D01*
X165871733Y-122367680D01*
X165871728Y-122367685D01*
X165726873Y-122492040D01*
X165726868Y-122492044D01*
X165722105Y-122496134D01*
X165718262Y-122501098D01*
X165718255Y-122501106D01*
X165658143Y-122578765D01*
X165597552Y-122657042D01*
X165594784Y-122662683D01*
X165594780Y-122662691D01*
X165510708Y-122834084D01*
X165510704Y-122834092D01*
X165507940Y-122839729D01*
X165506365Y-122845809D01*
X165506364Y-122845814D01*
X165458511Y-123030634D01*
X165456937Y-123036715D01*
X165456619Y-123042982D01*
X165456618Y-123042990D01*
X165446949Y-123233654D01*
X165446949Y-123233659D01*
X165446631Y-123239936D01*
X114644500Y-123239936D01*
X114644500Y-45294518D01*
X144496000Y-45294518D01*
X144496353Y-45301114D01*
X144501573Y-45349667D01*
X144505111Y-45364641D01*
X144549547Y-45483777D01*
X144557962Y-45499189D01*
X144633498Y-45600092D01*
X144645907Y-45612501D01*
X144746810Y-45688037D01*
X144762222Y-45696452D01*
X144881358Y-45740888D01*
X144896332Y-45744426D01*
X144944885Y-45749646D01*
X144951482Y-45750000D01*
X145082409Y-45750000D01*
X145143746Y-45766233D01*
X145189024Y-45810682D01*
X145206388Y-45871709D01*
X145191291Y-45933336D01*
X145147686Y-45979427D01*
X145074309Y-46024859D01*
X145074301Y-46024864D01*
X145069438Y-46027876D01*
X145065207Y-46031732D01*
X145065203Y-46031736D01*
X144909259Y-46173897D01*
X144909249Y-46173907D01*
X144905019Y-46177764D01*
X144901570Y-46182330D01*
X144901561Y-46182341D01*
X144774394Y-46350738D01*
X144774387Y-46350748D01*
X144770942Y-46355311D01*
X144768392Y-46360431D01*
X144768387Y-46360440D01*
X144674325Y-46549341D01*
X144674321Y-46549349D01*
X144671771Y-46554472D01*
X144670205Y-46559975D01*
X144670201Y-46559986D01*
X144613816Y-46758162D01*
X144610885Y-46768464D01*
X144590357Y-46990000D01*
X144610885Y-47211536D01*
X144612454Y-47217050D01*
X144670201Y-47420013D01*
X144670204Y-47420021D01*
X144671771Y-47425528D01*
X144674323Y-47430653D01*
X144674325Y-47430658D01*
X144768387Y-47619559D01*
X144768389Y-47619563D01*
X144770942Y-47624689D01*
X144774391Y-47629256D01*
X144774394Y-47629261D01*
X144901561Y-47797658D01*
X144901566Y-47797663D01*
X144905019Y-47802236D01*
X144909255Y-47806097D01*
X144909259Y-47806102D01*
X145016752Y-47904094D01*
X145069438Y-47952124D01*
X145258599Y-48069247D01*
X145436097Y-48138010D01*
X145452521Y-48144373D01*
X145500892Y-48178169D01*
X145528166Y-48230496D01*
X145528166Y-48289504D01*
X145500892Y-48341831D01*
X145452521Y-48375627D01*
X145263941Y-48448683D01*
X145263936Y-48448685D01*
X145258599Y-48450753D01*
X145253727Y-48453769D01*
X145253724Y-48453771D01*
X145074309Y-48564859D01*
X145074301Y-48564864D01*
X145069438Y-48567876D01*
X145065207Y-48571732D01*
X145065203Y-48571736D01*
X144909259Y-48713897D01*
X144909249Y-48713907D01*
X144905019Y-48717764D01*
X144901570Y-48722330D01*
X144901561Y-48722341D01*
X144774394Y-48890738D01*
X144774387Y-48890748D01*
X144770942Y-48895311D01*
X144768392Y-48900431D01*
X144768387Y-48900440D01*
X144674325Y-49089341D01*
X144674321Y-49089349D01*
X144671771Y-49094472D01*
X144670205Y-49099975D01*
X144670201Y-49099986D01*
X144639160Y-49209087D01*
X144610885Y-49308464D01*
X144610356Y-49314169D01*
X144610356Y-49314171D01*
X144596558Y-49463082D01*
X144590357Y-49530000D01*
X144610885Y-49751536D01*
X144612454Y-49757050D01*
X144670201Y-49960013D01*
X144670204Y-49960021D01*
X144671771Y-49965528D01*
X144674323Y-49970653D01*
X144674325Y-49970658D01*
X144768387Y-50159559D01*
X144768389Y-50159563D01*
X144770942Y-50164689D01*
X144774391Y-50169256D01*
X144774394Y-50169261D01*
X144901561Y-50337658D01*
X144901566Y-50337663D01*
X144905019Y-50342236D01*
X144909255Y-50346097D01*
X144909259Y-50346102D01*
X145004385Y-50432820D01*
X145069438Y-50492124D01*
X145258599Y-50609247D01*
X145429468Y-50675442D01*
X145452521Y-50684373D01*
X145500892Y-50718169D01*
X145528166Y-50770496D01*
X145528166Y-50829504D01*
X145500892Y-50881831D01*
X145452521Y-50915627D01*
X145263941Y-50988683D01*
X145263936Y-50988685D01*
X145258599Y-50990753D01*
X145253727Y-50993769D01*
X145253724Y-50993771D01*
X145074309Y-51104859D01*
X145074301Y-51104864D01*
X145069438Y-51107876D01*
X145065207Y-51111732D01*
X145065203Y-51111736D01*
X144909259Y-51253897D01*
X144909249Y-51253907D01*
X144905019Y-51257764D01*
X144901570Y-51262330D01*
X144901561Y-51262341D01*
X144774394Y-51430738D01*
X144774387Y-51430748D01*
X144770942Y-51435311D01*
X144768392Y-51440431D01*
X144768387Y-51440440D01*
X144674325Y-51629341D01*
X144674321Y-51629349D01*
X144671771Y-51634472D01*
X144670205Y-51639975D01*
X144670201Y-51639986D01*
X144612454Y-51842949D01*
X144610885Y-51848464D01*
X144610356Y-51854169D01*
X144610356Y-51854171D01*
X144593343Y-52037775D01*
X144590357Y-52070000D01*
X144610885Y-52291536D01*
X144612454Y-52297050D01*
X144670201Y-52500013D01*
X144670204Y-52500021D01*
X144671771Y-52505528D01*
X144674323Y-52510653D01*
X144674325Y-52510658D01*
X144768387Y-52699559D01*
X144768389Y-52699563D01*
X144770942Y-52704689D01*
X144774391Y-52709256D01*
X144774394Y-52709261D01*
X144901561Y-52877658D01*
X144901566Y-52877663D01*
X144905019Y-52882236D01*
X144909255Y-52886097D01*
X144909259Y-52886102D01*
X144984406Y-52954607D01*
X145069438Y-53032124D01*
X145258599Y-53149247D01*
X145395188Y-53202162D01*
X145452521Y-53224373D01*
X145500892Y-53258169D01*
X145528166Y-53310496D01*
X145528166Y-53369504D01*
X145500892Y-53421831D01*
X145452521Y-53455627D01*
X145263941Y-53528683D01*
X145263936Y-53528685D01*
X145258599Y-53530753D01*
X145253727Y-53533769D01*
X145253724Y-53533771D01*
X145074309Y-53644859D01*
X145074301Y-53644864D01*
X145069438Y-53647876D01*
X145065207Y-53651732D01*
X145065203Y-53651736D01*
X144909259Y-53793897D01*
X144909249Y-53793907D01*
X144905019Y-53797764D01*
X144901570Y-53802330D01*
X144901561Y-53802341D01*
X144774394Y-53970738D01*
X144774387Y-53970748D01*
X144770942Y-53975311D01*
X144768392Y-53980431D01*
X144768387Y-53980440D01*
X144674325Y-54169341D01*
X144674321Y-54169349D01*
X144671771Y-54174472D01*
X144670205Y-54179975D01*
X144670201Y-54179986D01*
X144639160Y-54289087D01*
X144610885Y-54388464D01*
X144590357Y-54610000D01*
X144610885Y-54831536D01*
X144612454Y-54837050D01*
X144670201Y-55040013D01*
X144670204Y-55040021D01*
X144671771Y-55045528D01*
X144674323Y-55050653D01*
X144674325Y-55050658D01*
X144768387Y-55239559D01*
X144768389Y-55239563D01*
X144770942Y-55244689D01*
X144774391Y-55249256D01*
X144774394Y-55249261D01*
X144901561Y-55417658D01*
X144901566Y-55417663D01*
X144905019Y-55422236D01*
X144909255Y-55426097D01*
X144909259Y-55426102D01*
X145021603Y-55528517D01*
X145069438Y-55572124D01*
X145258599Y-55689247D01*
X145436097Y-55758010D01*
X145452521Y-55764373D01*
X145500892Y-55798169D01*
X145528166Y-55850496D01*
X145528166Y-55909504D01*
X145500892Y-55961831D01*
X145452521Y-55995627D01*
X145263941Y-56068683D01*
X145263936Y-56068685D01*
X145258599Y-56070753D01*
X145253727Y-56073769D01*
X145253724Y-56073771D01*
X145074309Y-56184859D01*
X145074301Y-56184864D01*
X145069438Y-56187876D01*
X145065207Y-56191732D01*
X145065203Y-56191736D01*
X144909259Y-56333897D01*
X144909249Y-56333907D01*
X144905019Y-56337764D01*
X144901570Y-56342330D01*
X144901561Y-56342341D01*
X144774394Y-56510738D01*
X144774387Y-56510748D01*
X144770942Y-56515311D01*
X144768392Y-56520431D01*
X144768387Y-56520440D01*
X144674325Y-56709341D01*
X144674321Y-56709349D01*
X144671771Y-56714472D01*
X144670205Y-56719975D01*
X144670201Y-56719986D01*
X144612454Y-56922949D01*
X144610885Y-56928464D01*
X144590357Y-57150000D01*
X144610885Y-57371536D01*
X144612454Y-57377050D01*
X144670201Y-57580013D01*
X144670204Y-57580021D01*
X144671771Y-57585528D01*
X144674323Y-57590653D01*
X144674325Y-57590658D01*
X144768387Y-57779559D01*
X144768389Y-57779563D01*
X144770942Y-57784689D01*
X144774391Y-57789256D01*
X144774394Y-57789261D01*
X144901561Y-57957658D01*
X144901566Y-57957663D01*
X144905019Y-57962236D01*
X144909255Y-57966097D01*
X144909259Y-57966102D01*
X145021603Y-58068517D01*
X145069438Y-58112124D01*
X145258599Y-58229247D01*
X145436097Y-58298010D01*
X145452521Y-58304373D01*
X145500892Y-58338169D01*
X145528166Y-58390496D01*
X145528166Y-58449504D01*
X145500892Y-58501831D01*
X145452521Y-58535627D01*
X145263941Y-58608683D01*
X145263936Y-58608685D01*
X145258599Y-58610753D01*
X145253727Y-58613769D01*
X145253724Y-58613771D01*
X145074309Y-58724859D01*
X145074301Y-58724864D01*
X145069438Y-58727876D01*
X145065207Y-58731732D01*
X145065203Y-58731736D01*
X144909259Y-58873897D01*
X144909249Y-58873907D01*
X144905019Y-58877764D01*
X144901570Y-58882330D01*
X144901561Y-58882341D01*
X144774394Y-59050738D01*
X144774387Y-59050748D01*
X144770942Y-59055311D01*
X144768392Y-59060431D01*
X144768387Y-59060440D01*
X144674325Y-59249341D01*
X144674321Y-59249349D01*
X144671771Y-59254472D01*
X144670205Y-59259975D01*
X144670201Y-59259986D01*
X144621942Y-59429601D01*
X144610885Y-59468464D01*
X144610356Y-59474169D01*
X144610356Y-59474171D01*
X144590886Y-59684291D01*
X144590357Y-59690000D01*
X144610885Y-59911536D01*
X144612454Y-59917050D01*
X144670201Y-60120013D01*
X144670204Y-60120021D01*
X144671771Y-60125528D01*
X144674323Y-60130653D01*
X144674325Y-60130658D01*
X144768387Y-60319559D01*
X144768389Y-60319563D01*
X144770942Y-60324689D01*
X144774391Y-60329256D01*
X144774394Y-60329261D01*
X144901561Y-60497658D01*
X144901566Y-60497663D01*
X144905019Y-60502236D01*
X144909255Y-60506097D01*
X144909259Y-60506102D01*
X145021603Y-60608517D01*
X145069438Y-60652124D01*
X145258599Y-60769247D01*
X145436097Y-60838010D01*
X145452521Y-60844373D01*
X145500892Y-60878169D01*
X145528166Y-60930496D01*
X145528166Y-60989504D01*
X145500892Y-61041831D01*
X145452521Y-61075627D01*
X145263941Y-61148683D01*
X145263936Y-61148685D01*
X145258599Y-61150753D01*
X145253727Y-61153769D01*
X145253724Y-61153771D01*
X145074309Y-61264859D01*
X145074301Y-61264864D01*
X145069438Y-61267876D01*
X145065207Y-61271732D01*
X145065203Y-61271736D01*
X144909259Y-61413897D01*
X144909249Y-61413907D01*
X144905019Y-61417764D01*
X144901570Y-61422330D01*
X144901561Y-61422341D01*
X144774394Y-61590738D01*
X144774387Y-61590748D01*
X144770942Y-61595311D01*
X144768392Y-61600431D01*
X144768387Y-61600440D01*
X144674325Y-61789341D01*
X144674321Y-61789349D01*
X144671771Y-61794472D01*
X144670205Y-61799975D01*
X144670201Y-61799986D01*
X144612454Y-62002949D01*
X144610885Y-62008464D01*
X144590357Y-62230000D01*
X144610885Y-62451536D01*
X144612454Y-62457050D01*
X144670201Y-62660013D01*
X144670204Y-62660021D01*
X144671771Y-62665528D01*
X144674323Y-62670653D01*
X144674325Y-62670658D01*
X144768387Y-62859559D01*
X144768389Y-62859563D01*
X144770942Y-62864689D01*
X144774391Y-62869256D01*
X144774394Y-62869261D01*
X144901561Y-63037658D01*
X144901566Y-63037663D01*
X144905019Y-63042236D01*
X144909255Y-63046097D01*
X144909259Y-63046102D01*
X145021603Y-63148517D01*
X145069438Y-63192124D01*
X145258599Y-63309247D01*
X145436097Y-63378010D01*
X145452521Y-63384373D01*
X145500892Y-63418169D01*
X145528166Y-63470496D01*
X145528166Y-63529504D01*
X145500892Y-63581831D01*
X145452521Y-63615627D01*
X145263941Y-63688683D01*
X145263936Y-63688685D01*
X145258599Y-63690753D01*
X145253727Y-63693769D01*
X145253724Y-63693771D01*
X145074309Y-63804859D01*
X145074301Y-63804864D01*
X145069438Y-63807876D01*
X145065207Y-63811732D01*
X145065203Y-63811736D01*
X144909259Y-63953897D01*
X144909249Y-63953907D01*
X144905019Y-63957764D01*
X144901570Y-63962330D01*
X144901561Y-63962341D01*
X144774394Y-64130738D01*
X144774387Y-64130748D01*
X144770942Y-64135311D01*
X144768392Y-64140431D01*
X144768387Y-64140440D01*
X144674325Y-64329341D01*
X144674321Y-64329349D01*
X144671771Y-64334472D01*
X144670205Y-64339975D01*
X144670201Y-64339986D01*
X144612454Y-64542949D01*
X144610885Y-64548464D01*
X144590357Y-64770000D01*
X144610885Y-64991536D01*
X144612454Y-64997050D01*
X144670201Y-65200013D01*
X144670204Y-65200021D01*
X144671771Y-65205528D01*
X144674323Y-65210653D01*
X144674325Y-65210658D01*
X144768387Y-65399559D01*
X144768389Y-65399563D01*
X144770942Y-65404689D01*
X144774391Y-65409256D01*
X144774394Y-65409261D01*
X144901561Y-65577658D01*
X144901566Y-65577663D01*
X144905019Y-65582236D01*
X144909255Y-65586097D01*
X144909259Y-65586102D01*
X145021603Y-65688517D01*
X145069438Y-65732124D01*
X145258599Y-65849247D01*
X145436097Y-65918010D01*
X145452521Y-65924373D01*
X145500892Y-65958169D01*
X145528166Y-66010496D01*
X145528166Y-66069504D01*
X145500892Y-66121831D01*
X145452521Y-66155627D01*
X145263941Y-66228683D01*
X145263936Y-66228685D01*
X145258599Y-66230753D01*
X145253727Y-66233769D01*
X145253724Y-66233771D01*
X145074309Y-66344859D01*
X145074301Y-66344864D01*
X145069438Y-66347876D01*
X145065207Y-66351732D01*
X145065203Y-66351736D01*
X144909259Y-66493897D01*
X144909249Y-66493907D01*
X144905019Y-66497764D01*
X144901570Y-66502330D01*
X144901561Y-66502341D01*
X144774394Y-66670738D01*
X144774387Y-66670748D01*
X144770942Y-66675311D01*
X144768392Y-66680431D01*
X144768387Y-66680440D01*
X144674325Y-66869341D01*
X144674321Y-66869349D01*
X144671771Y-66874472D01*
X144670205Y-66879975D01*
X144670201Y-66879986D01*
X144612454Y-67082949D01*
X144610885Y-67088464D01*
X144590357Y-67310000D01*
X144610885Y-67531536D01*
X144612454Y-67537050D01*
X144670201Y-67740013D01*
X144670204Y-67740021D01*
X144671771Y-67745528D01*
X144674323Y-67750653D01*
X144674325Y-67750658D01*
X144768387Y-67939559D01*
X144768389Y-67939563D01*
X144770942Y-67944689D01*
X144774391Y-67949256D01*
X144774394Y-67949261D01*
X144901561Y-68117658D01*
X144901566Y-68117663D01*
X144905019Y-68122236D01*
X144909255Y-68126097D01*
X144909259Y-68126102D01*
X145021603Y-68228517D01*
X145069438Y-68272124D01*
X145258599Y-68389247D01*
X145436097Y-68458010D01*
X145452521Y-68464373D01*
X145500892Y-68498169D01*
X145528166Y-68550496D01*
X145528166Y-68609504D01*
X145500892Y-68661831D01*
X145452521Y-68695627D01*
X145263941Y-68768683D01*
X145263936Y-68768685D01*
X145258599Y-68770753D01*
X145253727Y-68773769D01*
X145253724Y-68773771D01*
X145074309Y-68884859D01*
X145074301Y-68884864D01*
X145069438Y-68887876D01*
X145065207Y-68891732D01*
X145065203Y-68891736D01*
X144909259Y-69033897D01*
X144909249Y-69033907D01*
X144905019Y-69037764D01*
X144901570Y-69042330D01*
X144901561Y-69042341D01*
X144774394Y-69210738D01*
X144774387Y-69210748D01*
X144770942Y-69215311D01*
X144768392Y-69220431D01*
X144768387Y-69220440D01*
X144674325Y-69409341D01*
X144674321Y-69409349D01*
X144671771Y-69414472D01*
X144670205Y-69419975D01*
X144670201Y-69419986D01*
X144612454Y-69622949D01*
X144610885Y-69628464D01*
X144590357Y-69850000D01*
X144610885Y-70071536D01*
X144612454Y-70077050D01*
X144670201Y-70280013D01*
X144670204Y-70280021D01*
X144671771Y-70285528D01*
X144674323Y-70290653D01*
X144674325Y-70290658D01*
X144768387Y-70479559D01*
X144768389Y-70479563D01*
X144770942Y-70484689D01*
X144774391Y-70489256D01*
X144774394Y-70489261D01*
X144901561Y-70657658D01*
X144901566Y-70657663D01*
X144905019Y-70662236D01*
X144909255Y-70666097D01*
X144909259Y-70666102D01*
X145021603Y-70768517D01*
X145069438Y-70812124D01*
X145258599Y-70929247D01*
X145436097Y-70998010D01*
X145452521Y-71004373D01*
X145500892Y-71038169D01*
X145528166Y-71090496D01*
X145528166Y-71149504D01*
X145500892Y-71201831D01*
X145452521Y-71235627D01*
X145263941Y-71308683D01*
X145263936Y-71308685D01*
X145258599Y-71310753D01*
X145253727Y-71313769D01*
X145253724Y-71313771D01*
X145074309Y-71424859D01*
X145074301Y-71424864D01*
X145069438Y-71427876D01*
X145065207Y-71431732D01*
X145065203Y-71431736D01*
X144909259Y-71573897D01*
X144909249Y-71573907D01*
X144905019Y-71577764D01*
X144901570Y-71582330D01*
X144901561Y-71582341D01*
X144774394Y-71750738D01*
X144774387Y-71750748D01*
X144770942Y-71755311D01*
X144768392Y-71760431D01*
X144768387Y-71760440D01*
X144674325Y-71949341D01*
X144674321Y-71949349D01*
X144671771Y-71954472D01*
X144670205Y-71959975D01*
X144670201Y-71959986D01*
X144612454Y-72162949D01*
X144610885Y-72168464D01*
X144590357Y-72390000D01*
X144610885Y-72611536D01*
X144612454Y-72617050D01*
X144670201Y-72820013D01*
X144670204Y-72820021D01*
X144671771Y-72825528D01*
X144674323Y-72830653D01*
X144674325Y-72830658D01*
X144768387Y-73019559D01*
X144768389Y-73019563D01*
X144770942Y-73024689D01*
X144774391Y-73029256D01*
X144774394Y-73029261D01*
X144901561Y-73197658D01*
X144901566Y-73197663D01*
X144905019Y-73202236D01*
X144909255Y-73206097D01*
X144909259Y-73206102D01*
X145021603Y-73308517D01*
X145069438Y-73352124D01*
X145258599Y-73469247D01*
X145436097Y-73538010D01*
X145452521Y-73544373D01*
X145500892Y-73578169D01*
X145528166Y-73630496D01*
X145528166Y-73689504D01*
X145500892Y-73741831D01*
X145452521Y-73775627D01*
X145263941Y-73848683D01*
X145263936Y-73848685D01*
X145258599Y-73850753D01*
X145253727Y-73853769D01*
X145253724Y-73853771D01*
X145074309Y-73964859D01*
X145074301Y-73964864D01*
X145069438Y-73967876D01*
X145065207Y-73971732D01*
X145065203Y-73971736D01*
X144909259Y-74113897D01*
X144909249Y-74113907D01*
X144905019Y-74117764D01*
X144901570Y-74122330D01*
X144901561Y-74122341D01*
X144774394Y-74290738D01*
X144774387Y-74290748D01*
X144770942Y-74295311D01*
X144768392Y-74300431D01*
X144768387Y-74300440D01*
X144674325Y-74489341D01*
X144674321Y-74489349D01*
X144671771Y-74494472D01*
X144670205Y-74499975D01*
X144670201Y-74499986D01*
X144612454Y-74702949D01*
X144610885Y-74708464D01*
X144590357Y-74930000D01*
X144610885Y-75151536D01*
X144612454Y-75157050D01*
X144670201Y-75360013D01*
X144670204Y-75360021D01*
X144671771Y-75365528D01*
X144674323Y-75370653D01*
X144674325Y-75370658D01*
X144768387Y-75559559D01*
X144768389Y-75559563D01*
X144770942Y-75564689D01*
X144774391Y-75569256D01*
X144774394Y-75569261D01*
X144901561Y-75737658D01*
X144901566Y-75737663D01*
X144905019Y-75742236D01*
X144909255Y-75746097D01*
X144909259Y-75746102D01*
X145021603Y-75848517D01*
X145069438Y-75892124D01*
X145258599Y-76009247D01*
X145452524Y-76084374D01*
X145500892Y-76118168D01*
X145528166Y-76170495D01*
X145528166Y-76229502D01*
X145500893Y-76281829D01*
X145452522Y-76315625D01*
X145263947Y-76388680D01*
X145263936Y-76388685D01*
X145258599Y-76390753D01*
X145253727Y-76393769D01*
X145253724Y-76393771D01*
X145074309Y-76504859D01*
X145074301Y-76504864D01*
X145069438Y-76507876D01*
X145065207Y-76511732D01*
X145065203Y-76511736D01*
X144909259Y-76653897D01*
X144909249Y-76653907D01*
X144905019Y-76657764D01*
X144901570Y-76662330D01*
X144901561Y-76662341D01*
X144774394Y-76830738D01*
X144774387Y-76830748D01*
X144770942Y-76835311D01*
X144768392Y-76840431D01*
X144768387Y-76840440D01*
X144674325Y-77029341D01*
X144674321Y-77029349D01*
X144671771Y-77034472D01*
X144670205Y-77039975D01*
X144670201Y-77039986D01*
X144612454Y-77242949D01*
X144610885Y-77248464D01*
X144590357Y-77470000D01*
X144610885Y-77691536D01*
X144612454Y-77697050D01*
X144670201Y-77900013D01*
X144670204Y-77900021D01*
X144671771Y-77905528D01*
X144674323Y-77910653D01*
X144674325Y-77910658D01*
X144768387Y-78099559D01*
X144768389Y-78099563D01*
X144770942Y-78104689D01*
X144774391Y-78109256D01*
X144774394Y-78109261D01*
X144901561Y-78277658D01*
X144901566Y-78277663D01*
X144905019Y-78282236D01*
X144909255Y-78286097D01*
X144909259Y-78286102D01*
X145021603Y-78388517D01*
X145069438Y-78432124D01*
X145258599Y-78549247D01*
X145436097Y-78618010D01*
X145452521Y-78624373D01*
X145500892Y-78658169D01*
X145528166Y-78710496D01*
X145528166Y-78769504D01*
X145500892Y-78821831D01*
X145452521Y-78855627D01*
X145263941Y-78928683D01*
X145263936Y-78928685D01*
X145258599Y-78930753D01*
X145253727Y-78933769D01*
X145253724Y-78933771D01*
X145074309Y-79044859D01*
X145074301Y-79044864D01*
X145069438Y-79047876D01*
X145065207Y-79051732D01*
X145065203Y-79051736D01*
X144909259Y-79193897D01*
X144909249Y-79193907D01*
X144905019Y-79197764D01*
X144901570Y-79202330D01*
X144901561Y-79202341D01*
X144774394Y-79370738D01*
X144774387Y-79370748D01*
X144770942Y-79375311D01*
X144768392Y-79380431D01*
X144768387Y-79380440D01*
X144674325Y-79569341D01*
X144674321Y-79569349D01*
X144671771Y-79574472D01*
X144670205Y-79579975D01*
X144670201Y-79579986D01*
X144613816Y-79778162D01*
X144610885Y-79788464D01*
X144590357Y-80010000D01*
X144590886Y-80015709D01*
X144591426Y-80021542D01*
X144610885Y-80231536D01*
X144612454Y-80237050D01*
X144670201Y-80440013D01*
X144670204Y-80440021D01*
X144671771Y-80445528D01*
X144674323Y-80450653D01*
X144674325Y-80450658D01*
X144768387Y-80639559D01*
X144768389Y-80639563D01*
X144770942Y-80644689D01*
X144774391Y-80649256D01*
X144774394Y-80649261D01*
X144901561Y-80817658D01*
X144901566Y-80817663D01*
X144905019Y-80822236D01*
X144909255Y-80826097D01*
X144909259Y-80826102D01*
X145021603Y-80928517D01*
X145069438Y-80972124D01*
X145258599Y-81089247D01*
X145436097Y-81158010D01*
X145452521Y-81164373D01*
X145500892Y-81198169D01*
X145528166Y-81250496D01*
X145528166Y-81309504D01*
X145500892Y-81361831D01*
X145452521Y-81395627D01*
X145263941Y-81468683D01*
X145263936Y-81468685D01*
X145258599Y-81470753D01*
X145253727Y-81473769D01*
X145253724Y-81473771D01*
X145074309Y-81584859D01*
X145074301Y-81584864D01*
X145069438Y-81587876D01*
X145065207Y-81591732D01*
X145065203Y-81591736D01*
X144909259Y-81733897D01*
X144909249Y-81733907D01*
X144905019Y-81737764D01*
X144901570Y-81742330D01*
X144901561Y-81742341D01*
X144774394Y-81910738D01*
X144774387Y-81910748D01*
X144770942Y-81915311D01*
X144768392Y-81920431D01*
X144768387Y-81920440D01*
X144674325Y-82109341D01*
X144674321Y-82109349D01*
X144671771Y-82114472D01*
X144670205Y-82119975D01*
X144670201Y-82119986D01*
X144612454Y-82322949D01*
X144610885Y-82328464D01*
X144590357Y-82550000D01*
X144610885Y-82771536D01*
X144612454Y-82777050D01*
X144670201Y-82980013D01*
X144670204Y-82980021D01*
X144671771Y-82985528D01*
X144674323Y-82990653D01*
X144674325Y-82990658D01*
X144768387Y-83179559D01*
X144768389Y-83179563D01*
X144770942Y-83184689D01*
X144774391Y-83189256D01*
X144774394Y-83189261D01*
X144901561Y-83357658D01*
X144901566Y-83357663D01*
X144905019Y-83362236D01*
X144909255Y-83366097D01*
X144909259Y-83366102D01*
X145021603Y-83468517D01*
X145069438Y-83512124D01*
X145258599Y-83629247D01*
X145436097Y-83698010D01*
X145452521Y-83704373D01*
X145500892Y-83738169D01*
X145528166Y-83790496D01*
X145528166Y-83849504D01*
X145500892Y-83901831D01*
X145452521Y-83935627D01*
X145263941Y-84008683D01*
X145263936Y-84008685D01*
X145258599Y-84010753D01*
X145253727Y-84013769D01*
X145253724Y-84013771D01*
X145074309Y-84124859D01*
X145074301Y-84124864D01*
X145069438Y-84127876D01*
X145065207Y-84131732D01*
X145065203Y-84131736D01*
X144909259Y-84273897D01*
X144909249Y-84273907D01*
X144905019Y-84277764D01*
X144901570Y-84282330D01*
X144901561Y-84282341D01*
X144774394Y-84450738D01*
X144774387Y-84450748D01*
X144770942Y-84455311D01*
X144768392Y-84460431D01*
X144768387Y-84460440D01*
X144674325Y-84649341D01*
X144674321Y-84649349D01*
X144671771Y-84654472D01*
X144670205Y-84659975D01*
X144670201Y-84659986D01*
X144612454Y-84862949D01*
X144610885Y-84868464D01*
X144590357Y-85090000D01*
X144610885Y-85311536D01*
X144612454Y-85317050D01*
X144670201Y-85520013D01*
X144670204Y-85520021D01*
X144671771Y-85525528D01*
X144674323Y-85530653D01*
X144674325Y-85530658D01*
X144768387Y-85719559D01*
X144768389Y-85719563D01*
X144770942Y-85724689D01*
X144774391Y-85729256D01*
X144774394Y-85729261D01*
X144901561Y-85897658D01*
X144901566Y-85897663D01*
X144905019Y-85902236D01*
X144909255Y-85906097D01*
X144909259Y-85906102D01*
X145021603Y-86008517D01*
X145069438Y-86052124D01*
X145258599Y-86169247D01*
X145436097Y-86238010D01*
X145452521Y-86244373D01*
X145500892Y-86278169D01*
X145528166Y-86330496D01*
X145528166Y-86389504D01*
X145500892Y-86441831D01*
X145452521Y-86475627D01*
X145263941Y-86548683D01*
X145263936Y-86548685D01*
X145258599Y-86550753D01*
X145253727Y-86553769D01*
X145253724Y-86553771D01*
X145074309Y-86664859D01*
X145074301Y-86664864D01*
X145069438Y-86667876D01*
X145065207Y-86671732D01*
X145065203Y-86671736D01*
X144909259Y-86813897D01*
X144909249Y-86813907D01*
X144905019Y-86817764D01*
X144901570Y-86822330D01*
X144901561Y-86822341D01*
X144774394Y-86990738D01*
X144774387Y-86990748D01*
X144770942Y-86995311D01*
X144768392Y-87000431D01*
X144768387Y-87000440D01*
X144674325Y-87189341D01*
X144674321Y-87189349D01*
X144671771Y-87194472D01*
X144670205Y-87199975D01*
X144670201Y-87199986D01*
X144612454Y-87402949D01*
X144610885Y-87408464D01*
X144590357Y-87630000D01*
X144610885Y-87851536D01*
X144612454Y-87857050D01*
X144670201Y-88060013D01*
X144670204Y-88060021D01*
X144671771Y-88065528D01*
X144674323Y-88070653D01*
X144674325Y-88070658D01*
X144768387Y-88259559D01*
X144768389Y-88259563D01*
X144770942Y-88264689D01*
X144774391Y-88269256D01*
X144774394Y-88269261D01*
X144901561Y-88437658D01*
X144901566Y-88437663D01*
X144905019Y-88442236D01*
X144909255Y-88446097D01*
X144909259Y-88446102D01*
X145021603Y-88548517D01*
X145069438Y-88592124D01*
X145258599Y-88709247D01*
X145436097Y-88778010D01*
X145452521Y-88784373D01*
X145500892Y-88818169D01*
X145528166Y-88870496D01*
X145528166Y-88929504D01*
X145500892Y-88981831D01*
X145452521Y-89015627D01*
X145263941Y-89088683D01*
X145263936Y-89088685D01*
X145258599Y-89090753D01*
X145253727Y-89093769D01*
X145253724Y-89093771D01*
X145074309Y-89204859D01*
X145074301Y-89204864D01*
X145069438Y-89207876D01*
X145065207Y-89211732D01*
X145065203Y-89211736D01*
X144909259Y-89353897D01*
X144909249Y-89353907D01*
X144905019Y-89357764D01*
X144901570Y-89362330D01*
X144901561Y-89362341D01*
X144774394Y-89530738D01*
X144774387Y-89530748D01*
X144770942Y-89535311D01*
X144768392Y-89540431D01*
X144768387Y-89540440D01*
X144674325Y-89729341D01*
X144674321Y-89729349D01*
X144671771Y-89734472D01*
X144670205Y-89739975D01*
X144670201Y-89739986D01*
X144612454Y-89942949D01*
X144610885Y-89948464D01*
X144590357Y-90170000D01*
X144610885Y-90391536D01*
X144612454Y-90397050D01*
X144670201Y-90600013D01*
X144670204Y-90600021D01*
X144671771Y-90605528D01*
X144674323Y-90610653D01*
X144674325Y-90610658D01*
X144768387Y-90799559D01*
X144768389Y-90799563D01*
X144770942Y-90804689D01*
X144774391Y-90809256D01*
X144774394Y-90809261D01*
X144901561Y-90977658D01*
X144901566Y-90977663D01*
X144905019Y-90982236D01*
X144909255Y-90986097D01*
X144909259Y-90986102D01*
X145021603Y-91088517D01*
X145069438Y-91132124D01*
X145258599Y-91249247D01*
X145436097Y-91318010D01*
X145452521Y-91324373D01*
X145500892Y-91358169D01*
X145528166Y-91410496D01*
X145528166Y-91469504D01*
X145500892Y-91521831D01*
X145452521Y-91555627D01*
X145263941Y-91628683D01*
X145263936Y-91628685D01*
X145258599Y-91630753D01*
X145253727Y-91633769D01*
X145253724Y-91633771D01*
X145074309Y-91744859D01*
X145074301Y-91744864D01*
X145069438Y-91747876D01*
X145065207Y-91751732D01*
X145065203Y-91751736D01*
X144909259Y-91893897D01*
X144909249Y-91893907D01*
X144905019Y-91897764D01*
X144901570Y-91902330D01*
X144901561Y-91902341D01*
X144774394Y-92070738D01*
X144774387Y-92070748D01*
X144770942Y-92075311D01*
X144768392Y-92080431D01*
X144768387Y-92080440D01*
X144674325Y-92269341D01*
X144674321Y-92269349D01*
X144671771Y-92274472D01*
X144670205Y-92279975D01*
X144670201Y-92279986D01*
X144612454Y-92482949D01*
X144610885Y-92488464D01*
X144590357Y-92710000D01*
X144610885Y-92931536D01*
X144612454Y-92937050D01*
X144670201Y-93140013D01*
X144670204Y-93140021D01*
X144671771Y-93145528D01*
X144674323Y-93150653D01*
X144674325Y-93150658D01*
X144768387Y-93339559D01*
X144768389Y-93339563D01*
X144770942Y-93344689D01*
X144774391Y-93349256D01*
X144774394Y-93349261D01*
X144901561Y-93517658D01*
X144901566Y-93517663D01*
X144905019Y-93522236D01*
X144909255Y-93526097D01*
X144909259Y-93526102D01*
X145021603Y-93628517D01*
X145069438Y-93672124D01*
X145258599Y-93789247D01*
X145436097Y-93858010D01*
X145452521Y-93864373D01*
X145500892Y-93898169D01*
X145528166Y-93950496D01*
X145528166Y-94009504D01*
X145500892Y-94061831D01*
X145452521Y-94095627D01*
X145263941Y-94168683D01*
X145263936Y-94168685D01*
X145258599Y-94170753D01*
X145253727Y-94173769D01*
X145253724Y-94173771D01*
X145074309Y-94284859D01*
X145074301Y-94284864D01*
X145069438Y-94287876D01*
X145065207Y-94291732D01*
X145065203Y-94291736D01*
X144909259Y-94433897D01*
X144909249Y-94433907D01*
X144905019Y-94437764D01*
X144901570Y-94442330D01*
X144901561Y-94442341D01*
X144774394Y-94610738D01*
X144774387Y-94610748D01*
X144770942Y-94615311D01*
X144768392Y-94620431D01*
X144768387Y-94620440D01*
X144674325Y-94809341D01*
X144674321Y-94809349D01*
X144671771Y-94814472D01*
X144670205Y-94819975D01*
X144670201Y-94819986D01*
X144612454Y-95022949D01*
X144610885Y-95028464D01*
X144590357Y-95250000D01*
X144610885Y-95471536D01*
X144612454Y-95477050D01*
X144670201Y-95680013D01*
X144670204Y-95680021D01*
X144671771Y-95685528D01*
X144674323Y-95690653D01*
X144674325Y-95690658D01*
X144768387Y-95879559D01*
X144768389Y-95879563D01*
X144770942Y-95884689D01*
X144774391Y-95889256D01*
X144774394Y-95889261D01*
X144901561Y-96057658D01*
X144901566Y-96057663D01*
X144905019Y-96062236D01*
X144909255Y-96066097D01*
X144909259Y-96066102D01*
X145021603Y-96168517D01*
X145069438Y-96212124D01*
X145258599Y-96329247D01*
X145436097Y-96398010D01*
X145452521Y-96404373D01*
X145500892Y-96438169D01*
X145528166Y-96490496D01*
X145528166Y-96549504D01*
X145500892Y-96601831D01*
X145452521Y-96635627D01*
X145263941Y-96708683D01*
X145263936Y-96708685D01*
X145258599Y-96710753D01*
X145253727Y-96713769D01*
X145253724Y-96713771D01*
X145074309Y-96824859D01*
X145074301Y-96824864D01*
X145069438Y-96827876D01*
X145065207Y-96831732D01*
X145065203Y-96831736D01*
X144909259Y-96973897D01*
X144909249Y-96973907D01*
X144905019Y-96977764D01*
X144901570Y-96982330D01*
X144901561Y-96982341D01*
X144774394Y-97150738D01*
X144774387Y-97150748D01*
X144770942Y-97155311D01*
X144768392Y-97160431D01*
X144768387Y-97160440D01*
X144674325Y-97349341D01*
X144674321Y-97349349D01*
X144671771Y-97354472D01*
X144670205Y-97359975D01*
X144670201Y-97359986D01*
X144612454Y-97562949D01*
X144610885Y-97568464D01*
X144590357Y-97790000D01*
X144610885Y-98011536D01*
X144612454Y-98017050D01*
X144670201Y-98220013D01*
X144670204Y-98220021D01*
X144671771Y-98225528D01*
X144674323Y-98230653D01*
X144674325Y-98230658D01*
X144768387Y-98419559D01*
X144768389Y-98419563D01*
X144770942Y-98424689D01*
X144774391Y-98429256D01*
X144774394Y-98429261D01*
X144901561Y-98597658D01*
X144901566Y-98597663D01*
X144905019Y-98602236D01*
X144909255Y-98606097D01*
X144909259Y-98606102D01*
X145021603Y-98708517D01*
X145069438Y-98752124D01*
X145258599Y-98869247D01*
X145436097Y-98938010D01*
X145452521Y-98944373D01*
X145500892Y-98978169D01*
X145528166Y-99030496D01*
X145528166Y-99089504D01*
X145500892Y-99141831D01*
X145452521Y-99175627D01*
X145263941Y-99248683D01*
X145263936Y-99248685D01*
X145258599Y-99250753D01*
X145253727Y-99253769D01*
X145253724Y-99253771D01*
X145074309Y-99364859D01*
X145074301Y-99364864D01*
X145069438Y-99367876D01*
X145065207Y-99371732D01*
X145065203Y-99371736D01*
X144909259Y-99513897D01*
X144909249Y-99513907D01*
X144905019Y-99517764D01*
X144901570Y-99522330D01*
X144901561Y-99522341D01*
X144774394Y-99690738D01*
X144774387Y-99690748D01*
X144770942Y-99695311D01*
X144768392Y-99700431D01*
X144768387Y-99700440D01*
X144674325Y-99889341D01*
X144674321Y-99889349D01*
X144671771Y-99894472D01*
X144670205Y-99899975D01*
X144670201Y-99899986D01*
X144612454Y-100102949D01*
X144610885Y-100108464D01*
X144590357Y-100330000D01*
X144610885Y-100551536D01*
X144612454Y-100557050D01*
X144670201Y-100760013D01*
X144670204Y-100760021D01*
X144671771Y-100765528D01*
X144674323Y-100770653D01*
X144674325Y-100770658D01*
X144768387Y-100959559D01*
X144768389Y-100959563D01*
X144770942Y-100964689D01*
X144774391Y-100969256D01*
X144774394Y-100969261D01*
X144901561Y-101137658D01*
X144901566Y-101137663D01*
X144905019Y-101142236D01*
X144909255Y-101146097D01*
X144909259Y-101146102D01*
X145021603Y-101248517D01*
X145069438Y-101292124D01*
X145258599Y-101409247D01*
X145436097Y-101478010D01*
X145452521Y-101484373D01*
X145500892Y-101518169D01*
X145528166Y-101570496D01*
X145528166Y-101629504D01*
X145500892Y-101681831D01*
X145452521Y-101715627D01*
X145263941Y-101788683D01*
X145263936Y-101788685D01*
X145258599Y-101790753D01*
X145253727Y-101793769D01*
X145253724Y-101793771D01*
X145074309Y-101904859D01*
X145074301Y-101904864D01*
X145069438Y-101907876D01*
X145065207Y-101911732D01*
X145065203Y-101911736D01*
X144909259Y-102053897D01*
X144909249Y-102053907D01*
X144905019Y-102057764D01*
X144901570Y-102062330D01*
X144901561Y-102062341D01*
X144774394Y-102230738D01*
X144774387Y-102230748D01*
X144770942Y-102235311D01*
X144768392Y-102240431D01*
X144768387Y-102240440D01*
X144674325Y-102429341D01*
X144674321Y-102429349D01*
X144671771Y-102434472D01*
X144670205Y-102439975D01*
X144670201Y-102439986D01*
X144612454Y-102642949D01*
X144610885Y-102648464D01*
X144590357Y-102870000D01*
X144610885Y-103091536D01*
X144612454Y-103097050D01*
X144670201Y-103300013D01*
X144670204Y-103300021D01*
X144671771Y-103305528D01*
X144674323Y-103310653D01*
X144674325Y-103310658D01*
X144768387Y-103499559D01*
X144768389Y-103499563D01*
X144770942Y-103504689D01*
X144774391Y-103509256D01*
X144774394Y-103509261D01*
X144901561Y-103677658D01*
X144901566Y-103677663D01*
X144905019Y-103682236D01*
X144909255Y-103686097D01*
X144909259Y-103686102D01*
X145021603Y-103788517D01*
X145069438Y-103832124D01*
X145258599Y-103949247D01*
X145466060Y-104029618D01*
X145684757Y-104070500D01*
X145901514Y-104070500D01*
X145907243Y-104070500D01*
X146125940Y-104029618D01*
X146333401Y-103949247D01*
X146522562Y-103832124D01*
X146686981Y-103682236D01*
X146821058Y-103504689D01*
X146920229Y-103305528D01*
X146981115Y-103091536D01*
X147001643Y-102870000D01*
X146981115Y-102648464D01*
X146920229Y-102434472D01*
X146821058Y-102235311D01*
X146817605Y-102230738D01*
X146690438Y-102062341D01*
X146690434Y-102062337D01*
X146686981Y-102057764D01*
X146682744Y-102053901D01*
X146682740Y-102053897D01*
X146526796Y-101911736D01*
X146526797Y-101911736D01*
X146522562Y-101907876D01*
X146517692Y-101904861D01*
X146517690Y-101904859D01*
X146338275Y-101793771D01*
X146338276Y-101793771D01*
X146333401Y-101790753D01*
X146328059Y-101788683D01*
X146328048Y-101788678D01*
X146139478Y-101715625D01*
X146091107Y-101681829D01*
X146063833Y-101629502D01*
X146063833Y-101570494D01*
X146091107Y-101518168D01*
X146139475Y-101484374D01*
X146333401Y-101409247D01*
X146522562Y-101292124D01*
X146686981Y-101142236D01*
X146821058Y-100964689D01*
X146920229Y-100765528D01*
X146981115Y-100551536D01*
X147001643Y-100330000D01*
X146981115Y-100108464D01*
X146920229Y-99894472D01*
X146821058Y-99695311D01*
X146817605Y-99690738D01*
X146690438Y-99522341D01*
X146690434Y-99522337D01*
X146686981Y-99517764D01*
X146682744Y-99513901D01*
X146682740Y-99513897D01*
X146526796Y-99371736D01*
X146526797Y-99371736D01*
X146522562Y-99367876D01*
X146517692Y-99364861D01*
X146517690Y-99364859D01*
X146338275Y-99253771D01*
X146338276Y-99253771D01*
X146333401Y-99250753D01*
X146139476Y-99175626D01*
X146091107Y-99141831D01*
X146063833Y-99089504D01*
X146063833Y-99030496D01*
X146091107Y-98978169D01*
X146139476Y-98944373D01*
X146333401Y-98869247D01*
X146522562Y-98752124D01*
X146686981Y-98602236D01*
X146821058Y-98424689D01*
X146920229Y-98225528D01*
X146981115Y-98011536D01*
X147001643Y-97790000D01*
X146981115Y-97568464D01*
X146920229Y-97354472D01*
X146821058Y-97155311D01*
X146817605Y-97150738D01*
X146690438Y-96982341D01*
X146690434Y-96982337D01*
X146686981Y-96977764D01*
X146682744Y-96973901D01*
X146682740Y-96973897D01*
X146526796Y-96831736D01*
X146526797Y-96831736D01*
X146522562Y-96827876D01*
X146517692Y-96824861D01*
X146517690Y-96824859D01*
X146338275Y-96713771D01*
X146338276Y-96713771D01*
X146333401Y-96710753D01*
X146139476Y-96635626D01*
X146091107Y-96601831D01*
X146063833Y-96549504D01*
X146063833Y-96490496D01*
X146091107Y-96438169D01*
X146139476Y-96404373D01*
X146333401Y-96329247D01*
X146522562Y-96212124D01*
X146686981Y-96062236D01*
X146821058Y-95884689D01*
X146920229Y-95685528D01*
X146981115Y-95471536D01*
X147001643Y-95250000D01*
X146981115Y-95028464D01*
X146920229Y-94814472D01*
X146821058Y-94615311D01*
X146817605Y-94610738D01*
X146690438Y-94442341D01*
X146690434Y-94442337D01*
X146686981Y-94437764D01*
X146682744Y-94433901D01*
X146682740Y-94433897D01*
X146526796Y-94291736D01*
X146526797Y-94291736D01*
X146522562Y-94287876D01*
X146517692Y-94284861D01*
X146517690Y-94284859D01*
X146338275Y-94173771D01*
X146338276Y-94173771D01*
X146333401Y-94170753D01*
X146328059Y-94168683D01*
X146328048Y-94168678D01*
X146139478Y-94095625D01*
X146091107Y-94061829D01*
X146063833Y-94009502D01*
X146063833Y-93950494D01*
X146091107Y-93898168D01*
X146139475Y-93864374D01*
X146333401Y-93789247D01*
X146522562Y-93672124D01*
X146686981Y-93522236D01*
X146821058Y-93344689D01*
X146920229Y-93145528D01*
X146981115Y-92931536D01*
X147001643Y-92710000D01*
X146981115Y-92488464D01*
X146920229Y-92274472D01*
X146821058Y-92075311D01*
X146817605Y-92070738D01*
X146690438Y-91902341D01*
X146690434Y-91902337D01*
X146686981Y-91897764D01*
X146682744Y-91893901D01*
X146682740Y-91893897D01*
X146526796Y-91751736D01*
X146526797Y-91751736D01*
X146522562Y-91747876D01*
X146517692Y-91744861D01*
X146517690Y-91744859D01*
X146338275Y-91633771D01*
X146338276Y-91633771D01*
X146333401Y-91630753D01*
X146139476Y-91555626D01*
X146091107Y-91521831D01*
X146063833Y-91469504D01*
X146063833Y-91410496D01*
X146091107Y-91358169D01*
X146139476Y-91324373D01*
X146333401Y-91249247D01*
X146522562Y-91132124D01*
X146686981Y-90982236D01*
X146821058Y-90804689D01*
X146920229Y-90605528D01*
X146981115Y-90391536D01*
X147001643Y-90170000D01*
X146981115Y-89948464D01*
X146920229Y-89734472D01*
X146821058Y-89535311D01*
X146817605Y-89530738D01*
X146690438Y-89362341D01*
X146690434Y-89362337D01*
X146686981Y-89357764D01*
X146682744Y-89353901D01*
X146682740Y-89353897D01*
X146526796Y-89211736D01*
X146526797Y-89211736D01*
X146522562Y-89207876D01*
X146517692Y-89204861D01*
X146517690Y-89204859D01*
X146338275Y-89093771D01*
X146338276Y-89093771D01*
X146333401Y-89090753D01*
X146139476Y-89015626D01*
X146091107Y-88981831D01*
X146063833Y-88929504D01*
X146063833Y-88870496D01*
X146091107Y-88818169D01*
X146139476Y-88784373D01*
X146333401Y-88709247D01*
X146522562Y-88592124D01*
X146686981Y-88442236D01*
X146821058Y-88264689D01*
X146920229Y-88065528D01*
X146981115Y-87851536D01*
X147001643Y-87630000D01*
X146981115Y-87408464D01*
X146920229Y-87194472D01*
X146821058Y-86995311D01*
X146817605Y-86990738D01*
X146690438Y-86822341D01*
X146690434Y-86822337D01*
X146686981Y-86817764D01*
X146682744Y-86813901D01*
X146682740Y-86813897D01*
X146526796Y-86671736D01*
X146526797Y-86671736D01*
X146522562Y-86667876D01*
X146517692Y-86664861D01*
X146517690Y-86664859D01*
X146338275Y-86553771D01*
X146338276Y-86553771D01*
X146333401Y-86550753D01*
X146139476Y-86475626D01*
X146091107Y-86441831D01*
X146063833Y-86389504D01*
X146063833Y-86330496D01*
X146091107Y-86278169D01*
X146139476Y-86244373D01*
X146333401Y-86169247D01*
X146522562Y-86052124D01*
X146686981Y-85902236D01*
X146821058Y-85724689D01*
X146920229Y-85525528D01*
X146981115Y-85311536D01*
X147001643Y-85090000D01*
X146981115Y-84868464D01*
X146920229Y-84654472D01*
X146821058Y-84455311D01*
X146817605Y-84450738D01*
X146690438Y-84282341D01*
X146690434Y-84282337D01*
X146686981Y-84277764D01*
X146682744Y-84273901D01*
X146682740Y-84273897D01*
X146526796Y-84131736D01*
X146526797Y-84131736D01*
X146522562Y-84127876D01*
X146517692Y-84124861D01*
X146517690Y-84124859D01*
X146338275Y-84013771D01*
X146338276Y-84013771D01*
X146333401Y-84010753D01*
X146139476Y-83935626D01*
X146091107Y-83901831D01*
X146063833Y-83849504D01*
X146063833Y-83790496D01*
X146091107Y-83738169D01*
X146139476Y-83704373D01*
X146333401Y-83629247D01*
X146522562Y-83512124D01*
X146686981Y-83362236D01*
X146821058Y-83184689D01*
X146920229Y-82985528D01*
X146981115Y-82771536D01*
X147001643Y-82550000D01*
X146981115Y-82328464D01*
X146920229Y-82114472D01*
X146821058Y-81915311D01*
X146817605Y-81910738D01*
X146690438Y-81742341D01*
X146690434Y-81742337D01*
X146686981Y-81737764D01*
X146682744Y-81733901D01*
X146682740Y-81733897D01*
X146526796Y-81591736D01*
X146526797Y-81591736D01*
X146522562Y-81587876D01*
X146517692Y-81584861D01*
X146517690Y-81584859D01*
X146338275Y-81473771D01*
X146338276Y-81473771D01*
X146333401Y-81470753D01*
X146139476Y-81395626D01*
X146091107Y-81361831D01*
X146063833Y-81309504D01*
X146063833Y-81250496D01*
X146091107Y-81198169D01*
X146139476Y-81164373D01*
X146333401Y-81089247D01*
X146522562Y-80972124D01*
X146686981Y-80822236D01*
X146821058Y-80644689D01*
X146920229Y-80445528D01*
X146981115Y-80231536D01*
X147001643Y-80010000D01*
X146981115Y-79788464D01*
X146920229Y-79574472D01*
X146821058Y-79375311D01*
X146817605Y-79370738D01*
X146690438Y-79202341D01*
X146690434Y-79202337D01*
X146686981Y-79197764D01*
X146682744Y-79193901D01*
X146682740Y-79193897D01*
X146526796Y-79051736D01*
X146526797Y-79051736D01*
X146522562Y-79047876D01*
X146517692Y-79044861D01*
X146517690Y-79044859D01*
X146389782Y-78965663D01*
X146333401Y-78930753D01*
X146139476Y-78855626D01*
X146091107Y-78821831D01*
X146063833Y-78769504D01*
X146063833Y-78710496D01*
X146091107Y-78658169D01*
X146139476Y-78624373D01*
X146333401Y-78549247D01*
X146522562Y-78432124D01*
X146686981Y-78282236D01*
X146821058Y-78104689D01*
X146920229Y-77905528D01*
X146981115Y-77691536D01*
X147001643Y-77470000D01*
X146981115Y-77248464D01*
X146920229Y-77034472D01*
X146821058Y-76835311D01*
X146817605Y-76830738D01*
X146690438Y-76662341D01*
X146690434Y-76662337D01*
X146686981Y-76657764D01*
X146682744Y-76653901D01*
X146682740Y-76653897D01*
X146526796Y-76511736D01*
X146526797Y-76511736D01*
X146522562Y-76507876D01*
X146517692Y-76504861D01*
X146517690Y-76504859D01*
X146338275Y-76393771D01*
X146338276Y-76393771D01*
X146333401Y-76390753D01*
X146328059Y-76388683D01*
X146328048Y-76388678D01*
X146139478Y-76315625D01*
X146091107Y-76281829D01*
X146063833Y-76229502D01*
X146063833Y-76170494D01*
X146091107Y-76118168D01*
X146139475Y-76084374D01*
X146333401Y-76009247D01*
X146522562Y-75892124D01*
X146686981Y-75742236D01*
X146821058Y-75564689D01*
X146920229Y-75365528D01*
X146981115Y-75151536D01*
X147001643Y-74930000D01*
X146981115Y-74708464D01*
X146920229Y-74494472D01*
X146821058Y-74295311D01*
X146817605Y-74290738D01*
X146690438Y-74122341D01*
X146690434Y-74122337D01*
X146686981Y-74117764D01*
X146682744Y-74113901D01*
X146682740Y-74113897D01*
X146526796Y-73971736D01*
X146526797Y-73971736D01*
X146522562Y-73967876D01*
X146517692Y-73964861D01*
X146517690Y-73964859D01*
X146338275Y-73853771D01*
X146338276Y-73853771D01*
X146333401Y-73850753D01*
X146139476Y-73775626D01*
X146091107Y-73741831D01*
X146063833Y-73689504D01*
X146063833Y-73630496D01*
X146091107Y-73578169D01*
X146139476Y-73544373D01*
X146333401Y-73469247D01*
X146522562Y-73352124D01*
X146686981Y-73202236D01*
X146821058Y-73024689D01*
X146920229Y-72825528D01*
X146981115Y-72611536D01*
X147001643Y-72390000D01*
X146981115Y-72168464D01*
X146920229Y-71954472D01*
X146821058Y-71755311D01*
X146817605Y-71750738D01*
X146690438Y-71582341D01*
X146690434Y-71582337D01*
X146686981Y-71577764D01*
X146682744Y-71573901D01*
X146682740Y-71573897D01*
X146526796Y-71431736D01*
X146526797Y-71431736D01*
X146522562Y-71427876D01*
X146517692Y-71424861D01*
X146517690Y-71424859D01*
X146338275Y-71313771D01*
X146338276Y-71313771D01*
X146333401Y-71310753D01*
X146139476Y-71235626D01*
X146091107Y-71201831D01*
X146063833Y-71149504D01*
X146063833Y-71090496D01*
X146091107Y-71038169D01*
X146139476Y-71004373D01*
X146333401Y-70929247D01*
X146522562Y-70812124D01*
X146686981Y-70662236D01*
X146821058Y-70484689D01*
X146920229Y-70285528D01*
X146981115Y-70071536D01*
X147001643Y-69850000D01*
X146981115Y-69628464D01*
X146920229Y-69414472D01*
X146821058Y-69215311D01*
X146817605Y-69210738D01*
X146690438Y-69042341D01*
X146690434Y-69042337D01*
X146686981Y-69037764D01*
X146682744Y-69033901D01*
X146682740Y-69033897D01*
X146526796Y-68891736D01*
X146526797Y-68891736D01*
X146522562Y-68887876D01*
X146517692Y-68884861D01*
X146517690Y-68884859D01*
X146338275Y-68773771D01*
X146338276Y-68773771D01*
X146333401Y-68770753D01*
X146328059Y-68768683D01*
X146328048Y-68768678D01*
X146139478Y-68695625D01*
X146091107Y-68661829D01*
X146063833Y-68609502D01*
X146063833Y-68550494D01*
X146091107Y-68498168D01*
X146139475Y-68464374D01*
X146333401Y-68389247D01*
X146522562Y-68272124D01*
X146686981Y-68122236D01*
X146821058Y-67944689D01*
X146920229Y-67745528D01*
X146981115Y-67531536D01*
X147001643Y-67310000D01*
X146981115Y-67088464D01*
X146920229Y-66874472D01*
X146821058Y-66675311D01*
X146817605Y-66670738D01*
X146690438Y-66502341D01*
X146690434Y-66502337D01*
X146686981Y-66497764D01*
X146682744Y-66493901D01*
X146682740Y-66493897D01*
X146526796Y-66351736D01*
X146526797Y-66351736D01*
X146522562Y-66347876D01*
X146517692Y-66344861D01*
X146517690Y-66344859D01*
X146338275Y-66233771D01*
X146338276Y-66233771D01*
X146333401Y-66230753D01*
X146139476Y-66155626D01*
X146091107Y-66121831D01*
X146063833Y-66069504D01*
X146063833Y-66010496D01*
X146091107Y-65958169D01*
X146139476Y-65924373D01*
X146333401Y-65849247D01*
X146522562Y-65732124D01*
X146686981Y-65582236D01*
X146821058Y-65404689D01*
X146920229Y-65205528D01*
X146981115Y-64991536D01*
X147001643Y-64770000D01*
X146981115Y-64548464D01*
X146920229Y-64334472D01*
X146821058Y-64135311D01*
X146817605Y-64130738D01*
X146690438Y-63962341D01*
X146690434Y-63962337D01*
X146686981Y-63957764D01*
X146682744Y-63953901D01*
X146682740Y-63953897D01*
X146526796Y-63811736D01*
X146526797Y-63811736D01*
X146522562Y-63807876D01*
X146517692Y-63804861D01*
X146517690Y-63804859D01*
X146338275Y-63693771D01*
X146338276Y-63693771D01*
X146333401Y-63690753D01*
X146328059Y-63688683D01*
X146328048Y-63688678D01*
X146139478Y-63615625D01*
X146091107Y-63581829D01*
X146063833Y-63529502D01*
X146063833Y-63470494D01*
X146091107Y-63418168D01*
X146139475Y-63384374D01*
X146333401Y-63309247D01*
X146522562Y-63192124D01*
X146686981Y-63042236D01*
X146821058Y-62864689D01*
X146920229Y-62665528D01*
X146981115Y-62451536D01*
X147001643Y-62230000D01*
X146981115Y-62008464D01*
X146920229Y-61794472D01*
X146821058Y-61595311D01*
X146817605Y-61590738D01*
X146690438Y-61422341D01*
X146690434Y-61422337D01*
X146686981Y-61417764D01*
X146682744Y-61413901D01*
X146682740Y-61413897D01*
X146526796Y-61271736D01*
X146526797Y-61271736D01*
X146522562Y-61267876D01*
X146517692Y-61264861D01*
X146517690Y-61264859D01*
X146338275Y-61153771D01*
X146338276Y-61153771D01*
X146333401Y-61150753D01*
X146328059Y-61148683D01*
X146328048Y-61148678D01*
X146139478Y-61075625D01*
X146091107Y-61041829D01*
X146063833Y-60989502D01*
X146063833Y-60930494D01*
X146091107Y-60878168D01*
X146139475Y-60844374D01*
X146333401Y-60769247D01*
X146522562Y-60652124D01*
X146686981Y-60502236D01*
X146821058Y-60324689D01*
X146920229Y-60125528D01*
X146981115Y-59911536D01*
X147001643Y-59690000D01*
X146981115Y-59468464D01*
X146920229Y-59254472D01*
X146821058Y-59055311D01*
X146817605Y-59050738D01*
X146690438Y-58882341D01*
X146690434Y-58882337D01*
X146686981Y-58877764D01*
X146682744Y-58873901D01*
X146682740Y-58873897D01*
X146556646Y-58758948D01*
X146522562Y-58727876D01*
X146517692Y-58724861D01*
X146517690Y-58724859D01*
X146389782Y-58645663D01*
X146333401Y-58610753D01*
X146317949Y-58604767D01*
X146283105Y-58591268D01*
X146139476Y-58535626D01*
X146091107Y-58501831D01*
X146063833Y-58449504D01*
X146063833Y-58390496D01*
X146091107Y-58338169D01*
X146139476Y-58304373D01*
X146333401Y-58229247D01*
X146522562Y-58112124D01*
X146686981Y-57962236D01*
X146771908Y-57849773D01*
X146815591Y-57813500D01*
X146870863Y-57800500D01*
X148777192Y-57800500D01*
X148824645Y-57809939D01*
X148864873Y-57836819D01*
X150951181Y-59923127D01*
X150978061Y-59963355D01*
X150987500Y-60010808D01*
X150987500Y-110154927D01*
X150986950Y-110166596D01*
X150986941Y-110166682D01*
X150985240Y-110174296D01*
X150985485Y-110182092D01*
X150985485Y-110182093D01*
X150987439Y-110244262D01*
X150987500Y-110248157D01*
X150987500Y-110276925D01*
X150987987Y-110280785D01*
X150987989Y-110280808D01*
X150988054Y-110281320D01*
X150988968Y-110292941D01*
X150990157Y-110330775D01*
X150990158Y-110330782D01*
X150990403Y-110338569D01*
X150992577Y-110346055D01*
X150992578Y-110346056D01*
X150996323Y-110358947D01*
X151000268Y-110377997D01*
X151001950Y-110391317D01*
X151001951Y-110391324D01*
X151002929Y-110399058D01*
X151005800Y-110406309D01*
X151005802Y-110406317D01*
X151019737Y-110441515D01*
X151023520Y-110452562D01*
X151036256Y-110496398D01*
X151040225Y-110503109D01*
X151040228Y-110503116D01*
X151047062Y-110514672D01*
X151055620Y-110532141D01*
X151057141Y-110535982D01*
X151063432Y-110551871D01*
X151068016Y-110558180D01*
X151090267Y-110588808D01*
X151096677Y-110598567D01*
X151111622Y-110623836D01*
X151119919Y-110637865D01*
X151125438Y-110643384D01*
X151134926Y-110652872D01*
X151147563Y-110667668D01*
X151155449Y-110678523D01*
X151155451Y-110678525D01*
X151160037Y-110684837D01*
X151166047Y-110689808D01*
X151166049Y-110689811D01*
X151195212Y-110713936D01*
X151203853Y-110721799D01*
X156454694Y-115972640D01*
X156462554Y-115981277D01*
X156462619Y-115981356D01*
X156466798Y-115987940D01*
X156472481Y-115993277D01*
X156472483Y-115993279D01*
X156517832Y-116035864D01*
X156520629Y-116038575D01*
X156540965Y-116058911D01*
X156544036Y-116061293D01*
X156544437Y-116061604D01*
X156553323Y-116069192D01*
X156586607Y-116100448D01*
X156593438Y-116104203D01*
X156593439Y-116104204D01*
X156605204Y-116110672D01*
X156621469Y-116121356D01*
X156638236Y-116134362D01*
X156646119Y-116137773D01*
X156680129Y-116152490D01*
X156690620Y-116157629D01*
X156730632Y-116179627D01*
X156738186Y-116181566D01*
X156738188Y-116181567D01*
X156740842Y-116182248D01*
X156751187Y-116184904D01*
X156769597Y-116191206D01*
X156789073Y-116199635D01*
X156834179Y-116206778D01*
X156845578Y-116209139D01*
X156889823Y-116220500D01*
X156911052Y-116220500D01*
X156930449Y-116222026D01*
X156951405Y-116225346D01*
X156991045Y-116221598D01*
X156996853Y-116221050D01*
X157008522Y-116220500D01*
X161900175Y-116220500D01*
X161964325Y-116238383D01*
X162009972Y-116286874D01*
X162023949Y-116351987D01*
X162002225Y-116414940D01*
X161939444Y-116505893D01*
X161939441Y-116505897D01*
X161935181Y-116512070D01*
X161932522Y-116519081D01*
X161932519Y-116519087D01*
X161877519Y-116664111D01*
X161877516Y-116664119D01*
X161874859Y-116671128D01*
X161873955Y-116678570D01*
X161873954Y-116678576D01*
X161863699Y-116763036D01*
X161854354Y-116840000D01*
X161855258Y-116847445D01*
X161873954Y-117001423D01*
X161873955Y-117001427D01*
X161874859Y-117008872D01*
X161877518Y-117015883D01*
X161877520Y-117015891D01*
X161901441Y-117078965D01*
X161909499Y-117122935D01*
X161909499Y-118282926D01*
X161908949Y-118294595D01*
X161908940Y-118294681D01*
X161907239Y-118302295D01*
X161907484Y-118310091D01*
X161907484Y-118310092D01*
X161909438Y-118372261D01*
X161909499Y-118376156D01*
X161909499Y-118404924D01*
X161909986Y-118408784D01*
X161909988Y-118408807D01*
X161910053Y-118409319D01*
X161910967Y-118420940D01*
X161912156Y-118458774D01*
X161912157Y-118458781D01*
X161912402Y-118466568D01*
X161914576Y-118474054D01*
X161914577Y-118474055D01*
X161918322Y-118486946D01*
X161922267Y-118505996D01*
X161923949Y-118519316D01*
X161923950Y-118519323D01*
X161924928Y-118527057D01*
X161927799Y-118534308D01*
X161927801Y-118534316D01*
X161941736Y-118569514D01*
X161945519Y-118580561D01*
X161958255Y-118624397D01*
X161962224Y-118631108D01*
X161962227Y-118631115D01*
X161969061Y-118642671D01*
X161977619Y-118660140D01*
X161985431Y-118679870D01*
X162000082Y-118700037D01*
X162012266Y-118716807D01*
X162018676Y-118726566D01*
X162037944Y-118759145D01*
X162041918Y-118765864D01*
X162047437Y-118771383D01*
X162056925Y-118780871D01*
X162069562Y-118795667D01*
X162077448Y-118806522D01*
X162077450Y-118806524D01*
X162082036Y-118812836D01*
X162088046Y-118817807D01*
X162088048Y-118817810D01*
X162117211Y-118841935D01*
X162125852Y-118849798D01*
X164074694Y-120798640D01*
X164082554Y-120807277D01*
X164082619Y-120807356D01*
X164086798Y-120813940D01*
X164092481Y-120819277D01*
X164092483Y-120819279D01*
X164137832Y-120861864D01*
X164140629Y-120864575D01*
X164160965Y-120884911D01*
X164164036Y-120887293D01*
X164164437Y-120887604D01*
X164173323Y-120895192D01*
X164206607Y-120926448D01*
X164213438Y-120930203D01*
X164213439Y-120930204D01*
X164225204Y-120936672D01*
X164241469Y-120947356D01*
X164258236Y-120960362D01*
X164300129Y-120978490D01*
X164310620Y-120983629D01*
X164350632Y-121005627D01*
X164358186Y-121007566D01*
X164358188Y-121007567D01*
X164360842Y-121008248D01*
X164371187Y-121010904D01*
X164389597Y-121017206D01*
X164409073Y-121025635D01*
X164454179Y-121032778D01*
X164465578Y-121035139D01*
X164509823Y-121046500D01*
X164531052Y-121046500D01*
X164550449Y-121048026D01*
X164571405Y-121051346D01*
X164611045Y-121047598D01*
X164616853Y-121047050D01*
X164628522Y-121046500D01*
X176162927Y-121046500D01*
X176174596Y-121047050D01*
X176174681Y-121047058D01*
X176182296Y-121048760D01*
X176252262Y-121046560D01*
X176256157Y-121046500D01*
X176281025Y-121046500D01*
X176284925Y-121046500D01*
X176289294Y-121045947D01*
X176300939Y-121045030D01*
X176346569Y-121043597D01*
X176366951Y-121037674D01*
X176385991Y-121033731D01*
X176407058Y-121031071D01*
X176428612Y-121022537D01*
X176449508Y-121014264D01*
X176460557Y-121010480D01*
X176504398Y-120997744D01*
X176522660Y-120986942D01*
X176540136Y-120978380D01*
X176559871Y-120970568D01*
X176596816Y-120943725D01*
X176606558Y-120937326D01*
X176645865Y-120914081D01*
X176660869Y-120899076D01*
X176675664Y-120886438D01*
X176692837Y-120873963D01*
X176721947Y-120838772D01*
X176729790Y-120830154D01*
X177312124Y-120247819D01*
X177358029Y-120218750D01*
X177411955Y-120212099D01*
X177451000Y-120215945D01*
X177651347Y-120196213D01*
X177843995Y-120137773D01*
X178021540Y-120042874D01*
X178177160Y-119915160D01*
X178304874Y-119759540D01*
X178341643Y-119690748D01*
X178387251Y-119642846D01*
X178451000Y-119625204D01*
X178514749Y-119642846D01*
X178560356Y-119690748D01*
X178597126Y-119759540D01*
X178724840Y-119915160D01*
X178880460Y-120042874D01*
X179058005Y-120137773D01*
X179250653Y-120196213D01*
X179451000Y-120215945D01*
X179651347Y-120196213D01*
X179843995Y-120137773D01*
X180021540Y-120042874D01*
X180177160Y-119915160D01*
X180304874Y-119759540D01*
X180341643Y-119690748D01*
X180387251Y-119642846D01*
X180451000Y-119625204D01*
X180514749Y-119642846D01*
X180560356Y-119690748D01*
X180597126Y-119759540D01*
X180724840Y-119915160D01*
X180880460Y-120042874D01*
X181058005Y-120137773D01*
X181250653Y-120196213D01*
X181451000Y-120215945D01*
X181651347Y-120196213D01*
X181843995Y-120137773D01*
X182021540Y-120042874D01*
X182177160Y-119915160D01*
X182304874Y-119759540D01*
X182341643Y-119690748D01*
X182387251Y-119642846D01*
X182451000Y-119625204D01*
X182514749Y-119642846D01*
X182560356Y-119690748D01*
X182597126Y-119759540D01*
X182724840Y-119915160D01*
X182880460Y-120042874D01*
X183058005Y-120137773D01*
X183250653Y-120196213D01*
X183451000Y-120215945D01*
X183651347Y-120196213D01*
X183843995Y-120137773D01*
X184021540Y-120042874D01*
X184177160Y-119915160D01*
X184304874Y-119759540D01*
X184341643Y-119690748D01*
X184387251Y-119642846D01*
X184451000Y-119625204D01*
X184514749Y-119642846D01*
X184560356Y-119690748D01*
X184597126Y-119759540D01*
X184724840Y-119915160D01*
X184880460Y-120042874D01*
X185058005Y-120137773D01*
X185250653Y-120196213D01*
X185451000Y-120215945D01*
X185651347Y-120196213D01*
X185843995Y-120137773D01*
X186021540Y-120042874D01*
X186177160Y-119915160D01*
X186304874Y-119759540D01*
X186341643Y-119690748D01*
X186387251Y-119642846D01*
X186451000Y-119625204D01*
X186514749Y-119642846D01*
X186560356Y-119690748D01*
X186597126Y-119759540D01*
X186724840Y-119915160D01*
X186880460Y-120042874D01*
X187058005Y-120137773D01*
X187250653Y-120196213D01*
X187451000Y-120215945D01*
X187651347Y-120196213D01*
X187843995Y-120137773D01*
X188021540Y-120042874D01*
X188177160Y-119915160D01*
X188304874Y-119759540D01*
X188399773Y-119581995D01*
X188458213Y-119389347D01*
X188477945Y-119189000D01*
X188458213Y-118988653D01*
X188399773Y-118796005D01*
X188304874Y-118618460D01*
X188177160Y-118462840D01*
X188111944Y-118409319D01*
X188026252Y-118338993D01*
X188026251Y-118338992D01*
X188021540Y-118335126D01*
X187952748Y-118298356D01*
X187904846Y-118252749D01*
X187887204Y-118189000D01*
X187904846Y-118125251D01*
X187952748Y-118079643D01*
X188021540Y-118042874D01*
X188177160Y-117915160D01*
X188304874Y-117759540D01*
X188399773Y-117581995D01*
X188458213Y-117389347D01*
X188477945Y-117189000D01*
X188458213Y-116988653D01*
X188399773Y-116796005D01*
X188304874Y-116618460D01*
X188177160Y-116462840D01*
X188021540Y-116335126D01*
X187977492Y-116311582D01*
X187952750Y-116298357D01*
X187904845Y-116252747D01*
X187887204Y-116188998D01*
X187904847Y-116125249D01*
X187952750Y-116079642D01*
X188021540Y-116042874D01*
X188177160Y-115915160D01*
X188304874Y-115759540D01*
X188399773Y-115581995D01*
X188458213Y-115389347D01*
X188477945Y-115189000D01*
X188458213Y-114988653D01*
X188399773Y-114796005D01*
X188304874Y-114618460D01*
X188177160Y-114462840D01*
X188021540Y-114335126D01*
X187977492Y-114311582D01*
X187952750Y-114298357D01*
X187904845Y-114252747D01*
X187887204Y-114188998D01*
X187904847Y-114125249D01*
X187952750Y-114079642D01*
X188021540Y-114042874D01*
X188177160Y-113915160D01*
X188304874Y-113759540D01*
X188399773Y-113581995D01*
X188458213Y-113389347D01*
X188477945Y-113189000D01*
X188458213Y-112988653D01*
X188399773Y-112796005D01*
X188304874Y-112618460D01*
X188177160Y-112462840D01*
X188172453Y-112458977D01*
X188121510Y-112417169D01*
X188087161Y-112372343D01*
X188076252Y-112316933D01*
X188091048Y-112262432D01*
X188128479Y-112220145D01*
X188180781Y-112198842D01*
X188182073Y-112198637D01*
X188197804Y-112196146D01*
X188310842Y-112138550D01*
X188400550Y-112048842D01*
X188458146Y-111935804D01*
X188473000Y-111842019D01*
X188472999Y-110535982D01*
X188458146Y-110442196D01*
X188400550Y-110329158D01*
X188310842Y-110239450D01*
X188197804Y-110181854D01*
X188188167Y-110180327D01*
X188188162Y-110180326D01*
X188108839Y-110167763D01*
X188108833Y-110167762D01*
X188104019Y-110167000D01*
X188099140Y-110167000D01*
X186802852Y-110167000D01*
X186802839Y-110167000D01*
X186797982Y-110167001D01*
X186793180Y-110167761D01*
X186793173Y-110167762D01*
X186713831Y-110180328D01*
X186713830Y-110180328D01*
X186704196Y-110181854D01*
X186695510Y-110186279D01*
X186695503Y-110186282D01*
X186599853Y-110235019D01*
X186599849Y-110235021D01*
X186591158Y-110239450D01*
X186584259Y-110246348D01*
X186584256Y-110246351D01*
X186508351Y-110322256D01*
X186508348Y-110322259D01*
X186501450Y-110329158D01*
X186497021Y-110337849D01*
X186497019Y-110337853D01*
X186481497Y-110368317D01*
X186443854Y-110442196D01*
X186442327Y-110451830D01*
X186442326Y-110451837D01*
X186441157Y-110459224D01*
X186419853Y-110511524D01*
X186377566Y-110548953D01*
X186323065Y-110563748D01*
X186267656Y-110552839D01*
X186222831Y-110518490D01*
X186181022Y-110467546D01*
X186177160Y-110462840D01*
X186163745Y-110451831D01*
X186026252Y-110338993D01*
X186026251Y-110338992D01*
X186021540Y-110335126D01*
X185843995Y-110240227D01*
X185838166Y-110238459D01*
X185838162Y-110238457D01*
X185657181Y-110183556D01*
X185657173Y-110183554D01*
X185651347Y-110181787D01*
X185645288Y-110181190D01*
X185645282Y-110181189D01*
X185457062Y-110162652D01*
X185451000Y-110162055D01*
X185444938Y-110162652D01*
X185256717Y-110181189D01*
X185256709Y-110181190D01*
X185250653Y-110181787D01*
X185244828Y-110183553D01*
X185244818Y-110183556D01*
X185063837Y-110238457D01*
X185063829Y-110238460D01*
X185058005Y-110240227D01*
X185052633Y-110243098D01*
X185052629Y-110243100D01*
X184885836Y-110332252D01*
X184885832Y-110332254D01*
X184880460Y-110335126D01*
X184875752Y-110338989D01*
X184875747Y-110338993D01*
X184729546Y-110458977D01*
X184729541Y-110458981D01*
X184724840Y-110462840D01*
X184720981Y-110467541D01*
X184720977Y-110467546D01*
X184600993Y-110613747D01*
X184600989Y-110613752D01*
X184597126Y-110618460D01*
X184594258Y-110623824D01*
X184594251Y-110623836D01*
X184560358Y-110687248D01*
X184514749Y-110735153D01*
X184451000Y-110752795D01*
X184387251Y-110735153D01*
X184341642Y-110687248D01*
X184307748Y-110623836D01*
X184307745Y-110623832D01*
X184304874Y-110618460D01*
X184177160Y-110462840D01*
X184163745Y-110451831D01*
X184026252Y-110338993D01*
X184026251Y-110338992D01*
X184021540Y-110335126D01*
X183843995Y-110240227D01*
X183838166Y-110238459D01*
X183838162Y-110238457D01*
X183657181Y-110183556D01*
X183657173Y-110183554D01*
X183651347Y-110181787D01*
X183645288Y-110181190D01*
X183645282Y-110181189D01*
X183457062Y-110162652D01*
X183451000Y-110162055D01*
X183444938Y-110162652D01*
X183256717Y-110181189D01*
X183256709Y-110181190D01*
X183250653Y-110181787D01*
X183244828Y-110183553D01*
X183244818Y-110183556D01*
X183063837Y-110238457D01*
X183063829Y-110238460D01*
X183058005Y-110240227D01*
X183052633Y-110243098D01*
X183052629Y-110243100D01*
X182885836Y-110332252D01*
X182885832Y-110332254D01*
X182880460Y-110335126D01*
X182875752Y-110338989D01*
X182875747Y-110338993D01*
X182729546Y-110458977D01*
X182729541Y-110458981D01*
X182724840Y-110462840D01*
X182720981Y-110467541D01*
X182720977Y-110467546D01*
X182600993Y-110613747D01*
X182600989Y-110613752D01*
X182597126Y-110618460D01*
X182594258Y-110623824D01*
X182594251Y-110623836D01*
X182560358Y-110687248D01*
X182514749Y-110735153D01*
X182451000Y-110752795D01*
X182387251Y-110735153D01*
X182341642Y-110687248D01*
X182307748Y-110623836D01*
X182307745Y-110623832D01*
X182304874Y-110618460D01*
X182177160Y-110462840D01*
X182163745Y-110451831D01*
X182026252Y-110338993D01*
X182026251Y-110338992D01*
X182021540Y-110335126D01*
X181843995Y-110240227D01*
X181838166Y-110238459D01*
X181838162Y-110238457D01*
X181657181Y-110183556D01*
X181657173Y-110183554D01*
X181651347Y-110181787D01*
X181645288Y-110181190D01*
X181645282Y-110181189D01*
X181457062Y-110162652D01*
X181451000Y-110162055D01*
X181444938Y-110162652D01*
X181256717Y-110181189D01*
X181256709Y-110181190D01*
X181250653Y-110181787D01*
X181244828Y-110183553D01*
X181244818Y-110183556D01*
X181063837Y-110238457D01*
X181063829Y-110238460D01*
X181058005Y-110240227D01*
X181052633Y-110243098D01*
X181052629Y-110243100D01*
X180885836Y-110332252D01*
X180885832Y-110332254D01*
X180880460Y-110335126D01*
X180875752Y-110338989D01*
X180875747Y-110338993D01*
X180729546Y-110458977D01*
X180729541Y-110458981D01*
X180724840Y-110462840D01*
X180720981Y-110467541D01*
X180720977Y-110467546D01*
X180600993Y-110613747D01*
X180600989Y-110613752D01*
X180597126Y-110618460D01*
X180594258Y-110623824D01*
X180594251Y-110623836D01*
X180560358Y-110687248D01*
X180514749Y-110735153D01*
X180451000Y-110752795D01*
X180387251Y-110735153D01*
X180341642Y-110687248D01*
X180307748Y-110623836D01*
X180307745Y-110623832D01*
X180304874Y-110618460D01*
X180177160Y-110462840D01*
X180163745Y-110451831D01*
X180026252Y-110338993D01*
X180026251Y-110338992D01*
X180021540Y-110335126D01*
X179843995Y-110240227D01*
X179838166Y-110238459D01*
X179838162Y-110238457D01*
X179657181Y-110183556D01*
X179657173Y-110183554D01*
X179651347Y-110181787D01*
X179645288Y-110181190D01*
X179645282Y-110181189D01*
X179457062Y-110162652D01*
X179451000Y-110162055D01*
X179444938Y-110162652D01*
X179256717Y-110181189D01*
X179256709Y-110181190D01*
X179250653Y-110181787D01*
X179244828Y-110183553D01*
X179244818Y-110183556D01*
X179063837Y-110238457D01*
X179063829Y-110238460D01*
X179058005Y-110240227D01*
X179052633Y-110243098D01*
X179052629Y-110243100D01*
X178885836Y-110332252D01*
X178885832Y-110332254D01*
X178880460Y-110335126D01*
X178875752Y-110338989D01*
X178875747Y-110338993D01*
X178729546Y-110458977D01*
X178729541Y-110458981D01*
X178724840Y-110462840D01*
X178720981Y-110467541D01*
X178720977Y-110467546D01*
X178600993Y-110613747D01*
X178600989Y-110613752D01*
X178597126Y-110618460D01*
X178594258Y-110623824D01*
X178594251Y-110623836D01*
X178560358Y-110687248D01*
X178514749Y-110735153D01*
X178451000Y-110752795D01*
X178387251Y-110735153D01*
X178341642Y-110687248D01*
X178307748Y-110623836D01*
X178307745Y-110623832D01*
X178304874Y-110618460D01*
X178177160Y-110462840D01*
X178163745Y-110451831D01*
X178026252Y-110338993D01*
X178026251Y-110338992D01*
X178021540Y-110335126D01*
X177843995Y-110240227D01*
X177838166Y-110238459D01*
X177838162Y-110238457D01*
X177657181Y-110183556D01*
X177657173Y-110183554D01*
X177651347Y-110181787D01*
X177645288Y-110181190D01*
X177645282Y-110181189D01*
X177457062Y-110162652D01*
X177451000Y-110162055D01*
X177444938Y-110162652D01*
X177256717Y-110181189D01*
X177256709Y-110181190D01*
X177250653Y-110181787D01*
X177244828Y-110183553D01*
X177244818Y-110183556D01*
X177063837Y-110238457D01*
X177063829Y-110238460D01*
X177058005Y-110240227D01*
X177052633Y-110243098D01*
X177052629Y-110243100D01*
X176885836Y-110332252D01*
X176885832Y-110332254D01*
X176880460Y-110335126D01*
X176875752Y-110338989D01*
X176875747Y-110338993D01*
X176729546Y-110458977D01*
X176729541Y-110458981D01*
X176724840Y-110462840D01*
X176720981Y-110467541D01*
X176720977Y-110467546D01*
X176600993Y-110613747D01*
X176600989Y-110613752D01*
X176597126Y-110618460D01*
X176594258Y-110623824D01*
X176594251Y-110623836D01*
X176560358Y-110687248D01*
X176514749Y-110735153D01*
X176451000Y-110752795D01*
X176387251Y-110735153D01*
X176341642Y-110687248D01*
X176307748Y-110623836D01*
X176307745Y-110623832D01*
X176304874Y-110618460D01*
X176177160Y-110462840D01*
X176163745Y-110451831D01*
X176026252Y-110338993D01*
X176026251Y-110338992D01*
X176021540Y-110335126D01*
X175843995Y-110240227D01*
X175838166Y-110238459D01*
X175838162Y-110238457D01*
X175657181Y-110183556D01*
X175657173Y-110183554D01*
X175651347Y-110181787D01*
X175645288Y-110181190D01*
X175645282Y-110181189D01*
X175457062Y-110162652D01*
X175451000Y-110162055D01*
X175444938Y-110162652D01*
X175256717Y-110181189D01*
X175256709Y-110181190D01*
X175250653Y-110181787D01*
X175244828Y-110183553D01*
X175244818Y-110183556D01*
X175063837Y-110238457D01*
X175063829Y-110238460D01*
X175058005Y-110240227D01*
X175052633Y-110243098D01*
X175052629Y-110243100D01*
X174885836Y-110332252D01*
X174885832Y-110332254D01*
X174880460Y-110335126D01*
X174875752Y-110338989D01*
X174875747Y-110338993D01*
X174729546Y-110458977D01*
X174729541Y-110458981D01*
X174724840Y-110462840D01*
X174720981Y-110467541D01*
X174720977Y-110467546D01*
X174600993Y-110613747D01*
X174600989Y-110613752D01*
X174597126Y-110618460D01*
X174594258Y-110623824D01*
X174594251Y-110623836D01*
X174560358Y-110687248D01*
X174514749Y-110735153D01*
X174451000Y-110752795D01*
X174387251Y-110735153D01*
X174341642Y-110687248D01*
X174307748Y-110623836D01*
X174307745Y-110623832D01*
X174304874Y-110618460D01*
X174177160Y-110462840D01*
X174163745Y-110451831D01*
X174026252Y-110338993D01*
X174026251Y-110338992D01*
X174021540Y-110335126D01*
X173843995Y-110240227D01*
X173838166Y-110238459D01*
X173838162Y-110238457D01*
X173657181Y-110183556D01*
X173657173Y-110183554D01*
X173651347Y-110181787D01*
X173645288Y-110181190D01*
X173645282Y-110181189D01*
X173457062Y-110162652D01*
X173451000Y-110162055D01*
X173444938Y-110162652D01*
X173256717Y-110181189D01*
X173256709Y-110181190D01*
X173250653Y-110181787D01*
X173244828Y-110183553D01*
X173244818Y-110183556D01*
X173063837Y-110238457D01*
X173063829Y-110238460D01*
X173058005Y-110240227D01*
X173052633Y-110243098D01*
X173052629Y-110243100D01*
X172885836Y-110332252D01*
X172885832Y-110332254D01*
X172880460Y-110335126D01*
X172875752Y-110338989D01*
X172875747Y-110338993D01*
X172729546Y-110458977D01*
X172729541Y-110458981D01*
X172724840Y-110462840D01*
X172720981Y-110467541D01*
X172720977Y-110467546D01*
X172600993Y-110613747D01*
X172600989Y-110613752D01*
X172597126Y-110618460D01*
X172594258Y-110623824D01*
X172594251Y-110623836D01*
X172560358Y-110687248D01*
X172514749Y-110735153D01*
X172451000Y-110752795D01*
X172387251Y-110735153D01*
X172341642Y-110687248D01*
X172307748Y-110623836D01*
X172307745Y-110623832D01*
X172304874Y-110618460D01*
X172177160Y-110462840D01*
X172163745Y-110451831D01*
X172026252Y-110338993D01*
X172026251Y-110338992D01*
X172021540Y-110335126D01*
X171843995Y-110240227D01*
X171838166Y-110238459D01*
X171838162Y-110238457D01*
X171657181Y-110183556D01*
X171657173Y-110183554D01*
X171651347Y-110181787D01*
X171645288Y-110181190D01*
X171645282Y-110181189D01*
X171457062Y-110162652D01*
X171451000Y-110162055D01*
X171444938Y-110162652D01*
X171256717Y-110181189D01*
X171256709Y-110181190D01*
X171250653Y-110181787D01*
X171244828Y-110183553D01*
X171244818Y-110183556D01*
X171063837Y-110238457D01*
X171063829Y-110238460D01*
X171058005Y-110240227D01*
X171052633Y-110243098D01*
X171052629Y-110243100D01*
X170885836Y-110332252D01*
X170885832Y-110332254D01*
X170880460Y-110335126D01*
X170875752Y-110338989D01*
X170875747Y-110338993D01*
X170729546Y-110458977D01*
X170729541Y-110458981D01*
X170724840Y-110462840D01*
X170720981Y-110467541D01*
X170720977Y-110467546D01*
X170600993Y-110613747D01*
X170600989Y-110613752D01*
X170597126Y-110618460D01*
X170594258Y-110623824D01*
X170594251Y-110623836D01*
X170560358Y-110687248D01*
X170514749Y-110735153D01*
X170451000Y-110752795D01*
X170387251Y-110735153D01*
X170341642Y-110687248D01*
X170307748Y-110623836D01*
X170307745Y-110623832D01*
X170304874Y-110618460D01*
X170177160Y-110462840D01*
X170163745Y-110451831D01*
X170026252Y-110338993D01*
X170026251Y-110338992D01*
X170021540Y-110335126D01*
X169843995Y-110240227D01*
X169838166Y-110238459D01*
X169838162Y-110238457D01*
X169657181Y-110183556D01*
X169657173Y-110183554D01*
X169651347Y-110181787D01*
X169645288Y-110181190D01*
X169645282Y-110181189D01*
X169457062Y-110162652D01*
X169451000Y-110162055D01*
X169444938Y-110162652D01*
X169256717Y-110181189D01*
X169256709Y-110181190D01*
X169250653Y-110181787D01*
X169244828Y-110183553D01*
X169244818Y-110183556D01*
X169063837Y-110238457D01*
X169063829Y-110238460D01*
X169058005Y-110240227D01*
X169052633Y-110243098D01*
X169052629Y-110243100D01*
X168885836Y-110332252D01*
X168885832Y-110332254D01*
X168880460Y-110335126D01*
X168875752Y-110338989D01*
X168875747Y-110338993D01*
X168729546Y-110458977D01*
X168729541Y-110458981D01*
X168724840Y-110462840D01*
X168720981Y-110467541D01*
X168720977Y-110467546D01*
X168600993Y-110613747D01*
X168600989Y-110613752D01*
X168597126Y-110618460D01*
X168594258Y-110623824D01*
X168594251Y-110623836D01*
X168560358Y-110687248D01*
X168514749Y-110735153D01*
X168451000Y-110752795D01*
X168387251Y-110735153D01*
X168341642Y-110687248D01*
X168307748Y-110623836D01*
X168307745Y-110623832D01*
X168304874Y-110618460D01*
X168177160Y-110462840D01*
X168163745Y-110451831D01*
X168026252Y-110338993D01*
X168026251Y-110338992D01*
X168021540Y-110335126D01*
X167843995Y-110240227D01*
X167838166Y-110238459D01*
X167838162Y-110238457D01*
X167657181Y-110183556D01*
X167657173Y-110183554D01*
X167651347Y-110181787D01*
X167645288Y-110181190D01*
X167645282Y-110181189D01*
X167457062Y-110162652D01*
X167451000Y-110162055D01*
X167444938Y-110162652D01*
X167256717Y-110181189D01*
X167256709Y-110181190D01*
X167250653Y-110181787D01*
X167244828Y-110183553D01*
X167244818Y-110183556D01*
X167063837Y-110238457D01*
X167063829Y-110238460D01*
X167058005Y-110240227D01*
X167052633Y-110243098D01*
X167052629Y-110243100D01*
X166885836Y-110332252D01*
X166885832Y-110332254D01*
X166880460Y-110335126D01*
X166875752Y-110338989D01*
X166875747Y-110338993D01*
X166729546Y-110458977D01*
X166729541Y-110458981D01*
X166724840Y-110462840D01*
X166720981Y-110467541D01*
X166720977Y-110467546D01*
X166600993Y-110613747D01*
X166600989Y-110613752D01*
X166597126Y-110618460D01*
X166594258Y-110623824D01*
X166594251Y-110623836D01*
X166560358Y-110687248D01*
X166514749Y-110735153D01*
X166451000Y-110752795D01*
X166387251Y-110735153D01*
X166341642Y-110687248D01*
X166307748Y-110623836D01*
X166307745Y-110623832D01*
X166304874Y-110618460D01*
X166177160Y-110462840D01*
X166163745Y-110451831D01*
X166026252Y-110338993D01*
X166026251Y-110338992D01*
X166021540Y-110335126D01*
X165843995Y-110240227D01*
X165838166Y-110238459D01*
X165838162Y-110238457D01*
X165657181Y-110183556D01*
X165657173Y-110183554D01*
X165651347Y-110181787D01*
X165645288Y-110181190D01*
X165645282Y-110181189D01*
X165457062Y-110162652D01*
X165451000Y-110162055D01*
X165444938Y-110162652D01*
X165256717Y-110181189D01*
X165256709Y-110181190D01*
X165250653Y-110181787D01*
X165244828Y-110183553D01*
X165244818Y-110183556D01*
X165063837Y-110238457D01*
X165063829Y-110238460D01*
X165058005Y-110240227D01*
X165052633Y-110243098D01*
X165052629Y-110243100D01*
X164885836Y-110332252D01*
X164885832Y-110332254D01*
X164880460Y-110335126D01*
X164875752Y-110338989D01*
X164875747Y-110338993D01*
X164729546Y-110458977D01*
X164729541Y-110458981D01*
X164724840Y-110462840D01*
X164720981Y-110467541D01*
X164720977Y-110467546D01*
X164600993Y-110613747D01*
X164600989Y-110613752D01*
X164597126Y-110618460D01*
X164594254Y-110623832D01*
X164594252Y-110623836D01*
X164505100Y-110790629D01*
X164505098Y-110790633D01*
X164502227Y-110796005D01*
X164500460Y-110801829D01*
X164500457Y-110801837D01*
X164445556Y-110982818D01*
X164445553Y-110982828D01*
X164443787Y-110988653D01*
X164443190Y-110994709D01*
X164443189Y-110994717D01*
X164424652Y-111182938D01*
X164424055Y-111189000D01*
X164424652Y-111195062D01*
X164443189Y-111383282D01*
X164443190Y-111383288D01*
X164443787Y-111389347D01*
X164445554Y-111395173D01*
X164445556Y-111395181D01*
X164500457Y-111576162D01*
X164500459Y-111576166D01*
X164502227Y-111581995D01*
X164597126Y-111759540D01*
X164724840Y-111915160D01*
X164880460Y-112042874D01*
X164885832Y-112045745D01*
X164885836Y-112045748D01*
X164949248Y-112079642D01*
X164997153Y-112125251D01*
X165014795Y-112189000D01*
X164997153Y-112252749D01*
X164949248Y-112298358D01*
X164885836Y-112332251D01*
X164885824Y-112332258D01*
X164880460Y-112335126D01*
X164875752Y-112338989D01*
X164875747Y-112338993D01*
X164729546Y-112458977D01*
X164729541Y-112458981D01*
X164724840Y-112462840D01*
X164720981Y-112467541D01*
X164720977Y-112467546D01*
X164600993Y-112613747D01*
X164600989Y-112613752D01*
X164597126Y-112618460D01*
X164594254Y-112623832D01*
X164594252Y-112623836D01*
X164505100Y-112790629D01*
X164505098Y-112790633D01*
X164502227Y-112796005D01*
X164500460Y-112801829D01*
X164500457Y-112801837D01*
X164445556Y-112982818D01*
X164445553Y-112982828D01*
X164443787Y-112988653D01*
X164443190Y-112994709D01*
X164443189Y-112994717D01*
X164424652Y-113182938D01*
X164424055Y-113189000D01*
X164424652Y-113195062D01*
X164443189Y-113383282D01*
X164443190Y-113383288D01*
X164443787Y-113389347D01*
X164478112Y-113502499D01*
X164480053Y-113567322D01*
X164449006Y-113624260D01*
X164393463Y-113657738D01*
X164328616Y-113658599D01*
X164293177Y-113649500D01*
X164285375Y-113649500D01*
X163219824Y-113649500D01*
X163155674Y-113631617D01*
X163110027Y-113583126D01*
X163096050Y-113518013D01*
X163117774Y-113455060D01*
X163163132Y-113389347D01*
X163184818Y-113357930D01*
X163245140Y-113198872D01*
X163265645Y-113030000D01*
X163245140Y-112861128D01*
X163184818Y-112702070D01*
X163088183Y-112562071D01*
X162976174Y-112462840D01*
X162966468Y-112454241D01*
X162966466Y-112454239D01*
X162960852Y-112449266D01*
X162899693Y-112417167D01*
X162816866Y-112373695D01*
X162816862Y-112373693D01*
X162810225Y-112370210D01*
X162802947Y-112368416D01*
X162802944Y-112368415D01*
X162652337Y-112331294D01*
X162652332Y-112331293D01*
X162645056Y-112329500D01*
X162474944Y-112329500D01*
X162467668Y-112331293D01*
X162467662Y-112331294D01*
X162317059Y-112368414D01*
X162317053Y-112368415D01*
X162309775Y-112370210D01*
X162306542Y-112371906D01*
X162265105Y-112379500D01*
X158308808Y-112379500D01*
X158261355Y-112370061D01*
X158221127Y-112343181D01*
X154864819Y-108986873D01*
X154837939Y-108946645D01*
X154828500Y-108899192D01*
X154828500Y-102870000D01*
X159830357Y-102870000D01*
X159850885Y-103091536D01*
X159852454Y-103097050D01*
X159910201Y-103300013D01*
X159910204Y-103300021D01*
X159911771Y-103305528D01*
X159914323Y-103310653D01*
X159914325Y-103310658D01*
X160008387Y-103499559D01*
X160008389Y-103499563D01*
X160010942Y-103504689D01*
X160014391Y-103509256D01*
X160014394Y-103509261D01*
X160141561Y-103677658D01*
X160141566Y-103677663D01*
X160145019Y-103682236D01*
X160149255Y-103686097D01*
X160149259Y-103686102D01*
X160261603Y-103788517D01*
X160309438Y-103832124D01*
X160498599Y-103949247D01*
X160706060Y-104029618D01*
X160924757Y-104070500D01*
X161141514Y-104070500D01*
X161147243Y-104070500D01*
X161365940Y-104029618D01*
X161573401Y-103949247D01*
X161762562Y-103832124D01*
X161926981Y-103682236D01*
X162061058Y-103504689D01*
X162160229Y-103305528D01*
X162221115Y-103091536D01*
X162241643Y-102870000D01*
X162221115Y-102648464D01*
X162160229Y-102434472D01*
X162061058Y-102235311D01*
X162057605Y-102230738D01*
X161930438Y-102062341D01*
X161930434Y-102062337D01*
X161926981Y-102057764D01*
X161922744Y-102053901D01*
X161922740Y-102053897D01*
X161766796Y-101911736D01*
X161766797Y-101911736D01*
X161762562Y-101907876D01*
X161757692Y-101904861D01*
X161757690Y-101904859D01*
X161578275Y-101793771D01*
X161578276Y-101793771D01*
X161573401Y-101790753D01*
X161568059Y-101788683D01*
X161568048Y-101788678D01*
X161379478Y-101715625D01*
X161331107Y-101681829D01*
X161303833Y-101629502D01*
X161303833Y-101570494D01*
X161331107Y-101518168D01*
X161379475Y-101484374D01*
X161573401Y-101409247D01*
X161762562Y-101292124D01*
X161926981Y-101142236D01*
X162061058Y-100964689D01*
X162160229Y-100765528D01*
X162221115Y-100551536D01*
X162241643Y-100330000D01*
X162221115Y-100108464D01*
X162160229Y-99894472D01*
X162061058Y-99695311D01*
X162057605Y-99690738D01*
X161930438Y-99522341D01*
X161930434Y-99522337D01*
X161926981Y-99517764D01*
X161922744Y-99513901D01*
X161922740Y-99513897D01*
X161766796Y-99371736D01*
X161766797Y-99371736D01*
X161762562Y-99367876D01*
X161757692Y-99364861D01*
X161757690Y-99364859D01*
X161578275Y-99253771D01*
X161578276Y-99253771D01*
X161573401Y-99250753D01*
X161379476Y-99175626D01*
X161331107Y-99141831D01*
X161303833Y-99089504D01*
X161303833Y-99030496D01*
X161331107Y-98978169D01*
X161379476Y-98944373D01*
X161573401Y-98869247D01*
X161762562Y-98752124D01*
X161926981Y-98602236D01*
X162061058Y-98424689D01*
X162160229Y-98225528D01*
X162221115Y-98011536D01*
X162241643Y-97790000D01*
X162221115Y-97568464D01*
X162160229Y-97354472D01*
X162061058Y-97155311D01*
X162057605Y-97150738D01*
X161930438Y-96982341D01*
X161930434Y-96982337D01*
X161926981Y-96977764D01*
X161922744Y-96973901D01*
X161922740Y-96973897D01*
X161766796Y-96831736D01*
X161766797Y-96831736D01*
X161762562Y-96827876D01*
X161757692Y-96824861D01*
X161757690Y-96824859D01*
X161578275Y-96713771D01*
X161578276Y-96713771D01*
X161573401Y-96710753D01*
X161379476Y-96635626D01*
X161331107Y-96601831D01*
X161303833Y-96549504D01*
X161303833Y-96490496D01*
X161331107Y-96438169D01*
X161379476Y-96404373D01*
X161573401Y-96329247D01*
X161762562Y-96212124D01*
X161926981Y-96062236D01*
X162061058Y-95884689D01*
X162160229Y-95685528D01*
X162221115Y-95471536D01*
X162241643Y-95250000D01*
X162221115Y-95028464D01*
X162160229Y-94814472D01*
X162061058Y-94615311D01*
X162057605Y-94610738D01*
X161930438Y-94442341D01*
X161930434Y-94442337D01*
X161926981Y-94437764D01*
X161922744Y-94433901D01*
X161922740Y-94433897D01*
X161766796Y-94291736D01*
X161766797Y-94291736D01*
X161762562Y-94287876D01*
X161757692Y-94284861D01*
X161757690Y-94284859D01*
X161578275Y-94173771D01*
X161578276Y-94173771D01*
X161573401Y-94170753D01*
X161568059Y-94168683D01*
X161568048Y-94168678D01*
X161379478Y-94095625D01*
X161331107Y-94061829D01*
X161303833Y-94009502D01*
X161303833Y-93950494D01*
X161331107Y-93898168D01*
X161379475Y-93864374D01*
X161573401Y-93789247D01*
X161762562Y-93672124D01*
X161926981Y-93522236D01*
X162061058Y-93344689D01*
X162160229Y-93145528D01*
X162221115Y-92931536D01*
X162241643Y-92710000D01*
X162221115Y-92488464D01*
X162160229Y-92274472D01*
X162061058Y-92075311D01*
X162057605Y-92070738D01*
X161930438Y-91902341D01*
X161930434Y-91902337D01*
X161926981Y-91897764D01*
X161922744Y-91893901D01*
X161922740Y-91893897D01*
X161766796Y-91751736D01*
X161766797Y-91751736D01*
X161762562Y-91747876D01*
X161757692Y-91744861D01*
X161757690Y-91744859D01*
X161578275Y-91633771D01*
X161578276Y-91633771D01*
X161573401Y-91630753D01*
X161379476Y-91555626D01*
X161331107Y-91521831D01*
X161303833Y-91469504D01*
X161303833Y-91410496D01*
X161331107Y-91358169D01*
X161379476Y-91324373D01*
X161573401Y-91249247D01*
X161762562Y-91132124D01*
X161926981Y-90982236D01*
X162061058Y-90804689D01*
X162160229Y-90605528D01*
X162221115Y-90391536D01*
X162241643Y-90170000D01*
X162221115Y-89948464D01*
X162160229Y-89734472D01*
X162061058Y-89535311D01*
X162057605Y-89530738D01*
X161930438Y-89362341D01*
X161930434Y-89362337D01*
X161926981Y-89357764D01*
X161922744Y-89353901D01*
X161922740Y-89353897D01*
X161766796Y-89211736D01*
X161766797Y-89211736D01*
X161762562Y-89207876D01*
X161757692Y-89204861D01*
X161757690Y-89204859D01*
X161578275Y-89093771D01*
X161578276Y-89093771D01*
X161573401Y-89090753D01*
X161379476Y-89015626D01*
X161331107Y-88981831D01*
X161303833Y-88929504D01*
X161303833Y-88870496D01*
X161331107Y-88818169D01*
X161379476Y-88784373D01*
X161573401Y-88709247D01*
X161762562Y-88592124D01*
X161926981Y-88442236D01*
X162061058Y-88264689D01*
X162160229Y-88065528D01*
X162221115Y-87851536D01*
X162241643Y-87630000D01*
X162221115Y-87408464D01*
X162160229Y-87194472D01*
X162061058Y-86995311D01*
X162057605Y-86990738D01*
X161930438Y-86822341D01*
X161930434Y-86822337D01*
X161926981Y-86817764D01*
X161922744Y-86813901D01*
X161922740Y-86813897D01*
X161766796Y-86671736D01*
X161766797Y-86671736D01*
X161762562Y-86667876D01*
X161757692Y-86664861D01*
X161757690Y-86664859D01*
X161578275Y-86553771D01*
X161578276Y-86553771D01*
X161573401Y-86550753D01*
X161379476Y-86475626D01*
X161331107Y-86441831D01*
X161303833Y-86389504D01*
X161303833Y-86330496D01*
X161331107Y-86278169D01*
X161379476Y-86244373D01*
X161573401Y-86169247D01*
X161762562Y-86052124D01*
X161926981Y-85902236D01*
X162061058Y-85724689D01*
X162160229Y-85525528D01*
X162221115Y-85311536D01*
X162241643Y-85090000D01*
X162221115Y-84868464D01*
X162160229Y-84654472D01*
X162061058Y-84455311D01*
X162057605Y-84450738D01*
X161930438Y-84282341D01*
X161930434Y-84282337D01*
X161926981Y-84277764D01*
X161922744Y-84273901D01*
X161922740Y-84273897D01*
X161766796Y-84131736D01*
X161766797Y-84131736D01*
X161762562Y-84127876D01*
X161757692Y-84124861D01*
X161757690Y-84124859D01*
X161578275Y-84013771D01*
X161578276Y-84013771D01*
X161573401Y-84010753D01*
X161379476Y-83935626D01*
X161331107Y-83901831D01*
X161303833Y-83849504D01*
X161303833Y-83790496D01*
X161331107Y-83738169D01*
X161379476Y-83704373D01*
X161573401Y-83629247D01*
X161762562Y-83512124D01*
X161926981Y-83362236D01*
X162061058Y-83184689D01*
X162160229Y-82985528D01*
X162221115Y-82771536D01*
X162241643Y-82550000D01*
X162221115Y-82328464D01*
X162160229Y-82114472D01*
X162061058Y-81915311D01*
X162057605Y-81910738D01*
X161930438Y-81742341D01*
X161930434Y-81742337D01*
X161926981Y-81737764D01*
X161922744Y-81733901D01*
X161922740Y-81733897D01*
X161766796Y-81591736D01*
X161766797Y-81591736D01*
X161762562Y-81587876D01*
X161757692Y-81584861D01*
X161757690Y-81584859D01*
X161578275Y-81473771D01*
X161578276Y-81473771D01*
X161573401Y-81470753D01*
X161568063Y-81468685D01*
X161568049Y-81468678D01*
X161520224Y-81450151D01*
X161472953Y-81417592D01*
X161445409Y-81367233D01*
X161443495Y-81309865D01*
X161467619Y-81257782D01*
X161512614Y-81222143D01*
X161683571Y-81142424D01*
X161692920Y-81137026D01*
X161750348Y-81096814D01*
X161757780Y-81088703D01*
X161751867Y-81079421D01*
X161047542Y-80375095D01*
X161035999Y-80368431D01*
X161024457Y-80375095D01*
X160320128Y-81079424D01*
X160314217Y-81088703D01*
X160321650Y-81096814D01*
X160379077Y-81137025D01*
X160388427Y-81142423D01*
X160559386Y-81222143D01*
X160604380Y-81257782D01*
X160628504Y-81309865D01*
X160626590Y-81367232D01*
X160599046Y-81417591D01*
X160551776Y-81450151D01*
X160503947Y-81468680D01*
X160503936Y-81468685D01*
X160498599Y-81470753D01*
X160493727Y-81473769D01*
X160493724Y-81473771D01*
X160314309Y-81584859D01*
X160314301Y-81584864D01*
X160309438Y-81587876D01*
X160305207Y-81591732D01*
X160305203Y-81591736D01*
X160149259Y-81733897D01*
X160149249Y-81733907D01*
X160145019Y-81737764D01*
X160141570Y-81742330D01*
X160141561Y-81742341D01*
X160014394Y-81910738D01*
X160014387Y-81910748D01*
X160010942Y-81915311D01*
X160008392Y-81920431D01*
X160008387Y-81920440D01*
X159914325Y-82109341D01*
X159914321Y-82109349D01*
X159911771Y-82114472D01*
X159910205Y-82119975D01*
X159910201Y-82119986D01*
X159852454Y-82322949D01*
X159850885Y-82328464D01*
X159830357Y-82550000D01*
X159850885Y-82771536D01*
X159852454Y-82777050D01*
X159910201Y-82980013D01*
X159910204Y-82980021D01*
X159911771Y-82985528D01*
X159914323Y-82990653D01*
X159914325Y-82990658D01*
X160008387Y-83179559D01*
X160008389Y-83179563D01*
X160010942Y-83184689D01*
X160014391Y-83189256D01*
X160014394Y-83189261D01*
X160141561Y-83357658D01*
X160141566Y-83357663D01*
X160145019Y-83362236D01*
X160149255Y-83366097D01*
X160149259Y-83366102D01*
X160261603Y-83468517D01*
X160309438Y-83512124D01*
X160498599Y-83629247D01*
X160676097Y-83698010D01*
X160692521Y-83704373D01*
X160740892Y-83738169D01*
X160768166Y-83790496D01*
X160768166Y-83849504D01*
X160740892Y-83901831D01*
X160692521Y-83935627D01*
X160503941Y-84008683D01*
X160503936Y-84008685D01*
X160498599Y-84010753D01*
X160493727Y-84013769D01*
X160493724Y-84013771D01*
X160314309Y-84124859D01*
X160314301Y-84124864D01*
X160309438Y-84127876D01*
X160305207Y-84131732D01*
X160305203Y-84131736D01*
X160149259Y-84273897D01*
X160149249Y-84273907D01*
X160145019Y-84277764D01*
X160141570Y-84282330D01*
X160141561Y-84282341D01*
X160014394Y-84450738D01*
X160014387Y-84450748D01*
X160010942Y-84455311D01*
X160008392Y-84460431D01*
X160008387Y-84460440D01*
X159914325Y-84649341D01*
X159914321Y-84649349D01*
X159911771Y-84654472D01*
X159910205Y-84659975D01*
X159910201Y-84659986D01*
X159852454Y-84862949D01*
X159850885Y-84868464D01*
X159830357Y-85090000D01*
X159850885Y-85311536D01*
X159852454Y-85317050D01*
X159910201Y-85520013D01*
X159910204Y-85520021D01*
X159911771Y-85525528D01*
X159914323Y-85530653D01*
X159914325Y-85530658D01*
X160008387Y-85719559D01*
X160008389Y-85719563D01*
X160010942Y-85724689D01*
X160014391Y-85729256D01*
X160014394Y-85729261D01*
X160141561Y-85897658D01*
X160141566Y-85897663D01*
X160145019Y-85902236D01*
X160149255Y-85906097D01*
X160149259Y-85906102D01*
X160261603Y-86008517D01*
X160309438Y-86052124D01*
X160498599Y-86169247D01*
X160676097Y-86238010D01*
X160692521Y-86244373D01*
X160740892Y-86278169D01*
X160768166Y-86330496D01*
X160768166Y-86389504D01*
X160740892Y-86441831D01*
X160692521Y-86475627D01*
X160503941Y-86548683D01*
X160503936Y-86548685D01*
X160498599Y-86550753D01*
X160493727Y-86553769D01*
X160493724Y-86553771D01*
X160314309Y-86664859D01*
X160314301Y-86664864D01*
X160309438Y-86667876D01*
X160305207Y-86671732D01*
X160305203Y-86671736D01*
X160149259Y-86813897D01*
X160149249Y-86813907D01*
X160145019Y-86817764D01*
X160141570Y-86822330D01*
X160141561Y-86822341D01*
X160014394Y-86990738D01*
X160014387Y-86990748D01*
X160010942Y-86995311D01*
X160008392Y-87000431D01*
X160008387Y-87000440D01*
X159914325Y-87189341D01*
X159914321Y-87189349D01*
X159911771Y-87194472D01*
X159910205Y-87199975D01*
X159910201Y-87199986D01*
X159852454Y-87402949D01*
X159850885Y-87408464D01*
X159830357Y-87630000D01*
X159850885Y-87851536D01*
X159852454Y-87857050D01*
X159910201Y-88060013D01*
X159910204Y-88060021D01*
X159911771Y-88065528D01*
X159914323Y-88070653D01*
X159914325Y-88070658D01*
X160008387Y-88259559D01*
X160008389Y-88259563D01*
X160010942Y-88264689D01*
X160014391Y-88269256D01*
X160014394Y-88269261D01*
X160141561Y-88437658D01*
X160141566Y-88437663D01*
X160145019Y-88442236D01*
X160149255Y-88446097D01*
X160149259Y-88446102D01*
X160261603Y-88548517D01*
X160309438Y-88592124D01*
X160498599Y-88709247D01*
X160676097Y-88778010D01*
X160692521Y-88784373D01*
X160740892Y-88818169D01*
X160768166Y-88870496D01*
X160768166Y-88929504D01*
X160740892Y-88981831D01*
X160692521Y-89015627D01*
X160503941Y-89088683D01*
X160503936Y-89088685D01*
X160498599Y-89090753D01*
X160493727Y-89093769D01*
X160493724Y-89093771D01*
X160314309Y-89204859D01*
X160314301Y-89204864D01*
X160309438Y-89207876D01*
X160305207Y-89211732D01*
X160305203Y-89211736D01*
X160149259Y-89353897D01*
X160149249Y-89353907D01*
X160145019Y-89357764D01*
X160141570Y-89362330D01*
X160141561Y-89362341D01*
X160014394Y-89530738D01*
X160014387Y-89530748D01*
X160010942Y-89535311D01*
X160008392Y-89540431D01*
X160008387Y-89540440D01*
X159914325Y-89729341D01*
X159914321Y-89729349D01*
X159911771Y-89734472D01*
X159910205Y-89739975D01*
X159910201Y-89739986D01*
X159852454Y-89942949D01*
X159850885Y-89948464D01*
X159830357Y-90170000D01*
X159850885Y-90391536D01*
X159852454Y-90397050D01*
X159910201Y-90600013D01*
X159910204Y-90600021D01*
X159911771Y-90605528D01*
X159914323Y-90610653D01*
X159914325Y-90610658D01*
X160008387Y-90799559D01*
X160008389Y-90799563D01*
X160010942Y-90804689D01*
X160014391Y-90809256D01*
X160014394Y-90809261D01*
X160141561Y-90977658D01*
X160141566Y-90977663D01*
X160145019Y-90982236D01*
X160149255Y-90986097D01*
X160149259Y-90986102D01*
X160261603Y-91088517D01*
X160309438Y-91132124D01*
X160498599Y-91249247D01*
X160676097Y-91318010D01*
X160692521Y-91324373D01*
X160740892Y-91358169D01*
X160768166Y-91410496D01*
X160768166Y-91469504D01*
X160740892Y-91521831D01*
X160692521Y-91555627D01*
X160503941Y-91628683D01*
X160503936Y-91628685D01*
X160498599Y-91630753D01*
X160493727Y-91633769D01*
X160493724Y-91633771D01*
X160314309Y-91744859D01*
X160314301Y-91744864D01*
X160309438Y-91747876D01*
X160305207Y-91751732D01*
X160305203Y-91751736D01*
X160149259Y-91893897D01*
X160149249Y-91893907D01*
X160145019Y-91897764D01*
X160141570Y-91902330D01*
X160141561Y-91902341D01*
X160014394Y-92070738D01*
X160014387Y-92070748D01*
X160010942Y-92075311D01*
X160008392Y-92080431D01*
X160008387Y-92080440D01*
X159914325Y-92269341D01*
X159914321Y-92269349D01*
X159911771Y-92274472D01*
X159910205Y-92279975D01*
X159910201Y-92279986D01*
X159852454Y-92482949D01*
X159850885Y-92488464D01*
X159830357Y-92710000D01*
X159850885Y-92931536D01*
X159852454Y-92937050D01*
X159910201Y-93140013D01*
X159910204Y-93140021D01*
X159911771Y-93145528D01*
X159914323Y-93150653D01*
X159914325Y-93150658D01*
X160008387Y-93339559D01*
X160008389Y-93339563D01*
X160010942Y-93344689D01*
X160014391Y-93349256D01*
X160014394Y-93349261D01*
X160141561Y-93517658D01*
X160141566Y-93517663D01*
X160145019Y-93522236D01*
X160149255Y-93526097D01*
X160149259Y-93526102D01*
X160261603Y-93628517D01*
X160309438Y-93672124D01*
X160498599Y-93789247D01*
X160676097Y-93858010D01*
X160692521Y-93864373D01*
X160740892Y-93898169D01*
X160768166Y-93950496D01*
X160768166Y-94009504D01*
X160740892Y-94061831D01*
X160692521Y-94095627D01*
X160503941Y-94168683D01*
X160503936Y-94168685D01*
X160498599Y-94170753D01*
X160493727Y-94173769D01*
X160493724Y-94173771D01*
X160314309Y-94284859D01*
X160314301Y-94284864D01*
X160309438Y-94287876D01*
X160305207Y-94291732D01*
X160305203Y-94291736D01*
X160149259Y-94433897D01*
X160149249Y-94433907D01*
X160145019Y-94437764D01*
X160141570Y-94442330D01*
X160141561Y-94442341D01*
X160014394Y-94610738D01*
X160014387Y-94610748D01*
X160010942Y-94615311D01*
X160008392Y-94620431D01*
X160008387Y-94620440D01*
X159914325Y-94809341D01*
X159914321Y-94809349D01*
X159911771Y-94814472D01*
X159910205Y-94819975D01*
X159910201Y-94819986D01*
X159852454Y-95022949D01*
X159850885Y-95028464D01*
X159830357Y-95250000D01*
X159850885Y-95471536D01*
X159852454Y-95477050D01*
X159910201Y-95680013D01*
X159910204Y-95680021D01*
X159911771Y-95685528D01*
X159914323Y-95690653D01*
X159914325Y-95690658D01*
X160008387Y-95879559D01*
X160008389Y-95879563D01*
X160010942Y-95884689D01*
X160014391Y-95889256D01*
X160014394Y-95889261D01*
X160141561Y-96057658D01*
X160141566Y-96057663D01*
X160145019Y-96062236D01*
X160149255Y-96066097D01*
X160149259Y-96066102D01*
X160261603Y-96168517D01*
X160309438Y-96212124D01*
X160498599Y-96329247D01*
X160676097Y-96398010D01*
X160692521Y-96404373D01*
X160740892Y-96438169D01*
X160768166Y-96490496D01*
X160768166Y-96549504D01*
X160740892Y-96601831D01*
X160692521Y-96635627D01*
X160503941Y-96708683D01*
X160503936Y-96708685D01*
X160498599Y-96710753D01*
X160493727Y-96713769D01*
X160493724Y-96713771D01*
X160314309Y-96824859D01*
X160314301Y-96824864D01*
X160309438Y-96827876D01*
X160305207Y-96831732D01*
X160305203Y-96831736D01*
X160149259Y-96973897D01*
X160149249Y-96973907D01*
X160145019Y-96977764D01*
X160141570Y-96982330D01*
X160141561Y-96982341D01*
X160014394Y-97150738D01*
X160014387Y-97150748D01*
X160010942Y-97155311D01*
X160008392Y-97160431D01*
X160008387Y-97160440D01*
X159914325Y-97349341D01*
X159914321Y-97349349D01*
X159911771Y-97354472D01*
X159910205Y-97359975D01*
X159910201Y-97359986D01*
X159852454Y-97562949D01*
X159850885Y-97568464D01*
X159830357Y-97790000D01*
X159850885Y-98011536D01*
X159852454Y-98017050D01*
X159910201Y-98220013D01*
X159910204Y-98220021D01*
X159911771Y-98225528D01*
X159914323Y-98230653D01*
X159914325Y-98230658D01*
X160008387Y-98419559D01*
X160008389Y-98419563D01*
X160010942Y-98424689D01*
X160014391Y-98429256D01*
X160014394Y-98429261D01*
X160141561Y-98597658D01*
X160141566Y-98597663D01*
X160145019Y-98602236D01*
X160149255Y-98606097D01*
X160149259Y-98606102D01*
X160261603Y-98708517D01*
X160309438Y-98752124D01*
X160498599Y-98869247D01*
X160676097Y-98938010D01*
X160692521Y-98944373D01*
X160740892Y-98978169D01*
X160768166Y-99030496D01*
X160768166Y-99089504D01*
X160740892Y-99141831D01*
X160692521Y-99175627D01*
X160503941Y-99248683D01*
X160503936Y-99248685D01*
X160498599Y-99250753D01*
X160493727Y-99253769D01*
X160493724Y-99253771D01*
X160314309Y-99364859D01*
X160314301Y-99364864D01*
X160309438Y-99367876D01*
X160305207Y-99371732D01*
X160305203Y-99371736D01*
X160149259Y-99513897D01*
X160149249Y-99513907D01*
X160145019Y-99517764D01*
X160141570Y-99522330D01*
X160141561Y-99522341D01*
X160014394Y-99690738D01*
X160014387Y-99690748D01*
X160010942Y-99695311D01*
X160008392Y-99700431D01*
X160008387Y-99700440D01*
X159914325Y-99889341D01*
X159914321Y-99889349D01*
X159911771Y-99894472D01*
X159910205Y-99899975D01*
X159910201Y-99899986D01*
X159852454Y-100102949D01*
X159850885Y-100108464D01*
X159830357Y-100330000D01*
X159850885Y-100551536D01*
X159852454Y-100557050D01*
X159910201Y-100760013D01*
X159910204Y-100760021D01*
X159911771Y-100765528D01*
X159914323Y-100770653D01*
X159914325Y-100770658D01*
X160008387Y-100959559D01*
X160008389Y-100959563D01*
X160010942Y-100964689D01*
X160014391Y-100969256D01*
X160014394Y-100969261D01*
X160141561Y-101137658D01*
X160141566Y-101137663D01*
X160145019Y-101142236D01*
X160149255Y-101146097D01*
X160149259Y-101146102D01*
X160261603Y-101248517D01*
X160309438Y-101292124D01*
X160498599Y-101409247D01*
X160676097Y-101478010D01*
X160692521Y-101484373D01*
X160740892Y-101518169D01*
X160768166Y-101570496D01*
X160768166Y-101629504D01*
X160740892Y-101681831D01*
X160692521Y-101715627D01*
X160503941Y-101788683D01*
X160503936Y-101788685D01*
X160498599Y-101790753D01*
X160493727Y-101793769D01*
X160493724Y-101793771D01*
X160314309Y-101904859D01*
X160314301Y-101904864D01*
X160309438Y-101907876D01*
X160305207Y-101911732D01*
X160305203Y-101911736D01*
X160149259Y-102053897D01*
X160149249Y-102053907D01*
X160145019Y-102057764D01*
X160141570Y-102062330D01*
X160141561Y-102062341D01*
X160014394Y-102230738D01*
X160014387Y-102230748D01*
X160010942Y-102235311D01*
X160008392Y-102240431D01*
X160008387Y-102240440D01*
X159914325Y-102429341D01*
X159914321Y-102429349D01*
X159911771Y-102434472D01*
X159910205Y-102439975D01*
X159910201Y-102439986D01*
X159852454Y-102642949D01*
X159850885Y-102648464D01*
X159830357Y-102870000D01*
X154828500Y-102870000D01*
X154828500Y-80015395D01*
X159731506Y-80015395D01*
X159750386Y-80231206D01*
X159752260Y-80241837D01*
X159808332Y-80451097D01*
X159812020Y-80461231D01*
X159903576Y-80657572D01*
X159908974Y-80666922D01*
X159949184Y-80724348D01*
X159957295Y-80731781D01*
X159966574Y-80725870D01*
X160670903Y-80021542D01*
X160677566Y-80010000D01*
X161394431Y-80010000D01*
X161401095Y-80021542D01*
X162105421Y-80725867D01*
X162114703Y-80731780D01*
X162122814Y-80724348D01*
X162163026Y-80666920D01*
X162168422Y-80657575D01*
X162259979Y-80461231D01*
X162263667Y-80451097D01*
X162319739Y-80241837D01*
X162321613Y-80231206D01*
X162340494Y-80015395D01*
X162340494Y-80004605D01*
X162321613Y-79788793D01*
X162319739Y-79778162D01*
X162263667Y-79568902D01*
X162259979Y-79558768D01*
X162168423Y-79362427D01*
X162163025Y-79353077D01*
X162122814Y-79295650D01*
X162114703Y-79288217D01*
X162105424Y-79294128D01*
X161401095Y-79998457D01*
X161394431Y-80010000D01*
X160677566Y-80010000D01*
X160677567Y-80009999D01*
X160670903Y-79998457D01*
X159966574Y-79294128D01*
X159957296Y-79288217D01*
X159949183Y-79295651D01*
X159908971Y-79353081D01*
X159903577Y-79362425D01*
X159812020Y-79558768D01*
X159808332Y-79568902D01*
X159752260Y-79778162D01*
X159750386Y-79788793D01*
X159731506Y-80004605D01*
X159731506Y-80015395D01*
X154828500Y-80015395D01*
X154828500Y-53660808D01*
X154837939Y-53613355D01*
X154864819Y-53573127D01*
X155615248Y-52822698D01*
X157991781Y-50446163D01*
X158021831Y-50424051D01*
X158134852Y-50364734D01*
X158262183Y-50251929D01*
X158358818Y-50111930D01*
X158419140Y-49952872D01*
X158421552Y-49933006D01*
X158442597Y-49877513D01*
X158487021Y-49838155D01*
X158544647Y-49823951D01*
X158602273Y-49838154D01*
X158646698Y-49877511D01*
X158725235Y-49991292D01*
X158729817Y-49997929D01*
X158857148Y-50110734D01*
X159007775Y-50189790D01*
X159172944Y-50230500D01*
X159335556Y-50230500D01*
X159343056Y-50230500D01*
X159508225Y-50189790D01*
X159658852Y-50110734D01*
X159763421Y-50018094D01*
X159812981Y-49991292D01*
X159869292Y-49989189D01*
X159920719Y-50012225D01*
X159956642Y-50055641D01*
X160008387Y-50159559D01*
X160008389Y-50159563D01*
X160010942Y-50164689D01*
X160014391Y-50169256D01*
X160014394Y-50169261D01*
X160141561Y-50337658D01*
X160141566Y-50337663D01*
X160145019Y-50342236D01*
X160149255Y-50346097D01*
X160149259Y-50346102D01*
X160244385Y-50432820D01*
X160309438Y-50492124D01*
X160498599Y-50609247D01*
X160669468Y-50675442D01*
X160692521Y-50684373D01*
X160740892Y-50718169D01*
X160768166Y-50770496D01*
X160768166Y-50829504D01*
X160740892Y-50881831D01*
X160692521Y-50915627D01*
X160503941Y-50988683D01*
X160503936Y-50988685D01*
X160498599Y-50990753D01*
X160493727Y-50993769D01*
X160493724Y-50993771D01*
X160314309Y-51104859D01*
X160314301Y-51104864D01*
X160309438Y-51107876D01*
X160305207Y-51111732D01*
X160305203Y-51111736D01*
X160149259Y-51253897D01*
X160149249Y-51253907D01*
X160145019Y-51257764D01*
X160141570Y-51262330D01*
X160141561Y-51262341D01*
X160014394Y-51430738D01*
X160014387Y-51430748D01*
X160010942Y-51435311D01*
X160008392Y-51440431D01*
X160008387Y-51440440D01*
X159914325Y-51629341D01*
X159914321Y-51629349D01*
X159911771Y-51634472D01*
X159910205Y-51639975D01*
X159910201Y-51639986D01*
X159852454Y-51842949D01*
X159850885Y-51848464D01*
X159850356Y-51854169D01*
X159850356Y-51854171D01*
X159833343Y-52037775D01*
X159830357Y-52070000D01*
X159850885Y-52291536D01*
X159852454Y-52297050D01*
X159910201Y-52500013D01*
X159910204Y-52500021D01*
X159911771Y-52505528D01*
X159914323Y-52510653D01*
X159914325Y-52510658D01*
X160008387Y-52699559D01*
X160008389Y-52699563D01*
X160010942Y-52704689D01*
X160014391Y-52709256D01*
X160014394Y-52709261D01*
X160141561Y-52877658D01*
X160141566Y-52877663D01*
X160145019Y-52882236D01*
X160149255Y-52886097D01*
X160149259Y-52886102D01*
X160224406Y-52954607D01*
X160309438Y-53032124D01*
X160498599Y-53149247D01*
X160635188Y-53202162D01*
X160692521Y-53224373D01*
X160740892Y-53258169D01*
X160768166Y-53310496D01*
X160768166Y-53369504D01*
X160740892Y-53421831D01*
X160692521Y-53455627D01*
X160503941Y-53528683D01*
X160503936Y-53528685D01*
X160498599Y-53530753D01*
X160493727Y-53533769D01*
X160493724Y-53533771D01*
X160314309Y-53644859D01*
X160314301Y-53644864D01*
X160309438Y-53647876D01*
X160305207Y-53651732D01*
X160305203Y-53651736D01*
X160149259Y-53793897D01*
X160149249Y-53793907D01*
X160145019Y-53797764D01*
X160141570Y-53802330D01*
X160141561Y-53802341D01*
X160014394Y-53970738D01*
X160014387Y-53970748D01*
X160010942Y-53975311D01*
X160008392Y-53980431D01*
X160008387Y-53980440D01*
X159914325Y-54169341D01*
X159914321Y-54169349D01*
X159911771Y-54174472D01*
X159910205Y-54179975D01*
X159910201Y-54179986D01*
X159879160Y-54289087D01*
X159850885Y-54388464D01*
X159830357Y-54610000D01*
X159850885Y-54831536D01*
X159852454Y-54837050D01*
X159910201Y-55040013D01*
X159910204Y-55040021D01*
X159911771Y-55045528D01*
X159914323Y-55050653D01*
X159914325Y-55050658D01*
X160008387Y-55239559D01*
X160008389Y-55239563D01*
X160010942Y-55244689D01*
X160014391Y-55249256D01*
X160014394Y-55249261D01*
X160141561Y-55417658D01*
X160141566Y-55417663D01*
X160145019Y-55422236D01*
X160149255Y-55426097D01*
X160149259Y-55426102D01*
X160261603Y-55528517D01*
X160309438Y-55572124D01*
X160498599Y-55689247D01*
X160676097Y-55758010D01*
X160692521Y-55764373D01*
X160740892Y-55798169D01*
X160768166Y-55850496D01*
X160768166Y-55909504D01*
X160740892Y-55961831D01*
X160692521Y-55995627D01*
X160503941Y-56068683D01*
X160503936Y-56068685D01*
X160498599Y-56070753D01*
X160493727Y-56073769D01*
X160493724Y-56073771D01*
X160314309Y-56184859D01*
X160314301Y-56184864D01*
X160309438Y-56187876D01*
X160305207Y-56191732D01*
X160305203Y-56191736D01*
X160149259Y-56333897D01*
X160149249Y-56333907D01*
X160145019Y-56337764D01*
X160141570Y-56342330D01*
X160141561Y-56342341D01*
X160014394Y-56510738D01*
X160014387Y-56510748D01*
X160010942Y-56515311D01*
X160008392Y-56520431D01*
X160008387Y-56520440D01*
X159914325Y-56709341D01*
X159914321Y-56709349D01*
X159911771Y-56714472D01*
X159910205Y-56719975D01*
X159910201Y-56719986D01*
X159852454Y-56922949D01*
X159850885Y-56928464D01*
X159830357Y-57150000D01*
X159850885Y-57371536D01*
X159852454Y-57377050D01*
X159910201Y-57580013D01*
X159910204Y-57580021D01*
X159911771Y-57585528D01*
X159914323Y-57590653D01*
X159914325Y-57590658D01*
X160008387Y-57779559D01*
X160008389Y-57779563D01*
X160010942Y-57784689D01*
X160014391Y-57789256D01*
X160014394Y-57789261D01*
X160141561Y-57957658D01*
X160141566Y-57957663D01*
X160145019Y-57962236D01*
X160149255Y-57966097D01*
X160149259Y-57966102D01*
X160261603Y-58068517D01*
X160309438Y-58112124D01*
X160498599Y-58229247D01*
X160676097Y-58298010D01*
X160692521Y-58304373D01*
X160740892Y-58338169D01*
X160768166Y-58390496D01*
X160768166Y-58449504D01*
X160740892Y-58501831D01*
X160692521Y-58535627D01*
X160503941Y-58608683D01*
X160503936Y-58608685D01*
X160498599Y-58610753D01*
X160493727Y-58613769D01*
X160493724Y-58613771D01*
X160314309Y-58724859D01*
X160314301Y-58724864D01*
X160309438Y-58727876D01*
X160305207Y-58731732D01*
X160305203Y-58731736D01*
X160149259Y-58873897D01*
X160149249Y-58873907D01*
X160145019Y-58877764D01*
X160141570Y-58882330D01*
X160141561Y-58882341D01*
X160014394Y-59050738D01*
X160014387Y-59050748D01*
X160010942Y-59055311D01*
X160008392Y-59060431D01*
X160008387Y-59060440D01*
X159914325Y-59249341D01*
X159914321Y-59249349D01*
X159911771Y-59254472D01*
X159910205Y-59259975D01*
X159910201Y-59259986D01*
X159861942Y-59429601D01*
X159850885Y-59468464D01*
X159850356Y-59474169D01*
X159850356Y-59474171D01*
X159830886Y-59684291D01*
X159830357Y-59690000D01*
X159850885Y-59911536D01*
X159852454Y-59917050D01*
X159910201Y-60120013D01*
X159910204Y-60120021D01*
X159911771Y-60125528D01*
X159914323Y-60130653D01*
X159914325Y-60130658D01*
X160008387Y-60319559D01*
X160008389Y-60319563D01*
X160010942Y-60324689D01*
X160014391Y-60329256D01*
X160014394Y-60329261D01*
X160141561Y-60497658D01*
X160141566Y-60497663D01*
X160145019Y-60502236D01*
X160149255Y-60506097D01*
X160149259Y-60506102D01*
X160261603Y-60608517D01*
X160309438Y-60652124D01*
X160498599Y-60769247D01*
X160676097Y-60838010D01*
X160692521Y-60844373D01*
X160740892Y-60878169D01*
X160768166Y-60930496D01*
X160768166Y-60989504D01*
X160740892Y-61041831D01*
X160692521Y-61075627D01*
X160503941Y-61148683D01*
X160503936Y-61148685D01*
X160498599Y-61150753D01*
X160493727Y-61153769D01*
X160493724Y-61153771D01*
X160314309Y-61264859D01*
X160314301Y-61264864D01*
X160309438Y-61267876D01*
X160305207Y-61271732D01*
X160305203Y-61271736D01*
X160149259Y-61413897D01*
X160149249Y-61413907D01*
X160145019Y-61417764D01*
X160141570Y-61422330D01*
X160141561Y-61422341D01*
X160014394Y-61590738D01*
X160014387Y-61590748D01*
X160010942Y-61595311D01*
X160008392Y-61600431D01*
X160008387Y-61600440D01*
X159914325Y-61789341D01*
X159914321Y-61789349D01*
X159911771Y-61794472D01*
X159910205Y-61799975D01*
X159910201Y-61799986D01*
X159852454Y-62002949D01*
X159850885Y-62008464D01*
X159830357Y-62230000D01*
X159850885Y-62451536D01*
X159852454Y-62457050D01*
X159910201Y-62660013D01*
X159910204Y-62660021D01*
X159911771Y-62665528D01*
X159914323Y-62670653D01*
X159914325Y-62670658D01*
X160008387Y-62859559D01*
X160008389Y-62859563D01*
X160010942Y-62864689D01*
X160014391Y-62869256D01*
X160014394Y-62869261D01*
X160141561Y-63037658D01*
X160141566Y-63037663D01*
X160145019Y-63042236D01*
X160149255Y-63046097D01*
X160149259Y-63046102D01*
X160261603Y-63148517D01*
X160309438Y-63192124D01*
X160498599Y-63309247D01*
X160676097Y-63378010D01*
X160692521Y-63384373D01*
X160740892Y-63418169D01*
X160768166Y-63470496D01*
X160768166Y-63529504D01*
X160740892Y-63581831D01*
X160692521Y-63615627D01*
X160503941Y-63688683D01*
X160503936Y-63688685D01*
X160498599Y-63690753D01*
X160493727Y-63693769D01*
X160493724Y-63693771D01*
X160314309Y-63804859D01*
X160314301Y-63804864D01*
X160309438Y-63807876D01*
X160305207Y-63811732D01*
X160305203Y-63811736D01*
X160149259Y-63953897D01*
X160149249Y-63953907D01*
X160145019Y-63957764D01*
X160141570Y-63962330D01*
X160141561Y-63962341D01*
X160014394Y-64130738D01*
X160014387Y-64130748D01*
X160010942Y-64135311D01*
X160008392Y-64140431D01*
X160008387Y-64140440D01*
X159914325Y-64329341D01*
X159914321Y-64329349D01*
X159911771Y-64334472D01*
X159910205Y-64339975D01*
X159910201Y-64339986D01*
X159852454Y-64542949D01*
X159850885Y-64548464D01*
X159830357Y-64770000D01*
X159850885Y-64991536D01*
X159852454Y-64997050D01*
X159910201Y-65200013D01*
X159910204Y-65200021D01*
X159911771Y-65205528D01*
X159914323Y-65210653D01*
X159914325Y-65210658D01*
X160008387Y-65399559D01*
X160008389Y-65399563D01*
X160010942Y-65404689D01*
X160014391Y-65409256D01*
X160014394Y-65409261D01*
X160141561Y-65577658D01*
X160141566Y-65577663D01*
X160145019Y-65582236D01*
X160149255Y-65586097D01*
X160149259Y-65586102D01*
X160261603Y-65688517D01*
X160309438Y-65732124D01*
X160498599Y-65849247D01*
X160676097Y-65918010D01*
X160692521Y-65924373D01*
X160740892Y-65958169D01*
X160768166Y-66010496D01*
X160768166Y-66069504D01*
X160740892Y-66121831D01*
X160692521Y-66155627D01*
X160503941Y-66228683D01*
X160503936Y-66228685D01*
X160498599Y-66230753D01*
X160493727Y-66233769D01*
X160493724Y-66233771D01*
X160314309Y-66344859D01*
X160314301Y-66344864D01*
X160309438Y-66347876D01*
X160305207Y-66351732D01*
X160305203Y-66351736D01*
X160149259Y-66493897D01*
X160149249Y-66493907D01*
X160145019Y-66497764D01*
X160141570Y-66502330D01*
X160141561Y-66502341D01*
X160014394Y-66670738D01*
X160014387Y-66670748D01*
X160010942Y-66675311D01*
X160008392Y-66680431D01*
X160008387Y-66680440D01*
X159914325Y-66869341D01*
X159914321Y-66869349D01*
X159911771Y-66874472D01*
X159910205Y-66879975D01*
X159910201Y-66879986D01*
X159852454Y-67082949D01*
X159850885Y-67088464D01*
X159830357Y-67310000D01*
X159850885Y-67531536D01*
X159852454Y-67537050D01*
X159910201Y-67740013D01*
X159910204Y-67740021D01*
X159911771Y-67745528D01*
X159914323Y-67750653D01*
X159914325Y-67750658D01*
X160008387Y-67939559D01*
X160008389Y-67939563D01*
X160010942Y-67944689D01*
X160014391Y-67949256D01*
X160014394Y-67949261D01*
X160141561Y-68117658D01*
X160141566Y-68117663D01*
X160145019Y-68122236D01*
X160149255Y-68126097D01*
X160149259Y-68126102D01*
X160261603Y-68228517D01*
X160309438Y-68272124D01*
X160498599Y-68389247D01*
X160676097Y-68458010D01*
X160692521Y-68464373D01*
X160740892Y-68498169D01*
X160768166Y-68550496D01*
X160768166Y-68609504D01*
X160740892Y-68661831D01*
X160692521Y-68695627D01*
X160503941Y-68768683D01*
X160503936Y-68768685D01*
X160498599Y-68770753D01*
X160493727Y-68773769D01*
X160493724Y-68773771D01*
X160314309Y-68884859D01*
X160314301Y-68884864D01*
X160309438Y-68887876D01*
X160305207Y-68891732D01*
X160305203Y-68891736D01*
X160149259Y-69033897D01*
X160149249Y-69033907D01*
X160145019Y-69037764D01*
X160141570Y-69042330D01*
X160141561Y-69042341D01*
X160014394Y-69210738D01*
X160014387Y-69210748D01*
X160010942Y-69215311D01*
X160008392Y-69220431D01*
X160008387Y-69220440D01*
X159914325Y-69409341D01*
X159914321Y-69409349D01*
X159911771Y-69414472D01*
X159910205Y-69419975D01*
X159910201Y-69419986D01*
X159852454Y-69622949D01*
X159850885Y-69628464D01*
X159830357Y-69850000D01*
X159850885Y-70071536D01*
X159852454Y-70077050D01*
X159910201Y-70280013D01*
X159910204Y-70280021D01*
X159911771Y-70285528D01*
X159914323Y-70290653D01*
X159914325Y-70290658D01*
X160008387Y-70479559D01*
X160008389Y-70479563D01*
X160010942Y-70484689D01*
X160014391Y-70489256D01*
X160014394Y-70489261D01*
X160141561Y-70657658D01*
X160141566Y-70657663D01*
X160145019Y-70662236D01*
X160149255Y-70666097D01*
X160149259Y-70666102D01*
X160261603Y-70768517D01*
X160309438Y-70812124D01*
X160498599Y-70929247D01*
X160676097Y-70998010D01*
X160692521Y-71004373D01*
X160740892Y-71038169D01*
X160768166Y-71090496D01*
X160768166Y-71149504D01*
X160740892Y-71201831D01*
X160692521Y-71235627D01*
X160503941Y-71308683D01*
X160503936Y-71308685D01*
X160498599Y-71310753D01*
X160493727Y-71313769D01*
X160493724Y-71313771D01*
X160314309Y-71424859D01*
X160314301Y-71424864D01*
X160309438Y-71427876D01*
X160305207Y-71431732D01*
X160305203Y-71431736D01*
X160149259Y-71573897D01*
X160149249Y-71573907D01*
X160145019Y-71577764D01*
X160141570Y-71582330D01*
X160141561Y-71582341D01*
X160014394Y-71750738D01*
X160014387Y-71750748D01*
X160010942Y-71755311D01*
X160008392Y-71760431D01*
X160008387Y-71760440D01*
X159914325Y-71949341D01*
X159914321Y-71949349D01*
X159911771Y-71954472D01*
X159910205Y-71959975D01*
X159910201Y-71959986D01*
X159852454Y-72162949D01*
X159850885Y-72168464D01*
X159830357Y-72390000D01*
X159850885Y-72611536D01*
X159852454Y-72617050D01*
X159910201Y-72820013D01*
X159910204Y-72820021D01*
X159911771Y-72825528D01*
X159914323Y-72830653D01*
X159914325Y-72830658D01*
X160008387Y-73019559D01*
X160008389Y-73019563D01*
X160010942Y-73024689D01*
X160014391Y-73029256D01*
X160014394Y-73029261D01*
X160141561Y-73197658D01*
X160141566Y-73197663D01*
X160145019Y-73202236D01*
X160149255Y-73206097D01*
X160149259Y-73206102D01*
X160261603Y-73308517D01*
X160309438Y-73352124D01*
X160498599Y-73469247D01*
X160676097Y-73538010D01*
X160692521Y-73544373D01*
X160740892Y-73578169D01*
X160768166Y-73630496D01*
X160768166Y-73689504D01*
X160740892Y-73741831D01*
X160692521Y-73775627D01*
X160503941Y-73848683D01*
X160503936Y-73848685D01*
X160498599Y-73850753D01*
X160493727Y-73853769D01*
X160493724Y-73853771D01*
X160314309Y-73964859D01*
X160314301Y-73964864D01*
X160309438Y-73967876D01*
X160305207Y-73971732D01*
X160305203Y-73971736D01*
X160149259Y-74113897D01*
X160149249Y-74113907D01*
X160145019Y-74117764D01*
X160141570Y-74122330D01*
X160141561Y-74122341D01*
X160014394Y-74290738D01*
X160014387Y-74290748D01*
X160010942Y-74295311D01*
X160008392Y-74300431D01*
X160008387Y-74300440D01*
X159914325Y-74489341D01*
X159914321Y-74489349D01*
X159911771Y-74494472D01*
X159910205Y-74499975D01*
X159910201Y-74499986D01*
X159852454Y-74702949D01*
X159850885Y-74708464D01*
X159830357Y-74930000D01*
X159850885Y-75151536D01*
X159852454Y-75157050D01*
X159910201Y-75360013D01*
X159910204Y-75360021D01*
X159911771Y-75365528D01*
X159914323Y-75370653D01*
X159914325Y-75370658D01*
X160008387Y-75559559D01*
X160008389Y-75559563D01*
X160010942Y-75564689D01*
X160014391Y-75569256D01*
X160014394Y-75569261D01*
X160141561Y-75737658D01*
X160141566Y-75737663D01*
X160145019Y-75742236D01*
X160149255Y-75746097D01*
X160149259Y-75746102D01*
X160261603Y-75848517D01*
X160309438Y-75892124D01*
X160498599Y-76009247D01*
X160692524Y-76084374D01*
X160740892Y-76118168D01*
X160768166Y-76170495D01*
X160768166Y-76229502D01*
X160740893Y-76281829D01*
X160692522Y-76315625D01*
X160503947Y-76388680D01*
X160503936Y-76388685D01*
X160498599Y-76390753D01*
X160493727Y-76393769D01*
X160493724Y-76393771D01*
X160314309Y-76504859D01*
X160314301Y-76504864D01*
X160309438Y-76507876D01*
X160305207Y-76511732D01*
X160305203Y-76511736D01*
X160149259Y-76653897D01*
X160149249Y-76653907D01*
X160145019Y-76657764D01*
X160141570Y-76662330D01*
X160141561Y-76662341D01*
X160014394Y-76830738D01*
X160014387Y-76830748D01*
X160010942Y-76835311D01*
X160008392Y-76840431D01*
X160008387Y-76840440D01*
X159914325Y-77029341D01*
X159914321Y-77029349D01*
X159911771Y-77034472D01*
X159910205Y-77039975D01*
X159910201Y-77039986D01*
X159852454Y-77242949D01*
X159850885Y-77248464D01*
X159830357Y-77470000D01*
X159850885Y-77691536D01*
X159852454Y-77697050D01*
X159910201Y-77900013D01*
X159910204Y-77900021D01*
X159911771Y-77905528D01*
X159914323Y-77910653D01*
X159914325Y-77910658D01*
X160008387Y-78099559D01*
X160008389Y-78099563D01*
X160010942Y-78104689D01*
X160014391Y-78109256D01*
X160014394Y-78109261D01*
X160141561Y-78277658D01*
X160141566Y-78277663D01*
X160145019Y-78282236D01*
X160149255Y-78286097D01*
X160149259Y-78286102D01*
X160261603Y-78388517D01*
X160309438Y-78432124D01*
X160498599Y-78549247D01*
X160503941Y-78551316D01*
X160503944Y-78551318D01*
X160551774Y-78569847D01*
X160599045Y-78602407D01*
X160626589Y-78652765D01*
X160628504Y-78710133D01*
X160604380Y-78762216D01*
X160559386Y-78797856D01*
X160388425Y-78877577D01*
X160379081Y-78882971D01*
X160321651Y-78923183D01*
X160314217Y-78931296D01*
X160320128Y-78940574D01*
X161024457Y-79644903D01*
X161035999Y-79651567D01*
X161047542Y-79644903D01*
X161751870Y-78940574D01*
X161757781Y-78931295D01*
X161750348Y-78923184D01*
X161692922Y-78882974D01*
X161683572Y-78877576D01*
X161512613Y-78797856D01*
X161467619Y-78762216D01*
X161443494Y-78710132D01*
X161445410Y-78652765D01*
X161472954Y-78602406D01*
X161520226Y-78569847D01*
X161573401Y-78549247D01*
X161762562Y-78432124D01*
X161926981Y-78282236D01*
X162061058Y-78104689D01*
X162160229Y-77905528D01*
X162221115Y-77691536D01*
X162241643Y-77470000D01*
X162221115Y-77248464D01*
X162160229Y-77034472D01*
X162061058Y-76835311D01*
X162057605Y-76830738D01*
X161930438Y-76662341D01*
X161930434Y-76662337D01*
X161926981Y-76657764D01*
X161922744Y-76653901D01*
X161922740Y-76653897D01*
X161766796Y-76511736D01*
X161766797Y-76511736D01*
X161762562Y-76507876D01*
X161757692Y-76504861D01*
X161757690Y-76504859D01*
X161578275Y-76393771D01*
X161578276Y-76393771D01*
X161573401Y-76390753D01*
X161568059Y-76388683D01*
X161568048Y-76388678D01*
X161379478Y-76315625D01*
X161331107Y-76281829D01*
X161303833Y-76229502D01*
X161303833Y-76170494D01*
X161331107Y-76118168D01*
X161379475Y-76084374D01*
X161573401Y-76009247D01*
X161762562Y-75892124D01*
X161926981Y-75742236D01*
X162061058Y-75564689D01*
X162160229Y-75365528D01*
X162221115Y-75151536D01*
X162241643Y-74930000D01*
X162221115Y-74708464D01*
X162160229Y-74494472D01*
X162061058Y-74295311D01*
X162057605Y-74290738D01*
X161930438Y-74122341D01*
X161930434Y-74122337D01*
X161926981Y-74117764D01*
X161922744Y-74113901D01*
X161922740Y-74113897D01*
X161766796Y-73971736D01*
X161766797Y-73971736D01*
X161762562Y-73967876D01*
X161757692Y-73964861D01*
X161757690Y-73964859D01*
X161578275Y-73853771D01*
X161578276Y-73853771D01*
X161573401Y-73850753D01*
X161379476Y-73775626D01*
X161331107Y-73741831D01*
X161303833Y-73689504D01*
X161303833Y-73630496D01*
X161331107Y-73578169D01*
X161379476Y-73544373D01*
X161573401Y-73469247D01*
X161762562Y-73352124D01*
X161926981Y-73202236D01*
X162061058Y-73024689D01*
X162160229Y-72825528D01*
X162221115Y-72611536D01*
X162241643Y-72390000D01*
X162221115Y-72168464D01*
X162160229Y-71954472D01*
X162061058Y-71755311D01*
X162057605Y-71750738D01*
X161930438Y-71582341D01*
X161930434Y-71582337D01*
X161926981Y-71577764D01*
X161922744Y-71573901D01*
X161922740Y-71573897D01*
X161766796Y-71431736D01*
X161766797Y-71431736D01*
X161762562Y-71427876D01*
X161757692Y-71424861D01*
X161757690Y-71424859D01*
X161578275Y-71313771D01*
X161578276Y-71313771D01*
X161573401Y-71310753D01*
X161379476Y-71235626D01*
X161331107Y-71201831D01*
X161303833Y-71149504D01*
X161303833Y-71090496D01*
X161331107Y-71038169D01*
X161379476Y-71004373D01*
X161573401Y-70929247D01*
X161762562Y-70812124D01*
X161926981Y-70662236D01*
X162061058Y-70484689D01*
X162160229Y-70285528D01*
X162221115Y-70071536D01*
X162241643Y-69850000D01*
X162221115Y-69628464D01*
X162160229Y-69414472D01*
X162061058Y-69215311D01*
X162057605Y-69210738D01*
X161930438Y-69042341D01*
X161930434Y-69042337D01*
X161926981Y-69037764D01*
X161922744Y-69033901D01*
X161922740Y-69033897D01*
X161766796Y-68891736D01*
X161766797Y-68891736D01*
X161762562Y-68887876D01*
X161757692Y-68884861D01*
X161757690Y-68884859D01*
X161578275Y-68773771D01*
X161578276Y-68773771D01*
X161573401Y-68770753D01*
X161568059Y-68768683D01*
X161568048Y-68768678D01*
X161379478Y-68695625D01*
X161331107Y-68661829D01*
X161303833Y-68609502D01*
X161303833Y-68550494D01*
X161331107Y-68498168D01*
X161379475Y-68464374D01*
X161573401Y-68389247D01*
X161762562Y-68272124D01*
X161926981Y-68122236D01*
X162061058Y-67944689D01*
X162160229Y-67745528D01*
X162221115Y-67531536D01*
X162241643Y-67310000D01*
X162221115Y-67088464D01*
X162160229Y-66874472D01*
X162061058Y-66675311D01*
X162057605Y-66670738D01*
X161930438Y-66502341D01*
X161930434Y-66502337D01*
X161926981Y-66497764D01*
X161922744Y-66493901D01*
X161922740Y-66493897D01*
X161766796Y-66351736D01*
X161766797Y-66351736D01*
X161762562Y-66347876D01*
X161757692Y-66344861D01*
X161757690Y-66344859D01*
X161578275Y-66233771D01*
X161578276Y-66233771D01*
X161573401Y-66230753D01*
X161379476Y-66155626D01*
X161331107Y-66121831D01*
X161303833Y-66069504D01*
X161303833Y-66010496D01*
X161331107Y-65958169D01*
X161379476Y-65924373D01*
X161573401Y-65849247D01*
X161762562Y-65732124D01*
X161926981Y-65582236D01*
X162061058Y-65404689D01*
X162160229Y-65205528D01*
X162221115Y-64991536D01*
X162241643Y-64770000D01*
X162221115Y-64548464D01*
X162160229Y-64334472D01*
X162061058Y-64135311D01*
X162057605Y-64130738D01*
X161930438Y-63962341D01*
X161930434Y-63962337D01*
X161926981Y-63957764D01*
X161922744Y-63953901D01*
X161922740Y-63953897D01*
X161766796Y-63811736D01*
X161766797Y-63811736D01*
X161762562Y-63807876D01*
X161757692Y-63804861D01*
X161757690Y-63804859D01*
X161578275Y-63693771D01*
X161578276Y-63693771D01*
X161573401Y-63690753D01*
X161568059Y-63688683D01*
X161568048Y-63688678D01*
X161379478Y-63615625D01*
X161331107Y-63581829D01*
X161303833Y-63529502D01*
X161303833Y-63470494D01*
X161331107Y-63418168D01*
X161379475Y-63384374D01*
X161573401Y-63309247D01*
X161762562Y-63192124D01*
X161926981Y-63042236D01*
X162061058Y-62864689D01*
X162160229Y-62665528D01*
X162221115Y-62451536D01*
X162241643Y-62230000D01*
X162221115Y-62008464D01*
X162160229Y-61794472D01*
X162061058Y-61595311D01*
X162057605Y-61590738D01*
X161930438Y-61422341D01*
X161930434Y-61422337D01*
X161926981Y-61417764D01*
X161922744Y-61413901D01*
X161922740Y-61413897D01*
X161766796Y-61271736D01*
X161766797Y-61271736D01*
X161762562Y-61267876D01*
X161757692Y-61264861D01*
X161757690Y-61264859D01*
X161578275Y-61153771D01*
X161578276Y-61153771D01*
X161573401Y-61150753D01*
X161568059Y-61148683D01*
X161568048Y-61148678D01*
X161379478Y-61075625D01*
X161331107Y-61041829D01*
X161303833Y-60989502D01*
X161303833Y-60930494D01*
X161331107Y-60878168D01*
X161379475Y-60844374D01*
X161573401Y-60769247D01*
X161762562Y-60652124D01*
X161926981Y-60502236D01*
X162061058Y-60324689D01*
X162160229Y-60125528D01*
X162221115Y-59911536D01*
X162241643Y-59690000D01*
X162221115Y-59468464D01*
X162160229Y-59254472D01*
X162061058Y-59055311D01*
X162057605Y-59050738D01*
X161930438Y-58882341D01*
X161930434Y-58882337D01*
X161926981Y-58877764D01*
X161922744Y-58873901D01*
X161922740Y-58873897D01*
X161796646Y-58758948D01*
X161762562Y-58727876D01*
X161757692Y-58724861D01*
X161757690Y-58724859D01*
X161629782Y-58645663D01*
X161573401Y-58610753D01*
X161557949Y-58604767D01*
X161523105Y-58591268D01*
X161379476Y-58535626D01*
X161331107Y-58501831D01*
X161303833Y-58449504D01*
X161303833Y-58390496D01*
X161331107Y-58338169D01*
X161379476Y-58304373D01*
X161573401Y-58229247D01*
X161762562Y-58112124D01*
X161926981Y-57962236D01*
X162061058Y-57784689D01*
X162160229Y-57585528D01*
X162221115Y-57371536D01*
X162241643Y-57150000D01*
X162221115Y-56928464D01*
X162160229Y-56714472D01*
X162085893Y-56565186D01*
X162063612Y-56520440D01*
X162063611Y-56520439D01*
X162061058Y-56515311D01*
X162046400Y-56495900D01*
X161930438Y-56342341D01*
X161930434Y-56342337D01*
X161926981Y-56337764D01*
X161922744Y-56333901D01*
X161922740Y-56333897D01*
X161766796Y-56191736D01*
X161766797Y-56191736D01*
X161762562Y-56187876D01*
X161757692Y-56184861D01*
X161757690Y-56184859D01*
X161578275Y-56073771D01*
X161578276Y-56073771D01*
X161573401Y-56070753D01*
X161379476Y-55995626D01*
X161331107Y-55961831D01*
X161303833Y-55909504D01*
X161303833Y-55850496D01*
X161331107Y-55798169D01*
X161379476Y-55764373D01*
X161573401Y-55689247D01*
X161762562Y-55572124D01*
X161926981Y-55422236D01*
X162061058Y-55244689D01*
X162160229Y-55045528D01*
X162221115Y-54831536D01*
X162241643Y-54610000D01*
X165918355Y-54610000D01*
X165919259Y-54617445D01*
X165937955Y-54771423D01*
X165937956Y-54771427D01*
X165938860Y-54778872D01*
X165941518Y-54785882D01*
X165941520Y-54785888D01*
X165988581Y-54909978D01*
X165999182Y-54937930D01*
X166095817Y-55077929D01*
X166223148Y-55190734D01*
X166373775Y-55269790D01*
X166538944Y-55310500D01*
X166701556Y-55310500D01*
X166709056Y-55310500D01*
X166874225Y-55269790D01*
X167024852Y-55190734D01*
X167152183Y-55077929D01*
X167248818Y-54937930D01*
X167259419Y-54909976D01*
X167287679Y-54866265D01*
X167543944Y-54610000D01*
X176332355Y-54610000D01*
X176333259Y-54617445D01*
X176351955Y-54771423D01*
X176351956Y-54771427D01*
X176352860Y-54778872D01*
X176355518Y-54785882D01*
X176355520Y-54785888D01*
X176402581Y-54909978D01*
X176413182Y-54937930D01*
X176509817Y-55077929D01*
X176637148Y-55190734D01*
X176787775Y-55269790D01*
X176952944Y-55310500D01*
X177115556Y-55310500D01*
X177123056Y-55310500D01*
X177288225Y-55269790D01*
X177291457Y-55268093D01*
X177332895Y-55260500D01*
X188539927Y-55260500D01*
X188551596Y-55261050D01*
X188551681Y-55261058D01*
X188559296Y-55262760D01*
X188629262Y-55260560D01*
X188633157Y-55260500D01*
X188658025Y-55260500D01*
X188661925Y-55260500D01*
X188666294Y-55259947D01*
X188677939Y-55259030D01*
X188723569Y-55257597D01*
X188743951Y-55251674D01*
X188762991Y-55247731D01*
X188784058Y-55245071D01*
X188801306Y-55238241D01*
X188826508Y-55228264D01*
X188837557Y-55224480D01*
X188881398Y-55211744D01*
X188899660Y-55200942D01*
X188917136Y-55192380D01*
X188936871Y-55184568D01*
X188973816Y-55157725D01*
X188983558Y-55151326D01*
X189022865Y-55128081D01*
X189037869Y-55113076D01*
X189052664Y-55100438D01*
X189069837Y-55087963D01*
X189098947Y-55052772D01*
X189106790Y-55044154D01*
X192154781Y-51996163D01*
X192184831Y-51974051D01*
X192297852Y-51914734D01*
X192425183Y-51801929D01*
X192521818Y-51661930D01*
X192582140Y-51502872D01*
X192602645Y-51334000D01*
X192582140Y-51165128D01*
X192521818Y-51006070D01*
X192442542Y-50891219D01*
X192429442Y-50872241D01*
X192429441Y-50872240D01*
X192425183Y-50866071D01*
X192297852Y-50753266D01*
X192257819Y-50732255D01*
X192153866Y-50677695D01*
X192153862Y-50677693D01*
X192147225Y-50674210D01*
X192139947Y-50672416D01*
X192139944Y-50672415D01*
X191989337Y-50635294D01*
X191989332Y-50635293D01*
X191982056Y-50633500D01*
X191811944Y-50633500D01*
X191804668Y-50635293D01*
X191804662Y-50635294D01*
X191654055Y-50672415D01*
X191654050Y-50672416D01*
X191646775Y-50674210D01*
X191640140Y-50677692D01*
X191640133Y-50677695D01*
X191502791Y-50749779D01*
X191502788Y-50749780D01*
X191496148Y-50753266D01*
X191490537Y-50758236D01*
X191490531Y-50758241D01*
X191380143Y-50856037D01*
X191368817Y-50866071D01*
X191364562Y-50872235D01*
X191364557Y-50872241D01*
X191276442Y-50999897D01*
X191276439Y-50999902D01*
X191272182Y-51006070D01*
X191269524Y-51013077D01*
X191269522Y-51013082D01*
X191261578Y-51034028D01*
X191233318Y-51077734D01*
X188387873Y-53923181D01*
X188347645Y-53950061D01*
X188300192Y-53959500D01*
X177332895Y-53959500D01*
X177291457Y-53951906D01*
X177288225Y-53950210D01*
X177280943Y-53948415D01*
X177280940Y-53948414D01*
X177130337Y-53911294D01*
X177130332Y-53911293D01*
X177123056Y-53909500D01*
X176952944Y-53909500D01*
X176945668Y-53911293D01*
X176945662Y-53911294D01*
X176795055Y-53948415D01*
X176795050Y-53948416D01*
X176787775Y-53950210D01*
X176781140Y-53953692D01*
X176781133Y-53953695D01*
X176643791Y-54025779D01*
X176643788Y-54025780D01*
X176637148Y-54029266D01*
X176631537Y-54034236D01*
X176631531Y-54034241D01*
X176530392Y-54123843D01*
X176509817Y-54142071D01*
X176505562Y-54148235D01*
X176505557Y-54148241D01*
X176417445Y-54275893D01*
X176417442Y-54275897D01*
X176413182Y-54282070D01*
X176410523Y-54289081D01*
X176410520Y-54289087D01*
X176355520Y-54434111D01*
X176355517Y-54434119D01*
X176352860Y-54441128D01*
X176351956Y-54448570D01*
X176351955Y-54448576D01*
X176333356Y-54601755D01*
X176332355Y-54610000D01*
X167543944Y-54610000D01*
X170133126Y-52020819D01*
X170173355Y-51993939D01*
X170220808Y-51984500D01*
X181206605Y-51984500D01*
X181248042Y-51992093D01*
X181251275Y-51993790D01*
X181416444Y-52034500D01*
X181579056Y-52034500D01*
X181586556Y-52034500D01*
X181751725Y-51993790D01*
X181902352Y-51914734D01*
X182029683Y-51801929D01*
X182126318Y-51661930D01*
X182186640Y-51502872D01*
X182207145Y-51334000D01*
X182186640Y-51165128D01*
X182126318Y-51006070D01*
X182047042Y-50891219D01*
X182033942Y-50872241D01*
X182033941Y-50872240D01*
X182029683Y-50866071D01*
X181902352Y-50753266D01*
X181862319Y-50732255D01*
X181758366Y-50677695D01*
X181758362Y-50677693D01*
X181751725Y-50674210D01*
X181744447Y-50672416D01*
X181744444Y-50672415D01*
X181593837Y-50635294D01*
X181593832Y-50635293D01*
X181586556Y-50633500D01*
X181416444Y-50633500D01*
X181409168Y-50635293D01*
X181409162Y-50635294D01*
X181258559Y-50672414D01*
X181258553Y-50672415D01*
X181251275Y-50674210D01*
X181248042Y-50675906D01*
X181206605Y-50683500D01*
X169981073Y-50683500D01*
X169969404Y-50682950D01*
X169969317Y-50682941D01*
X169961704Y-50681240D01*
X169953905Y-50681485D01*
X169891724Y-50683439D01*
X169887829Y-50683500D01*
X169859075Y-50683500D01*
X169855212Y-50683987D01*
X169855193Y-50683989D01*
X169854691Y-50684053D01*
X169843069Y-50684967D01*
X169805224Y-50686156D01*
X169805215Y-50686157D01*
X169797431Y-50686402D01*
X169789944Y-50688576D01*
X169789937Y-50688578D01*
X169777043Y-50692324D01*
X169757996Y-50696269D01*
X169744676Y-50697951D01*
X169744669Y-50697952D01*
X169736942Y-50698929D01*
X169729698Y-50701796D01*
X169729690Y-50701799D01*
X169694495Y-50715733D01*
X169683451Y-50719514D01*
X169647097Y-50730076D01*
X169647087Y-50730080D01*
X169639602Y-50732255D01*
X169632889Y-50736224D01*
X169632884Y-50736227D01*
X169621321Y-50743065D01*
X169603864Y-50751617D01*
X169591383Y-50756559D01*
X169591378Y-50756561D01*
X169584129Y-50759432D01*
X169577825Y-50764011D01*
X169577814Y-50764018D01*
X169547189Y-50786269D01*
X169537432Y-50792678D01*
X169498135Y-50815919D01*
X169492616Y-50821437D01*
X169492613Y-50821440D01*
X169483122Y-50830930D01*
X169468338Y-50843557D01*
X169457475Y-50851449D01*
X169457466Y-50851457D01*
X169451163Y-50856037D01*
X169446196Y-50862039D01*
X169446185Y-50862051D01*
X169422055Y-50891219D01*
X169414195Y-50899857D01*
X166366219Y-53947833D01*
X166336165Y-53969948D01*
X166229785Y-54025782D01*
X166229781Y-54025784D01*
X166223148Y-54029266D01*
X166217538Y-54034235D01*
X166217535Y-54034238D01*
X166116392Y-54123843D01*
X166095817Y-54142071D01*
X166091562Y-54148235D01*
X166091557Y-54148241D01*
X166003445Y-54275893D01*
X166003442Y-54275897D01*
X165999182Y-54282070D01*
X165996523Y-54289081D01*
X165996520Y-54289087D01*
X165941520Y-54434111D01*
X165941517Y-54434119D01*
X165938860Y-54441128D01*
X165937956Y-54448570D01*
X165937955Y-54448576D01*
X165919356Y-54601755D01*
X165918355Y-54610000D01*
X162241643Y-54610000D01*
X162221115Y-54388464D01*
X162160229Y-54174472D01*
X162075409Y-54004132D01*
X162063612Y-53980440D01*
X162063611Y-53980439D01*
X162061058Y-53975311D01*
X162057008Y-53969948D01*
X161930438Y-53802341D01*
X161930434Y-53802337D01*
X161926981Y-53797764D01*
X161922744Y-53793901D01*
X161922740Y-53793897D01*
X161766796Y-53651736D01*
X161766797Y-53651736D01*
X161762562Y-53647876D01*
X161757692Y-53644861D01*
X161757690Y-53644859D01*
X161578275Y-53533771D01*
X161578276Y-53533771D01*
X161573401Y-53530753D01*
X161379476Y-53455626D01*
X161331107Y-53421831D01*
X161303833Y-53369504D01*
X161303833Y-53310496D01*
X161331107Y-53258169D01*
X161379476Y-53224373D01*
X161573401Y-53149247D01*
X161762562Y-53032124D01*
X161926981Y-52882236D01*
X162061058Y-52704689D01*
X162160229Y-52505528D01*
X162221115Y-52291536D01*
X162241643Y-52070000D01*
X162221115Y-51848464D01*
X162169539Y-51667194D01*
X162161798Y-51639986D01*
X162161797Y-51639984D01*
X162160229Y-51634472D01*
X162061058Y-51435311D01*
X161984552Y-51334000D01*
X161930438Y-51262341D01*
X161930434Y-51262337D01*
X161926981Y-51257764D01*
X161922744Y-51253901D01*
X161922740Y-51253897D01*
X161766796Y-51111736D01*
X161766797Y-51111736D01*
X161762562Y-51107876D01*
X161757692Y-51104861D01*
X161757690Y-51104859D01*
X161588169Y-50999897D01*
X161573401Y-50990753D01*
X161379476Y-50915626D01*
X161331107Y-50881831D01*
X161303833Y-50829504D01*
X161303833Y-50770496D01*
X161331107Y-50718169D01*
X161379476Y-50684373D01*
X161573401Y-50609247D01*
X161762562Y-50492124D01*
X161926981Y-50342236D01*
X162061058Y-50164689D01*
X162160229Y-49965528D01*
X162221115Y-49751536D01*
X162241643Y-49530000D01*
X162221115Y-49308464D01*
X162160229Y-49094472D01*
X162157674Y-49089341D01*
X162155602Y-49083992D01*
X162156587Y-49083610D01*
X162145022Y-49028768D01*
X162163464Y-48969220D01*
X162208552Y-48926170D01*
X162268889Y-48910500D01*
X183502500Y-48910500D01*
X183564500Y-48927113D01*
X183609887Y-48972500D01*
X183626500Y-49034500D01*
X183626500Y-51861927D01*
X183625950Y-51873596D01*
X183625941Y-51873682D01*
X183624240Y-51881296D01*
X183624485Y-51889092D01*
X183624485Y-51889093D01*
X183626439Y-51951262D01*
X183626500Y-51955157D01*
X183626500Y-51983925D01*
X183626987Y-51987785D01*
X183626989Y-51987808D01*
X183627054Y-51988320D01*
X183627968Y-51999941D01*
X183629157Y-52037775D01*
X183629158Y-52037782D01*
X183629403Y-52045569D01*
X183631577Y-52053055D01*
X183631578Y-52053056D01*
X183635323Y-52065947D01*
X183639268Y-52084997D01*
X183640950Y-52098317D01*
X183640951Y-52098324D01*
X183641929Y-52106058D01*
X183644800Y-52113309D01*
X183644802Y-52113317D01*
X183658737Y-52148515D01*
X183662520Y-52159562D01*
X183675256Y-52203398D01*
X183679225Y-52210109D01*
X183679228Y-52210116D01*
X183686062Y-52221672D01*
X183694620Y-52239141D01*
X183702432Y-52258871D01*
X183707016Y-52265180D01*
X183729267Y-52295808D01*
X183735677Y-52305567D01*
X183754945Y-52338146D01*
X183758919Y-52344865D01*
X183764438Y-52350383D01*
X183764438Y-52350384D01*
X183773926Y-52359872D01*
X183786563Y-52374668D01*
X183794449Y-52385523D01*
X183794451Y-52385525D01*
X183799037Y-52391837D01*
X183805047Y-52396808D01*
X183805049Y-52396811D01*
X183811456Y-52402111D01*
X183828941Y-52416576D01*
X183834212Y-52420936D01*
X183842853Y-52428799D01*
X184248318Y-52834264D01*
X184276579Y-52877973D01*
X184287182Y-52905930D01*
X184291441Y-52912100D01*
X184291442Y-52912102D01*
X184376369Y-53035140D01*
X184383817Y-53045929D01*
X184443307Y-53098632D01*
X184497031Y-53146228D01*
X184511148Y-53158734D01*
X184661775Y-53237790D01*
X184826944Y-53278500D01*
X184989556Y-53278500D01*
X184997056Y-53278500D01*
X185162225Y-53237790D01*
X185312852Y-53158734D01*
X185440183Y-53045929D01*
X185536818Y-52905930D01*
X185597140Y-52746872D01*
X185617645Y-52578000D01*
X185597140Y-52409128D01*
X185590582Y-52391837D01*
X185539479Y-52257087D01*
X185536818Y-52250070D01*
X185440183Y-52110071D01*
X185312852Y-51997266D01*
X185199832Y-51937947D01*
X185169780Y-51915834D01*
X184963819Y-51709873D01*
X184936939Y-51669645D01*
X184927500Y-51622192D01*
X184927500Y-49034500D01*
X184944113Y-48972500D01*
X184989500Y-48927113D01*
X185051500Y-48910500D01*
X187764927Y-48910500D01*
X187776596Y-48911050D01*
X187776681Y-48911058D01*
X187784296Y-48912760D01*
X187854262Y-48910560D01*
X187858157Y-48910500D01*
X187883025Y-48910500D01*
X187886925Y-48910500D01*
X187891294Y-48909947D01*
X187902939Y-48909030D01*
X187948569Y-48907597D01*
X187968951Y-48901674D01*
X187987991Y-48897731D01*
X188009058Y-48895071D01*
X188026306Y-48888241D01*
X188051508Y-48878264D01*
X188062557Y-48874480D01*
X188106398Y-48861744D01*
X188124660Y-48850942D01*
X188142136Y-48842380D01*
X188161871Y-48834568D01*
X188198816Y-48807725D01*
X188208558Y-48801326D01*
X188247865Y-48778081D01*
X188262869Y-48763076D01*
X188277664Y-48750438D01*
X188294837Y-48737963D01*
X188323947Y-48702772D01*
X188331790Y-48694154D01*
X191234456Y-45791488D01*
X191243091Y-45783632D01*
X191243147Y-45783585D01*
X191249740Y-45779402D01*
X191297697Y-45728331D01*
X191300315Y-45725629D01*
X191320711Y-45705235D01*
X191323410Y-45701754D01*
X191330974Y-45692895D01*
X191362248Y-45659593D01*
X191372472Y-45640993D01*
X191383147Y-45624741D01*
X191396163Y-45607963D01*
X191414298Y-45566052D01*
X191419433Y-45555573D01*
X191432767Y-45531319D01*
X191441427Y-45515568D01*
X191446703Y-45495017D01*
X191453011Y-45476593D01*
X191458337Y-45464286D01*
X191461436Y-45457126D01*
X191468578Y-45412024D01*
X191470948Y-45400587D01*
X191480359Y-45363935D01*
X191482300Y-45356377D01*
X191482300Y-45335154D01*
X191483827Y-45315756D01*
X191485926Y-45302503D01*
X191487147Y-45294795D01*
X191482850Y-45249340D01*
X191482300Y-45237670D01*
X191482300Y-42907335D01*
X191490358Y-42863365D01*
X191514278Y-42800291D01*
X191514277Y-42800291D01*
X191516940Y-42793272D01*
X191537445Y-42624400D01*
X191516940Y-42455528D01*
X191456618Y-42296470D01*
X191359983Y-42156471D01*
X191232652Y-42043666D01*
X191207623Y-42030529D01*
X191088666Y-41968095D01*
X191088662Y-41968093D01*
X191082025Y-41964610D01*
X191074747Y-41962816D01*
X191074744Y-41962815D01*
X190924137Y-41925694D01*
X190924132Y-41925693D01*
X190916856Y-41923900D01*
X190746744Y-41923900D01*
X190739468Y-41925693D01*
X190739462Y-41925694D01*
X190588855Y-41962815D01*
X190588850Y-41962816D01*
X190581575Y-41964610D01*
X190574940Y-41968092D01*
X190574933Y-41968095D01*
X190437591Y-42040179D01*
X190437588Y-42040180D01*
X190430948Y-42043666D01*
X190425337Y-42048636D01*
X190425331Y-42048641D01*
X190309230Y-42151498D01*
X190303617Y-42156471D01*
X190299362Y-42162635D01*
X190299357Y-42162641D01*
X190211245Y-42290293D01*
X190211242Y-42290297D01*
X190206982Y-42296470D01*
X190204323Y-42303481D01*
X190204320Y-42303487D01*
X190149320Y-42448511D01*
X190149317Y-42448519D01*
X190146660Y-42455528D01*
X190145756Y-42462970D01*
X190145755Y-42462976D01*
X190127156Y-42616155D01*
X190126155Y-42624400D01*
X190127059Y-42631845D01*
X190145755Y-42785823D01*
X190145756Y-42785827D01*
X190146660Y-42793272D01*
X190149319Y-42800283D01*
X190149321Y-42800291D01*
X190173242Y-42863365D01*
X190181300Y-42907335D01*
X190181300Y-44953392D01*
X190171861Y-45000845D01*
X190144981Y-45041073D01*
X187612873Y-47573181D01*
X187572645Y-47600061D01*
X187525192Y-47609500D01*
X184378072Y-47609500D01*
X184366403Y-47608950D01*
X184366316Y-47608941D01*
X184358703Y-47607240D01*
X184350910Y-47607484D01*
X184350902Y-47607484D01*
X184316364Y-47608569D01*
X184293084Y-47607105D01*
X184285302Y-47605873D01*
X184285297Y-47605872D01*
X184277595Y-47604653D01*
X184269830Y-47605387D01*
X184232140Y-47608950D01*
X184220470Y-47609500D01*
X162375825Y-47609500D01*
X162318568Y-47595489D01*
X162274250Y-47556623D01*
X162252886Y-47501685D01*
X162259303Y-47443089D01*
X162263668Y-47431096D01*
X162319739Y-47221837D01*
X162321613Y-47211206D01*
X162340494Y-46995395D01*
X162340494Y-46984605D01*
X162321613Y-46768793D01*
X162319739Y-46758162D01*
X162263667Y-46548902D01*
X162259979Y-46538768D01*
X162168423Y-46342427D01*
X162163025Y-46333077D01*
X162122814Y-46275650D01*
X162114703Y-46268217D01*
X162105424Y-46274128D01*
X161123680Y-47255872D01*
X161068093Y-47287966D01*
X161003905Y-47287966D01*
X160948318Y-47255872D01*
X159966574Y-46274128D01*
X159957296Y-46268217D01*
X159949183Y-46275651D01*
X159908971Y-46333081D01*
X159903577Y-46342425D01*
X159812020Y-46538768D01*
X159808332Y-46548902D01*
X159752260Y-46758162D01*
X159750386Y-46768793D01*
X159731506Y-46984605D01*
X159731506Y-46995395D01*
X159750386Y-47211206D01*
X159752260Y-47221837D01*
X159808332Y-47431097D01*
X159812020Y-47441231D01*
X159903579Y-47637580D01*
X159908971Y-47646918D01*
X159977851Y-47745290D01*
X159998967Y-47798442D01*
X159993982Y-47855417D01*
X159963957Y-47904094D01*
X159000219Y-48867833D01*
X158970165Y-48889948D01*
X158863785Y-48945782D01*
X158863781Y-48945784D01*
X158857148Y-48949266D01*
X158851538Y-48954235D01*
X158851535Y-48954238D01*
X158767408Y-49028768D01*
X158729817Y-49062071D01*
X158725562Y-49068235D01*
X158725557Y-49068241D01*
X158637445Y-49195893D01*
X158637442Y-49195897D01*
X158633182Y-49202070D01*
X158630523Y-49209081D01*
X158630520Y-49209087D01*
X158575520Y-49354111D01*
X158575517Y-49354119D01*
X158572860Y-49361128D01*
X158571955Y-49368574D01*
X158571954Y-49368582D01*
X158570446Y-49380999D01*
X158549399Y-49436491D01*
X158504974Y-49475846D01*
X158447349Y-49490048D01*
X158389725Y-49475844D01*
X158345301Y-49436488D01*
X158266442Y-49322241D01*
X158266441Y-49322240D01*
X158262183Y-49316071D01*
X158134852Y-49203266D01*
X158109823Y-49190129D01*
X157990866Y-49127695D01*
X157990862Y-49127693D01*
X157984225Y-49124210D01*
X157976947Y-49122416D01*
X157976944Y-49122415D01*
X157826337Y-49085294D01*
X157826332Y-49085293D01*
X157819056Y-49083500D01*
X157648944Y-49083500D01*
X157641668Y-49085293D01*
X157641662Y-49085294D01*
X157491055Y-49122415D01*
X157491050Y-49122416D01*
X157483775Y-49124210D01*
X157477140Y-49127692D01*
X157477133Y-49127695D01*
X157339791Y-49199779D01*
X157339788Y-49199780D01*
X157333148Y-49203266D01*
X157327537Y-49208236D01*
X157327531Y-49208241D01*
X157211430Y-49311098D01*
X157205817Y-49316071D01*
X157201562Y-49322235D01*
X157201557Y-49322241D01*
X157113442Y-49449897D01*
X157113439Y-49449902D01*
X157109182Y-49456070D01*
X157106524Y-49463077D01*
X157106522Y-49463082D01*
X157098578Y-49484028D01*
X157070318Y-49527734D01*
X153775354Y-52822698D01*
X153766719Y-52830556D01*
X153766639Y-52830621D01*
X153760060Y-52834798D01*
X153754727Y-52840476D01*
X153754722Y-52840481D01*
X153712132Y-52885834D01*
X153709428Y-52888625D01*
X153689089Y-52908965D01*
X153686712Y-52912028D01*
X153686688Y-52912056D01*
X153686363Y-52912476D01*
X153678807Y-52921321D01*
X153652892Y-52948919D01*
X153652887Y-52948924D01*
X153647552Y-52954607D01*
X153643797Y-52961436D01*
X153643789Y-52961448D01*
X153637321Y-52973213D01*
X153626647Y-52989464D01*
X153613638Y-53006236D01*
X153610541Y-53013391D01*
X153610540Y-53013394D01*
X153595506Y-53048133D01*
X153590370Y-53058616D01*
X153572130Y-53091796D01*
X153572127Y-53091802D01*
X153568373Y-53098632D01*
X153566434Y-53106180D01*
X153566431Y-53106190D01*
X153563089Y-53119204D01*
X153556792Y-53137596D01*
X153551464Y-53149910D01*
X153551462Y-53149916D01*
X153548365Y-53157074D01*
X153547145Y-53164772D01*
X153547144Y-53164778D01*
X153541223Y-53202162D01*
X153538855Y-53213593D01*
X153527500Y-53257823D01*
X153527500Y-53265625D01*
X153527500Y-53279046D01*
X153525973Y-53298445D01*
X153523873Y-53311697D01*
X153523872Y-53311704D01*
X153522653Y-53319405D01*
X153523387Y-53327170D01*
X153523387Y-53327172D01*
X153526950Y-53364860D01*
X153527500Y-53376530D01*
X153527500Y-58453796D01*
X153513985Y-58510091D01*
X153476385Y-58554114D01*
X153422898Y-58576269D01*
X153365182Y-58571727D01*
X153315819Y-58541477D01*
X148981695Y-54207353D01*
X148973832Y-54198712D01*
X148973778Y-54198647D01*
X148969598Y-54192060D01*
X148918562Y-54144134D01*
X148915765Y-54141423D01*
X148898185Y-54123843D01*
X148898184Y-54123842D01*
X148895431Y-54121089D01*
X148892352Y-54118701D01*
X148892347Y-54118696D01*
X148891944Y-54118383D01*
X148883065Y-54110799D01*
X148855481Y-54084896D01*
X148855475Y-54084892D01*
X148849789Y-54079552D01*
X148842953Y-54075794D01*
X148842952Y-54075793D01*
X148831190Y-54069327D01*
X148814927Y-54058644D01*
X148804320Y-54050416D01*
X148804318Y-54050415D01*
X148798160Y-54045638D01*
X148791008Y-54042543D01*
X148791003Y-54042540D01*
X148756265Y-54027508D01*
X148745775Y-54022369D01*
X148712603Y-54004132D01*
X148712598Y-54004130D01*
X148705764Y-54000373D01*
X148685192Y-53995090D01*
X148666793Y-53988790D01*
X148654483Y-53983463D01*
X148654477Y-53983461D01*
X148647322Y-53980365D01*
X148639623Y-53979145D01*
X148639618Y-53979144D01*
X148602233Y-53973223D01*
X148590795Y-53970854D01*
X148554131Y-53961440D01*
X148554126Y-53961439D01*
X148546573Y-53959500D01*
X148538771Y-53959500D01*
X148525350Y-53959500D01*
X148505951Y-53957973D01*
X148492698Y-53955873D01*
X148492692Y-53955872D01*
X148484991Y-53954653D01*
X148477225Y-53955387D01*
X148477223Y-53955387D01*
X148439536Y-53958950D01*
X148427866Y-53959500D01*
X146870863Y-53959500D01*
X146815591Y-53946500D01*
X146771909Y-53910227D01*
X146690438Y-53802341D01*
X146690434Y-53802337D01*
X146686981Y-53797764D01*
X146682744Y-53793901D01*
X146682740Y-53793897D01*
X146526796Y-53651736D01*
X146526797Y-53651736D01*
X146522562Y-53647876D01*
X146517692Y-53644861D01*
X146517690Y-53644859D01*
X146338275Y-53533771D01*
X146338276Y-53533771D01*
X146333401Y-53530753D01*
X146139476Y-53455626D01*
X146091107Y-53421831D01*
X146063833Y-53369504D01*
X146063833Y-53310496D01*
X146091107Y-53258169D01*
X146139476Y-53224373D01*
X146333401Y-53149247D01*
X146522562Y-53032124D01*
X146686981Y-52882236D01*
X146821058Y-52704689D01*
X146920229Y-52505528D01*
X146981115Y-52291536D01*
X147001643Y-52070000D01*
X146981115Y-51848464D01*
X146929539Y-51667194D01*
X146921798Y-51639986D01*
X146921797Y-51639984D01*
X146920229Y-51634472D01*
X146821058Y-51435311D01*
X146744552Y-51334000D01*
X146690438Y-51262341D01*
X146690434Y-51262337D01*
X146686981Y-51257764D01*
X146682744Y-51253901D01*
X146682740Y-51253897D01*
X146526796Y-51111736D01*
X146526797Y-51111736D01*
X146522562Y-51107876D01*
X146517692Y-51104861D01*
X146517690Y-51104859D01*
X146348169Y-50999897D01*
X146333401Y-50990753D01*
X146139476Y-50915626D01*
X146091107Y-50881831D01*
X146063833Y-50829504D01*
X146063833Y-50770496D01*
X146091107Y-50718169D01*
X146139476Y-50684373D01*
X146333401Y-50609247D01*
X146522562Y-50492124D01*
X146686981Y-50342236D01*
X146821058Y-50164689D01*
X146920229Y-49965528D01*
X146981115Y-49751536D01*
X147001643Y-49530000D01*
X146981115Y-49308464D01*
X146920229Y-49094472D01*
X146821058Y-48895311D01*
X146797352Y-48863919D01*
X146690438Y-48722341D01*
X146690434Y-48722337D01*
X146686981Y-48717764D01*
X146682744Y-48713901D01*
X146682740Y-48713897D01*
X146526796Y-48571736D01*
X146526797Y-48571736D01*
X146522562Y-48567876D01*
X146517692Y-48564861D01*
X146517690Y-48564859D01*
X146338275Y-48453771D01*
X146338276Y-48453771D01*
X146333401Y-48450753D01*
X146139476Y-48375626D01*
X146091107Y-48341831D01*
X146063833Y-48289504D01*
X146063833Y-48230496D01*
X146091107Y-48178169D01*
X146139476Y-48144373D01*
X146333401Y-48069247D01*
X146522562Y-47952124D01*
X146686981Y-47802236D01*
X146821058Y-47624689D01*
X146920229Y-47425528D01*
X146981115Y-47211536D01*
X147001643Y-46990000D01*
X146981115Y-46768464D01*
X146920229Y-46554472D01*
X146821058Y-46355311D01*
X146817605Y-46350738D01*
X146690438Y-46182341D01*
X146690434Y-46182337D01*
X146686981Y-46177764D01*
X146682744Y-46173901D01*
X146682740Y-46173897D01*
X146526796Y-46031736D01*
X146526797Y-46031736D01*
X146522562Y-46027876D01*
X146517692Y-46024861D01*
X146517690Y-46024859D01*
X146444314Y-45979427D01*
X146400709Y-45933336D01*
X146385612Y-45871709D01*
X146402976Y-45810682D01*
X146448254Y-45766233D01*
X146509591Y-45750000D01*
X146640518Y-45750000D01*
X146647114Y-45749646D01*
X146695667Y-45744426D01*
X146710641Y-45740888D01*
X146829777Y-45696452D01*
X146845189Y-45688037D01*
X146946092Y-45612501D01*
X146958501Y-45600092D01*
X147034037Y-45499189D01*
X147042452Y-45483777D01*
X147086888Y-45364641D01*
X147090426Y-45349667D01*
X147095646Y-45301114D01*
X147096000Y-45294518D01*
X147096000Y-44716326D01*
X147092549Y-44703450D01*
X147079674Y-44700000D01*
X144512326Y-44700000D01*
X144499450Y-44703450D01*
X144496000Y-44716326D01*
X144496000Y-45294518D01*
X114644500Y-45294518D01*
X114644500Y-44450000D01*
X159830357Y-44450000D01*
X159850885Y-44671536D01*
X159852454Y-44677050D01*
X159910201Y-44880013D01*
X159910204Y-44880021D01*
X159911771Y-44885528D01*
X159914323Y-44890653D01*
X159914325Y-44890658D01*
X160008387Y-45079559D01*
X160008389Y-45079563D01*
X160010942Y-45084689D01*
X160014391Y-45089256D01*
X160014394Y-45089261D01*
X160141561Y-45257658D01*
X160141566Y-45257663D01*
X160145019Y-45262236D01*
X160149255Y-45266097D01*
X160149259Y-45266102D01*
X160256577Y-45363935D01*
X160309438Y-45412124D01*
X160498599Y-45529247D01*
X160503941Y-45531316D01*
X160503944Y-45531318D01*
X160551774Y-45549847D01*
X160599045Y-45582407D01*
X160626589Y-45632765D01*
X160628504Y-45690133D01*
X160604380Y-45742216D01*
X160559386Y-45777856D01*
X160388425Y-45857577D01*
X160379081Y-45862971D01*
X160321651Y-45903183D01*
X160314217Y-45911296D01*
X160320128Y-45920574D01*
X161024457Y-46624903D01*
X161036000Y-46631567D01*
X161047542Y-46624903D01*
X161751870Y-45920574D01*
X161757781Y-45911295D01*
X161750348Y-45903184D01*
X161692922Y-45862974D01*
X161683572Y-45857576D01*
X161512613Y-45777856D01*
X161467619Y-45742216D01*
X161443494Y-45690132D01*
X161445410Y-45632765D01*
X161472954Y-45582406D01*
X161520226Y-45549847D01*
X161573401Y-45529247D01*
X161762562Y-45412124D01*
X161926981Y-45262236D01*
X162061058Y-45084689D01*
X162160229Y-44885528D01*
X162221115Y-44671536D01*
X162241643Y-44450000D01*
X162221115Y-44228464D01*
X162160229Y-44014472D01*
X162061058Y-43815311D01*
X162057605Y-43810738D01*
X161930438Y-43642341D01*
X161930434Y-43642337D01*
X161926981Y-43637764D01*
X161922744Y-43633901D01*
X161922740Y-43633897D01*
X161766796Y-43491736D01*
X161766797Y-43491736D01*
X161762562Y-43487876D01*
X161757692Y-43484861D01*
X161757690Y-43484859D01*
X161578275Y-43373771D01*
X161578276Y-43373771D01*
X161573401Y-43370753D01*
X161365940Y-43290382D01*
X161360302Y-43289328D01*
X161152872Y-43250552D01*
X161152869Y-43250551D01*
X161147243Y-43249500D01*
X160924757Y-43249500D01*
X160919131Y-43250551D01*
X160919127Y-43250552D01*
X160711697Y-43289328D01*
X160711694Y-43289328D01*
X160706060Y-43290382D01*
X160700717Y-43292451D01*
X160700713Y-43292453D01*
X160503941Y-43368683D01*
X160503936Y-43368685D01*
X160498599Y-43370753D01*
X160493727Y-43373769D01*
X160493724Y-43373771D01*
X160314309Y-43484859D01*
X160314301Y-43484864D01*
X160309438Y-43487876D01*
X160305207Y-43491732D01*
X160305203Y-43491736D01*
X160149259Y-43633897D01*
X160149249Y-43633907D01*
X160145019Y-43637764D01*
X160141570Y-43642330D01*
X160141561Y-43642341D01*
X160014394Y-43810738D01*
X160014387Y-43810748D01*
X160010942Y-43815311D01*
X160008392Y-43820431D01*
X160008387Y-43820440D01*
X159914325Y-44009341D01*
X159914321Y-44009349D01*
X159911771Y-44014472D01*
X159910205Y-44019975D01*
X159910201Y-44019986D01*
X159852454Y-44222949D01*
X159850885Y-44228464D01*
X159830357Y-44450000D01*
X114644500Y-44450000D01*
X114644500Y-44183674D01*
X144496000Y-44183674D01*
X144499450Y-44196549D01*
X144512326Y-44200000D01*
X145529674Y-44200000D01*
X145542549Y-44196549D01*
X145546000Y-44183674D01*
X146046000Y-44183674D01*
X146049450Y-44196549D01*
X146062326Y-44200000D01*
X147079674Y-44200000D01*
X147092549Y-44196549D01*
X147096000Y-44183674D01*
X147096000Y-43605482D01*
X147095646Y-43598885D01*
X147090426Y-43550332D01*
X147086888Y-43535358D01*
X147042452Y-43416222D01*
X147034037Y-43400810D01*
X146958501Y-43299907D01*
X146946092Y-43287498D01*
X146845189Y-43211962D01*
X146829777Y-43203547D01*
X146710641Y-43159111D01*
X146695667Y-43155573D01*
X146647114Y-43150353D01*
X146640518Y-43150000D01*
X146062326Y-43150000D01*
X146049450Y-43153450D01*
X146046000Y-43166326D01*
X146046000Y-44183674D01*
X145546000Y-44183674D01*
X145546000Y-43166326D01*
X145542549Y-43153450D01*
X145529674Y-43150000D01*
X144951482Y-43150000D01*
X144944885Y-43150353D01*
X144896332Y-43155573D01*
X144881358Y-43159111D01*
X144762222Y-43203547D01*
X144746810Y-43211962D01*
X144645907Y-43287498D01*
X144633498Y-43299907D01*
X144557962Y-43400810D01*
X144549547Y-43416222D01*
X144505111Y-43535358D01*
X144501573Y-43550332D01*
X144496353Y-43598885D01*
X144496000Y-43605482D01*
X144496000Y-44183674D01*
X114644500Y-44183674D01*
X114644500Y-41362500D01*
X114661113Y-41300500D01*
X114706500Y-41255113D01*
X114768500Y-41238500D01*
X199519500Y-41238500D01*
X199581500Y-41255113D01*
G37*
%TD.AperFunction*%
%TD*%
M02*
