M48
; DRILL file {KiCad (7.0.0)} date Tue Feb 28 21:07:19 2023
; FORMAT={-:-/ absolute / inch / decimal}
; #@! TF.CreationDate,2023-02-28T21:07:19-08:00
; #@! TF.GenerationSoftware,Kicad,Pcbnew,(7.0.0)
; #@! TF.FileFunction,Plated,1,2,PTH
FMAT,2
INCH
; #@! TA.AperFunction,Plated,PTH,ViaDrill
T1C0.0118
; #@! TA.AperFunction,Plated,PTH,ComponentDrill
T2C0.0285
; #@! TA.AperFunction,Plated,PTH,ComponentDrill
T3C0.0433
%
G90
G05
T1
X4.6603Y-2.7927
X4.7233Y-4.6194
X4.7469Y-4.0919
X4.7627Y-2.0131
X4.7784Y-3.4226
X4.78Y-4.36
X4.802Y-3.0525
X4.8257Y-3.7139
X4.865Y-4.1549
X4.8887Y-2.3675
X4.8887Y-2.4541
X4.8965Y-2.8714
X4.9044Y-2.9502
X4.9517Y-3.7848
X4.9674Y-4.21
X5.0146Y-3.4147
X5.0383Y-2.0998
X5.0461Y-1.8242
X5.1013Y-2.6194
X5.12Y-3.17
X5.1249Y-4.5013
X5.1328Y-4.8006
X5.1564Y-2.3281
X5.19Y-4.2
X5.2272Y-2.8714
X5.3375Y-3.6273
X5.36Y-2.44
X5.3611Y-3.7454
X5.369Y-2.0683
X5.4083Y-3.1785
X5.4083Y-4.525
X5.41Y-4.3
X5.4713Y-4.1313
X5.4871Y-1.8006
X5.53Y-2.68
X5.56Y-3.57
X5.5737Y-4.1076
X5.5816Y-2.147
X5.6131Y-4.3045
X5.6131Y-4.8084
X5.64Y-4.55
X5.7942Y-4.3124
X5.8178Y-4.8714
X5.8335Y-2.5407
X5.8414Y-1.9974
X5.8414Y-2.6431
X5.8572Y-2.7612
X5.865Y-2.3795
X5.865Y-2.4541
X5.865Y-2.895
X5.865Y-4.5486
X5.8729Y-1.8084
X5.8729Y-3.5643
X5.8729Y-3.9738
X5.8808Y-3.0761
X5.8808Y-3.2415
X5.8808Y-3.7061
X5.8808Y-3.8557
X5.8887Y-3.4305
X5.9123Y-2.5565
X5.928Y-4.7218
X5.9517Y-2.0604
X5.9674Y-1.9187
X5.9753Y-2.147
X6.0225Y-2.2257
X6.0512Y-4.5328
X6.0524Y-1.917
X6.1091Y-2.3754
X6.1091Y-4.895
X6.1111Y-1.8233
X6.13Y-4.58
X6.1328Y-4.6982
X6.1485Y-2.462
X6.1485Y-2.5565
X6.15Y-1.975
X6.1749Y-1.7482
X6.1879Y-3.147
X6.1879Y-3.5407
X6.1957Y-3.0131
X6.1957Y-3.399
X6.1957Y-4.1864
X6.2036Y-4.7927
X6.21Y-1.96
X6.2115Y-2.8242
X6.2115Y-3.7139
X6.2194Y-2.4147
X6.2272Y-2.5092
X6.2272Y-3.8478
X6.2272Y-4.0289
X6.235Y-1.825
X6.2351Y-2.6588
X6.243Y-2.1706
X6.2587Y-2.3439
X6.27Y-1.95
X6.2796Y-2.0734
X6.2961Y-1.6608
X6.369Y-4.3517
X6.369Y-4.7848
X6.3769Y-4.8793
X6.3946Y-1.6667
X6.4Y-4.6
X6.4Y-4.45
X6.4083Y-4.1864
X6.425Y-2.09
X6.43Y-1.97
X6.435Y-2.275
X6.4477Y-2.9659
X6.4713Y-4.9187
X6.4792Y-2.6509
X6.48Y-1.975
X6.495Y-3.9659
X6.5107Y-3.21
X6.5265Y-4.7695
X6.5343Y-2.4698
X6.5343Y-3.7061
X6.56Y-2.15
X6.5737Y-3.4856
X6.5875Y-1.6805
X6.5894Y-2.7848
X6.6088Y-2.0595
X6.6209Y-3.7612
X6.6367Y-4.1391
X6.6402Y-2.1353
X6.6603Y-3.399
X6.6761Y-3.021
X6.6761Y-3.7218
X6.6839Y-4.7695
X6.6918Y-2.3517
X6.7008Y-1.8222
X6.7233Y-4.9265
X6.73Y-2.45
X6.7312Y-4.1943
X6.75Y-1.86
X6.7548Y-3.5643
X6.7627Y-3.9659
X6.7706Y-3.3124
X6.7784Y-2.7061
X6.7784Y-3.2179
X6.8178Y-1.6509
X6.8194Y-1.7027
X6.8335Y-4.2336
X6.8493Y-2.1943
X6.8493Y-3.462
X6.855Y-1.98
X6.8599Y-4.2309
X6.865Y-3.7218
X6.865Y-4.7695
X6.8965Y-4.9187
X6.9044Y-3.6431
X6.9162Y-1.8222
X6.928Y-2.5407
X6.9517Y-2.0618
X6.97Y-2.15
X6.9753Y-2.3202
X6.9871Y-1.6805
X6.995Y-1.85
X6.9989Y-3.3911
X6.9989Y-4.3124
X7.0304Y-2.2415
X7.0461Y-3.5801
X7.0619Y-4.7533
X7.0855Y-2.525
X7.0934Y-3.0289
X7.1013Y-4.9344
X7.11Y-1.855
X7.128Y-2.0805
X7.1457Y-2.021
X7.18Y-1.6431
X7.185Y-1.96
X7.1869Y-1.7027
X7.2115Y-3.7139
X7.2115Y-4.2966
X7.2194Y-3.2494
X7.2194Y-4.0131
X7.225Y-2.085
X7.2745Y-2.7612
X7.2784Y-1.712
X7.28Y-2.07
X7.2829Y-2.1795
X7.2863Y-1.8242
X7.305Y-1.96
X7.3139Y-4.7691
X7.3139Y-4.9423
X7.3217Y-2.2415
X7.3296Y-3.7927
X7.3447Y-1.8117
X7.3847Y-1.6805
X7.3847Y-2.9738
X7.4005Y-2.3832
X7.4005Y-4.1391
X7.4324Y-2.1019
X7.4635Y-3.2021
X7.4713Y-3.9895
X7.5131Y-1.6781
X7.5186Y-2.6667
X7.5265Y-4.462
X7.555Y-2.021
X7.558Y-3.1391
X7.558Y-3.7927
X7.5816Y-2.2651
X7.5816Y-3.6509
X7.5816Y-4.832
X7.5973Y-3.462
X7.625Y-1.995
X7.6367Y-4.6667
X7.6446Y-2.8163
X7.6446Y-3.8399
X7.6682Y-4.2257
X7.6761Y-2.5958
X7.6839Y-4.3517
X7.6997Y-4.895
X7.7076Y-2.2966
X7.7154Y-2.0761
X7.7154Y-4.7061
X7.7233Y-1.9187
X7.7233Y-3.1076
X7.7233Y-4.5328
X7.7391Y-1.7454
X7.7391Y-4.0683
X7.8257Y-3.4069
T2
X6.5138Y-4.3775
X6.5138Y-4.4563
X6.5138Y-4.535
X6.5138Y-4.6137
X6.5138Y-4.6925
X6.5926Y-4.3775
X6.5926Y-4.4563
X6.5926Y-4.535
X6.5926Y-4.6137
X6.5926Y-4.6925
X6.6713Y-4.3775
X6.6713Y-4.4563
X6.6713Y-4.535
X6.6713Y-4.6137
X6.6713Y-4.6925
X6.75Y-4.3775
X6.75Y-4.4563
X6.75Y-4.535
X6.75Y-4.6137
X6.75Y-4.6925
X6.8288Y-4.3775
X6.8288Y-4.4563
X6.8288Y-4.535
X6.8288Y-4.6137
X6.8288Y-4.6925
X6.9075Y-4.3775
X6.9075Y-4.4563
X6.9075Y-4.535
X6.9075Y-4.6137
X6.9075Y-4.6925
X6.9863Y-4.3775
X6.9863Y-4.4563
X6.9863Y-4.535
X6.9863Y-4.6137
X6.9863Y-4.6925
X7.065Y-4.3775
X7.065Y-4.4563
X7.065Y-4.535
X7.065Y-4.6137
X7.065Y-4.6925
X7.1437Y-4.3775
X7.1437Y-4.4563
X7.1437Y-4.535
X7.1437Y-4.6137
X7.1437Y-4.6925
X7.2225Y-4.3775
X7.2225Y-4.4563
X7.2225Y-4.535
X7.2225Y-4.6137
X7.2225Y-4.6925
X7.3012Y-4.3775
X7.3012Y-4.4563
X7.3012Y-4.535
X7.3012Y-4.6137
X7.3012Y-4.6925
X7.38Y-4.3775
X7.38Y-4.4563
X7.38Y-4.535
X7.38Y-4.6137
X7.38Y-4.6925
T3
X5.74Y-1.75
X5.74Y-1.85
X5.74Y-1.95
X5.74Y-2.05
X5.74Y-2.15
X5.74Y-2.25
X5.74Y-2.35
X5.74Y-2.45
X5.74Y-2.55
X5.74Y-2.65
X5.74Y-2.75
X5.74Y-2.85
X5.74Y-2.95
X5.74Y-3.05
X5.74Y-3.15
X5.74Y-3.25
X5.74Y-3.35
X5.74Y-3.45
X5.74Y-3.55
X5.74Y-3.65
X5.74Y-3.75
X5.74Y-3.85
X5.74Y-3.95
X5.74Y-4.05
X6.34Y-1.75
X6.34Y-1.85
X6.34Y-1.95
X6.34Y-2.05
X6.34Y-2.15
X6.34Y-2.25
X6.34Y-2.35
X6.34Y-2.45
X6.34Y-2.55
X6.34Y-2.65
X6.34Y-2.75
X6.34Y-2.85
X6.34Y-2.95
X6.34Y-3.05
X6.34Y-3.15
X6.34Y-3.25
X6.34Y-3.35
X6.34Y-3.45
X6.34Y-3.55
X6.34Y-3.65
X6.34Y-3.75
X6.34Y-3.85
X6.34Y-3.95
X6.34Y-4.05
T0
M30
