%TF.GenerationSoftware,KiCad,Pcbnew,(7.0.0)*%
%TF.CreationDate,2023-02-28T21:07:10-08:00*%
%TF.ProjectId,semiactive,73656d69-6163-4746-9976-652e6b696361,rev?*%
%TF.SameCoordinates,Original*%
%TF.FileFunction,Paste,Top*%
%TF.FilePolarity,Positive*%
%FSLAX46Y46*%
G04 Gerber Fmt 4.6, Leading zero omitted, Abs format (unit mm)*
G04 Created by KiCad (PCBNEW (7.0.0)) date 2023-02-28 21:07:10*
%MOMM*%
%LPD*%
G01*
G04 APERTURE LIST*
G04 Aperture macros list*
%AMRoundRect*
0 Rectangle with rounded corners*
0 $1 Rounding radius*
0 $2 $3 $4 $5 $6 $7 $8 $9 X,Y pos of 4 corners*
0 Add a 4 corners polygon primitive as box body*
4,1,4,$2,$3,$4,$5,$6,$7,$8,$9,$2,$3,0*
0 Add four circle primitives for the rounded corners*
1,1,$1+$1,$2,$3*
1,1,$1+$1,$4,$5*
1,1,$1+$1,$6,$7*
1,1,$1+$1,$8,$9*
0 Add four rect primitives between the rounded corners*
20,1,$1+$1,$2,$3,$4,$5,0*
20,1,$1+$1,$4,$5,$6,$7,0*
20,1,$1+$1,$6,$7,$8,$9,0*
20,1,$1+$1,$8,$9,$2,$3,0*%
G04 Aperture macros list end*
%ADD10C,0.010000*%
%ADD11RoundRect,0.225000X0.225000X0.250000X-0.225000X0.250000X-0.225000X-0.250000X0.225000X-0.250000X0*%
%ADD12R,0.700000X1.200000*%
%ADD13R,0.450000X1.200000*%
%ADD14R,1.500000X0.900000*%
%ADD15RoundRect,0.250000X0.650000X-1.000000X0.650000X1.000000X-0.650000X1.000000X-0.650000X-1.000000X0*%
G04 APERTURE END LIST*
%TO.C,D3*%
G36*
X167699800Y-43224400D02*
G01*
X167149800Y-43224400D01*
X167149800Y-42974400D01*
X166699800Y-42974400D01*
X166699800Y-42424400D01*
X167149800Y-42424400D01*
X167149800Y-42024400D01*
X167699800Y-42024400D01*
X167699800Y-43224400D01*
G37*
D10*
X167699800Y-43224400D02*
X167149800Y-43224400D01*
X167149800Y-42974400D01*
X166699800Y-42974400D01*
X166699800Y-42424400D01*
X167149800Y-42424400D01*
X167149800Y-42024400D01*
X167699800Y-42024400D01*
X167699800Y-43224400D01*
G36*
X170849800Y-42424400D02*
G01*
X171299800Y-42424400D01*
X171299800Y-42974400D01*
X170849800Y-42974400D01*
X170849800Y-43224400D01*
X170299800Y-43224400D01*
X170299800Y-42024400D01*
X170849800Y-42024400D01*
X170849800Y-42424400D01*
G37*
X170849800Y-42424400D02*
X171299800Y-42424400D01*
X171299800Y-42974400D01*
X170849800Y-42974400D01*
X170849800Y-43224400D01*
X170299800Y-43224400D01*
X170299800Y-42024400D01*
X170849800Y-42024400D01*
X170849800Y-42424400D01*
%TO.C,D1*%
G36*
X187956800Y-43224400D02*
G01*
X187406800Y-43224400D01*
X187406800Y-42974400D01*
X186956800Y-42974400D01*
X186956800Y-42424400D01*
X187406800Y-42424400D01*
X187406800Y-42024400D01*
X187956800Y-42024400D01*
X187956800Y-43224400D01*
G37*
X187956800Y-43224400D02*
X187406800Y-43224400D01*
X187406800Y-42974400D01*
X186956800Y-42974400D01*
X186956800Y-42424400D01*
X187406800Y-42424400D01*
X187406800Y-42024400D01*
X187956800Y-42024400D01*
X187956800Y-43224400D01*
G36*
X191106800Y-42424400D02*
G01*
X191556800Y-42424400D01*
X191556800Y-42974400D01*
X191106800Y-42974400D01*
X191106800Y-43224400D01*
X190556800Y-43224400D01*
X190556800Y-42024400D01*
X191106800Y-42024400D01*
X191106800Y-42424400D01*
G37*
X191106800Y-42424400D02*
X191556800Y-42424400D01*
X191556800Y-42974400D01*
X191106800Y-42974400D01*
X191106800Y-43224400D01*
X190556800Y-43224400D01*
X190556800Y-42024400D01*
X191106800Y-42024400D01*
X191106800Y-42424400D01*
%TO.C,D2*%
G36*
X177828300Y-43224400D02*
G01*
X177278300Y-43224400D01*
X177278300Y-42974400D01*
X176828300Y-42974400D01*
X176828300Y-42424400D01*
X177278300Y-42424400D01*
X177278300Y-42024400D01*
X177828300Y-42024400D01*
X177828300Y-43224400D01*
G37*
X177828300Y-43224400D02*
X177278300Y-43224400D01*
X177278300Y-42974400D01*
X176828300Y-42974400D01*
X176828300Y-42424400D01*
X177278300Y-42424400D01*
X177278300Y-42024400D01*
X177828300Y-42024400D01*
X177828300Y-43224400D01*
G36*
X180978300Y-42424400D02*
G01*
X181428300Y-42424400D01*
X181428300Y-42974400D01*
X180978300Y-42974400D01*
X180978300Y-43224400D01*
X180428300Y-43224400D01*
X180428300Y-42024400D01*
X180978300Y-42024400D01*
X180978300Y-42424400D01*
G37*
X180978300Y-42424400D02*
X181428300Y-42424400D01*
X181428300Y-42974400D01*
X180978300Y-42974400D01*
X180978300Y-43224400D01*
X180428300Y-43224400D01*
X180428300Y-42024400D01*
X180978300Y-42024400D01*
X180978300Y-42424400D01*
%TD*%
D11*
%TO.C,C1*%
X169050000Y-45720000D03*
X167500000Y-45720000D03*
%TD*%
D12*
%TO.C,D3*%
X169449799Y-42624399D03*
D13*
X168424799Y-42624399D03*
%TD*%
D12*
%TO.C,D1*%
X189706799Y-42624399D03*
D13*
X188681799Y-42624399D03*
%TD*%
D11*
%TO.C,C3*%
X189497000Y-45847000D03*
X187947000Y-45847000D03*
%TD*%
D14*
%TO.C,D4*%
X191896999Y-54633999D03*
X191896999Y-51333999D03*
X186996999Y-51333999D03*
X186996999Y-54633999D03*
%TD*%
D11*
%TO.C,C2*%
X179337000Y-45720000D03*
X177787000Y-45720000D03*
%TD*%
D12*
%TO.C,D2*%
X179578299Y-42624399D03*
D13*
X178553299Y-42624399D03*
%TD*%
D14*
%TO.C,D6*%
X171105999Y-54633999D03*
X171105999Y-51333999D03*
X166205999Y-51333999D03*
X166205999Y-54633999D03*
%TD*%
%TO.C,D5*%
X181501499Y-54633999D03*
X181501499Y-51333999D03*
X176601499Y-51333999D03*
X176601499Y-54633999D03*
%TD*%
D15*
%TO.C,D7*%
X164465000Y-47974000D03*
X164465000Y-43974000D03*
%TD*%
M02*
