%TF.GenerationSoftware,KiCad,Pcbnew,(7.0.0)*%
%TF.CreationDate,2023-02-28T21:07:10-08:00*%
%TF.ProjectId,semiactive,73656d69-6163-4746-9976-652e6b696361,rev?*%
%TF.SameCoordinates,Original*%
%TF.FileFunction,Soldermask,Bot*%
%TF.FilePolarity,Negative*%
%FSLAX46Y46*%
G04 Gerber Fmt 4.6, Leading zero omitted, Abs format (unit mm)*
G04 Created by KiCad (PCBNEW (7.0.0)) date 2023-02-28 21:07:10*
%MOMM*%
%LPD*%
G01*
G04 APERTURE LIST*
%ADD10C,1.500000*%
%ADD11C,2.100000*%
%ADD12R,1.243000X1.243000*%
%ADD13C,1.243000*%
%ADD14R,1.600000X1.600000*%
%ADD15C,1.600000*%
G04 APERTURE END LIST*
D10*
%TO.C,J1*%
X166451000Y-123189000D03*
D11*
X170451000Y-123189000D03*
D10*
X174451000Y-123189000D03*
X178451000Y-123189000D03*
D11*
X182451000Y-123189000D03*
D10*
X186451000Y-123189000D03*
D12*
X187450999Y-111188999D03*
D13*
X185451000Y-111189000D03*
X183451000Y-111189000D03*
X181451000Y-111189000D03*
X179451000Y-111189000D03*
X177451000Y-111189000D03*
X175451000Y-111189000D03*
X173451000Y-111189000D03*
X171451000Y-111189000D03*
X169451000Y-111189000D03*
X167451000Y-111189000D03*
X165451000Y-111189000D03*
X187451000Y-113189000D03*
X185451000Y-113189000D03*
X183451000Y-113189000D03*
X181451000Y-113189000D03*
X179451000Y-113189000D03*
X177451000Y-113189000D03*
X175451000Y-113189000D03*
X173451000Y-113189000D03*
X171451000Y-113189000D03*
X169451000Y-113189000D03*
X167451000Y-113189000D03*
X165451000Y-113189000D03*
X187451000Y-115189000D03*
X185451000Y-115189000D03*
X183451000Y-115189000D03*
X181451000Y-115189000D03*
X179451000Y-115189000D03*
X177451000Y-115189000D03*
X175451000Y-115189000D03*
X173451000Y-115189000D03*
X171451000Y-115189000D03*
X169451000Y-115189000D03*
X167451000Y-115189000D03*
X165451000Y-115189000D03*
X187451000Y-117189000D03*
X185451000Y-117189000D03*
X183451000Y-117189000D03*
X181451000Y-117189000D03*
X179451000Y-117189000D03*
X177451000Y-117189000D03*
X175451000Y-117189000D03*
X173451000Y-117189000D03*
X171451000Y-117189000D03*
X169451000Y-117189000D03*
X167451000Y-117189000D03*
X165451000Y-117189000D03*
X187451000Y-119189000D03*
X185451000Y-119189000D03*
X183451000Y-119189000D03*
X181451000Y-119189000D03*
X179451000Y-119189000D03*
X177451000Y-119189000D03*
X175451000Y-119189000D03*
X173451000Y-119189000D03*
X171451000Y-119189000D03*
X169451000Y-119189000D03*
X167451000Y-119189000D03*
X165451000Y-119189000D03*
%TD*%
D14*
%TO.C,U1*%
X145795999Y-44449999D03*
D15*
X145796000Y-46990000D03*
X145796000Y-49530000D03*
X145796000Y-52070000D03*
X145796000Y-54610000D03*
X145796000Y-57150000D03*
X145796000Y-59690000D03*
X145796000Y-62230000D03*
X145796000Y-64770000D03*
X145796000Y-67310000D03*
X145796000Y-69850000D03*
X145796000Y-72390000D03*
X145796000Y-74930000D03*
X145796000Y-77470000D03*
X145796000Y-80010000D03*
X145796000Y-82550000D03*
X145796000Y-85090000D03*
X145796000Y-87630000D03*
X145796000Y-90170000D03*
X145796000Y-92710000D03*
X145796000Y-95250000D03*
X145796000Y-97790000D03*
X145796000Y-100330000D03*
X145796000Y-102870000D03*
X161036000Y-102870000D03*
X161036000Y-100330000D03*
X161036000Y-97790000D03*
X161036000Y-95250000D03*
X161036000Y-92710000D03*
X161036000Y-90170000D03*
X161036000Y-87630000D03*
X161036000Y-85090000D03*
X161036000Y-82550000D03*
X161036000Y-80010000D03*
X161036000Y-77470000D03*
X161036000Y-74930000D03*
X161036000Y-72390000D03*
X161036000Y-69850000D03*
X161036000Y-67310000D03*
X161036000Y-64770000D03*
X161036000Y-62230000D03*
X161036000Y-59690000D03*
X161036000Y-57150000D03*
X161036000Y-54610000D03*
X161036000Y-52070000D03*
X161036000Y-49530000D03*
X161036000Y-46990000D03*
X161036000Y-44450000D03*
%TD*%
M02*
