%TF.GenerationSoftware,KiCad,Pcbnew,(7.0.0)*%
%TF.CreationDate,2023-03-21T21:59:13-07:00*%
%TF.ProjectId,backplane-concept,6261636b-706c-4616-9e65-2d636f6e6365,rev?*%
%TF.SameCoordinates,Original*%
%TF.FileFunction,Soldermask,Bot*%
%TF.FilePolarity,Negative*%
%FSLAX46Y46*%
G04 Gerber Fmt 4.6, Leading zero omitted, Abs format (unit mm)*
G04 Created by KiCad (PCBNEW (7.0.0)) date 2023-03-21 21:59:13*
%MOMM*%
%LPD*%
G01*
G04 APERTURE LIST*
%ADD10C,2.387600*%
%ADD11C,0.914400*%
%ADD12C,2.362200*%
%ADD13C,1.219200*%
%ADD14C,1.879600*%
%ADD15C,2.250000*%
%ADD16C,5.100000*%
G04 APERTURE END LIST*
D10*
%TO.C,J8*%
X71650000Y-161000001D03*
X80800000Y-161000001D03*
D11*
X60000000Y-160000000D03*
X60999999Y-158000001D03*
X61999999Y-160000000D03*
X63000001Y-158000001D03*
X64000000Y-160000000D03*
X64999999Y-158000001D03*
X66000001Y-160000000D03*
X67000000Y-158000001D03*
X67999999Y-160000000D03*
X68999999Y-158000001D03*
X70000000Y-160000000D03*
X73000000Y-158000001D03*
X73999999Y-160000000D03*
X75000001Y-158000001D03*
X76000000Y-160000000D03*
X76999999Y-158000001D03*
X78000001Y-160000000D03*
X79000001Y-158000001D03*
X59999999Y-162000001D03*
X61000000Y-164000002D03*
X62000001Y-162000001D03*
X62999999Y-164000002D03*
X63999999Y-162000001D03*
X65000000Y-164000002D03*
X66000000Y-162000001D03*
X67000001Y-164000002D03*
X67999999Y-162000001D03*
X68999999Y-164000002D03*
X70000000Y-162000001D03*
X73000000Y-164000002D03*
X74000001Y-162000001D03*
X74999999Y-164000002D03*
X75999999Y-162000001D03*
X77000000Y-164000002D03*
X78000000Y-162000001D03*
X79000001Y-164000002D03*
%TD*%
D12*
%TO.C,J4*%
X71649996Y-41250000D03*
X111800004Y-41250000D03*
D13*
X60000000Y-40000000D03*
X61000001Y-38000000D03*
X62000001Y-40000000D03*
X62999999Y-38000000D03*
X64000000Y-40000000D03*
X65000000Y-38000000D03*
X66000001Y-40000000D03*
X67000001Y-38000000D03*
X67999999Y-40000000D03*
X69000000Y-38000000D03*
X70000000Y-40000000D03*
X73000001Y-38000000D03*
X74000001Y-40000000D03*
X74999999Y-38000000D03*
X76000000Y-40000000D03*
X77000000Y-38000000D03*
X78000001Y-40000000D03*
X78999999Y-38000000D03*
X80000000Y-40000000D03*
X81000000Y-38000000D03*
X82000001Y-40000000D03*
X83000001Y-38000000D03*
X83999999Y-40000000D03*
X85000000Y-38000000D03*
X86000000Y-40000000D03*
X87000001Y-38000000D03*
X88000001Y-40000000D03*
X88999999Y-38000000D03*
X90000000Y-40000000D03*
X91000000Y-38000000D03*
X92000001Y-40000000D03*
X93000002Y-38000000D03*
X94000000Y-40000000D03*
X95000000Y-38000000D03*
X96000001Y-40000000D03*
X97000001Y-38000000D03*
X97999999Y-40000000D03*
X99000000Y-38000000D03*
X100000000Y-40000000D03*
X101000001Y-38000000D03*
X102000001Y-40000000D03*
X102999999Y-38000000D03*
X104000000Y-40000000D03*
X105000000Y-38000000D03*
X106000001Y-40000000D03*
X107000001Y-38000000D03*
X107999999Y-40000000D03*
X109000000Y-38000000D03*
X110000001Y-40000000D03*
X60000000Y-42500000D03*
X61000001Y-44500000D03*
X62000001Y-42500000D03*
X62999999Y-44500000D03*
X64000000Y-42500000D03*
X65000000Y-44500000D03*
X66000001Y-42500000D03*
X67000001Y-44500000D03*
X67999999Y-42500000D03*
X69000000Y-44500000D03*
X70000000Y-42500000D03*
X73000001Y-44500000D03*
X74000001Y-42500000D03*
X74999999Y-44500000D03*
X76000000Y-42500000D03*
X77000000Y-44500000D03*
X78000001Y-42500000D03*
X78999999Y-44500000D03*
X80000000Y-42500000D03*
X81000000Y-44500000D03*
X82000001Y-42500000D03*
X83000001Y-44500000D03*
X83999999Y-42500000D03*
X85000000Y-44500000D03*
X86000000Y-42500000D03*
X87000001Y-44500000D03*
X88000001Y-42500000D03*
X88999999Y-44500000D03*
X90000000Y-42500000D03*
X91000000Y-44500000D03*
X92000001Y-42500000D03*
X93000002Y-44500000D03*
X94000000Y-42500000D03*
X95000000Y-44500000D03*
X96000001Y-42500000D03*
X97000001Y-44500000D03*
X97999999Y-42500000D03*
X99000000Y-44500000D03*
X100000000Y-42500000D03*
X101000001Y-44500000D03*
X102000001Y-42500000D03*
X102999999Y-44500000D03*
X104000000Y-42500000D03*
X105000000Y-44500000D03*
X106000001Y-42500000D03*
X107000001Y-44500000D03*
X107999999Y-42500000D03*
X109000000Y-44500000D03*
X110000001Y-42500000D03*
%TD*%
D10*
%TO.C,J7*%
X71650000Y-141000001D03*
X80800000Y-141000001D03*
D11*
X60000000Y-140000000D03*
X60999999Y-138000001D03*
X61999999Y-140000000D03*
X63000001Y-138000001D03*
X64000000Y-140000000D03*
X64999999Y-138000001D03*
X66000001Y-140000000D03*
X67000000Y-138000001D03*
X67999999Y-140000000D03*
X68999999Y-138000001D03*
X70000000Y-140000000D03*
X73000000Y-138000001D03*
X73999999Y-140000000D03*
X75000001Y-138000001D03*
X76000000Y-140000000D03*
X76999999Y-138000001D03*
X78000001Y-140000000D03*
X79000001Y-138000001D03*
X59999999Y-142000001D03*
X61000000Y-144000002D03*
X62000001Y-142000001D03*
X62999999Y-144000002D03*
X63999999Y-142000001D03*
X65000000Y-144000002D03*
X66000000Y-142000001D03*
X67000001Y-144000002D03*
X67999999Y-142000001D03*
X68999999Y-144000002D03*
X70000000Y-142000001D03*
X73000000Y-144000002D03*
X74000001Y-142000001D03*
X74999999Y-144000002D03*
X75999999Y-142000001D03*
X77000000Y-144000002D03*
X78000000Y-142000001D03*
X79000001Y-144000002D03*
%TD*%
D12*
%TO.C,J3*%
X71649996Y-61250000D03*
X111800004Y-61250000D03*
D13*
X60000000Y-60000000D03*
X61000001Y-58000000D03*
X62000001Y-60000000D03*
X62999999Y-58000000D03*
X64000000Y-60000000D03*
X65000000Y-58000000D03*
X66000001Y-60000000D03*
X67000001Y-58000000D03*
X67999999Y-60000000D03*
X69000000Y-58000000D03*
X70000000Y-60000000D03*
X73000001Y-58000000D03*
X74000001Y-60000000D03*
X74999999Y-58000000D03*
X76000000Y-60000000D03*
X77000000Y-58000000D03*
X78000001Y-60000000D03*
X78999999Y-58000000D03*
X80000000Y-60000000D03*
X81000000Y-58000000D03*
X82000001Y-60000000D03*
X83000001Y-58000000D03*
X83999999Y-60000000D03*
X85000000Y-58000000D03*
X86000000Y-60000000D03*
X87000001Y-58000000D03*
X88000001Y-60000000D03*
X88999999Y-58000000D03*
X90000000Y-60000000D03*
X91000000Y-58000000D03*
X92000001Y-60000000D03*
X93000002Y-58000000D03*
X94000000Y-60000000D03*
X95000000Y-58000000D03*
X96000001Y-60000000D03*
X97000001Y-58000000D03*
X97999999Y-60000000D03*
X99000000Y-58000000D03*
X100000000Y-60000000D03*
X101000001Y-58000000D03*
X102000001Y-60000000D03*
X102999999Y-58000000D03*
X104000000Y-60000000D03*
X105000000Y-58000000D03*
X106000001Y-60000000D03*
X107000001Y-58000000D03*
X107999999Y-60000000D03*
X109000000Y-58000000D03*
X110000001Y-60000000D03*
X60000000Y-62500000D03*
X61000001Y-64500000D03*
X62000001Y-62500000D03*
X62999999Y-64500000D03*
X64000000Y-62500000D03*
X65000000Y-64500000D03*
X66000001Y-62500000D03*
X67000001Y-64500000D03*
X67999999Y-62500000D03*
X69000000Y-64500000D03*
X70000000Y-62500000D03*
X73000001Y-64500000D03*
X74000001Y-62500000D03*
X74999999Y-64500000D03*
X76000000Y-62500000D03*
X77000000Y-64500000D03*
X78000001Y-62500000D03*
X78999999Y-64500000D03*
X80000000Y-62500000D03*
X81000000Y-64500000D03*
X82000001Y-62500000D03*
X83000001Y-64500000D03*
X83999999Y-62500000D03*
X85000000Y-64500000D03*
X86000000Y-62500000D03*
X87000001Y-64500000D03*
X88000001Y-62500000D03*
X88999999Y-64500000D03*
X90000000Y-62500000D03*
X91000000Y-64500000D03*
X92000001Y-62500000D03*
X93000002Y-64500000D03*
X94000000Y-62500000D03*
X95000000Y-64500000D03*
X96000001Y-62500000D03*
X97000001Y-64500000D03*
X97999999Y-62500000D03*
X99000000Y-64500000D03*
X100000000Y-62500000D03*
X101000001Y-64500000D03*
X102000001Y-62500000D03*
X102999999Y-64500000D03*
X104000000Y-62500000D03*
X105000000Y-64500000D03*
X106000001Y-62500000D03*
X107000001Y-64500000D03*
X107999999Y-62500000D03*
X109000000Y-64500000D03*
X110000001Y-62500000D03*
%TD*%
D12*
%TO.C,J2*%
X71649996Y-81250000D03*
X111800004Y-81250000D03*
D13*
X60000000Y-80000000D03*
X61000001Y-78000000D03*
X62000001Y-80000000D03*
X62999999Y-78000000D03*
X64000000Y-80000000D03*
X65000000Y-78000000D03*
X66000001Y-80000000D03*
X67000001Y-78000000D03*
X67999999Y-80000000D03*
X69000000Y-78000000D03*
X70000000Y-80000000D03*
X73000001Y-78000000D03*
X74000001Y-80000000D03*
X74999999Y-78000000D03*
X76000000Y-80000000D03*
X77000000Y-78000000D03*
X78000001Y-80000000D03*
X78999999Y-78000000D03*
X80000000Y-80000000D03*
X81000000Y-78000000D03*
X82000001Y-80000000D03*
X83000001Y-78000000D03*
X83999999Y-80000000D03*
X85000000Y-78000000D03*
X86000000Y-80000000D03*
X87000001Y-78000000D03*
X88000001Y-80000000D03*
X88999999Y-78000000D03*
X90000000Y-80000000D03*
X91000000Y-78000000D03*
X92000001Y-80000000D03*
X93000002Y-78000000D03*
X94000000Y-80000000D03*
X95000000Y-78000000D03*
X96000001Y-80000000D03*
X97000001Y-78000000D03*
X97999999Y-80000000D03*
X99000000Y-78000000D03*
X100000000Y-80000000D03*
X101000001Y-78000000D03*
X102000001Y-80000000D03*
X102999999Y-78000000D03*
X104000000Y-80000000D03*
X105000000Y-78000000D03*
X106000001Y-80000000D03*
X107000001Y-78000000D03*
X107999999Y-80000000D03*
X109000000Y-78000000D03*
X110000001Y-80000000D03*
X60000000Y-82500000D03*
X61000001Y-84500000D03*
X62000001Y-82500000D03*
X62999999Y-84500000D03*
X64000000Y-82500000D03*
X65000000Y-84500000D03*
X66000001Y-82500000D03*
X67000001Y-84500000D03*
X67999999Y-82500000D03*
X69000000Y-84500000D03*
X70000000Y-82500000D03*
X73000001Y-84500000D03*
X74000001Y-82500000D03*
X74999999Y-84500000D03*
X76000000Y-82500000D03*
X77000000Y-84500000D03*
X78000001Y-82500000D03*
X78999999Y-84500000D03*
X80000000Y-82500000D03*
X81000000Y-84500000D03*
X82000001Y-82500000D03*
X83000001Y-84500000D03*
X83999999Y-82500000D03*
X85000000Y-84500000D03*
X86000000Y-82500000D03*
X87000001Y-84500000D03*
X88000001Y-82500000D03*
X88999999Y-84500000D03*
X90000000Y-82500000D03*
X91000000Y-84500000D03*
X92000001Y-82500000D03*
X93000002Y-84500000D03*
X94000000Y-82500000D03*
X95000000Y-84500000D03*
X96000001Y-82500000D03*
X97000001Y-84500000D03*
X97999999Y-82500000D03*
X99000000Y-84500000D03*
X100000000Y-82500000D03*
X101000001Y-84500000D03*
X102000001Y-82500000D03*
X102999999Y-84500000D03*
X104000000Y-82500000D03*
X105000000Y-84500000D03*
X106000001Y-82500000D03*
X107000001Y-84500000D03*
X107999999Y-82500000D03*
X109000000Y-84500000D03*
X110000001Y-82500000D03*
%TD*%
D10*
%TO.C,J6*%
X71650000Y-121000001D03*
X80800000Y-121000001D03*
D11*
X60000000Y-120000000D03*
X60999999Y-118000001D03*
X61999999Y-120000000D03*
X63000001Y-118000001D03*
X64000000Y-120000000D03*
X64999999Y-118000001D03*
X66000001Y-120000000D03*
X67000000Y-118000001D03*
X67999999Y-120000000D03*
X68999999Y-118000001D03*
X70000000Y-120000000D03*
X73000000Y-118000001D03*
X73999999Y-120000000D03*
X75000001Y-118000001D03*
X76000000Y-120000000D03*
X76999999Y-118000001D03*
X78000001Y-120000000D03*
X79000001Y-118000001D03*
X59999999Y-122000001D03*
X61000000Y-124000002D03*
X62000001Y-122000001D03*
X62999999Y-124000002D03*
X63999999Y-122000001D03*
X65000000Y-124000002D03*
X66000000Y-122000001D03*
X67000001Y-124000002D03*
X67999999Y-122000001D03*
X68999999Y-124000002D03*
X70000000Y-122000001D03*
X73000000Y-124000002D03*
X74000001Y-122000001D03*
X74999999Y-124000002D03*
X75999999Y-122000001D03*
X77000000Y-124000002D03*
X78000000Y-122000001D03*
X79000001Y-124000002D03*
%TD*%
D14*
%TO.C,U2*%
X143970000Y-64080000D03*
X143970000Y-61540000D03*
X143970000Y-59000000D03*
X143970000Y-56460000D03*
X143970000Y-53920000D03*
X116030000Y-53920000D03*
X116030000Y-56460000D03*
X116030000Y-59000000D03*
X116030000Y-61540000D03*
X116030000Y-64080000D03*
%TD*%
D15*
%TO.C,J1*%
X117250000Y-163250000D03*
X117250000Y-160250000D03*
X117250000Y-157250000D03*
X117250000Y-154250000D03*
X117250000Y-151250000D03*
X117250000Y-148250000D03*
X117250000Y-145250000D03*
X117250000Y-142250000D03*
X117250000Y-139250000D03*
X119750000Y-161750000D03*
X119750000Y-158750000D03*
X119750000Y-155750000D03*
X119750000Y-152750000D03*
X119750000Y-149750000D03*
X119750000Y-146750000D03*
X119750000Y-143750000D03*
X119750000Y-140750000D03*
X122750000Y-161750000D03*
X122750000Y-158750000D03*
X122750000Y-155750000D03*
X122750000Y-152750000D03*
X122750000Y-149750000D03*
X122750000Y-146750000D03*
X122750000Y-143750000D03*
X122750000Y-140750000D03*
X125250000Y-163250000D03*
X125250000Y-160250000D03*
X125250000Y-157250000D03*
X125250000Y-154250000D03*
X125250000Y-151250000D03*
X125250000Y-148250000D03*
X125250000Y-145250000D03*
X125250000Y-142250000D03*
X125250000Y-139250000D03*
X117250000Y-124750000D03*
X117250000Y-121750000D03*
X117250000Y-118750000D03*
X117250000Y-115750000D03*
X117250000Y-112750000D03*
X117250000Y-109750000D03*
X117250000Y-106750000D03*
X119750000Y-123250000D03*
X119750000Y-120250000D03*
X119750000Y-117250000D03*
X119750000Y-114250000D03*
X119750000Y-111250000D03*
X119750000Y-108250000D03*
X122750000Y-123250000D03*
X122750000Y-120250000D03*
X122750000Y-117250000D03*
X122750000Y-114250000D03*
X122750000Y-111250000D03*
X122750000Y-108250000D03*
X125250000Y-124750000D03*
X125250000Y-121750000D03*
X125250000Y-118750000D03*
X125250000Y-115750000D03*
X125250000Y-112750000D03*
X125250000Y-109750000D03*
X125250000Y-106750000D03*
D16*
X131750000Y-170500000D03*
X131750000Y-132000000D03*
X131750000Y-99500000D03*
%TD*%
D14*
%TO.C,U1*%
X143970000Y-88080000D03*
X143970000Y-85540000D03*
X143970000Y-83000000D03*
X143970000Y-80460000D03*
X143970000Y-77920000D03*
X116030000Y-77920000D03*
X116030000Y-80460000D03*
X116030000Y-83000000D03*
X116030000Y-85540000D03*
X116030000Y-88080000D03*
%TD*%
D10*
%TO.C,J5*%
X71650000Y-101000001D03*
X80800000Y-101000001D03*
D11*
X60000000Y-100000000D03*
X60999999Y-98000001D03*
X61999999Y-100000000D03*
X63000001Y-98000001D03*
X64000000Y-100000000D03*
X64999999Y-98000001D03*
X66000001Y-100000000D03*
X67000000Y-98000001D03*
X67999999Y-100000000D03*
X68999999Y-98000001D03*
X70000000Y-100000000D03*
X73000000Y-98000001D03*
X73999999Y-100000000D03*
X75000001Y-98000001D03*
X76000000Y-100000000D03*
X76999999Y-98000001D03*
X78000001Y-100000000D03*
X79000001Y-98000001D03*
X59999999Y-102000001D03*
X61000000Y-104000002D03*
X62000001Y-102000001D03*
X62999999Y-104000002D03*
X63999999Y-102000001D03*
X65000000Y-104000002D03*
X66000000Y-102000001D03*
X67000001Y-104000002D03*
X67999999Y-102000001D03*
X68999999Y-104000002D03*
X70000000Y-102000001D03*
X73000000Y-104000002D03*
X74000001Y-102000001D03*
X74999999Y-104000002D03*
X75999999Y-102000001D03*
X77000000Y-104000002D03*
X78000000Y-102000001D03*
X79000001Y-104000002D03*
%TD*%
M02*
