%TF.GenerationSoftware,KiCad,Pcbnew,(7.0.0)*%
%TF.CreationDate,2023-03-21T21:59:12-07:00*%
%TF.ProjectId,backplane-concept,6261636b-706c-4616-9e65-2d636f6e6365,rev?*%
%TF.SameCoordinates,Original*%
%TF.FileFunction,Paste,Top*%
%TF.FilePolarity,Positive*%
%FSLAX46Y46*%
G04 Gerber Fmt 4.6, Leading zero omitted, Abs format (unit mm)*
G04 Created by KiCad (PCBNEW (7.0.0)) date 2023-03-21 21:59:12*
%MOMM*%
%LPD*%
G01*
G04 APERTURE LIST*
G04 Aperture macros list*
%AMRoundRect*
0 Rectangle with rounded corners*
0 $1 Rounding radius*
0 $2 $3 $4 $5 $6 $7 $8 $9 X,Y pos of 4 corners*
0 Add a 4 corners polygon primitive as box body*
4,1,4,$2,$3,$4,$5,$6,$7,$8,$9,$2,$3,0*
0 Add four circle primitives for the rounded corners*
1,1,$1+$1,$2,$3*
1,1,$1+$1,$4,$5*
1,1,$1+$1,$6,$7*
1,1,$1+$1,$8,$9*
0 Add four rect primitives between the rounded corners*
20,1,$1+$1,$2,$3,$4,$5,0*
20,1,$1+$1,$4,$5,$6,$7,0*
20,1,$1+$1,$6,$7,$8,$9,0*
20,1,$1+$1,$8,$9,$2,$3,0*%
G04 Aperture macros list end*
%ADD10RoundRect,0.250000X-0.285000X-0.285000X0.285000X-0.285000X0.285000X0.285000X-0.285000X0.285000X0*%
%ADD11RoundRect,0.062500X-0.337500X-0.062500X0.337500X-0.062500X0.337500X0.062500X-0.337500X0.062500X0*%
%ADD12RoundRect,0.062500X-0.062500X-0.337500X0.062500X-0.337500X0.062500X0.337500X-0.062500X0.337500X0*%
%ADD13R,0.558800X1.460500*%
G04 APERTURE END LIST*
D10*
%TO.C,U5*%
X96680000Y-159680000D03*
X96680000Y-161000000D03*
X96680000Y-162320000D03*
X96680000Y-163640000D03*
X98000000Y-159680000D03*
X98000000Y-161000000D03*
X98000000Y-162320000D03*
X98000000Y-163640000D03*
X99320000Y-159680000D03*
X99320000Y-161000000D03*
X99320000Y-162320000D03*
X99320000Y-163640000D03*
X100640000Y-159680000D03*
X100640000Y-161000000D03*
X100640000Y-162320000D03*
X100640000Y-163640000D03*
D11*
X95210000Y-158910000D03*
X95210000Y-159410000D03*
X95210000Y-159910000D03*
X95210000Y-160410000D03*
X95210000Y-160910000D03*
X95210000Y-161410000D03*
X95210000Y-161910000D03*
X95210000Y-162410000D03*
X95210000Y-162910000D03*
X95210000Y-163410000D03*
X95210000Y-163910000D03*
X95210000Y-164410000D03*
D12*
X95910000Y-165110000D03*
X96410000Y-165110000D03*
X96910000Y-165110000D03*
X97410000Y-165110000D03*
X97910000Y-165110000D03*
X98410000Y-165110000D03*
X98910000Y-165110000D03*
X99410000Y-165110000D03*
X99910000Y-165110000D03*
X100410000Y-165110000D03*
X100910000Y-165110000D03*
X101410000Y-165110000D03*
D11*
X102110000Y-164410000D03*
X102110000Y-163910000D03*
X102110000Y-163410000D03*
X102110000Y-162910000D03*
X102110000Y-162410000D03*
X102110000Y-161910000D03*
X102110000Y-161410000D03*
X102110000Y-160910000D03*
X102110000Y-160410000D03*
X102110000Y-159910000D03*
X102110000Y-159410000D03*
X102110000Y-158910000D03*
D12*
X101410000Y-158210000D03*
X100910000Y-158210000D03*
X100410000Y-158210000D03*
X99910000Y-158210000D03*
X99410000Y-158210000D03*
X98910000Y-158210000D03*
X98410000Y-158210000D03*
X97910000Y-158210000D03*
X97410000Y-158210000D03*
X96910000Y-158210000D03*
X96410000Y-158210000D03*
X95910000Y-158210000D03*
%TD*%
D13*
%TO.C,U3*%
X117554999Y-102724149D03*
X118824999Y-102724149D03*
X120094999Y-102724149D03*
X121364999Y-102724149D03*
X122634999Y-102724149D03*
X123904999Y-102724149D03*
X125174999Y-102724149D03*
X126444999Y-102724149D03*
X126444999Y-97275849D03*
X125174999Y-97275849D03*
X123904999Y-97275849D03*
X122634999Y-97275849D03*
X121364999Y-97275849D03*
X120094999Y-97275849D03*
X118824999Y-97275849D03*
X117554999Y-97275849D03*
%TD*%
M02*
