M48
; DRILL file {KiCad (7.0.0)} date Tue Mar 21 21:59:17 2023
; FORMAT={-:-/ absolute / inch / decimal}
; #@! TF.CreationDate,2023-03-21T21:59:17-07:00
; #@! TF.GenerationSoftware,Kicad,Pcbnew,(7.0.0)
; #@! TF.FileFunction,Plated,1,2,PTH
FMAT,2
INCH
; #@! TA.AperFunction,Plated,PTH,ViaDrill
T1C0.0118
; #@! TA.AperFunction,Plated,PTH,ComponentDrill
T2C0.0260
; #@! TA.AperFunction,Plated,PTH,ComponentDrill
T3C0.0280
; #@! TA.AperFunction,Plated,PTH,ComponentDrill
T4C0.0400
; #@! TA.AperFunction,Plated,PTH,ComponentDrill
T5C0.0591
; #@! TA.AperFunction,Plated,PTH,ComponentDrill
T6C0.0940
; #@! TA.AperFunction,Plated,PTH,ComponentDrill
T7C0.1339
%
G90
G05
T1
X2.8887Y-1.7953
X2.8887Y-2.2199
X2.8887Y-2.5827
X2.8887Y-3.0073
X2.8887Y-3.3701
X2.8887Y-3.7947
X2.8887Y-4.1575
X2.8887Y-4.5821
X2.8887Y-4.9449
X2.8887Y-5.3695
X2.8887Y-5.7323
X2.8887Y-6.1569
X2.9391Y-1.815
X2.9391Y-2.2402
X2.9391Y-2.6024
X2.9391Y-3.0276
X2.9391Y-3.3898
X2.9391Y-3.815
X2.9391Y-4.1772
X2.9391Y-4.6024
X2.9391Y-4.9646
X2.9391Y-5.3898
X2.9391Y-5.752
X2.9391Y-6.1772
X2.9674Y-1.7953
X2.9674Y-2.2199
X2.9674Y-2.5827
X2.9674Y-3.0073
X2.9674Y-3.3701
X2.9674Y-3.7947
X2.9674Y-4.1575
X2.9674Y-4.5821
X2.9674Y-4.9449
X2.9674Y-5.3695
X2.9674Y-5.7323
X2.9674Y-6.1569
X3.0178Y-1.815
X3.0178Y-2.2402
X3.0178Y-2.6024
X3.0178Y-3.0276
X3.0178Y-3.3898
X3.0178Y-3.815
X3.0178Y-4.1772
X3.0178Y-4.6024
X3.0178Y-4.9646
X3.0178Y-5.3898
X3.0178Y-5.752
X3.0178Y-6.1772
X3.0462Y-1.7953
X3.0462Y-2.2199
X3.0462Y-2.5827
X3.0462Y-3.0073
X3.0462Y-3.3701
X3.0462Y-3.7947
X3.0462Y-4.1575
X3.0462Y-4.5821
X3.0462Y-4.9449
X3.0462Y-5.3695
X3.0462Y-5.7323
X3.0462Y-6.1569
X3.0966Y-1.815
X3.0966Y-2.2402
X3.0966Y-2.6024
X3.0966Y-3.0276
X3.0966Y-3.3898
X3.0966Y-3.815
X3.0966Y-4.1772
X3.0966Y-4.6024
X3.0966Y-4.9646
X3.0966Y-5.3898
X3.0966Y-5.752
X3.0966Y-6.1772
X3.1249Y-1.7953
X3.1249Y-2.2199
X3.1249Y-2.5827
X3.1249Y-3.0073
X3.5186Y-1.7953
X3.5186Y-2.2199
X3.5186Y-2.5827
X3.5186Y-3.0073
X3.569Y-1.815
X3.569Y-2.2402
X3.569Y-2.6024
X3.569Y-3.0276
X3.5973Y-1.7953
X3.5973Y-2.2199
X3.5973Y-2.5827
X3.5973Y-3.0073
X3.6477Y-1.815
X3.6477Y-2.2402
X3.6477Y-2.6024
X3.6477Y-3.0276
X3.6761Y-1.7953
X3.6761Y-2.2199
X3.6761Y-2.5827
X3.6761Y-3.0073
X3.7265Y-1.815
X3.7265Y-2.2402
X3.7265Y-2.6024
X3.7265Y-3.0276
X3.7548Y-1.7953
X3.7548Y-2.2199
X3.7548Y-2.5827
X3.7548Y-3.0073
X3.8052Y-1.815
X3.8052Y-2.2402
X3.8052Y-2.6024
X3.8052Y-3.0276
X3.8336Y-1.7953
X3.8336Y-2.2199
X3.8336Y-2.5827
X3.8336Y-3.0073
X3.884Y-1.815
X3.884Y-2.2402
X3.884Y-2.6024
X3.884Y-3.0276
X3.9123Y-1.7953
X3.9123Y-2.2199
X3.9123Y-2.5827
X3.9123Y-3.0073
X3.9627Y-1.815
X3.9627Y-2.2402
X3.9627Y-2.6024
X3.9627Y-3.0276
X3.991Y-1.7953
X3.991Y-2.2199
X3.991Y-2.5827
X3.991Y-3.0073
X4.0414Y-1.815
X4.0414Y-2.2402
X4.0414Y-2.6024
X4.0414Y-3.0276
X4.0698Y-1.7953
X4.0698Y-2.2199
X4.0698Y-2.5827
X4.0698Y-3.0073
X4.1202Y-1.815
X4.1202Y-2.2402
X4.1202Y-2.6024
X4.1202Y-3.0276
X4.1485Y-1.7953
X4.1485Y-2.2199
X4.1485Y-2.5827
X4.1485Y-3.0073
X4.1989Y-1.815
X4.1989Y-2.2402
X4.1989Y-2.6024
X4.1989Y-3.0276
X4.2273Y-1.7953
X4.2273Y-2.2199
X4.2273Y-2.5827
X4.2273Y-3.0073
X4.2777Y-1.815
X4.2777Y-2.2402
X4.2777Y-2.6024
X4.2777Y-3.0276
T2
X2.3622Y-4.0157
X2.3622Y-4.8031
X2.3622Y-5.5906
X2.3622Y-6.378
X2.3622Y-3.937
X2.3622Y-4.7244
X2.3622Y-5.5118
X2.3622Y-6.2992
X2.4016Y-3.8583
X2.4016Y-4.6457
X2.4016Y-5.4331
X2.4016Y-6.2205
X2.4016Y-4.0945
X2.4016Y-4.8819
X2.4016Y-5.6693
X2.4016Y-6.4567
X2.4409Y-3.937
X2.4409Y-4.7244
X2.4409Y-5.5118
X2.4409Y-6.2992
X2.4409Y-4.0157
X2.4409Y-4.8031
X2.4409Y-5.5906
X2.4409Y-6.378
X2.4803Y-4.0945
X2.4803Y-4.8819
X2.4803Y-5.6693
X2.4803Y-6.4567
X2.4803Y-3.8583
X2.4803Y-4.6457
X2.4803Y-5.4331
X2.4803Y-6.2205
X2.5197Y-4.0157
X2.5197Y-4.8031
X2.5197Y-5.5906
X2.5197Y-6.378
X2.5197Y-3.937
X2.5197Y-4.7244
X2.5197Y-5.5118
X2.5197Y-6.2992
X2.5591Y-3.8583
X2.5591Y-4.6457
X2.5591Y-5.4331
X2.5591Y-6.2205
X2.5591Y-4.0945
X2.5591Y-4.8819
X2.5591Y-5.6693
X2.5591Y-6.4567
X2.5984Y-4.0157
X2.5984Y-4.8031
X2.5984Y-5.5906
X2.5984Y-6.378
X2.5984Y-3.937
X2.5984Y-4.7244
X2.5984Y-5.5118
X2.5984Y-6.2992
X2.6378Y-3.8583
X2.6378Y-4.6457
X2.6378Y-5.4331
X2.6378Y-6.2205
X2.6378Y-4.0945
X2.6378Y-4.8819
X2.6378Y-5.6693
X2.6378Y-6.4567
X2.6772Y-3.937
X2.6772Y-4.0157
X2.6772Y-4.7244
X2.6772Y-4.8031
X2.6772Y-5.5118
X2.6772Y-5.5906
X2.6772Y-6.2992
X2.6772Y-6.378
X2.7165Y-3.8583
X2.7165Y-4.0945
X2.7165Y-4.6457
X2.7165Y-4.8819
X2.7165Y-5.4331
X2.7165Y-5.6693
X2.7165Y-6.2205
X2.7165Y-6.4567
X2.7559Y-3.937
X2.7559Y-4.0157
X2.7559Y-4.7244
X2.7559Y-4.8031
X2.7559Y-5.5118
X2.7559Y-5.5906
X2.7559Y-6.2992
X2.7559Y-6.378
X2.874Y-3.8583
X2.874Y-4.0945
X2.874Y-4.6457
X2.874Y-4.8819
X2.874Y-5.4331
X2.874Y-5.6693
X2.874Y-6.2205
X2.874Y-6.4567
X2.9134Y-3.937
X2.9134Y-4.7244
X2.9134Y-5.5118
X2.9134Y-6.2992
X2.9134Y-4.0157
X2.9134Y-4.8031
X2.9134Y-5.5906
X2.9134Y-6.378
X2.9528Y-4.0945
X2.9528Y-4.8819
X2.9528Y-5.6693
X2.9528Y-6.4567
X2.9528Y-3.8583
X2.9528Y-4.6457
X2.9528Y-5.4331
X2.9528Y-6.2205
X2.9921Y-4.0157
X2.9921Y-4.8031
X2.9921Y-5.5906
X2.9921Y-6.378
X2.9921Y-3.937
X2.9921Y-4.7244
X2.9921Y-5.5118
X2.9921Y-6.2992
X3.0315Y-3.8583
X3.0315Y-4.6457
X3.0315Y-5.4331
X3.0315Y-6.2205
X3.0315Y-4.0945
X3.0315Y-4.8819
X3.0315Y-5.6693
X3.0315Y-6.4567
X3.0709Y-4.0157
X3.0709Y-4.8031
X3.0709Y-5.5906
X3.0709Y-6.378
X3.0709Y-3.937
X3.0709Y-4.7244
X3.0709Y-5.5118
X3.0709Y-6.2992
X3.1102Y-3.8583
X3.1102Y-4.0945
X3.1102Y-4.6457
X3.1102Y-4.8819
X3.1102Y-5.4331
X3.1102Y-5.6693
X3.1102Y-6.2205
X3.1102Y-6.4567
T3
X2.3622Y-1.5748
X2.3622Y-1.6732
X2.3622Y-2.3622
X2.3622Y-2.4606
X2.3622Y-3.1496
X2.3622Y-3.248
X2.4016Y-1.4961
X2.4016Y-1.752
X2.4016Y-2.2835
X2.4016Y-2.5394
X2.4016Y-3.0709
X2.4016Y-3.3268
X2.4409Y-1.5748
X2.4409Y-1.6732
X2.4409Y-2.3622
X2.4409Y-2.4606
X2.4409Y-3.1496
X2.4409Y-3.248
X2.4803Y-1.4961
X2.4803Y-1.752
X2.4803Y-2.2835
X2.4803Y-2.5394
X2.4803Y-3.0709
X2.4803Y-3.3268
X2.5197Y-1.5748
X2.5197Y-1.6732
X2.5197Y-2.3622
X2.5197Y-2.4606
X2.5197Y-3.1496
X2.5197Y-3.248
X2.5591Y-1.4961
X2.5591Y-1.752
X2.5591Y-2.2835
X2.5591Y-2.5394
X2.5591Y-3.0709
X2.5591Y-3.3268
X2.5984Y-1.5748
X2.5984Y-1.6732
X2.5984Y-2.3622
X2.5984Y-2.4606
X2.5984Y-3.1496
X2.5984Y-3.248
X2.6378Y-1.4961
X2.6378Y-1.752
X2.6378Y-2.2835
X2.6378Y-2.5394
X2.6378Y-3.0709
X2.6378Y-3.3268
X2.6772Y-1.5748
X2.6772Y-1.6732
X2.6772Y-2.3622
X2.6772Y-2.4606
X2.6772Y-3.1496
X2.6772Y-3.248
X2.7165Y-1.4961
X2.7165Y-1.752
X2.7165Y-2.2835
X2.7165Y-2.5394
X2.7165Y-3.0709
X2.7165Y-3.3268
X2.7559Y-1.5748
X2.7559Y-1.6732
X2.7559Y-2.3622
X2.7559Y-2.4606
X2.7559Y-3.1496
X2.7559Y-3.248
X2.874Y-1.4961
X2.874Y-1.752
X2.874Y-2.2835
X2.874Y-2.5394
X2.874Y-3.0709
X2.874Y-3.3268
X2.9134Y-1.5748
X2.9134Y-1.6732
X2.9134Y-2.3622
X2.9134Y-2.4606
X2.9134Y-3.1496
X2.9134Y-3.248
X2.9528Y-1.4961
X2.9528Y-1.752
X2.9528Y-2.2835
X2.9528Y-2.5394
X2.9528Y-3.0709
X2.9528Y-3.3268
X2.9921Y-1.5748
X2.9921Y-1.6732
X2.9921Y-2.3622
X2.9921Y-2.4606
X2.9921Y-3.1496
X2.9921Y-3.248
X3.0315Y-1.4961
X3.0315Y-1.752
X3.0315Y-2.2835
X3.0315Y-2.5394
X3.0315Y-3.0709
X3.0315Y-3.3268
X3.0709Y-1.5748
X3.0709Y-1.6732
X3.0709Y-2.3622
X3.0709Y-2.4606
X3.0709Y-3.1496
X3.0709Y-3.248
X3.1102Y-1.4961
X3.1102Y-1.752
X3.1102Y-2.2835
X3.1102Y-2.5394
X3.1102Y-3.0709
X3.1102Y-3.3268
X3.1496Y-1.5748
X3.1496Y-1.6732
X3.1496Y-2.3622
X3.1496Y-2.4606
X3.1496Y-3.1496
X3.1496Y-3.248
X3.189Y-1.4961
X3.189Y-1.752
X3.189Y-2.2835
X3.189Y-2.5394
X3.189Y-3.0709
X3.189Y-3.3268
X3.2283Y-1.5748
X3.2283Y-1.6732
X3.2283Y-2.3622
X3.2283Y-2.4606
X3.2283Y-3.1496
X3.2283Y-3.248
X3.2677Y-1.4961
X3.2677Y-1.752
X3.2677Y-2.2835
X3.2677Y-2.5394
X3.2677Y-3.0709
X3.2677Y-3.3268
X3.3071Y-1.5748
X3.3071Y-1.6732
X3.3071Y-2.3622
X3.3071Y-2.4606
X3.3071Y-3.1496
X3.3071Y-3.248
X3.3465Y-1.4961
X3.3465Y-1.752
X3.3465Y-2.2835
X3.3465Y-2.5394
X3.3465Y-3.0709
X3.3465Y-3.3268
X3.3858Y-1.5748
X3.3858Y-1.6732
X3.3858Y-2.3622
X3.3858Y-2.4606
X3.3858Y-3.1496
X3.3858Y-3.248
X3.4252Y-1.4961
X3.4252Y-1.752
X3.4252Y-2.2835
X3.4252Y-2.5394
X3.4252Y-3.0709
X3.4252Y-3.3268
X3.4646Y-1.5748
X3.4646Y-1.6732
X3.4646Y-2.3622
X3.4646Y-2.4606
X3.4646Y-3.1496
X3.4646Y-3.248
X3.5039Y-1.4961
X3.5039Y-1.752
X3.5039Y-2.2835
X3.5039Y-2.5394
X3.5039Y-3.0709
X3.5039Y-3.3268
X3.5433Y-1.5748
X3.5433Y-1.6732
X3.5433Y-2.3622
X3.5433Y-2.4606
X3.5433Y-3.1496
X3.5433Y-3.248
X3.5827Y-1.4961
X3.5827Y-1.752
X3.5827Y-2.2835
X3.5827Y-2.5394
X3.5827Y-3.0709
X3.5827Y-3.3268
X3.622Y-1.5748
X3.622Y-1.6732
X3.622Y-2.3622
X3.622Y-2.4606
X3.622Y-3.1496
X3.622Y-3.248
X3.6614Y-1.4961
X3.6614Y-1.752
X3.6614Y-2.2835
X3.6614Y-2.5394
X3.6614Y-3.0709
X3.6614Y-3.3268
X3.7008Y-1.5748
X3.7008Y-1.6732
X3.7008Y-2.3622
X3.7008Y-2.4606
X3.7008Y-3.1496
X3.7008Y-3.248
X3.7402Y-1.4961
X3.7402Y-1.752
X3.7402Y-2.2835
X3.7402Y-2.5394
X3.7402Y-3.0709
X3.7402Y-3.3268
X3.7795Y-1.5748
X3.7795Y-1.6732
X3.7795Y-2.3622
X3.7795Y-2.4606
X3.7795Y-3.1496
X3.7795Y-3.248
X3.8189Y-1.4961
X3.8189Y-1.752
X3.8189Y-2.2835
X3.8189Y-2.5394
X3.8189Y-3.0709
X3.8189Y-3.3268
X3.8583Y-1.5748
X3.8583Y-1.6732
X3.8583Y-2.3622
X3.8583Y-2.4606
X3.8583Y-3.1496
X3.8583Y-3.248
X3.8976Y-1.4961
X3.8976Y-1.752
X3.8976Y-2.2835
X3.8976Y-2.5394
X3.8976Y-3.0709
X3.8976Y-3.3268
X3.937Y-1.5748
X3.937Y-1.6732
X3.937Y-2.3622
X3.937Y-2.4606
X3.937Y-3.1496
X3.937Y-3.248
X3.9764Y-1.4961
X3.9764Y-1.752
X3.9764Y-2.2835
X3.9764Y-2.5394
X3.9764Y-3.0709
X3.9764Y-3.3268
X4.0157Y-1.5748
X4.0157Y-1.6732
X4.0157Y-2.3622
X4.0157Y-2.4606
X4.0157Y-3.1496
X4.0157Y-3.248
X4.0551Y-1.4961
X4.0551Y-1.752
X4.0551Y-2.2835
X4.0551Y-2.5394
X4.0551Y-3.0709
X4.0551Y-3.3268
X4.0945Y-1.5748
X4.0945Y-1.6732
X4.0945Y-2.3622
X4.0945Y-2.4606
X4.0945Y-3.1496
X4.0945Y-3.248
X4.1339Y-1.4961
X4.1339Y-1.752
X4.1339Y-2.2835
X4.1339Y-2.5394
X4.1339Y-3.0709
X4.1339Y-3.3268
X4.1732Y-1.5748
X4.1732Y-1.6732
X4.1732Y-2.3622
X4.1732Y-2.4606
X4.1732Y-3.1496
X4.1732Y-3.248
X4.2126Y-1.4961
X4.2126Y-1.752
X4.2126Y-2.2835
X4.2126Y-2.5394
X4.2126Y-3.0709
X4.2126Y-3.3268
X4.252Y-1.5748
X4.252Y-1.6732
X4.252Y-2.3622
X4.252Y-2.4606
X4.252Y-3.1496
X4.252Y-3.248
X4.2913Y-1.4961
X4.2913Y-1.752
X4.2913Y-2.2835
X4.2913Y-2.5394
X4.2913Y-3.0709
X4.2913Y-3.3268
X4.3307Y-1.5748
X4.3307Y-1.6732
X4.3307Y-2.3622
X4.3307Y-2.4606
X4.3307Y-3.1496
X4.3307Y-3.248
T4
X4.5681Y-2.1228
X4.5681Y-2.2228
X4.5681Y-2.3228
X4.5681Y-2.4228
X4.5681Y-2.5228
X4.5681Y-3.0677
X4.5681Y-3.1677
X4.5681Y-3.2677
X4.5681Y-3.3677
X4.5681Y-3.4677
X5.6681Y-2.1228
X5.6681Y-2.2228
X5.6681Y-2.3228
X5.6681Y-2.4228
X5.6681Y-2.5228
X5.6681Y-3.0677
X5.6681Y-3.1677
X5.6681Y-3.2677
X5.6681Y-3.3677
X5.6681Y-3.4677
T5
X4.6161Y-4.2028
X4.6161Y-4.3209
X4.6161Y-4.439
X4.6161Y-4.5571
X4.6161Y-4.6752
X4.6161Y-4.7933
X4.6161Y-4.9114
X4.6161Y-5.4823
X4.6161Y-5.6004
X4.6161Y-5.7185
X4.6161Y-5.8366
X4.6161Y-5.9547
X4.6161Y-6.0728
X4.6161Y-6.1909
X4.6161Y-6.3091
X4.6161Y-6.4272
X4.7146Y-4.2618
X4.7146Y-4.3799
X4.7146Y-4.498
X4.7146Y-4.6161
X4.7146Y-4.7343
X4.7146Y-4.8524
X4.7146Y-5.5413
X4.7146Y-5.6594
X4.7146Y-5.7776
X4.7146Y-5.8957
X4.7146Y-6.0138
X4.7146Y-6.1319
X4.7146Y-6.25
X4.7146Y-6.3681
X4.8327Y-4.2618
X4.8327Y-4.3799
X4.8327Y-4.498
X4.8327Y-4.6161
X4.8327Y-4.7343
X4.8327Y-4.8524
X4.8327Y-5.5413
X4.8327Y-5.6594
X4.8327Y-5.7776
X4.8327Y-5.8957
X4.8327Y-6.0138
X4.8327Y-6.1319
X4.8327Y-6.25
X4.8327Y-6.3681
X4.9311Y-4.2028
X4.9311Y-4.3209
X4.9311Y-4.439
X4.9311Y-4.5571
X4.9311Y-4.6752
X4.9311Y-4.7933
X4.9311Y-4.9114
X4.9311Y-5.4823
X4.9311Y-5.6004
X4.9311Y-5.7185
X4.9311Y-5.8366
X4.9311Y-5.9547
X4.9311Y-6.0728
X4.9311Y-6.1909
X4.9311Y-6.3091
X4.9311Y-6.4272
T6
X2.8209Y-3.9764
X2.8209Y-4.7638
X2.8209Y-5.5512
X2.8209Y-6.3386
X3.1811Y-3.9764
X3.1811Y-4.7638
X3.1811Y-5.5512
X3.1811Y-6.3386
T7
X5.187Y-3.9173
X5.187Y-5.1969
X5.187Y-6.7126
T0
M30
