%TF.GenerationSoftware,KiCad,Pcbnew,(7.0.0)*%
%TF.CreationDate,2023-02-28T21:09:02-08:00*%
%TF.ProjectId,daq-wireless,6461712d-7769-4726-956c-6573732e6b69,rev?*%
%TF.SameCoordinates,Original*%
%TF.FileFunction,Soldermask,Bot*%
%TF.FilePolarity,Negative*%
%FSLAX46Y46*%
G04 Gerber Fmt 4.6, Leading zero omitted, Abs format (unit mm)*
G04 Created by KiCad (PCBNEW (7.0.0)) date 2023-02-28 21:09:02*
%MOMM*%
%LPD*%
G01*
G04 APERTURE LIST*
G04 Aperture macros list*
%AMRoundRect*
0 Rectangle with rounded corners*
0 $1 Rounding radius*
0 $2 $3 $4 $5 $6 $7 $8 $9 X,Y pos of 4 corners*
0 Add a 4 corners polygon primitive as box body*
4,1,4,$2,$3,$4,$5,$6,$7,$8,$9,$2,$3,0*
0 Add four circle primitives for the rounded corners*
1,1,$1+$1,$2,$3*
1,1,$1+$1,$4,$5*
1,1,$1+$1,$6,$7*
1,1,$1+$1,$8,$9*
0 Add four rect primitives between the rounded corners*
20,1,$1+$1,$2,$3,$4,$5,0*
20,1,$1+$1,$4,$5,$6,$7,0*
20,1,$1+$1,$6,$7,$8,$9,0*
20,1,$1+$1,$8,$9,$2,$3,0*%
G04 Aperture macros list end*
%ADD10C,0.010000*%
%ADD11C,0.650000*%
%ADD12O,1.000000X2.100000*%
%ADD13O,1.000000X1.800000*%
%ADD14C,1.500000*%
%ADD15C,2.100000*%
%ADD16R,1.243000X1.243000*%
%ADD17C,1.243000*%
%ADD18C,2.000000*%
%ADD19RoundRect,0.225000X-0.225000X-0.250000X0.225000X-0.250000X0.225000X0.250000X-0.225000X0.250000X0*%
%ADD20RoundRect,0.200000X-0.275000X0.200000X-0.275000X-0.200000X0.275000X-0.200000X0.275000X0.200000X0*%
%ADD21R,0.700000X1.200000*%
%ADD22R,0.450000X1.200000*%
G04 APERTURE END LIST*
%TO.C,D9*%
G36*
X145352000Y-47248000D02*
G01*
X145802000Y-47248000D01*
X145802000Y-47898000D01*
X145352000Y-47898000D01*
X145352000Y-48148000D01*
X144702000Y-48148000D01*
X144702000Y-46848000D01*
X145352000Y-46848000D01*
X145352000Y-47248000D01*
G37*
D10*
X145352000Y-47248000D02*
X145802000Y-47248000D01*
X145802000Y-47898000D01*
X145352000Y-47898000D01*
X145352000Y-48148000D01*
X144702000Y-48148000D01*
X144702000Y-46848000D01*
X145352000Y-46848000D01*
X145352000Y-47248000D01*
G36*
X142202000Y-48148000D02*
G01*
X141552000Y-48148000D01*
X141552000Y-47898000D01*
X141102000Y-47898000D01*
X141102000Y-47248000D01*
X141552000Y-47248000D01*
X141552000Y-46848000D01*
X142202000Y-46848000D01*
X142202000Y-48148000D01*
G37*
X142202000Y-48148000D02*
X141552000Y-48148000D01*
X141552000Y-47898000D01*
X141102000Y-47898000D01*
X141102000Y-47248000D01*
X141552000Y-47248000D01*
X141552000Y-46848000D01*
X142202000Y-46848000D01*
X142202000Y-48148000D01*
%TO.C,D4*%
G36*
X116632000Y-47502000D02*
G01*
X117082000Y-47502000D01*
X117082000Y-48152000D01*
X116632000Y-48152000D01*
X116632000Y-48402000D01*
X115982000Y-48402000D01*
X115982000Y-47102000D01*
X116632000Y-47102000D01*
X116632000Y-47502000D01*
G37*
X116632000Y-47502000D02*
X117082000Y-47502000D01*
X117082000Y-48152000D01*
X116632000Y-48152000D01*
X116632000Y-48402000D01*
X115982000Y-48402000D01*
X115982000Y-47102000D01*
X116632000Y-47102000D01*
X116632000Y-47502000D01*
G36*
X113482000Y-48402000D02*
G01*
X112832000Y-48402000D01*
X112832000Y-48152000D01*
X112382000Y-48152000D01*
X112382000Y-47502000D01*
X112832000Y-47502000D01*
X112832000Y-47102000D01*
X113482000Y-47102000D01*
X113482000Y-48402000D01*
G37*
X113482000Y-48402000D02*
X112832000Y-48402000D01*
X112832000Y-48152000D01*
X112382000Y-48152000D01*
X112382000Y-47502000D01*
X112832000Y-47502000D01*
X112832000Y-47102000D01*
X113482000Y-47102000D01*
X113482000Y-48402000D01*
%TO.C,D7*%
G36*
X133300000Y-47104000D02*
G01*
X133750000Y-47104000D01*
X133750000Y-47754000D01*
X133300000Y-47754000D01*
X133300000Y-48004000D01*
X132650000Y-48004000D01*
X132650000Y-46704000D01*
X133300000Y-46704000D01*
X133300000Y-47104000D01*
G37*
X133300000Y-47104000D02*
X133750000Y-47104000D01*
X133750000Y-47754000D01*
X133300000Y-47754000D01*
X133300000Y-48004000D01*
X132650000Y-48004000D01*
X132650000Y-46704000D01*
X133300000Y-46704000D01*
X133300000Y-47104000D01*
G36*
X130150000Y-48004000D02*
G01*
X129500000Y-48004000D01*
X129500000Y-47754000D01*
X129050000Y-47754000D01*
X129050000Y-47104000D01*
X129500000Y-47104000D01*
X129500000Y-46704000D01*
X130150000Y-46704000D01*
X130150000Y-48004000D01*
G37*
X130150000Y-48004000D02*
X129500000Y-48004000D01*
X129500000Y-47754000D01*
X129050000Y-47754000D01*
X129050000Y-47104000D01*
X129500000Y-47104000D01*
X129500000Y-46704000D01*
X130150000Y-46704000D01*
X130150000Y-48004000D01*
%TD*%
D11*
%TO.C,J3*%
X117569000Y-52702000D03*
X111789000Y-52702000D03*
D12*
X118998999Y-53201999D03*
D13*
X118998999Y-49021999D03*
D12*
X110358999Y-53201999D03*
D13*
X110358999Y-49021999D03*
%TD*%
D14*
%TO.C,J1*%
X143800000Y-128016000D03*
D15*
X147800000Y-128016000D03*
D14*
X151800000Y-128016000D03*
X155800000Y-128016000D03*
D15*
X159800000Y-128016000D03*
D14*
X163800000Y-128016000D03*
D16*
X164799999Y-116015999D03*
D17*
X162800000Y-116016000D03*
X160800000Y-116016000D03*
X158800000Y-116016000D03*
X156800000Y-116016000D03*
X154800000Y-116016000D03*
X152800000Y-116016000D03*
X150800000Y-116016000D03*
X148800000Y-116016000D03*
X146800000Y-116016000D03*
X144800000Y-116016000D03*
X142800000Y-116016000D03*
X164800000Y-118016000D03*
X162800000Y-118016000D03*
X160800000Y-118016000D03*
X158800000Y-118016000D03*
X156800000Y-118016000D03*
X154800000Y-118016000D03*
X152800000Y-118016000D03*
X150800000Y-118016000D03*
X148800000Y-118016000D03*
X146800000Y-118016000D03*
X144800000Y-118016000D03*
X142800000Y-118016000D03*
X164800000Y-120016000D03*
X162800000Y-120016000D03*
X160800000Y-120016000D03*
X158800000Y-120016000D03*
X156800000Y-120016000D03*
X154800000Y-120016000D03*
X152800000Y-120016000D03*
X150800000Y-120016000D03*
X148800000Y-120016000D03*
X146800000Y-120016000D03*
X144800000Y-120016000D03*
X142800000Y-120016000D03*
X164800000Y-122016000D03*
X162800000Y-122016000D03*
X160800000Y-122016000D03*
X158800000Y-122016000D03*
X156800000Y-122016000D03*
X154800000Y-122016000D03*
X152800000Y-122016000D03*
X150800000Y-122016000D03*
X148800000Y-122016000D03*
X146800000Y-122016000D03*
X144800000Y-122016000D03*
X142800000Y-122016000D03*
X164800000Y-124016000D03*
X162800000Y-124016000D03*
X160800000Y-124016000D03*
X158800000Y-124016000D03*
X156800000Y-124016000D03*
X154800000Y-124016000D03*
X152800000Y-124016000D03*
X150800000Y-124016000D03*
X148800000Y-124016000D03*
X146800000Y-124016000D03*
X144800000Y-124016000D03*
X142800000Y-124016000D03*
%TD*%
D18*
%TO.C,SW1*%
X97386000Y-48514000D03*
X103886000Y-48514000D03*
X97386000Y-53014000D03*
X103886000Y-53014000D03*
%TD*%
D19*
%TO.C,C12*%
X131559000Y-51181000D03*
X133109000Y-51181000D03*
%TD*%
D20*
%TO.C,R2*%
X112903000Y-55309000D03*
X112903000Y-56959000D03*
%TD*%
D21*
%TO.C,D9*%
X143001999Y-47497999D03*
D22*
X144026999Y-47497999D03*
%TD*%
D19*
%TO.C,C11*%
X143243000Y-51181000D03*
X144793000Y-51181000D03*
%TD*%
D21*
%TO.C,D4*%
X114281999Y-47751999D03*
D22*
X115306999Y-47751999D03*
%TD*%
D19*
%TO.C,C13*%
X114147000Y-51181000D03*
X115697000Y-51181000D03*
%TD*%
D21*
%TO.C,D7*%
X130949999Y-47353999D03*
D22*
X131974999Y-47353999D03*
%TD*%
D20*
%TO.C,R3*%
X115951000Y-55309000D03*
X115951000Y-56959000D03*
%TD*%
%TO.C,R6*%
X174244000Y-106300000D03*
X174244000Y-107950000D03*
%TD*%
%TO.C,R5*%
X174244000Y-101791000D03*
X174244000Y-103441000D03*
%TD*%
M02*
