%TF.GenerationSoftware,KiCad,Pcbnew,(7.0.0)*%
%TF.CreationDate,2023-02-28T21:09:02-08:00*%
%TF.ProjectId,daq-wireless,6461712d-7769-4726-956c-6573732e6b69,rev?*%
%TF.SameCoordinates,Original*%
%TF.FileFunction,Legend,Top*%
%TF.FilePolarity,Positive*%
%FSLAX46Y46*%
G04 Gerber Fmt 4.6, Leading zero omitted, Abs format (unit mm)*
G04 Created by KiCad (PCBNEW (7.0.0)) date 2023-02-28 21:09:02*
%MOMM*%
%LPD*%
G01*
G04 APERTURE LIST*
%ADD10C,0.300000*%
%ADD11C,0.150000*%
%ADD12C,0.254000*%
%ADD13C,0.120000*%
%ADD14C,0.200000*%
%ADD15C,0.100000*%
G04 APERTURE END LIST*
D10*
X93911142Y-126236857D02*
X94411142Y-126236857D01*
X94625428Y-127022571D02*
X93911142Y-127022571D01*
X93911142Y-127022571D02*
X93911142Y-125522571D01*
X93911142Y-125522571D02*
X94625428Y-125522571D01*
X95196857Y-126951142D02*
X95411143Y-127022571D01*
X95411143Y-127022571D02*
X95768285Y-127022571D01*
X95768285Y-127022571D02*
X95911143Y-126951142D01*
X95911143Y-126951142D02*
X95982571Y-126879714D01*
X95982571Y-126879714D02*
X96054000Y-126736857D01*
X96054000Y-126736857D02*
X96054000Y-126594000D01*
X96054000Y-126594000D02*
X95982571Y-126451142D01*
X95982571Y-126451142D02*
X95911143Y-126379714D01*
X95911143Y-126379714D02*
X95768285Y-126308285D01*
X95768285Y-126308285D02*
X95482571Y-126236857D01*
X95482571Y-126236857D02*
X95339714Y-126165428D01*
X95339714Y-126165428D02*
X95268285Y-126094000D01*
X95268285Y-126094000D02*
X95196857Y-125951142D01*
X95196857Y-125951142D02*
X95196857Y-125808285D01*
X95196857Y-125808285D02*
X95268285Y-125665428D01*
X95268285Y-125665428D02*
X95339714Y-125594000D01*
X95339714Y-125594000D02*
X95482571Y-125522571D01*
X95482571Y-125522571D02*
X95839714Y-125522571D01*
X95839714Y-125522571D02*
X96054000Y-125594000D01*
X96696856Y-127022571D02*
X96696856Y-125522571D01*
X96696856Y-125522571D02*
X97268285Y-125522571D01*
X97268285Y-125522571D02*
X97411142Y-125594000D01*
X97411142Y-125594000D02*
X97482571Y-125665428D01*
X97482571Y-125665428D02*
X97553999Y-125808285D01*
X97553999Y-125808285D02*
X97553999Y-126022571D01*
X97553999Y-126022571D02*
X97482571Y-126165428D01*
X97482571Y-126165428D02*
X97411142Y-126236857D01*
X97411142Y-126236857D02*
X97268285Y-126308285D01*
X97268285Y-126308285D02*
X96696856Y-126308285D01*
X98196856Y-127022571D02*
X98196856Y-125522571D01*
X98196856Y-125522571D02*
X98553999Y-125522571D01*
X98553999Y-125522571D02*
X98768285Y-125594000D01*
X98768285Y-125594000D02*
X98911142Y-125736857D01*
X98911142Y-125736857D02*
X98982571Y-125879714D01*
X98982571Y-125879714D02*
X99053999Y-126165428D01*
X99053999Y-126165428D02*
X99053999Y-126379714D01*
X99053999Y-126379714D02*
X98982571Y-126665428D01*
X98982571Y-126665428D02*
X98911142Y-126808285D01*
X98911142Y-126808285D02*
X98768285Y-126951142D01*
X98768285Y-126951142D02*
X98553999Y-127022571D01*
X98553999Y-127022571D02*
X98196856Y-127022571D01*
X99625428Y-126594000D02*
X100339714Y-126594000D01*
X99482571Y-127022571D02*
X99982571Y-125522571D01*
X99982571Y-125522571D02*
X100482571Y-127022571D01*
X101982570Y-127165428D02*
X101839713Y-127094000D01*
X101839713Y-127094000D02*
X101696856Y-126951142D01*
X101696856Y-126951142D02*
X101482570Y-126736857D01*
X101482570Y-126736857D02*
X101339713Y-126665428D01*
X101339713Y-126665428D02*
X101196856Y-126665428D01*
X101268285Y-127022571D02*
X101125428Y-126951142D01*
X101125428Y-126951142D02*
X100982570Y-126808285D01*
X100982570Y-126808285D02*
X100911142Y-126522571D01*
X100911142Y-126522571D02*
X100911142Y-126022571D01*
X100911142Y-126022571D02*
X100982570Y-125736857D01*
X100982570Y-125736857D02*
X101125428Y-125594000D01*
X101125428Y-125594000D02*
X101268285Y-125522571D01*
X101268285Y-125522571D02*
X101553999Y-125522571D01*
X101553999Y-125522571D02*
X101696856Y-125594000D01*
X101696856Y-125594000D02*
X101839713Y-125736857D01*
X101839713Y-125736857D02*
X101911142Y-126022571D01*
X101911142Y-126022571D02*
X101911142Y-126522571D01*
X101911142Y-126522571D02*
X101839713Y-126808285D01*
X101839713Y-126808285D02*
X101696856Y-126951142D01*
X101696856Y-126951142D02*
X101553999Y-127022571D01*
X101553999Y-127022571D02*
X101268285Y-127022571D01*
X102553999Y-126451142D02*
X103696857Y-126451142D01*
X104339714Y-125665428D02*
X104411142Y-125594000D01*
X104411142Y-125594000D02*
X104554000Y-125522571D01*
X104554000Y-125522571D02*
X104911142Y-125522571D01*
X104911142Y-125522571D02*
X105054000Y-125594000D01*
X105054000Y-125594000D02*
X105125428Y-125665428D01*
X105125428Y-125665428D02*
X105196857Y-125808285D01*
X105196857Y-125808285D02*
X105196857Y-125951142D01*
X105196857Y-125951142D02*
X105125428Y-126165428D01*
X105125428Y-126165428D02*
X104268285Y-127022571D01*
X104268285Y-127022571D02*
X105196857Y-127022571D01*
X105696856Y-125522571D02*
X106625428Y-125522571D01*
X106625428Y-125522571D02*
X106125428Y-126094000D01*
X106125428Y-126094000D02*
X106339713Y-126094000D01*
X106339713Y-126094000D02*
X106482571Y-126165428D01*
X106482571Y-126165428D02*
X106553999Y-126236857D01*
X106553999Y-126236857D02*
X106625428Y-126379714D01*
X106625428Y-126379714D02*
X106625428Y-126736857D01*
X106625428Y-126736857D02*
X106553999Y-126879714D01*
X106553999Y-126879714D02*
X106482571Y-126951142D01*
X106482571Y-126951142D02*
X106339713Y-127022571D01*
X106339713Y-127022571D02*
X105911142Y-127022571D01*
X105911142Y-127022571D02*
X105768285Y-126951142D01*
X105768285Y-126951142D02*
X105696856Y-126879714D01*
X107553999Y-125522571D02*
X107696856Y-125522571D01*
X107696856Y-125522571D02*
X107839713Y-125594000D01*
X107839713Y-125594000D02*
X107911142Y-125665428D01*
X107911142Y-125665428D02*
X107982570Y-125808285D01*
X107982570Y-125808285D02*
X108053999Y-126094000D01*
X108053999Y-126094000D02*
X108053999Y-126451142D01*
X108053999Y-126451142D02*
X107982570Y-126736857D01*
X107982570Y-126736857D02*
X107911142Y-126879714D01*
X107911142Y-126879714D02*
X107839713Y-126951142D01*
X107839713Y-126951142D02*
X107696856Y-127022571D01*
X107696856Y-127022571D02*
X107553999Y-127022571D01*
X107553999Y-127022571D02*
X107411142Y-126951142D01*
X107411142Y-126951142D02*
X107339713Y-126879714D01*
X107339713Y-126879714D02*
X107268284Y-126736857D01*
X107268284Y-126736857D02*
X107196856Y-126451142D01*
X107196856Y-126451142D02*
X107196856Y-126094000D01*
X107196856Y-126094000D02*
X107268284Y-125808285D01*
X107268284Y-125808285D02*
X107339713Y-125665428D01*
X107339713Y-125665428D02*
X107411142Y-125594000D01*
X107411142Y-125594000D02*
X107553999Y-125522571D01*
X108911141Y-126165428D02*
X108768284Y-126094000D01*
X108768284Y-126094000D02*
X108696855Y-126022571D01*
X108696855Y-126022571D02*
X108625427Y-125879714D01*
X108625427Y-125879714D02*
X108625427Y-125808285D01*
X108625427Y-125808285D02*
X108696855Y-125665428D01*
X108696855Y-125665428D02*
X108768284Y-125594000D01*
X108768284Y-125594000D02*
X108911141Y-125522571D01*
X108911141Y-125522571D02*
X109196855Y-125522571D01*
X109196855Y-125522571D02*
X109339713Y-125594000D01*
X109339713Y-125594000D02*
X109411141Y-125665428D01*
X109411141Y-125665428D02*
X109482570Y-125808285D01*
X109482570Y-125808285D02*
X109482570Y-125879714D01*
X109482570Y-125879714D02*
X109411141Y-126022571D01*
X109411141Y-126022571D02*
X109339713Y-126094000D01*
X109339713Y-126094000D02*
X109196855Y-126165428D01*
X109196855Y-126165428D02*
X108911141Y-126165428D01*
X108911141Y-126165428D02*
X108768284Y-126236857D01*
X108768284Y-126236857D02*
X108696855Y-126308285D01*
X108696855Y-126308285D02*
X108625427Y-126451142D01*
X108625427Y-126451142D02*
X108625427Y-126736857D01*
X108625427Y-126736857D02*
X108696855Y-126879714D01*
X108696855Y-126879714D02*
X108768284Y-126951142D01*
X108768284Y-126951142D02*
X108911141Y-127022571D01*
X108911141Y-127022571D02*
X109196855Y-127022571D01*
X109196855Y-127022571D02*
X109339713Y-126951142D01*
X109339713Y-126951142D02*
X109411141Y-126879714D01*
X109411141Y-126879714D02*
X109482570Y-126736857D01*
X109482570Y-126736857D02*
X109482570Y-126451142D01*
X109482570Y-126451142D02*
X109411141Y-126308285D01*
X109411141Y-126308285D02*
X109339713Y-126236857D01*
X109339713Y-126236857D02*
X109196855Y-126165428D01*
X93911142Y-129452571D02*
X93911142Y-127952571D01*
X93911142Y-127952571D02*
X94268285Y-127952571D01*
X94268285Y-127952571D02*
X94482571Y-128024000D01*
X94482571Y-128024000D02*
X94625428Y-128166857D01*
X94625428Y-128166857D02*
X94696857Y-128309714D01*
X94696857Y-128309714D02*
X94768285Y-128595428D01*
X94768285Y-128595428D02*
X94768285Y-128809714D01*
X94768285Y-128809714D02*
X94696857Y-129095428D01*
X94696857Y-129095428D02*
X94625428Y-129238285D01*
X94625428Y-129238285D02*
X94482571Y-129381142D01*
X94482571Y-129381142D02*
X94268285Y-129452571D01*
X94268285Y-129452571D02*
X93911142Y-129452571D01*
X95982571Y-129381142D02*
X95839714Y-129452571D01*
X95839714Y-129452571D02*
X95554000Y-129452571D01*
X95554000Y-129452571D02*
X95411142Y-129381142D01*
X95411142Y-129381142D02*
X95339714Y-129238285D01*
X95339714Y-129238285D02*
X95339714Y-128666857D01*
X95339714Y-128666857D02*
X95411142Y-128524000D01*
X95411142Y-128524000D02*
X95554000Y-128452571D01*
X95554000Y-128452571D02*
X95839714Y-128452571D01*
X95839714Y-128452571D02*
X95982571Y-128524000D01*
X95982571Y-128524000D02*
X96054000Y-128666857D01*
X96054000Y-128666857D02*
X96054000Y-128809714D01*
X96054000Y-128809714D02*
X95339714Y-128952571D01*
X96625428Y-129381142D02*
X96768285Y-129452571D01*
X96768285Y-129452571D02*
X97053999Y-129452571D01*
X97053999Y-129452571D02*
X97196856Y-129381142D01*
X97196856Y-129381142D02*
X97268285Y-129238285D01*
X97268285Y-129238285D02*
X97268285Y-129166857D01*
X97268285Y-129166857D02*
X97196856Y-129024000D01*
X97196856Y-129024000D02*
X97053999Y-128952571D01*
X97053999Y-128952571D02*
X96839714Y-128952571D01*
X96839714Y-128952571D02*
X96696856Y-128881142D01*
X96696856Y-128881142D02*
X96625428Y-128738285D01*
X96625428Y-128738285D02*
X96625428Y-128666857D01*
X96625428Y-128666857D02*
X96696856Y-128524000D01*
X96696856Y-128524000D02*
X96839714Y-128452571D01*
X96839714Y-128452571D02*
X97053999Y-128452571D01*
X97053999Y-128452571D02*
X97196856Y-128524000D01*
X97911142Y-129452571D02*
X97911142Y-128452571D01*
X97911142Y-127952571D02*
X97839714Y-128024000D01*
X97839714Y-128024000D02*
X97911142Y-128095428D01*
X97911142Y-128095428D02*
X97982571Y-128024000D01*
X97982571Y-128024000D02*
X97911142Y-127952571D01*
X97911142Y-127952571D02*
X97911142Y-128095428D01*
X99268286Y-128452571D02*
X99268286Y-129666857D01*
X99268286Y-129666857D02*
X99196857Y-129809714D01*
X99196857Y-129809714D02*
X99125428Y-129881142D01*
X99125428Y-129881142D02*
X98982571Y-129952571D01*
X98982571Y-129952571D02*
X98768286Y-129952571D01*
X98768286Y-129952571D02*
X98625428Y-129881142D01*
X99268286Y-129381142D02*
X99125428Y-129452571D01*
X99125428Y-129452571D02*
X98839714Y-129452571D01*
X98839714Y-129452571D02*
X98696857Y-129381142D01*
X98696857Y-129381142D02*
X98625428Y-129309714D01*
X98625428Y-129309714D02*
X98554000Y-129166857D01*
X98554000Y-129166857D02*
X98554000Y-128738285D01*
X98554000Y-128738285D02*
X98625428Y-128595428D01*
X98625428Y-128595428D02*
X98696857Y-128524000D01*
X98696857Y-128524000D02*
X98839714Y-128452571D01*
X98839714Y-128452571D02*
X99125428Y-128452571D01*
X99125428Y-128452571D02*
X99268286Y-128524000D01*
X99982571Y-128452571D02*
X99982571Y-129452571D01*
X99982571Y-128595428D02*
X100054000Y-128524000D01*
X100054000Y-128524000D02*
X100196857Y-128452571D01*
X100196857Y-128452571D02*
X100411143Y-128452571D01*
X100411143Y-128452571D02*
X100554000Y-128524000D01*
X100554000Y-128524000D02*
X100625429Y-128666857D01*
X100625429Y-128666857D02*
X100625429Y-129452571D01*
X101911143Y-129381142D02*
X101768286Y-129452571D01*
X101768286Y-129452571D02*
X101482572Y-129452571D01*
X101482572Y-129452571D02*
X101339714Y-129381142D01*
X101339714Y-129381142D02*
X101268286Y-129238285D01*
X101268286Y-129238285D02*
X101268286Y-128666857D01*
X101268286Y-128666857D02*
X101339714Y-128524000D01*
X101339714Y-128524000D02*
X101482572Y-128452571D01*
X101482572Y-128452571D02*
X101768286Y-128452571D01*
X101768286Y-128452571D02*
X101911143Y-128524000D01*
X101911143Y-128524000D02*
X101982572Y-128666857D01*
X101982572Y-128666857D02*
X101982572Y-128809714D01*
X101982572Y-128809714D02*
X101268286Y-128952571D01*
X103268286Y-129452571D02*
X103268286Y-127952571D01*
X103268286Y-129381142D02*
X103125428Y-129452571D01*
X103125428Y-129452571D02*
X102839714Y-129452571D01*
X102839714Y-129452571D02*
X102696857Y-129381142D01*
X102696857Y-129381142D02*
X102625428Y-129309714D01*
X102625428Y-129309714D02*
X102554000Y-129166857D01*
X102554000Y-129166857D02*
X102554000Y-128738285D01*
X102554000Y-128738285D02*
X102625428Y-128595428D01*
X102625428Y-128595428D02*
X102696857Y-128524000D01*
X102696857Y-128524000D02*
X102839714Y-128452571D01*
X102839714Y-128452571D02*
X103125428Y-128452571D01*
X103125428Y-128452571D02*
X103268286Y-128524000D01*
X104882571Y-129452571D02*
X104882571Y-127952571D01*
X104882571Y-128524000D02*
X105025429Y-128452571D01*
X105025429Y-128452571D02*
X105311143Y-128452571D01*
X105311143Y-128452571D02*
X105454000Y-128524000D01*
X105454000Y-128524000D02*
X105525429Y-128595428D01*
X105525429Y-128595428D02*
X105596857Y-128738285D01*
X105596857Y-128738285D02*
X105596857Y-129166857D01*
X105596857Y-129166857D02*
X105525429Y-129309714D01*
X105525429Y-129309714D02*
X105454000Y-129381142D01*
X105454000Y-129381142D02*
X105311143Y-129452571D01*
X105311143Y-129452571D02*
X105025429Y-129452571D01*
X105025429Y-129452571D02*
X104882571Y-129381142D01*
X106096857Y-128452571D02*
X106454000Y-129452571D01*
X106811143Y-128452571D02*
X106454000Y-129452571D01*
X106454000Y-129452571D02*
X106311143Y-129809714D01*
X106311143Y-129809714D02*
X106239714Y-129881142D01*
X106239714Y-129881142D02*
X106096857Y-129952571D01*
X108282571Y-129452571D02*
X108282571Y-127952571D01*
X108282571Y-127952571D02*
X108639714Y-127952571D01*
X108639714Y-127952571D02*
X108854000Y-128024000D01*
X108854000Y-128024000D02*
X108996857Y-128166857D01*
X108996857Y-128166857D02*
X109068286Y-128309714D01*
X109068286Y-128309714D02*
X109139714Y-128595428D01*
X109139714Y-128595428D02*
X109139714Y-128809714D01*
X109139714Y-128809714D02*
X109068286Y-129095428D01*
X109068286Y-129095428D02*
X108996857Y-129238285D01*
X108996857Y-129238285D02*
X108854000Y-129381142D01*
X108854000Y-129381142D02*
X108639714Y-129452571D01*
X108639714Y-129452571D02*
X108282571Y-129452571D01*
X109782571Y-129309714D02*
X109854000Y-129381142D01*
X109854000Y-129381142D02*
X109782571Y-129452571D01*
X109782571Y-129452571D02*
X109711143Y-129381142D01*
X109711143Y-129381142D02*
X109782571Y-129309714D01*
X109782571Y-129309714D02*
X109782571Y-129452571D01*
X111354000Y-129309714D02*
X111282572Y-129381142D01*
X111282572Y-129381142D02*
X111068286Y-129452571D01*
X111068286Y-129452571D02*
X110925429Y-129452571D01*
X110925429Y-129452571D02*
X110711143Y-129381142D01*
X110711143Y-129381142D02*
X110568286Y-129238285D01*
X110568286Y-129238285D02*
X110496857Y-129095428D01*
X110496857Y-129095428D02*
X110425429Y-128809714D01*
X110425429Y-128809714D02*
X110425429Y-128595428D01*
X110425429Y-128595428D02*
X110496857Y-128309714D01*
X110496857Y-128309714D02*
X110568286Y-128166857D01*
X110568286Y-128166857D02*
X110711143Y-128024000D01*
X110711143Y-128024000D02*
X110925429Y-127952571D01*
X110925429Y-127952571D02*
X111068286Y-127952571D01*
X111068286Y-127952571D02*
X111282572Y-128024000D01*
X111282572Y-128024000D02*
X111354000Y-128095428D01*
X111996857Y-129309714D02*
X112068286Y-129381142D01*
X112068286Y-129381142D02*
X111996857Y-129452571D01*
X111996857Y-129452571D02*
X111925429Y-129381142D01*
X111925429Y-129381142D02*
X111996857Y-129309714D01*
X111996857Y-129309714D02*
X111996857Y-129452571D01*
D11*
%TO.C,U1*%
X150084028Y-62994805D02*
X150319731Y-63230507D01*
X150050357Y-63701912D02*
X149713639Y-63365194D01*
X149713639Y-63365194D02*
X150420746Y-62658087D01*
X150420746Y-62658087D02*
X150757463Y-62994805D01*
X150353402Y-63937614D02*
X150420746Y-64072301D01*
X150420746Y-64072301D02*
X150589105Y-64240660D01*
X150589105Y-64240660D02*
X150690120Y-64274332D01*
X150690120Y-64274332D02*
X150757463Y-64274332D01*
X150757463Y-64274332D02*
X150858479Y-64240660D01*
X150858479Y-64240660D02*
X150925822Y-64173316D01*
X150925822Y-64173316D02*
X150959494Y-64072301D01*
X150959494Y-64072301D02*
X150959494Y-64004958D01*
X150959494Y-64004958D02*
X150925822Y-63903942D01*
X150925822Y-63903942D02*
X150824807Y-63735584D01*
X150824807Y-63735584D02*
X150791135Y-63634568D01*
X150791135Y-63634568D02*
X150791135Y-63567225D01*
X150791135Y-63567225D02*
X150824807Y-63466210D01*
X150824807Y-63466210D02*
X150892151Y-63398866D01*
X150892151Y-63398866D02*
X150993166Y-63365194D01*
X150993166Y-63365194D02*
X151060509Y-63365194D01*
X151060509Y-63365194D02*
X151161525Y-63398866D01*
X151161525Y-63398866D02*
X151329883Y-63567225D01*
X151329883Y-63567225D02*
X151397227Y-63701912D01*
X151026838Y-64678393D02*
X151733944Y-63971286D01*
X151733944Y-63971286D02*
X152003318Y-64240660D01*
X152003318Y-64240660D02*
X152036990Y-64341675D01*
X152036990Y-64341675D02*
X152036990Y-64409019D01*
X152036990Y-64409019D02*
X152003318Y-64510034D01*
X152003318Y-64510034D02*
X151902303Y-64611049D01*
X151902303Y-64611049D02*
X151801288Y-64644721D01*
X151801288Y-64644721D02*
X151733944Y-64644721D01*
X151733944Y-64644721D02*
X151632929Y-64611049D01*
X151632929Y-64611049D02*
X151363555Y-64341675D01*
X152373708Y-64611049D02*
X152811440Y-65048782D01*
X152811440Y-65048782D02*
X152306364Y-65082454D01*
X152306364Y-65082454D02*
X152407379Y-65183469D01*
X152407379Y-65183469D02*
X152441051Y-65284484D01*
X152441051Y-65284484D02*
X152441051Y-65351828D01*
X152441051Y-65351828D02*
X152407379Y-65452843D01*
X152407379Y-65452843D02*
X152239021Y-65621202D01*
X152239021Y-65621202D02*
X152138005Y-65654873D01*
X152138005Y-65654873D02*
X152070662Y-65654873D01*
X152070662Y-65654873D02*
X151969647Y-65621202D01*
X151969647Y-65621202D02*
X151767616Y-65419171D01*
X151767616Y-65419171D02*
X151733944Y-65318156D01*
X151733944Y-65318156D02*
X151733944Y-65250812D01*
X153013471Y-65385499D02*
X153080814Y-65385499D01*
X153080814Y-65385499D02*
X153181830Y-65419171D01*
X153181830Y-65419171D02*
X153350188Y-65587530D01*
X153350188Y-65587530D02*
X153383860Y-65688545D01*
X153383860Y-65688545D02*
X153383860Y-65755889D01*
X153383860Y-65755889D02*
X153350188Y-65856904D01*
X153350188Y-65856904D02*
X153282845Y-65924248D01*
X153282845Y-65924248D02*
X153148158Y-65991591D01*
X153148158Y-65991591D02*
X152340036Y-65991591D01*
X152340036Y-65991591D02*
X152777769Y-66429324D01*
X153350188Y-66462996D02*
X153888936Y-67001744D01*
X154596043Y-66833385D02*
X154057295Y-67708850D01*
X154057295Y-67708850D02*
X154697058Y-67338461D01*
X154697058Y-67338461D02*
X154326669Y-67978224D01*
X154326669Y-67978224D02*
X155202135Y-67439476D01*
X155168463Y-68820018D02*
X155269478Y-68247598D01*
X154764402Y-68415957D02*
X155471509Y-67708850D01*
X155471509Y-67708850D02*
X155740883Y-67978224D01*
X155740883Y-67978224D02*
X155774554Y-68079239D01*
X155774554Y-68079239D02*
X155774554Y-68146583D01*
X155774554Y-68146583D02*
X155740883Y-68247598D01*
X155740883Y-68247598D02*
X155639867Y-68348613D01*
X155639867Y-68348613D02*
X155538852Y-68382285D01*
X155538852Y-68382285D02*
X155471509Y-68382285D01*
X155471509Y-68382285D02*
X155370493Y-68348613D01*
X155370493Y-68348613D02*
X155101119Y-68079239D01*
X156313302Y-68550644D02*
X156447989Y-68685331D01*
X156447989Y-68685331D02*
X156481661Y-68786346D01*
X156481661Y-68786346D02*
X156481661Y-68921033D01*
X156481661Y-68921033D02*
X156380646Y-69089392D01*
X156380646Y-69089392D02*
X156144944Y-69325094D01*
X156144944Y-69325094D02*
X155976585Y-69426109D01*
X155976585Y-69426109D02*
X155841898Y-69426109D01*
X155841898Y-69426109D02*
X155740883Y-69392438D01*
X155740883Y-69392438D02*
X155606196Y-69257751D01*
X155606196Y-69257751D02*
X155572524Y-69156735D01*
X155572524Y-69156735D02*
X155572524Y-69022048D01*
X155572524Y-69022048D02*
X155673539Y-68853690D01*
X155673539Y-68853690D02*
X155909241Y-68617987D01*
X155909241Y-68617987D02*
X156077600Y-68516972D01*
X156077600Y-68516972D02*
X156212287Y-68516972D01*
X156212287Y-68516972D02*
X156313302Y-68550644D01*
X157054081Y-69291422D02*
X157188768Y-69426109D01*
X157188768Y-69426109D02*
X157222440Y-69527125D01*
X157222440Y-69527125D02*
X157222440Y-69661812D01*
X157222440Y-69661812D02*
X157121424Y-69830170D01*
X157121424Y-69830170D02*
X156885722Y-70065873D01*
X156885722Y-70065873D02*
X156717363Y-70166888D01*
X156717363Y-70166888D02*
X156582676Y-70166888D01*
X156582676Y-70166888D02*
X156481661Y-70133216D01*
X156481661Y-70133216D02*
X156346974Y-69998529D01*
X156346974Y-69998529D02*
X156313302Y-69897514D01*
X156313302Y-69897514D02*
X156313302Y-69762827D01*
X156313302Y-69762827D02*
X156414318Y-69594468D01*
X156414318Y-69594468D02*
X156650020Y-69358766D01*
X156650020Y-69358766D02*
X156818379Y-69257751D01*
X156818379Y-69257751D02*
X156953066Y-69257751D01*
X156953066Y-69257751D02*
X157054081Y-69291422D01*
X156953066Y-70604621D02*
X157660172Y-69897514D01*
X157660172Y-69897514D02*
X157390798Y-70638292D01*
X157390798Y-70638292D02*
X158131577Y-70368918D01*
X158131577Y-70368918D02*
X157424470Y-71076025D01*
X158030561Y-71143369D02*
X158569310Y-71682117D01*
X159276416Y-71513758D02*
X159714149Y-71951490D01*
X159714149Y-71951490D02*
X159209073Y-71985162D01*
X159209073Y-71985162D02*
X159310088Y-72086177D01*
X159310088Y-72086177D02*
X159343760Y-72187193D01*
X159343760Y-72187193D02*
X159343760Y-72254536D01*
X159343760Y-72254536D02*
X159310088Y-72355551D01*
X159310088Y-72355551D02*
X159141729Y-72523910D01*
X159141729Y-72523910D02*
X159040714Y-72557582D01*
X159040714Y-72557582D02*
X158973370Y-72557582D01*
X158973370Y-72557582D02*
X158872355Y-72523910D01*
X158872355Y-72523910D02*
X158670325Y-72321880D01*
X158670325Y-72321880D02*
X158636653Y-72220864D01*
X158636653Y-72220864D02*
X158636653Y-72153521D01*
X159916179Y-72288208D02*
X159983523Y-72288208D01*
X159983523Y-72288208D02*
X160084538Y-72321880D01*
X160084538Y-72321880D02*
X160252897Y-72490239D01*
X160252897Y-72490239D02*
X160286569Y-72591254D01*
X160286569Y-72591254D02*
X160286569Y-72658597D01*
X160286569Y-72658597D02*
X160252897Y-72759613D01*
X160252897Y-72759613D02*
X160185553Y-72826956D01*
X160185553Y-72826956D02*
X160050866Y-72894300D01*
X160050866Y-72894300D02*
X159242744Y-72894300D01*
X159242744Y-72894300D02*
X159680477Y-73332032D01*
%TO.C,R7*%
X150006763Y-53722465D02*
X149434343Y-53621450D01*
X149602702Y-54126526D02*
X148895595Y-53419419D01*
X148895595Y-53419419D02*
X149164969Y-53150045D01*
X149164969Y-53150045D02*
X149265985Y-53116373D01*
X149265985Y-53116373D02*
X149333328Y-53116373D01*
X149333328Y-53116373D02*
X149434343Y-53150045D01*
X149434343Y-53150045D02*
X149535359Y-53251060D01*
X149535359Y-53251060D02*
X149569030Y-53352076D01*
X149569030Y-53352076D02*
X149569030Y-53419419D01*
X149569030Y-53419419D02*
X149535359Y-53520434D01*
X149535359Y-53520434D02*
X149265985Y-53789808D01*
X149535359Y-52779656D02*
X150006763Y-52308251D01*
X150006763Y-52308251D02*
X150410824Y-53318404D01*
%TO.C,D3*%
X171579380Y-107537047D02*
X171579380Y-106965619D01*
X172579380Y-107251333D02*
X171579380Y-107251333D01*
X171579380Y-106727523D02*
X172579380Y-106060857D01*
X171579380Y-106060857D02*
X172579380Y-106727523D01*
%TO.C,C10*%
X153149028Y-57030165D02*
X153149028Y-57097509D01*
X153149028Y-57097509D02*
X153081684Y-57232196D01*
X153081684Y-57232196D02*
X153014341Y-57299539D01*
X153014341Y-57299539D02*
X152879654Y-57366883D01*
X152879654Y-57366883D02*
X152744967Y-57366883D01*
X152744967Y-57366883D02*
X152643952Y-57333211D01*
X152643952Y-57333211D02*
X152475593Y-57232196D01*
X152475593Y-57232196D02*
X152374578Y-57131180D01*
X152374578Y-57131180D02*
X152273562Y-56962822D01*
X152273562Y-56962822D02*
X152239891Y-56861806D01*
X152239891Y-56861806D02*
X152239891Y-56727119D01*
X152239891Y-56727119D02*
X152307234Y-56592432D01*
X152307234Y-56592432D02*
X152374578Y-56525089D01*
X152374578Y-56525089D02*
X152509265Y-56457745D01*
X152509265Y-56457745D02*
X152576608Y-56457745D01*
X153889806Y-56424074D02*
X153485745Y-56828135D01*
X153687776Y-56626104D02*
X152980669Y-55918997D01*
X152980669Y-55918997D02*
X153014341Y-56087356D01*
X153014341Y-56087356D02*
X153014341Y-56222043D01*
X153014341Y-56222043D02*
X152980669Y-56323058D01*
X153620432Y-55279234D02*
X153687776Y-55211891D01*
X153687776Y-55211891D02*
X153788791Y-55178219D01*
X153788791Y-55178219D02*
X153856135Y-55178219D01*
X153856135Y-55178219D02*
X153957150Y-55211891D01*
X153957150Y-55211891D02*
X154125509Y-55312906D01*
X154125509Y-55312906D02*
X154293867Y-55481265D01*
X154293867Y-55481265D02*
X154394883Y-55649623D01*
X154394883Y-55649623D02*
X154428554Y-55750639D01*
X154428554Y-55750639D02*
X154428554Y-55817982D01*
X154428554Y-55817982D02*
X154394883Y-55918997D01*
X154394883Y-55918997D02*
X154327539Y-55986341D01*
X154327539Y-55986341D02*
X154226524Y-56020013D01*
X154226524Y-56020013D02*
X154159180Y-56020013D01*
X154159180Y-56020013D02*
X154058165Y-55986341D01*
X154058165Y-55986341D02*
X153889806Y-55885326D01*
X153889806Y-55885326D02*
X153721448Y-55716967D01*
X153721448Y-55716967D02*
X153620432Y-55548608D01*
X153620432Y-55548608D02*
X153586761Y-55447593D01*
X153586761Y-55447593D02*
X153586761Y-55380249D01*
X153586761Y-55380249D02*
X153620432Y-55279234D01*
%TO.C,D2*%
X172579380Y-102568476D02*
X172103190Y-102901809D01*
X172579380Y-103139904D02*
X171579380Y-103139904D01*
X171579380Y-103139904D02*
X171579380Y-102758952D01*
X171579380Y-102758952D02*
X171627000Y-102663714D01*
X171627000Y-102663714D02*
X171674619Y-102616095D01*
X171674619Y-102616095D02*
X171769857Y-102568476D01*
X171769857Y-102568476D02*
X171912714Y-102568476D01*
X171912714Y-102568476D02*
X172007952Y-102616095D01*
X172007952Y-102616095D02*
X172055571Y-102663714D01*
X172055571Y-102663714D02*
X172103190Y-102758952D01*
X172103190Y-102758952D02*
X172103190Y-103139904D01*
X171579380Y-102235142D02*
X172579380Y-101568476D01*
X171579380Y-101568476D02*
X172579380Y-102235142D01*
%TO.C,C1*%
X146182827Y-79362528D02*
X146182827Y-79429872D01*
X146182827Y-79429872D02*
X146115483Y-79564559D01*
X146115483Y-79564559D02*
X146048140Y-79631902D01*
X146048140Y-79631902D02*
X145913453Y-79699246D01*
X145913453Y-79699246D02*
X145778766Y-79699246D01*
X145778766Y-79699246D02*
X145677750Y-79665574D01*
X145677750Y-79665574D02*
X145509392Y-79564559D01*
X145509392Y-79564559D02*
X145408376Y-79463544D01*
X145408376Y-79463544D02*
X145307361Y-79295185D01*
X145307361Y-79295185D02*
X145273689Y-79194170D01*
X145273689Y-79194170D02*
X145273689Y-79059483D01*
X145273689Y-79059483D02*
X145341033Y-78924796D01*
X145341033Y-78924796D02*
X145408376Y-78857452D01*
X145408376Y-78857452D02*
X145543063Y-78790109D01*
X145543063Y-78790109D02*
X145610407Y-78790109D01*
X146923605Y-78756437D02*
X146519544Y-79160498D01*
X146721575Y-78958467D02*
X146014468Y-78251361D01*
X146014468Y-78251361D02*
X146048140Y-78419719D01*
X146048140Y-78419719D02*
X146048140Y-78554406D01*
X146048140Y-78554406D02*
X146014468Y-78655422D01*
%TO.C,U4*%
X166742904Y-91102619D02*
X166742904Y-90293095D01*
X166742904Y-90293095D02*
X166695285Y-90197857D01*
X166695285Y-90197857D02*
X166647666Y-90150238D01*
X166647666Y-90150238D02*
X166552428Y-90102619D01*
X166552428Y-90102619D02*
X166361952Y-90102619D01*
X166361952Y-90102619D02*
X166266714Y-90150238D01*
X166266714Y-90150238D02*
X166219095Y-90197857D01*
X166219095Y-90197857D02*
X166171476Y-90293095D01*
X166171476Y-90293095D02*
X166171476Y-91102619D01*
X165266714Y-90769285D02*
X165266714Y-90102619D01*
X165504809Y-91150238D02*
X165742904Y-90435952D01*
X165742904Y-90435952D02*
X165123857Y-90435952D01*
X168044523Y-94055428D02*
X167711190Y-94055428D01*
X167568333Y-93531619D02*
X168044523Y-93531619D01*
X168044523Y-93531619D02*
X168044523Y-94531619D01*
X168044523Y-94531619D02*
X167568333Y-94531619D01*
X166806428Y-94055428D02*
X166663571Y-94007809D01*
X166663571Y-94007809D02*
X166615952Y-93960190D01*
X166615952Y-93960190D02*
X166568333Y-93864952D01*
X166568333Y-93864952D02*
X166568333Y-93722095D01*
X166568333Y-93722095D02*
X166615952Y-93626857D01*
X166615952Y-93626857D02*
X166663571Y-93579238D01*
X166663571Y-93579238D02*
X166758809Y-93531619D01*
X166758809Y-93531619D02*
X167139761Y-93531619D01*
X167139761Y-93531619D02*
X167139761Y-94531619D01*
X167139761Y-94531619D02*
X166806428Y-94531619D01*
X166806428Y-94531619D02*
X166711190Y-94484000D01*
X166711190Y-94484000D02*
X166663571Y-94436380D01*
X166663571Y-94436380D02*
X166615952Y-94341142D01*
X166615952Y-94341142D02*
X166615952Y-94245904D01*
X166615952Y-94245904D02*
X166663571Y-94150666D01*
X166663571Y-94150666D02*
X166711190Y-94103047D01*
X166711190Y-94103047D02*
X166806428Y-94055428D01*
X166806428Y-94055428D02*
X167139761Y-94055428D01*
X166234999Y-94198285D02*
X165996904Y-93531619D01*
X165758809Y-94198285D02*
X165996904Y-93531619D01*
X165996904Y-93531619D02*
X166092142Y-93293523D01*
X166092142Y-93293523D02*
X166139761Y-93245904D01*
X166139761Y-93245904D02*
X166234999Y-93198285D01*
X165520713Y-94198285D02*
X165139761Y-94198285D01*
X165377856Y-94531619D02*
X165377856Y-93674476D01*
X165377856Y-93674476D02*
X165330237Y-93579238D01*
X165330237Y-93579238D02*
X165234999Y-93531619D01*
X165234999Y-93531619D02*
X165139761Y-93531619D01*
X164425475Y-93579238D02*
X164520713Y-93531619D01*
X164520713Y-93531619D02*
X164711189Y-93531619D01*
X164711189Y-93531619D02*
X164806427Y-93579238D01*
X164806427Y-93579238D02*
X164854046Y-93674476D01*
X164854046Y-93674476D02*
X164854046Y-94055428D01*
X164854046Y-94055428D02*
X164806427Y-94150666D01*
X164806427Y-94150666D02*
X164711189Y-94198285D01*
X164711189Y-94198285D02*
X164520713Y-94198285D01*
X164520713Y-94198285D02*
X164425475Y-94150666D01*
X164425475Y-94150666D02*
X164377856Y-94055428D01*
X164377856Y-94055428D02*
X164377856Y-93960190D01*
X164377856Y-93960190D02*
X164854046Y-93864952D01*
X171910189Y-80704619D02*
X171910189Y-81704619D01*
X171433999Y-80704619D02*
X171433999Y-81704619D01*
X171433999Y-81704619D02*
X171053047Y-81704619D01*
X171053047Y-81704619D02*
X170957809Y-81657000D01*
X170957809Y-81657000D02*
X170910190Y-81609380D01*
X170910190Y-81609380D02*
X170862571Y-81514142D01*
X170862571Y-81514142D02*
X170862571Y-81371285D01*
X170862571Y-81371285D02*
X170910190Y-81276047D01*
X170910190Y-81276047D02*
X170957809Y-81228428D01*
X170957809Y-81228428D02*
X171053047Y-81180809D01*
X171053047Y-81180809D02*
X171433999Y-81180809D01*
X170529237Y-81704619D02*
X169862571Y-80704619D01*
X169862571Y-81704619D02*
X170529237Y-80704619D01*
X171655666Y-92277428D02*
X171322333Y-92277428D01*
X171179476Y-91753619D02*
X171655666Y-91753619D01*
X171655666Y-91753619D02*
X171655666Y-92753619D01*
X171655666Y-92753619D02*
X171179476Y-92753619D01*
X170560428Y-92753619D02*
X170465190Y-92753619D01*
X170465190Y-92753619D02*
X170369952Y-92706000D01*
X170369952Y-92706000D02*
X170322333Y-92658380D01*
X170322333Y-92658380D02*
X170274714Y-92563142D01*
X170274714Y-92563142D02*
X170227095Y-92372666D01*
X170227095Y-92372666D02*
X170227095Y-92134571D01*
X170227095Y-92134571D02*
X170274714Y-91944095D01*
X170274714Y-91944095D02*
X170322333Y-91848857D01*
X170322333Y-91848857D02*
X170369952Y-91801238D01*
X170369952Y-91801238D02*
X170465190Y-91753619D01*
X170465190Y-91753619D02*
X170560428Y-91753619D01*
X170560428Y-91753619D02*
X170655666Y-91801238D01*
X170655666Y-91801238D02*
X170703285Y-91848857D01*
X170703285Y-91848857D02*
X170750904Y-91944095D01*
X170750904Y-91944095D02*
X170798523Y-92134571D01*
X170798523Y-92134571D02*
X170798523Y-92372666D01*
X170798523Y-92372666D02*
X170750904Y-92563142D01*
X170750904Y-92563142D02*
X170703285Y-92658380D01*
X170703285Y-92658380D02*
X170655666Y-92706000D01*
X170655666Y-92706000D02*
X170560428Y-92753619D01*
X169274714Y-91753619D02*
X169846142Y-91753619D01*
X169560428Y-91753619D02*
X169560428Y-92753619D01*
X169560428Y-92753619D02*
X169655666Y-92610761D01*
X169655666Y-92610761D02*
X169750904Y-92515523D01*
X169750904Y-92515523D02*
X169846142Y-92467904D01*
X168846142Y-92134571D02*
X168084238Y-92134571D01*
X167608047Y-91753619D02*
X167608047Y-92753619D01*
X167608047Y-92753619D02*
X167274714Y-92039333D01*
X167274714Y-92039333D02*
X166941381Y-92753619D01*
X166941381Y-92753619D02*
X166941381Y-91753619D01*
X165989000Y-91753619D02*
X166465190Y-91753619D01*
X166465190Y-91753619D02*
X166465190Y-92753619D01*
X165465190Y-92753619D02*
X165369952Y-92753619D01*
X165369952Y-92753619D02*
X165274714Y-92706000D01*
X165274714Y-92706000D02*
X165227095Y-92658380D01*
X165227095Y-92658380D02*
X165179476Y-92563142D01*
X165179476Y-92563142D02*
X165131857Y-92372666D01*
X165131857Y-92372666D02*
X165131857Y-92134571D01*
X165131857Y-92134571D02*
X165179476Y-91944095D01*
X165179476Y-91944095D02*
X165227095Y-91848857D01*
X165227095Y-91848857D02*
X165274714Y-91801238D01*
X165274714Y-91801238D02*
X165369952Y-91753619D01*
X165369952Y-91753619D02*
X165465190Y-91753619D01*
X165465190Y-91753619D02*
X165560428Y-91801238D01*
X165560428Y-91801238D02*
X165608047Y-91848857D01*
X165608047Y-91848857D02*
X165655666Y-91944095D01*
X165655666Y-91944095D02*
X165703285Y-92134571D01*
X165703285Y-92134571D02*
X165703285Y-92372666D01*
X165703285Y-92372666D02*
X165655666Y-92563142D01*
X165655666Y-92563142D02*
X165608047Y-92658380D01*
X165608047Y-92658380D02*
X165560428Y-92706000D01*
X165560428Y-92706000D02*
X165465190Y-92753619D01*
X164179476Y-91753619D02*
X164750904Y-91753619D01*
X164465190Y-91753619D02*
X164465190Y-92753619D01*
X164465190Y-92753619D02*
X164560428Y-92610761D01*
X164560428Y-92610761D02*
X164655666Y-92515523D01*
X164655666Y-92515523D02*
X164750904Y-92467904D01*
X163798523Y-91801238D02*
X163655666Y-91753619D01*
X163655666Y-91753619D02*
X163417571Y-91753619D01*
X163417571Y-91753619D02*
X163322333Y-91801238D01*
X163322333Y-91801238D02*
X163274714Y-91848857D01*
X163274714Y-91848857D02*
X163227095Y-91944095D01*
X163227095Y-91944095D02*
X163227095Y-92039333D01*
X163227095Y-92039333D02*
X163274714Y-92134571D01*
X163274714Y-92134571D02*
X163322333Y-92182190D01*
X163322333Y-92182190D02*
X163417571Y-92229809D01*
X163417571Y-92229809D02*
X163608047Y-92277428D01*
X163608047Y-92277428D02*
X163703285Y-92325047D01*
X163703285Y-92325047D02*
X163750904Y-92372666D01*
X163750904Y-92372666D02*
X163798523Y-92467904D01*
X163798523Y-92467904D02*
X163798523Y-92563142D01*
X163798523Y-92563142D02*
X163750904Y-92658380D01*
X163750904Y-92658380D02*
X163703285Y-92706000D01*
X163703285Y-92706000D02*
X163608047Y-92753619D01*
X163608047Y-92753619D02*
X163369952Y-92753619D01*
X163369952Y-92753619D02*
X163227095Y-92706000D01*
X162798523Y-91753619D02*
X162798523Y-92753619D01*
X162798523Y-92753619D02*
X162417571Y-92753619D01*
X162417571Y-92753619D02*
X162322333Y-92706000D01*
X162322333Y-92706000D02*
X162274714Y-92658380D01*
X162274714Y-92658380D02*
X162227095Y-92563142D01*
X162227095Y-92563142D02*
X162227095Y-92420285D01*
X162227095Y-92420285D02*
X162274714Y-92325047D01*
X162274714Y-92325047D02*
X162322333Y-92277428D01*
X162322333Y-92277428D02*
X162417571Y-92229809D01*
X162417571Y-92229809D02*
X162798523Y-92229809D01*
X161369952Y-92420285D02*
X161369952Y-91753619D01*
X161608047Y-92801238D02*
X161846142Y-92086952D01*
X161846142Y-92086952D02*
X161227095Y-92086952D01*
D12*
%TO.C,J1*%
X153376667Y-125487573D02*
X153376667Y-126394716D01*
X153376667Y-126394716D02*
X153316190Y-126576145D01*
X153316190Y-126576145D02*
X153195238Y-126697097D01*
X153195238Y-126697097D02*
X153013809Y-126757573D01*
X153013809Y-126757573D02*
X152892857Y-126757573D01*
X154646667Y-126757573D02*
X153920952Y-126757573D01*
X154283809Y-126757573D02*
X154283809Y-125487573D01*
X154283809Y-125487573D02*
X154162857Y-125669002D01*
X154162857Y-125669002D02*
X154041905Y-125789954D01*
X154041905Y-125789954D02*
X153920952Y-125850430D01*
D11*
%TO.C,SW1*%
X99131618Y-55231380D02*
X98798285Y-54755190D01*
X98560190Y-55231380D02*
X98560190Y-54231380D01*
X98560190Y-54231380D02*
X98941142Y-54231380D01*
X98941142Y-54231380D02*
X99036380Y-54279000D01*
X99036380Y-54279000D02*
X99083999Y-54326619D01*
X99083999Y-54326619D02*
X99131618Y-54421857D01*
X99131618Y-54421857D02*
X99131618Y-54564714D01*
X99131618Y-54564714D02*
X99083999Y-54659952D01*
X99083999Y-54659952D02*
X99036380Y-54707571D01*
X99036380Y-54707571D02*
X98941142Y-54755190D01*
X98941142Y-54755190D02*
X98560190Y-54755190D01*
X99560190Y-54707571D02*
X99893523Y-54707571D01*
X100036380Y-55231380D02*
X99560190Y-55231380D01*
X99560190Y-55231380D02*
X99560190Y-54231380D01*
X99560190Y-54231380D02*
X100036380Y-54231380D01*
X100417333Y-55183761D02*
X100560190Y-55231380D01*
X100560190Y-55231380D02*
X100798285Y-55231380D01*
X100798285Y-55231380D02*
X100893523Y-55183761D01*
X100893523Y-55183761D02*
X100941142Y-55136142D01*
X100941142Y-55136142D02*
X100988761Y-55040904D01*
X100988761Y-55040904D02*
X100988761Y-54945666D01*
X100988761Y-54945666D02*
X100941142Y-54850428D01*
X100941142Y-54850428D02*
X100893523Y-54802809D01*
X100893523Y-54802809D02*
X100798285Y-54755190D01*
X100798285Y-54755190D02*
X100607809Y-54707571D01*
X100607809Y-54707571D02*
X100512571Y-54659952D01*
X100512571Y-54659952D02*
X100464952Y-54612333D01*
X100464952Y-54612333D02*
X100417333Y-54517095D01*
X100417333Y-54517095D02*
X100417333Y-54421857D01*
X100417333Y-54421857D02*
X100464952Y-54326619D01*
X100464952Y-54326619D02*
X100512571Y-54279000D01*
X100512571Y-54279000D02*
X100607809Y-54231380D01*
X100607809Y-54231380D02*
X100845904Y-54231380D01*
X100845904Y-54231380D02*
X100988761Y-54279000D01*
X101417333Y-54707571D02*
X101750666Y-54707571D01*
X101893523Y-55231380D02*
X101417333Y-55231380D01*
X101417333Y-55231380D02*
X101417333Y-54231380D01*
X101417333Y-54231380D02*
X101893523Y-54231380D01*
X102179238Y-54231380D02*
X102750666Y-54231380D01*
X102464952Y-55231380D02*
X102464952Y-54231380D01*
%TO.C,J2*%
X129819666Y-65534380D02*
X129819666Y-66248666D01*
X129819666Y-66248666D02*
X129772047Y-66391523D01*
X129772047Y-66391523D02*
X129676809Y-66486761D01*
X129676809Y-66486761D02*
X129533952Y-66534380D01*
X129533952Y-66534380D02*
X129438714Y-66534380D01*
X130248238Y-65629619D02*
X130295857Y-65582000D01*
X130295857Y-65582000D02*
X130391095Y-65534380D01*
X130391095Y-65534380D02*
X130629190Y-65534380D01*
X130629190Y-65534380D02*
X130724428Y-65582000D01*
X130724428Y-65582000D02*
X130772047Y-65629619D01*
X130772047Y-65629619D02*
X130819666Y-65724857D01*
X130819666Y-65724857D02*
X130819666Y-65820095D01*
X130819666Y-65820095D02*
X130772047Y-65962952D01*
X130772047Y-65962952D02*
X130200619Y-66534380D01*
X130200619Y-66534380D02*
X130819666Y-66534380D01*
D13*
%TO.C,C7*%
X154228190Y-53288693D02*
X154380693Y-53136190D01*
X154737307Y-53797810D02*
X154889810Y-53645307D01*
%TO.C,C14*%
X162480164Y-98192000D02*
X162695836Y-98192000D01*
X162480164Y-98912000D02*
X162695836Y-98912000D01*
%TO.C,Q2*%
X142252000Y-72457826D02*
X141067597Y-73642230D01*
X142252000Y-72457826D02*
X142711620Y-71998207D01*
X144458174Y-74664000D02*
X143998554Y-75123619D01*
X144458174Y-74664000D02*
X144917793Y-74204380D01*
D11*
%TO.C,U3*%
X149122098Y-77184454D02*
X152056591Y-80118947D01*
X148337210Y-77969342D02*
X147541715Y-77173847D01*
X148337210Y-77969342D02*
X149122098Y-77184454D01*
X142793493Y-83513059D02*
X143578381Y-82728171D01*
X142793493Y-83513059D02*
X145727986Y-86447552D01*
X152056591Y-80118947D02*
X151271703Y-80903835D01*
X145727986Y-86447552D02*
X146512874Y-85662664D01*
D13*
%TO.C,C3*%
X149936810Y-85353718D02*
X149784307Y-85506221D01*
X149427693Y-84844601D02*
X149275190Y-84997104D01*
%TO.C,C4*%
X144152252Y-108812000D02*
X143629748Y-108812000D01*
X144152252Y-107342000D02*
X143629748Y-107342000D01*
%TO.C,R9*%
X140984500Y-65040742D02*
X140984500Y-65515258D01*
X139939500Y-65040742D02*
X139939500Y-65515258D01*
%TO.C,U1*%
X161419136Y-48512868D02*
X156883046Y-53048958D01*
X161419136Y-48512868D02*
X174316763Y-61410495D01*
X156883046Y-53048958D02*
X156614345Y-52780257D01*
X143769750Y-66162253D02*
X143218207Y-66713796D01*
X143218207Y-66713796D02*
X143925314Y-67420903D01*
X174316763Y-61410495D02*
X169780673Y-65946585D01*
X156667378Y-79059881D02*
X156115835Y-79611424D01*
X156115835Y-79611424D02*
X155408728Y-78904317D01*
%TO.C,C6*%
X153463970Y-52062781D02*
X153662781Y-51863970D01*
X154185219Y-52784030D02*
X154384030Y-52585219D01*
%TO.C,D1*%
X110237000Y-62692000D02*
X113537000Y-62692000D01*
X110237000Y-62692000D02*
X110237000Y-57182000D01*
X113537000Y-62692000D02*
X113537000Y-57182000D01*
%TO.C,R7*%
X150338770Y-54154303D02*
X150674303Y-53818770D01*
X151077697Y-54893230D02*
X151413230Y-54557697D01*
%TO.C,D3*%
X175204000Y-105503000D02*
X173284000Y-105503000D01*
X173284000Y-105503000D02*
X173284000Y-108188000D01*
X175204000Y-108188000D02*
X175204000Y-105503000D01*
%TO.C,C15*%
X162914420Y-99312000D02*
X163195580Y-99312000D01*
X162914420Y-100332000D02*
X163195580Y-100332000D01*
%TO.C,G\u002A\u002A\u002A*%
G36*
X105896221Y-92035840D02*
G01*
X106096243Y-92174772D01*
X106229485Y-92372527D01*
X106283388Y-92601448D01*
X106245393Y-92833882D01*
X106116743Y-93028793D01*
X105930039Y-93141359D01*
X105689575Y-93190814D01*
X105443975Y-93175638D01*
X105241863Y-93094311D01*
X105197702Y-93057513D01*
X105110688Y-92921956D01*
X105074271Y-92720860D01*
X105071334Y-92612352D01*
X105113389Y-92315964D01*
X105239869Y-92113505D01*
X105451249Y-92004453D01*
X105641979Y-91983383D01*
X105896221Y-92035840D01*
G37*
G36*
X116192163Y-102680202D02*
G01*
X116371130Y-102749210D01*
X116468687Y-102887838D01*
X116505383Y-103115404D01*
X116507652Y-103222201D01*
X116494033Y-103445525D01*
X116442279Y-103595458D01*
X116352564Y-103706902D01*
X116145722Y-103832304D01*
X115894074Y-103871127D01*
X115644864Y-103823370D01*
X115462243Y-103706902D01*
X115343113Y-103505795D01*
X115305653Y-103249875D01*
X115352224Y-102982714D01*
X115415554Y-102844998D01*
X115485990Y-102743059D01*
X115569273Y-102688029D01*
X115704026Y-102665609D01*
X115911234Y-102661493D01*
X116192163Y-102680202D01*
G37*
G36*
X120818278Y-103704309D02*
G01*
X121161217Y-103806642D01*
X121428761Y-104004062D01*
X121608081Y-104281866D01*
X121686348Y-104625348D01*
X121688747Y-104702045D01*
X121662159Y-104935538D01*
X121570403Y-105084584D01*
X121395488Y-105164046D01*
X121119422Y-105188787D01*
X121099501Y-105188856D01*
X120878615Y-105179740D01*
X120725547Y-105138037D01*
X120582234Y-105042212D01*
X120491956Y-104963544D01*
X120256886Y-104683869D01*
X120137823Y-104380009D01*
X120137430Y-104078538D01*
X120222735Y-103860096D01*
X120384801Y-103732445D01*
X120632230Y-103690856D01*
X120818278Y-103704309D01*
G37*
G36*
X109326049Y-95148366D02*
G01*
X109750361Y-95148366D01*
X109826597Y-95142396D01*
X109952304Y-95078711D01*
X110147370Y-94993065D01*
X110344940Y-94953570D01*
X110358958Y-94953271D01*
X110498202Y-94972037D01*
X110600556Y-95049127D01*
X110702669Y-95206413D01*
X110810468Y-95366373D01*
X110888706Y-95407881D01*
X110909521Y-95395345D01*
X110930172Y-95294106D01*
X110865934Y-95148015D01*
X110761855Y-94890162D01*
X110777488Y-94672117D01*
X110912744Y-94494431D01*
X110981332Y-94446149D01*
X111119516Y-94347746D01*
X111158627Y-94274766D01*
X111132185Y-94220610D01*
X111065087Y-94172441D01*
X110974120Y-94199031D01*
X110883204Y-94258769D01*
X110659866Y-94372577D01*
X110472106Y-94366305D01*
X110312579Y-94238725D01*
X110255320Y-94153946D01*
X110152652Y-94008886D01*
X110077386Y-93974972D01*
X110051758Y-93991118D01*
X110029910Y-94078390D01*
X110100420Y-94221075D01*
X110122671Y-94253251D01*
X110228190Y-94466021D01*
X110213753Y-94650039D01*
X110076701Y-94817391D01*
X109983896Y-94884354D01*
X109832058Y-95000594D01*
X109753197Y-95094848D01*
X109750361Y-95148366D01*
X109326049Y-95148366D01*
X109318217Y-95131007D01*
X109319519Y-94930042D01*
X109435833Y-94765371D01*
X109525811Y-94700299D01*
X109686080Y-94581176D01*
X109736581Y-94473026D01*
X109686765Y-94344920D01*
X109650170Y-94293322D01*
X109560915Y-94090603D01*
X109581003Y-93892543D01*
X109694847Y-93722815D01*
X109886859Y-93605094D01*
X110131009Y-93562985D01*
X110308423Y-93582103D01*
X110420771Y-93660223D01*
X110482917Y-93751341D01*
X110564810Y-93873446D01*
X110633305Y-93900240D01*
X110733366Y-93848496D01*
X110737002Y-93846118D01*
X110974528Y-93754676D01*
X111204580Y-93786187D01*
X111407886Y-93937790D01*
X111415717Y-93946938D01*
X111554524Y-94177963D01*
X111568383Y-94391810D01*
X111457360Y-94587347D01*
X111373946Y-94663394D01*
X111168597Y-94825200D01*
X111279170Y-95020606D01*
X111381264Y-95285156D01*
X111366123Y-95508037D01*
X111234115Y-95685786D01*
X111206232Y-95706942D01*
X110968211Y-95820099D01*
X110742466Y-95824300D01*
X110553679Y-95720633D01*
X110513959Y-95676481D01*
X110416786Y-95540742D01*
X110360528Y-95439861D01*
X110360414Y-95439541D01*
X110306460Y-95405134D01*
X110183185Y-95451021D01*
X110141108Y-95474304D01*
X109876384Y-95578844D01*
X109652297Y-95568254D01*
X109475706Y-95443447D01*
X109430343Y-95379528D01*
X109326049Y-95148366D01*
G37*
G36*
X103054066Y-94820978D02*
G01*
X103428558Y-94820978D01*
X103486998Y-95566976D01*
X103658930Y-96262471D01*
X103939325Y-96900797D01*
X104323154Y-97475288D01*
X104805387Y-97979277D01*
X105380996Y-98406098D01*
X106044952Y-98749085D01*
X106524568Y-98924870D01*
X106820740Y-99014436D01*
X107046492Y-99069408D01*
X107250911Y-99096266D01*
X107483082Y-99101493D01*
X107788249Y-99091730D01*
X108420927Y-99013813D01*
X108830786Y-98908226D01*
X109437997Y-98666013D01*
X109975256Y-98341702D01*
X110473878Y-97915513D01*
X110590392Y-97796800D01*
X111030207Y-97257020D01*
X111378630Y-96665063D01*
X111629021Y-96039842D01*
X111774738Y-95400263D01*
X111809142Y-94765237D01*
X111777157Y-94417629D01*
X111608014Y-93670386D01*
X111333919Y-92992696D01*
X110956252Y-92386642D01*
X110476393Y-91854306D01*
X109895723Y-91397770D01*
X109690842Y-91269215D01*
X109158947Y-90989379D01*
X108652727Y-90804276D01*
X108131634Y-90701011D01*
X107819841Y-90674207D01*
X107174843Y-90686859D01*
X106567309Y-90800591D01*
X105959051Y-91023141D01*
X105851200Y-91073130D01*
X105355662Y-91309432D01*
X105703653Y-91352124D01*
X106108793Y-91423704D01*
X106408856Y-91529434D01*
X106622223Y-91676498D01*
X106673271Y-91731170D01*
X106801381Y-91948339D01*
X106899670Y-92233965D01*
X106952858Y-92530973D01*
X106949308Y-92762275D01*
X106916812Y-92962737D01*
X107399918Y-92966258D01*
X107908534Y-93022224D01*
X108346508Y-93180726D01*
X108710103Y-93439537D01*
X108995578Y-93796430D01*
X109090643Y-93973682D01*
X109175598Y-94187028D01*
X109222150Y-94408007D01*
X109239575Y-94687454D01*
X109240513Y-94795075D01*
X109226900Y-95187334D01*
X109178534Y-95495980D01*
X109084830Y-95761439D01*
X108935202Y-96024132D01*
X108908065Y-96064644D01*
X108614919Y-96388664D01*
X108242863Y-96614391D01*
X107791292Y-96742145D01*
X107585407Y-96766103D01*
X107317600Y-96774472D01*
X107064710Y-96762782D01*
X106887857Y-96734916D01*
X106737723Y-96696313D01*
X106688008Y-96702487D01*
X106717538Y-96763805D01*
X106745693Y-96804520D01*
X106805996Y-96965850D01*
X106836925Y-97206373D01*
X106838728Y-97482435D01*
X106811652Y-97750384D01*
X106755943Y-97966565D01*
X106738890Y-98004805D01*
X106573811Y-98247966D01*
X106365167Y-98382913D01*
X106086217Y-98426672D01*
X106076276Y-98426755D01*
X105846713Y-98406558D01*
X105691773Y-98331262D01*
X105598587Y-98182744D01*
X105554286Y-97942881D01*
X105545389Y-97679113D01*
X105578326Y-97277524D01*
X105680032Y-96977105D01*
X105855343Y-96770021D01*
X106109094Y-96648440D01*
X106193781Y-96628857D01*
X106400058Y-96589746D01*
X106137059Y-96387436D01*
X105836395Y-96079757D01*
X105618579Y-95696296D01*
X105489072Y-95261176D01*
X105461418Y-94903138D01*
X105846530Y-94903138D01*
X105894249Y-95242801D01*
X106056176Y-95620585D01*
X106301662Y-95937193D01*
X106609793Y-96180210D01*
X106959661Y-96337217D01*
X107330353Y-96395798D01*
X107700959Y-96343537D01*
X107731433Y-96333705D01*
X108087546Y-96158370D01*
X108400995Y-95900023D01*
X108651550Y-95584417D01*
X108818977Y-95237305D01*
X108883045Y-94884439D01*
X108883173Y-94867686D01*
X108823032Y-94496520D01*
X108656667Y-94140855D01*
X108404026Y-93823193D01*
X108085060Y-93566038D01*
X107719717Y-93391895D01*
X107532574Y-93344186D01*
X107314013Y-93339400D01*
X107057443Y-93383680D01*
X107011395Y-93396768D01*
X106622132Y-93572477D01*
X106298802Y-93831148D01*
X106053618Y-94152601D01*
X105898790Y-94516657D01*
X105846530Y-94903138D01*
X105461418Y-94903138D01*
X105453337Y-94798516D01*
X105516837Y-94332440D01*
X105608306Y-94052662D01*
X105618502Y-93976805D01*
X105546798Y-93944538D01*
X105441402Y-93938360D01*
X105114603Y-93874071D01*
X104812858Y-93709002D01*
X104576212Y-93467656D01*
X104518154Y-93373433D01*
X104436110Y-93197146D01*
X104393834Y-93028763D01*
X104382790Y-92818776D01*
X104387711Y-92661983D01*
X104698838Y-92661983D01*
X104718528Y-92830374D01*
X104834290Y-93129237D01*
X105045508Y-93360969D01*
X105332242Y-93509938D01*
X105649994Y-93560512D01*
X105805690Y-93542244D01*
X105964594Y-93472116D01*
X106162857Y-93332480D01*
X106234447Y-93275186D01*
X106419768Y-93118191D01*
X106525805Y-93002781D01*
X106574402Y-92894767D01*
X106587402Y-92759956D01*
X106587653Y-92722325D01*
X106532619Y-92372642D01*
X106378318Y-92083318D01*
X106140535Y-91870671D01*
X105835055Y-91751017D01*
X105628290Y-91730647D01*
X105449465Y-91738893D01*
X105318347Y-91778304D01*
X105190135Y-91870892D01*
X105037045Y-92021123D01*
X104835736Y-92253699D01*
X104727695Y-92455392D01*
X104698838Y-92661983D01*
X104387711Y-92661983D01*
X104388904Y-92623952D01*
X104411070Y-92158798D01*
X104240780Y-92362778D01*
X103994295Y-92727940D01*
X103778118Y-93182122D01*
X103604142Y-93689325D01*
X103484264Y-94213548D01*
X103430378Y-94718794D01*
X103428558Y-94820978D01*
X103054066Y-94820978D01*
X103070628Y-94338058D01*
X103138978Y-93821105D01*
X103263856Y-93341861D01*
X103453874Y-92859132D01*
X103508501Y-92741592D01*
X103641216Y-92481436D01*
X103778395Y-92261663D01*
X103945537Y-92048312D01*
X104168141Y-91807420D01*
X104338895Y-91635574D01*
X104905695Y-91144473D01*
X105501383Y-90769704D01*
X106136205Y-90507791D01*
X106820406Y-90355259D01*
X107564232Y-90308633D01*
X108157653Y-90340131D01*
X108862151Y-90459742D01*
X109506873Y-90681317D01*
X110106469Y-91011948D01*
X110675587Y-91458725D01*
X110888599Y-91662124D01*
X111213430Y-92012303D01*
X111468985Y-92352361D01*
X111678474Y-92720513D01*
X111865105Y-93154974D01*
X111967070Y-93437936D01*
X112051757Y-93693491D01*
X112109456Y-93902098D01*
X112145372Y-94100219D01*
X112164709Y-94324315D01*
X112172671Y-94610847D01*
X112174312Y-94889851D01*
X112164523Y-95396449D01*
X112127251Y-95817056D01*
X112054051Y-96190608D01*
X111936478Y-96556041D01*
X111766088Y-96952291D01*
X111694840Y-97100511D01*
X111352555Y-97660572D01*
X110903636Y-98173582D01*
X110363271Y-98626080D01*
X109746648Y-99004603D01*
X109328521Y-99197944D01*
X108828846Y-99353975D01*
X108259457Y-99452208D01*
X107664785Y-99489063D01*
X107089262Y-99460962D01*
X106745712Y-99406001D01*
X106416775Y-99330359D01*
X106158340Y-99254573D01*
X105915964Y-99159595D01*
X105635201Y-99026380D01*
X105576806Y-98997083D01*
X104987202Y-98662852D01*
X104514040Y-98312112D01*
X104180123Y-97976882D01*
X103757770Y-97425636D01*
X103444148Y-96888586D01*
X103228866Y-96337750D01*
X103101534Y-95745145D01*
X103051762Y-95082789D01*
X103050193Y-94933916D01*
X103054066Y-94820978D01*
G37*
G36*
X114426365Y-102713453D02*
G01*
X114741271Y-102713453D01*
X114747838Y-102804413D01*
X114769890Y-102794711D01*
X114817756Y-102675429D01*
X114832340Y-102634823D01*
X114939375Y-102420599D01*
X115084581Y-102223869D01*
X115103392Y-102204253D01*
X115217087Y-102105857D01*
X115341163Y-102045280D01*
X115515302Y-102009242D01*
X115754736Y-101986277D01*
X116060958Y-101974882D01*
X116288092Y-101997608D01*
X116467980Y-102053539D01*
X116621899Y-102116766D01*
X116715423Y-102152816D01*
X116726511Y-102156020D01*
X116751069Y-102101736D01*
X116796968Y-101964660D01*
X116820611Y-101887488D01*
X116980041Y-101468607D01*
X117190328Y-101143337D01*
X117475791Y-100881740D01*
X117795567Y-100687154D01*
X117956793Y-100617121D01*
X118136956Y-100574710D01*
X118373911Y-100553684D01*
X118639955Y-100548010D01*
X118894155Y-100543087D01*
X119092481Y-100532512D01*
X119207106Y-100518118D01*
X119224408Y-100509515D01*
X119191388Y-100436609D01*
X119136713Y-100354055D01*
X119055734Y-100274808D01*
X118956180Y-100279521D01*
X118881004Y-100310386D01*
X118693202Y-100365827D01*
X118501838Y-100386866D01*
X118361547Y-100372560D01*
X118274327Y-100307375D01*
X118199029Y-100157910D01*
X118188891Y-100132851D01*
X118103311Y-99875419D01*
X118466359Y-99875419D01*
X118511948Y-99964326D01*
X118636748Y-99970115D01*
X118777286Y-99915568D01*
X118969893Y-99845289D01*
X119148650Y-99818209D01*
X119277241Y-99839077D01*
X119368240Y-99922944D01*
X119444654Y-100068599D01*
X119523729Y-100222270D01*
X119589853Y-100278241D01*
X119670310Y-100258603D01*
X119675765Y-100255730D01*
X119751265Y-100201318D01*
X119753890Y-100127824D01*
X119698819Y-100008478D01*
X119608523Y-99774477D01*
X119621078Y-99601254D01*
X119741529Y-99469571D01*
X119856408Y-99407513D01*
X120045530Y-99295865D01*
X120109765Y-99188282D01*
X120069542Y-99104643D01*
X119992254Y-99103042D01*
X119859251Y-99153362D01*
X119851535Y-99157296D01*
X119611060Y-99245833D01*
X119420988Y-99225516D01*
X119259263Y-99091024D01*
X119194138Y-98998657D01*
X119061538Y-98828231D01*
X118955950Y-98780291D01*
X118940609Y-98784273D01*
X118859691Y-98852748D01*
X118868709Y-98974674D01*
X118940239Y-99123184D01*
X119030627Y-99338871D01*
X119012075Y-99500441D01*
X118877851Y-99628090D01*
X118750687Y-99691841D01*
X118585800Y-99774032D01*
X118483192Y-99847338D01*
X118466359Y-99875419D01*
X118103311Y-99875419D01*
X118101025Y-99868542D01*
X118090756Y-99683821D01*
X118163407Y-99554617D01*
X118324301Y-99456855D01*
X118339861Y-99450209D01*
X118504134Y-99364348D01*
X118558197Y-99285549D01*
X118550779Y-99249553D01*
X118500145Y-99069918D01*
X118480040Y-98862975D01*
X118492288Y-98681366D01*
X118527847Y-98588163D01*
X118668010Y-98488757D01*
X118873046Y-98413221D01*
X119081573Y-98380137D01*
X119185576Y-98389064D01*
X119308081Y-98466161D01*
X119427769Y-98610704D01*
X119448470Y-98646221D01*
X119530363Y-98784500D01*
X119594395Y-98827699D01*
X119678231Y-98794251D01*
X119709738Y-98774084D01*
X119873142Y-98708856D01*
X120069808Y-98680913D01*
X120074045Y-98680896D01*
X120222834Y-98695769D01*
X120321020Y-98761831D01*
X120413563Y-98911247D01*
X120423781Y-98931115D01*
X120530984Y-99187055D01*
X120546304Y-99374725D01*
X120465752Y-99516649D01*
X120300416Y-99627780D01*
X120147283Y-99714168D01*
X120086949Y-99785409D01*
X120096338Y-99876774D01*
X120110863Y-99917506D01*
X120176823Y-100174756D01*
X120145157Y-100364920D01*
X120010536Y-100507224D01*
X119935388Y-100550673D01*
X119782928Y-100628663D01*
X119685957Y-100679090D01*
X119672887Y-100686225D01*
X119702486Y-100731852D01*
X119805063Y-100835723D01*
X119937871Y-100957004D01*
X120137283Y-101168902D01*
X120321883Y-101424269D01*
X120397452Y-101558247D01*
X120478336Y-101735651D01*
X120526099Y-101888372D01*
X120546994Y-102057469D01*
X120547275Y-102284001D01*
X120539064Y-102487965D01*
X120501736Y-102894664D01*
X120423867Y-103213985D01*
X120291506Y-103482087D01*
X120090701Y-103735131D01*
X120035741Y-103792588D01*
X119720279Y-104049133D01*
X119358937Y-104212700D01*
X118928802Y-104291751D01*
X118655911Y-104302274D01*
X118243494Y-104278889D01*
X117905680Y-104200488D01*
X117597420Y-104052701D01*
X117360236Y-103888993D01*
X117220007Y-103792479D01*
X117152802Y-103777844D01*
X117139493Y-103818051D01*
X117092720Y-103946094D01*
X116973813Y-104108819D01*
X116814883Y-104269489D01*
X116648046Y-104391367D01*
X116629632Y-104401324D01*
X116433656Y-104459982D01*
X116162707Y-104488459D01*
X115864541Y-104486691D01*
X115586913Y-104454612D01*
X115401589Y-104402984D01*
X115184162Y-104312138D01*
X115349522Y-104576741D01*
X115778839Y-105175660D01*
X116254801Y-105664984D01*
X116793085Y-106057633D01*
X117409371Y-106366527D01*
X117620076Y-106447792D01*
X118132671Y-106612762D01*
X118587888Y-106707506D01*
X119030863Y-106735690D01*
X119506731Y-106700979D01*
X119919592Y-106634521D01*
X120130648Y-106577398D01*
X120408587Y-106478348D01*
X120708385Y-106354142D01*
X120859722Y-106284340D01*
X121167242Y-106126752D01*
X121416968Y-105970459D01*
X121652181Y-105784241D01*
X121916166Y-105536881D01*
X121969932Y-105483600D01*
X122239240Y-105202719D01*
X122437659Y-104960779D01*
X122593906Y-104718960D01*
X122725561Y-104462239D01*
X123009749Y-103729672D01*
X123169511Y-103008058D01*
X123205850Y-102302624D01*
X123119772Y-101618594D01*
X122912283Y-100961196D01*
X122584389Y-100335654D01*
X122137093Y-99747194D01*
X121741937Y-99349638D01*
X121183768Y-98919356D01*
X120578627Y-98591832D01*
X119942465Y-98372162D01*
X119291231Y-98265440D01*
X118640878Y-98276764D01*
X118461689Y-98301686D01*
X117816319Y-98451254D01*
X117239724Y-98679757D01*
X116703283Y-99001754D01*
X116178374Y-99431802D01*
X116105616Y-99500090D01*
X115686552Y-99947068D01*
X115364695Y-100407036D01*
X115113705Y-100919542D01*
X115049647Y-101085739D01*
X114945801Y-101420704D01*
X114854607Y-101807887D01*
X114785072Y-102199746D01*
X114746203Y-102548737D01*
X114741271Y-102713453D01*
X114426365Y-102713453D01*
X114422577Y-102620169D01*
X114450266Y-101977860D01*
X114539307Y-101409385D01*
X114698661Y-100873580D01*
X114908744Y-100387028D01*
X115063166Y-100088646D01*
X115214439Y-99845596D01*
X115391739Y-99618021D01*
X115624241Y-99366061D01*
X115747235Y-99241515D01*
X116017798Y-98979946D01*
X116245605Y-98786195D01*
X116469738Y-98631792D01*
X116729280Y-98488264D01*
X116889833Y-98409137D01*
X117364438Y-98198421D01*
X117788692Y-98054477D01*
X118205389Y-97968587D01*
X118657324Y-97932034D01*
X119187290Y-97936102D01*
X119208211Y-97936889D01*
X119600318Y-97957313D01*
X119905653Y-97988078D01*
X120163739Y-98035210D01*
X120414096Y-98104737D01*
X120504455Y-98134539D01*
X121222693Y-98440345D01*
X121856804Y-98838836D01*
X122402777Y-99325788D01*
X122856602Y-99896980D01*
X123214268Y-100548188D01*
X123465597Y-101252540D01*
X123562272Y-101742876D01*
X123608233Y-102294437D01*
X123603399Y-102860343D01*
X123547692Y-103393713D01*
X123469820Y-103753659D01*
X123252602Y-104388230D01*
X122977733Y-104935936D01*
X122625596Y-105430420D01*
X122264492Y-105820697D01*
X121723049Y-106287518D01*
X121160356Y-106639869D01*
X120559321Y-106884466D01*
X119902852Y-107028027D01*
X119173855Y-107077271D01*
X119067877Y-107077049D01*
X118759559Y-107072052D01*
X118488681Y-107063940D01*
X118285356Y-107053855D01*
X118182030Y-107043453D01*
X117421130Y-106830349D01*
X116737014Y-106520653D01*
X116117908Y-106107917D01*
X115586797Y-105622431D01*
X115135046Y-105059889D01*
X114791344Y-104434538D01*
X114558406Y-103753381D01*
X114474625Y-103241422D01*
X115098493Y-103241422D01*
X115152332Y-103494620D01*
X115201801Y-103608950D01*
X115393553Y-103884977D01*
X115644575Y-104068558D01*
X115930930Y-104151987D01*
X116228682Y-104127560D01*
X116470957Y-104017484D01*
X116673850Y-103818484D01*
X116813438Y-103551702D01*
X116867849Y-103265752D01*
X116860161Y-103152382D01*
X116806985Y-102945826D01*
X116729005Y-102766425D01*
X116718375Y-102749231D01*
X116583471Y-102605625D01*
X116528072Y-102565408D01*
X117153925Y-102565408D01*
X117266560Y-102961381D01*
X117289473Y-103012519D01*
X117518830Y-103375987D01*
X117818518Y-103656191D01*
X118168159Y-103845161D01*
X118547375Y-103934928D01*
X118935789Y-103917519D01*
X119292062Y-103795810D01*
X119523613Y-103636626D01*
X119762511Y-103405870D01*
X119967155Y-103148475D01*
X120083692Y-102940873D01*
X120174758Y-102568168D01*
X120153610Y-102185048D01*
X120030150Y-101813606D01*
X119814280Y-101475937D01*
X119515900Y-101194134D01*
X119224568Y-101023819D01*
X118838405Y-100913708D01*
X118449670Y-100925580D01*
X118071490Y-101056031D01*
X117716993Y-101301656D01*
X117563412Y-101454680D01*
X117301592Y-101816377D01*
X117165349Y-102185179D01*
X117153925Y-102565408D01*
X116528072Y-102565408D01*
X116385435Y-102461860D01*
X116170446Y-102345851D01*
X115984683Y-102285514D01*
X115946102Y-102282388D01*
X115703882Y-102339533D01*
X115468517Y-102494571D01*
X115285475Y-102710681D01*
X115141691Y-102992805D01*
X115098493Y-103241422D01*
X114474625Y-103241422D01*
X114438950Y-103023422D01*
X114426365Y-102713453D01*
G37*
G36*
X99889939Y-95202744D02*
G01*
X100208114Y-95202744D01*
X100208227Y-95314989D01*
X100221397Y-95765434D01*
X100255134Y-96154225D01*
X100306783Y-96464563D01*
X100373690Y-96679649D01*
X100438634Y-96773585D01*
X100511699Y-96808398D01*
X100634642Y-96830370D01*
X100826410Y-96840483D01*
X101105949Y-96839720D01*
X101492205Y-96829066D01*
X101501433Y-96828749D01*
X101846405Y-96819991D01*
X102156355Y-96817918D01*
X102404631Y-96822281D01*
X102564585Y-96832827D01*
X102599159Y-96839081D01*
X102737607Y-96938761D01*
X102856952Y-97156662D01*
X102860458Y-97165509D01*
X103086586Y-97638257D01*
X103388490Y-98120227D01*
X103732158Y-98558067D01*
X103786570Y-98618111D01*
X104139600Y-98999426D01*
X104095479Y-99393021D01*
X104049216Y-99662215D01*
X103977796Y-99930800D01*
X103926162Y-100070740D01*
X103848482Y-100270077D01*
X103756650Y-100539481D01*
X103668295Y-100826712D01*
X103653241Y-100879397D01*
X103505518Y-101403931D01*
X103640789Y-101488490D01*
X103759921Y-101548567D01*
X103961753Y-101636313D01*
X104210191Y-101736308D01*
X104313125Y-101775750D01*
X104568091Y-101872541D01*
X104789493Y-101957602D01*
X104942137Y-102017370D01*
X104976558Y-102031367D01*
X105100218Y-102076419D01*
X105205771Y-102088555D01*
X105307596Y-102055991D01*
X105420075Y-101966943D01*
X105557588Y-101809624D01*
X105734515Y-101572250D01*
X105965236Y-101243037D01*
X106000218Y-101192463D01*
X106622569Y-100292090D01*
X107410757Y-100314060D01*
X107870617Y-100317601D01*
X108238282Y-100298016D01*
X108546164Y-100253203D01*
X108629359Y-100235080D01*
X108958153Y-100163452D01*
X109192881Y-100133105D01*
X109360812Y-100150006D01*
X109489214Y-100220122D01*
X109605355Y-100349419D01*
X109686060Y-100466312D01*
X109885273Y-100757873D01*
X110093856Y-101044809D01*
X110295872Y-101307079D01*
X110475385Y-101524646D01*
X110616459Y-101677471D01*
X110703156Y-101745514D01*
X110703472Y-101745624D01*
X110827282Y-101732264D01*
X111025921Y-101645094D01*
X111281065Y-101495692D01*
X111574388Y-101295636D01*
X111887565Y-101056501D01*
X112167637Y-100820631D01*
X112408467Y-100608010D01*
X112128230Y-99856186D01*
X113490915Y-99856186D01*
X113507695Y-99912985D01*
X113561229Y-100074464D01*
X113584130Y-100149926D01*
X113639218Y-100242085D01*
X113700917Y-100252700D01*
X113726148Y-100181518D01*
X113687565Y-100080856D01*
X113596441Y-99947663D01*
X113593898Y-99944577D01*
X113510767Y-99851584D01*
X113490915Y-99856186D01*
X112128230Y-99856186D01*
X112057065Y-99665263D01*
X111935714Y-99327022D01*
X111832504Y-99015167D01*
X111755337Y-98755503D01*
X111712110Y-98573833D01*
X111705662Y-98517447D01*
X111749126Y-98323712D01*
X111881488Y-98055698D01*
X112009740Y-97849000D01*
X112160924Y-97617319D01*
X112295998Y-97408036D01*
X112391810Y-97257091D01*
X112409982Y-97227662D01*
X112504326Y-97039999D01*
X112609922Y-96779650D01*
X112714800Y-96483043D01*
X112806988Y-96186608D01*
X112874515Y-95926774D01*
X112905411Y-95739970D01*
X112906160Y-95717734D01*
X112931331Y-95524517D01*
X113019903Y-95387412D01*
X113191460Y-95290501D01*
X113465588Y-95217867D01*
X113538000Y-95204211D01*
X113807039Y-95145755D01*
X114128251Y-95061500D01*
X114435106Y-94968986D01*
X114454170Y-94962706D01*
X114959642Y-94795075D01*
X114977007Y-93845740D01*
X114980943Y-93435905D01*
X114974970Y-93137846D01*
X114958232Y-92937293D01*
X114929874Y-92819981D01*
X114913823Y-92791482D01*
X114859216Y-92753870D01*
X114755247Y-92729813D01*
X114589669Y-92719577D01*
X114350231Y-92723425D01*
X114024684Y-92741622D01*
X113600778Y-92774432D01*
X113066265Y-92822121D01*
X112937752Y-92834151D01*
X112724516Y-92845708D01*
X112559871Y-92839103D01*
X112491745Y-92821526D01*
X112430210Y-92745564D01*
X112329659Y-92589787D01*
X112210422Y-92385943D01*
X112194419Y-92357224D01*
X112017285Y-92085698D01*
X111779124Y-91786201D01*
X111519017Y-91507880D01*
X111518908Y-91507773D01*
X111317333Y-91306614D01*
X111180812Y-91143723D01*
X111104425Y-90991180D01*
X111083255Y-90821067D01*
X111112381Y-90605462D01*
X111186886Y-90316446D01*
X111263177Y-90056269D01*
X111357418Y-89736160D01*
X111452158Y-89409385D01*
X111532521Y-89127437D01*
X111561602Y-89023216D01*
X111672268Y-88622003D01*
X111529198Y-88506152D01*
X111411192Y-88436349D01*
X111206003Y-88338774D01*
X110945994Y-88226618D01*
X110663527Y-88113068D01*
X110390964Y-88011313D01*
X110160668Y-87934542D01*
X110056681Y-87906060D01*
X109952439Y-87898732D01*
X109854523Y-87944963D01*
X109732369Y-88064290D01*
X109640513Y-88172103D01*
X109495264Y-88357410D01*
X109309017Y-88608780D01*
X109110540Y-88886912D01*
X108995611Y-89053131D01*
X108602722Y-89629595D01*
X107737401Y-89660259D01*
X107242937Y-89688471D01*
X106820706Y-89734213D01*
X106495691Y-89794669D01*
X106457886Y-89804553D01*
X106221970Y-89857396D01*
X106014244Y-89883380D01*
X105889229Y-89878217D01*
X105779408Y-89817292D01*
X105610823Y-89686311D01*
X105410908Y-89507624D01*
X105292478Y-89392012D01*
X104924586Y-89035267D01*
X104603246Y-88752997D01*
X104336443Y-88551219D01*
X104132163Y-88435949D01*
X103998393Y-88413203D01*
X103994655Y-88414292D01*
X103885807Y-88473035D01*
X103705861Y-88595326D01*
X103479456Y-88762228D01*
X103231231Y-88954808D01*
X102985824Y-89154130D01*
X102767875Y-89341259D01*
X102661801Y-89438602D01*
X102432119Y-89657044D01*
X102843732Y-90393721D01*
X103004155Y-90678617D01*
X103149296Y-90932310D01*
X103264631Y-91129695D01*
X103335637Y-91245662D01*
X103341946Y-91255029D01*
X103421780Y-91442692D01*
X103421627Y-91673105D01*
X103338680Y-91960716D01*
X103170133Y-92319972D01*
X103115631Y-92420263D01*
X102968971Y-92698211D01*
X102836747Y-92973387D01*
X102738793Y-93203450D01*
X102708599Y-93289194D01*
X102635503Y-93527856D01*
X102550031Y-93808982D01*
X102500247Y-93973682D01*
X102386010Y-94352786D01*
X101880538Y-94432535D01*
X101515450Y-94495013D01*
X101149633Y-94566119D01*
X100813976Y-94639107D01*
X100539373Y-94707233D01*
X100356716Y-94763754D01*
X100348324Y-94767040D01*
X100276440Y-94806399D01*
X100234102Y-94872611D01*
X100213823Y-94994964D01*
X100208114Y-95202744D01*
X99889939Y-95202744D01*
X99889871Y-95130819D01*
X99900034Y-94847334D01*
X99937630Y-94649107D01*
X100019559Y-94515667D01*
X100162722Y-94426538D01*
X100384021Y-94361246D01*
X100700356Y-94299318D01*
X100932776Y-94257105D01*
X101338548Y-94181701D01*
X101639154Y-94118740D01*
X101853510Y-94056727D01*
X102000531Y-93984164D01*
X102099131Y-93889553D01*
X102168224Y-93761397D01*
X102226725Y-93588199D01*
X102268228Y-93445337D01*
X102360559Y-93166882D01*
X102484751Y-92848682D01*
X102626593Y-92521795D01*
X102771875Y-92217283D01*
X102906387Y-91966203D01*
X103015920Y-91799616D01*
X103027414Y-91785977D01*
X103060650Y-91729212D01*
X103058827Y-91653311D01*
X103013513Y-91536578D01*
X102916277Y-91357314D01*
X102758690Y-91093823D01*
X102758099Y-91092853D01*
X102475687Y-90607580D01*
X102274193Y-90210579D01*
X102150776Y-89895498D01*
X102102598Y-89655985D01*
X102101682Y-89624363D01*
X102118740Y-89498778D01*
X102182557Y-89374252D01*
X102312093Y-89221895D01*
X102464990Y-89070830D01*
X102942733Y-88649024D01*
X103371115Y-88341982D01*
X103751659Y-88148796D01*
X104085889Y-88068557D01*
X104151845Y-88065971D01*
X104266074Y-88070074D01*
X104369404Y-88089633D01*
X104476977Y-88135520D01*
X104603935Y-88218609D01*
X104765418Y-88349773D01*
X104976569Y-88539884D01*
X105252530Y-88799817D01*
X105490106Y-89026964D01*
X105700125Y-89223803D01*
X105879054Y-89383189D01*
X106006340Y-89487346D01*
X106059180Y-89519204D01*
X106152097Y-89502087D01*
X106307940Y-89460059D01*
X106335432Y-89451790D01*
X106479729Y-89423817D01*
X106719517Y-89394662D01*
X107023990Y-89367412D01*
X107362345Y-89345155D01*
X107438617Y-89341218D01*
X108321074Y-89298060D01*
X108561299Y-88950548D01*
X108864114Y-88517392D01*
X109108672Y-88179495D01*
X109304211Y-87925281D01*
X109459965Y-87743172D01*
X109585171Y-87621594D01*
X109671587Y-87558909D01*
X109882418Y-87461616D01*
X110052359Y-87437453D01*
X110153326Y-87490314D01*
X110234948Y-87545458D01*
X110362403Y-87589762D01*
X110486098Y-87630195D01*
X110697349Y-87709195D01*
X110967500Y-87815696D01*
X111267895Y-87938630D01*
X111294966Y-87949926D01*
X111646886Y-88102359D01*
X111908582Y-88234505D01*
X112108862Y-88368503D01*
X112276533Y-88526491D01*
X112440405Y-88730609D01*
X112590559Y-88945584D01*
X112690887Y-89114830D01*
X112751377Y-89283468D01*
X112772003Y-89475376D01*
X112752736Y-89714427D01*
X112693550Y-90024496D01*
X112594418Y-90429460D01*
X112588839Y-90450984D01*
X112397886Y-91186420D01*
X112562660Y-91411146D01*
X112682512Y-91580236D01*
X112837236Y-91806003D01*
X112990553Y-92035376D01*
X113253672Y-92434882D01*
X114214241Y-92393358D01*
X115174810Y-92351834D01*
X115501474Y-92657285D01*
X115705603Y-92863501D01*
X115903092Y-93087981D01*
X116025731Y-93247065D01*
X116223324Y-93531393D01*
X116244476Y-94630253D01*
X116249291Y-95005827D01*
X116249256Y-95351143D01*
X116244712Y-95640546D01*
X116236003Y-95848384D01*
X116227019Y-95934911D01*
X116205309Y-96025262D01*
X116166698Y-96098550D01*
X116093299Y-96165537D01*
X115967223Y-96236985D01*
X115770582Y-96323655D01*
X115485487Y-96436309D01*
X115233259Y-96532756D01*
X114685482Y-96741248D01*
X115389722Y-97167996D01*
X116093962Y-97594745D01*
X116316603Y-97483093D01*
X116577908Y-97371458D01*
X116946152Y-97242974D01*
X117403934Y-97103328D01*
X117882025Y-96971769D01*
X118135997Y-96902561D01*
X118297558Y-96845257D01*
X118396764Y-96780604D01*
X118463671Y-96689348D01*
X118524932Y-96559936D01*
X118609178Y-96351680D01*
X118706562Y-96085199D01*
X118783627Y-95856069D01*
X118884862Y-95573281D01*
X119016389Y-95250568D01*
X119144526Y-94968831D01*
X119368250Y-94510747D01*
X119734567Y-94510747D01*
X119998031Y-94525084D01*
X120307699Y-94562270D01*
X120540513Y-94603226D01*
X120848925Y-94664597D01*
X121187489Y-94726764D01*
X121407614Y-94763994D01*
X121711454Y-94830649D01*
X121965519Y-94935992D01*
X122212010Y-95102375D01*
X122461766Y-95322319D01*
X122593722Y-95458267D01*
X122691032Y-95595055D01*
X122757731Y-95753342D01*
X122797854Y-95953789D01*
X122815435Y-96217053D01*
X122814509Y-96563795D01*
X122799111Y-97014672D01*
X122797899Y-97043490D01*
X122783265Y-97491728D01*
X122781099Y-97841852D01*
X122791261Y-98084924D01*
X122813609Y-98212007D01*
X122816421Y-98217832D01*
X122890688Y-98321189D01*
X123024045Y-98480283D01*
X123184617Y-98657421D01*
X123489493Y-98981459D01*
X123963374Y-98870492D01*
X124236341Y-98814732D01*
X124580942Y-98755959D01*
X124942998Y-98703025D01*
X125136039Y-98678901D01*
X125834823Y-98598277D01*
X126115392Y-98762784D01*
X126516382Y-99069201D01*
X126830353Y-99466695D01*
X127056736Y-99954172D01*
X127194958Y-100530536D01*
X127234784Y-100909550D01*
X127265346Y-101400641D01*
X126925248Y-101730943D01*
X126698971Y-101946775D01*
X126435716Y-102192167D01*
X126198261Y-102408757D01*
X126001167Y-102592633D01*
X125877520Y-102735141D01*
X125802779Y-102874705D01*
X125752403Y-103049750D01*
X125734174Y-103135374D01*
X125637849Y-103592850D01*
X125553797Y-103952214D01*
X125474527Y-104240162D01*
X125392547Y-104483395D01*
X125300365Y-104708611D01*
X125279990Y-104753963D01*
X125089723Y-105172056D01*
X125300553Y-105464616D01*
X125444294Y-105661442D01*
X125627633Y-105908900D01*
X125813588Y-106157106D01*
X125833767Y-106183837D01*
X126072854Y-106514127D01*
X126234046Y-106772909D01*
X126327464Y-106979348D01*
X126363231Y-107152612D01*
X126364369Y-107188547D01*
X126322801Y-107347681D01*
X126208093Y-107574794D01*
X126035239Y-107847304D01*
X125819232Y-108142628D01*
X125575064Y-108438185D01*
X125427286Y-108599941D01*
X125234994Y-108793727D01*
X125094359Y-108908978D01*
X124976509Y-108964546D01*
X124852572Y-108979279D01*
X124846267Y-108979284D01*
X124614365Y-108937462D01*
X124293986Y-108815140D01*
X123891376Y-108615466D01*
X123412779Y-108341587D01*
X122864438Y-107996650D01*
X122757274Y-107926241D01*
X122530527Y-107776346D01*
X122169185Y-107993935D01*
X121921115Y-108126199D01*
X121617315Y-108264252D01*
X121323321Y-108378326D01*
X121321803Y-108378850D01*
X121014175Y-108484433D01*
X120793758Y-108568575D01*
X120636444Y-108653419D01*
X120518128Y-108761104D01*
X120414704Y-108913772D01*
X120302063Y-109133565D01*
X120156101Y-109442622D01*
X120150344Y-109454798D01*
X119991695Y-109774762D01*
X119828724Y-110077196D01*
X119679146Y-110330771D01*
X119560677Y-110504157D01*
X119548547Y-110519099D01*
X119440347Y-110587284D01*
X119257268Y-110614880D01*
X118990126Y-110600999D01*
X118629738Y-110544755D01*
X118166920Y-110445260D01*
X117768606Y-110347240D01*
X117395749Y-110247458D01*
X117041451Y-110144550D01*
X116734468Y-110047453D01*
X116503554Y-109965110D01*
X116410149Y-109924868D01*
X116096956Y-109769702D01*
X116096956Y-109011493D01*
X116100677Y-108677364D01*
X116110760Y-108355222D01*
X116125584Y-108085482D01*
X116140325Y-107930360D01*
X116183695Y-107607437D01*
X115706301Y-107274120D01*
X115441746Y-107079537D01*
X115171232Y-106864510D01*
X114945146Y-106669411D01*
X114906704Y-106633487D01*
X114755369Y-106493506D01*
X114629031Y-106400756D01*
X114499450Y-106350302D01*
X114338385Y-106337204D01*
X114117596Y-106356526D01*
X113808842Y-106403330D01*
X113695961Y-106421808D01*
X113311866Y-106481241D01*
X113027169Y-106512199D01*
X112817459Y-106511508D01*
X112658323Y-106475991D01*
X112525349Y-106402472D01*
X112394126Y-106287775D01*
X112353727Y-106247189D01*
X112174507Y-106028482D01*
X112006452Y-105765868D01*
X111933751Y-105622310D01*
X111814229Y-105317877D01*
X111700149Y-104968208D01*
X111599887Y-104606178D01*
X111521820Y-104264662D01*
X111474322Y-103976535D01*
X111472510Y-103938493D01*
X111844074Y-103938493D01*
X111855543Y-104069190D01*
X111901535Y-104286019D01*
X111972437Y-104556701D01*
X112058637Y-104848957D01*
X112150521Y-105130510D01*
X112238477Y-105369080D01*
X112312890Y-105532390D01*
X112324652Y-105552165D01*
X112386466Y-105628690D01*
X112468436Y-105672950D01*
X112592677Y-105685308D01*
X112781305Y-105666126D01*
X113056435Y-105615770D01*
X113285264Y-105567961D01*
X113578222Y-105511351D01*
X113856738Y-105467851D01*
X114075984Y-105444090D01*
X114139697Y-105441592D01*
X114293521Y-105451564D01*
X114411028Y-105496933D01*
X114531343Y-105600878D01*
X114665423Y-105753052D01*
X114801199Y-105921311D01*
X114896609Y-106053348D01*
X114929538Y-106116361D01*
X114978637Y-106178641D01*
X115110641Y-106297517D01*
X115305075Y-106456916D01*
X115541462Y-106640761D01*
X115799329Y-106832975D01*
X116058198Y-107017484D01*
X116202734Y-107115971D01*
X116581457Y-107368707D01*
X116538864Y-107621443D01*
X116461429Y-108131444D01*
X116408863Y-108587842D01*
X116384572Y-108959832D01*
X116383351Y-109028644D01*
X116389990Y-109231425D01*
X116422009Y-109346218D01*
X116492735Y-109410827D01*
X116523448Y-109426054D01*
X116626425Y-109459509D01*
X116822995Y-109513205D01*
X117083399Y-109579944D01*
X117377878Y-109652531D01*
X117676672Y-109723767D01*
X117950021Y-109786458D01*
X118168165Y-109833405D01*
X118301345Y-109857412D01*
X118311996Y-109858576D01*
X118363826Y-109806947D01*
X118450973Y-109662880D01*
X118559867Y-109450468D01*
X118643712Y-109269648D01*
X118754375Y-109015583D01*
X118842357Y-108802917D01*
X118896626Y-108658962D01*
X118908647Y-108613851D01*
X118933326Y-108527754D01*
X118997457Y-108365579D01*
X119071239Y-108197735D01*
X119168095Y-108000182D01*
X119246597Y-107892960D01*
X119334518Y-107848749D01*
X119434548Y-107840337D01*
X119775876Y-107801901D01*
X120182039Y-107701677D01*
X120615758Y-107552316D01*
X121039750Y-107366468D01*
X121378820Y-107180564D01*
X121649312Y-107033039D01*
X121871921Y-106970149D01*
X122082947Y-106993811D01*
X122318686Y-107105943D01*
X122521884Y-107240964D01*
X122986891Y-107565609D01*
X123364453Y-107818065D01*
X123650302Y-107995525D01*
X123767334Y-108060377D01*
X123891020Y-108117683D01*
X123975500Y-108116680D01*
X124065963Y-108043649D01*
X124157353Y-107941974D01*
X124278441Y-107799570D01*
X124451697Y-107590121D01*
X124650807Y-107345627D01*
X124791143Y-107171183D01*
X125231649Y-106620531D01*
X125018662Y-106394370D01*
X124857332Y-106213713D01*
X124671322Y-105992189D01*
X124559386Y-105852289D01*
X124371554Y-105618281D01*
X124159464Y-105363957D01*
X124043459Y-105229411D01*
X123888417Y-105038430D01*
X123806494Y-104888175D01*
X123776975Y-104734732D01*
X123775209Y-104660754D01*
X123804141Y-104433068D01*
X123874462Y-104188888D01*
X123899624Y-104127985D01*
X124006468Y-103825733D01*
X124098614Y-103439204D01*
X124168634Y-103010276D01*
X124209102Y-102580831D01*
X124216110Y-102343179D01*
X124217011Y-102143474D01*
X124229466Y-101990301D01*
X124268097Y-101867089D01*
X124347528Y-101757269D01*
X124482384Y-101644271D01*
X124687288Y-101511526D01*
X124976865Y-101342463D01*
X125223451Y-101201810D01*
X125498093Y-101043034D01*
X125744276Y-100896801D01*
X125934322Y-100779800D01*
X126037855Y-100710777D01*
X126182251Y-100601859D01*
X125949605Y-99909910D01*
X125851748Y-99623960D01*
X125763304Y-99374751D01*
X125694754Y-99191253D01*
X125659336Y-99107388D01*
X125600301Y-99042706D01*
X125495437Y-99008516D01*
X125328476Y-99005463D01*
X125083153Y-99034189D01*
X124743202Y-99095338D01*
X124452818Y-99155101D01*
X124057147Y-99237621D01*
X123760345Y-99289813D01*
X123537614Y-99307330D01*
X123364152Y-99285822D01*
X123215161Y-99220942D01*
X123065840Y-99108341D01*
X122891391Y-98943671D01*
X122814697Y-98867869D01*
X122561480Y-98636677D01*
X122277373Y-98407400D01*
X122011689Y-98219035D01*
X121932295Y-98170057D01*
X121785194Y-98086048D01*
X121672704Y-98015944D01*
X121591572Y-97942677D01*
X121538547Y-97849176D01*
X121510376Y-97718374D01*
X121503806Y-97533199D01*
X121515586Y-97276584D01*
X121542463Y-96931458D01*
X121581185Y-96480753D01*
X121590214Y-96374677D01*
X121621613Y-95996741D01*
X121641237Y-95724501D01*
X121648325Y-95537768D01*
X121642115Y-95416352D01*
X121621846Y-95340061D01*
X121586757Y-95288706D01*
X121547908Y-95252358D01*
X121398337Y-95156299D01*
X121285857Y-95115745D01*
X120781537Y-95022982D01*
X120386681Y-94956150D01*
X120087270Y-94914319D01*
X119869289Y-94896556D01*
X119718719Y-94901931D01*
X119621545Y-94929512D01*
X119563748Y-94978369D01*
X119550175Y-95000423D01*
X119502212Y-95108935D01*
X119420913Y-95310380D01*
X119316158Y-95578945D01*
X119197826Y-95888813D01*
X119075795Y-96214170D01*
X118959945Y-96529198D01*
X118880189Y-96751252D01*
X118801191Y-96959216D01*
X118729456Y-97080622D01*
X118633919Y-97149328D01*
X118483515Y-97199190D01*
X118464421Y-97204400D01*
X117948194Y-97345991D01*
X117537371Y-97462668D01*
X117214667Y-97559789D01*
X116962795Y-97642707D01*
X116764470Y-97716779D01*
X116642181Y-97768973D01*
X116361396Y-97878580D01*
X116121912Y-97921405D01*
X115891201Y-97892806D01*
X115636730Y-97788141D01*
X115325970Y-97602772D01*
X115283793Y-97575174D01*
X115057103Y-97428466D01*
X114870258Y-97312382D01*
X114747816Y-97241910D01*
X114714367Y-97227662D01*
X114641617Y-97195546D01*
X114502932Y-97113743D01*
X114412535Y-97055556D01*
X114152465Y-96883450D01*
X113899780Y-97166128D01*
X113749050Y-97342909D01*
X113554674Y-97582245D01*
X113348101Y-97845059D01*
X113246168Y-97978209D01*
X112845241Y-98507611D01*
X113028913Y-98736418D01*
X113156597Y-98883401D01*
X113343717Y-99084175D01*
X113558520Y-99305040D01*
X113659621Y-99405818D01*
X113866696Y-99614380D01*
X113997923Y-99763580D01*
X114070267Y-99879818D01*
X114100694Y-99989493D01*
X114106268Y-100100843D01*
X114084475Y-100311046D01*
X114031472Y-100495938D01*
X114021046Y-100517837D01*
X113875657Y-100868638D01*
X113752612Y-101306811D01*
X113660762Y-101794083D01*
X113608963Y-102292178D01*
X113608415Y-102301668D01*
X113569592Y-102984380D01*
X113222080Y-103128861D01*
X112995769Y-103227658D01*
X112711259Y-103358408D01*
X112423077Y-103495954D01*
X112369095Y-103522410D01*
X112118843Y-103651347D01*
X111963081Y-103749415D01*
X111879597Y-103834219D01*
X111846177Y-103923362D01*
X111844074Y-103938493D01*
X111472510Y-103938493D01*
X111465096Y-103782867D01*
X111471458Y-103685222D01*
X111484422Y-103609141D01*
X111519114Y-103543893D01*
X111590665Y-103478748D01*
X111714203Y-103402973D01*
X111904856Y-103305839D01*
X112177753Y-103176614D01*
X112548023Y-103004568D01*
X112589641Y-102985221D01*
X113252476Y-102676985D01*
X113253074Y-102205399D01*
X113253672Y-101733814D01*
X112842975Y-102060459D01*
X112621585Y-102233914D01*
X112411326Y-102394199D01*
X112252308Y-102510815D01*
X112232973Y-102524298D01*
X111954289Y-102640647D01*
X111614484Y-102652975D01*
X111223804Y-102561548D01*
X111050130Y-102493628D01*
X110819929Y-102377321D01*
X110606176Y-102228513D01*
X110387279Y-102027755D01*
X110141644Y-101755595D01*
X109896112Y-101454108D01*
X109615944Y-101099708D01*
X109349733Y-101151232D01*
X109143640Y-101178827D01*
X108874711Y-101198896D01*
X108641234Y-101206370D01*
X108399205Y-101213147D01*
X108193963Y-101227390D01*
X108072577Y-101245485D01*
X107986976Y-101306742D01*
X107844261Y-101448451D01*
X107663495Y-101650238D01*
X107463744Y-101891731D01*
X107440737Y-101920723D01*
X107153195Y-102283079D01*
X106930562Y-102557675D01*
X106760319Y-102756618D01*
X106629951Y-102892021D01*
X106526941Y-102975994D01*
X106438772Y-103020646D01*
X106352928Y-103038087D01*
X106283287Y-103040597D01*
X106081451Y-103015805D01*
X105790554Y-102947570D01*
X105436409Y-102845107D01*
X105044830Y-102717627D01*
X104641631Y-102574344D01*
X104252626Y-102424471D01*
X103903628Y-102277222D01*
X103620451Y-102141809D01*
X103428910Y-102027446D01*
X103414944Y-102016862D01*
X103295551Y-101911570D01*
X103210033Y-101798982D01*
X103159503Y-101664489D01*
X103145077Y-101493483D01*
X103167871Y-101271357D01*
X103228999Y-100983500D01*
X103329576Y-100615306D01*
X103470717Y-100152166D01*
X103584631Y-99793627D01*
X103658449Y-99557170D01*
X103714217Y-99366628D01*
X103742653Y-99254136D01*
X103744468Y-99240218D01*
X103704428Y-99170655D01*
X103598344Y-99035903D01*
X103447270Y-98862327D01*
X103410521Y-98822019D01*
X103213718Y-98597825D01*
X103021096Y-98361790D01*
X102876944Y-98168617D01*
X102677314Y-97878465D01*
X101931414Y-97833944D01*
X101500566Y-97807260D01*
X101175113Y-97782031D01*
X100934276Y-97752666D01*
X100757279Y-97713572D01*
X100623343Y-97659159D01*
X100511692Y-97583835D01*
X100401548Y-97482009D01*
X100322966Y-97401094D01*
X100178789Y-97236791D01*
X100070122Y-97071018D01*
X99992132Y-96882761D01*
X99939984Y-96651007D01*
X99908844Y-96354743D01*
X99893879Y-95972954D01*
X99890239Y-95520038D01*
X99889939Y-95202744D01*
G37*
%TO.C,C10*%
X152860030Y-55633219D02*
X152661219Y-55832030D01*
X152138781Y-54911970D02*
X151939970Y-55110781D01*
%TO.C,C9*%
X130155836Y-66400000D02*
X129940164Y-66400000D01*
X130155836Y-65680000D02*
X129940164Y-65680000D01*
%TO.C,D2*%
X175204000Y-100931000D02*
X173284000Y-100931000D01*
X173284000Y-100931000D02*
X173284000Y-103616000D01*
X175204000Y-103616000D02*
X175204000Y-100931000D01*
%TO.C,J3*%
X119349000Y-50097000D02*
X119349000Y-51897000D01*
X119349000Y-47997000D02*
X119349000Y-46847000D01*
X110009000Y-50097000D02*
X110009000Y-51897000D01*
X110009000Y-47997000D02*
X110009000Y-46847000D01*
%TO.C,R1*%
X139078067Y-74962401D02*
X139413600Y-75297934D01*
X138339140Y-75701328D02*
X138674673Y-76036861D01*
%TO.C,R4*%
X139752303Y-74959230D02*
X139416770Y-74623697D01*
X140491230Y-74220303D02*
X140155697Y-73884770D01*
%TO.C,C1*%
X145618810Y-78410307D02*
X145466307Y-78562810D01*
X145109693Y-77901190D02*
X144957190Y-78053693D01*
%TO.C,U4*%
X173728000Y-96820000D02*
X171696000Y-96820000D01*
X173728000Y-84882000D02*
X173728000Y-96820000D01*
X173728000Y-82723000D02*
X173728000Y-78659000D01*
X173728000Y-78659000D02*
X159250000Y-78659000D01*
X161282000Y-96820000D02*
X159250000Y-96820000D01*
X159250000Y-96820000D02*
X159250000Y-84882000D01*
X159250000Y-78659000D02*
X159250000Y-82723000D01*
X172458000Y-82596000D02*
X169537000Y-82596000D01*
X169537000Y-82596000D02*
X169537000Y-79675000D01*
X169537000Y-79675000D02*
X172458000Y-79675000D01*
X172458000Y-79675000D02*
X172458000Y-82596000D01*
D14*
%TO.C,J1*%
X141860000Y-130516000D02*
X141860000Y-125516000D01*
X165740000Y-125016000D02*
X165740000Y-130516000D01*
X165740000Y-130516000D02*
X141860000Y-130516000D01*
D15*
X166200000Y-116016000D02*
X166200000Y-116016000D01*
X166300000Y-116016000D02*
X166300000Y-116016000D01*
X166300000Y-116016000D02*
G75*
G03*
X166200000Y-116016000I-50000J0D01*
G01*
X166200000Y-116016000D02*
G75*
G03*
X166300000Y-116016000I50000J0D01*
G01*
D13*
%TO.C,Q1*%
X139682020Y-69998862D02*
X138497617Y-71183266D01*
X139682020Y-69998862D02*
X140141640Y-69539243D01*
X141888194Y-72205036D02*
X141428574Y-72664655D01*
X141888194Y-72205036D02*
X142347813Y-71745416D01*
%TO.C,U2*%
X139211000Y-106716000D02*
X139211000Y-100706000D01*
X146031000Y-104466000D02*
X146031000Y-100706000D01*
X139211000Y-100706000D02*
X140471000Y-100706000D01*
X146031000Y-100706000D02*
X144771000Y-100706000D01*
%TO.C,R8*%
X138288500Y-65515258D02*
X138288500Y-65040742D01*
X139333500Y-65515258D02*
X139333500Y-65040742D01*
%TO.C,SW1*%
X97136000Y-50014000D02*
X97136000Y-51514000D01*
X98386000Y-54014000D02*
X102886000Y-54014000D01*
X102886000Y-47514000D02*
X98386000Y-47514000D01*
X104136000Y-51514000D02*
X104136000Y-50014000D01*
%TO.C,J2*%
X137053000Y-64527000D02*
X137053000Y-60917000D01*
X137053000Y-59217000D02*
X137053000Y-54517000D01*
X137053000Y-53217000D02*
X137053000Y-51417000D01*
X136603000Y-64527000D02*
X137053000Y-64527000D01*
X136023000Y-48257000D02*
X136223000Y-48457000D01*
X136023000Y-48257000D02*
X134163000Y-48257000D01*
X134163000Y-48257000D02*
X133953000Y-48457000D01*
X133953000Y-48607000D02*
X133953000Y-48457000D01*
X133953000Y-48607000D02*
X127583000Y-48607000D01*
X127073000Y-48257000D02*
X127583000Y-48607000D01*
X125003000Y-64527000D02*
X123083000Y-64527000D01*
X124763000Y-48257000D02*
X127073000Y-48257000D01*
X124763000Y-48257000D02*
X124563000Y-48457000D01*
X124563000Y-48457000D02*
X124303000Y-48457000D01*
X123083000Y-64527000D02*
X123083000Y-50517000D01*
%TO.C,C5*%
X144518748Y-96420000D02*
X145041252Y-96420000D01*
X144518748Y-97890000D02*
X145041252Y-97890000D01*
%TO.C,C2*%
X150574030Y-86875219D02*
X150375219Y-87074030D01*
X149852781Y-86153970D02*
X149653970Y-86352781D01*
%TO.C,C8*%
X129680580Y-67820000D02*
X129399420Y-67820000D01*
X129680580Y-66800000D02*
X129399420Y-66800000D01*
%TD*%
M02*
