M48
; DRILL file {KiCad (7.0.0)} date Tue Feb 28 21:09:05 2023
; FORMAT={-:-/ absolute / inch / decimal}
; #@! TF.CreationDate,2023-02-28T21:09:05-08:00
; #@! TF.GenerationSoftware,Kicad,Pcbnew,(7.0.0)
; #@! TF.FileFunction,Plated,1,2,PTH
FMAT,2
INCH
; #@! TA.AperFunction,Plated,PTH,ViaDrill
T1C0.0118
; #@! TA.AperFunction,Plated,PTH,ComponentDrill
T2C0.0118
; #@! TA.AperFunction,Plated,PTH,ViaDrill
T3C0.0157
; #@! TA.AperFunction,Plated,PTH,ComponentDrill
T4C0.0236
; #@! TA.AperFunction,Plated,PTH,ComponentDrill
T5C0.0285
; #@! TA.AperFunction,Plated,PTH,ComponentDrill
T6C0.0433
%
G90
G05
T1
X3.745Y-3.445
X3.82Y-4.19
X3.82Y-4.52
X3.82Y-5.02
X3.83Y-3.96
X3.84Y-4.77
X3.85Y-2.64
X3.88Y-2.23
X3.88Y-3.06
X3.89Y-3.26
X3.92Y-3.7
X3.93Y-2.39
X3.94Y-1.96
X3.975Y-2.06
X3.99Y-4.9
X4.04Y-4.27
X4.06Y-2.79
X4.105Y-2.31
X4.11Y-3.27
X4.11Y-5.04
X4.14Y-2.48
X4.14Y-3.43
X4.14Y-4.59
X4.15Y-4.81
X4.17Y-1.93
X4.19Y-2.21
X4.26Y-3.12
X4.31Y-2.86
X4.31Y-3.54
X4.31Y-4.42
X4.4Y-4.56
X4.405Y-2.171
X4.42Y-4.85
X4.43Y-3.06
X4.44Y-2.72
X4.44Y-3.4
X4.445Y-2.1775
X4.45Y-3.92
X4.51Y-3.54
X4.565Y-2.1775
X4.59Y-4.22
X4.6Y-5.04
X4.6094Y-2.1172
X4.61Y-2.56
X4.62Y-2.94
X4.62Y-3.74
X4.66Y-2.24
X4.67Y-4.68
X4.68Y-4.54
X4.74Y-2.31
X4.75Y-2.11
X4.76Y-3.6
X4.77Y-2.84
X4.77Y-4.95
X4.78Y-1.9
X4.78Y-3.22
X4.84Y-4.3
X4.87Y-3.41
X4.91Y-2.58
X4.92Y-2.08
X4.94Y-3.76
X4.945Y-2.18
X4.95Y-3.97
X4.96Y-2.36
X4.96Y-4.55
X4.98Y-5.08
X5.0Y-2.66
X5.0Y-3.11
X5.01Y-2.535
X5.02Y-2.07
X5.02Y-4.77
X5.055Y-2.535
X5.06Y-1.95
X5.07Y-2.13
X5.08Y-4.16
X5.0985Y-2.5341
X5.1Y-4.96
X5.11Y-2.4
X5.13Y-4.53
X5.16Y-3.46
X5.185Y-2.4672
X5.22Y-3.96
X5.22Y-4.24
X5.23Y-3.23
X5.245Y-2.41
X5.25Y-2.74
X5.2718Y-2.5341
X5.28Y-2.18
X5.3Y-4.52
X5.31Y-3.78
X5.3151Y-2.5341
X5.323Y-2.0195
X5.33Y-4.66
X5.38Y-2.82
X5.42Y-5.0
X5.45Y-3.53
X5.47Y-3.71
X5.5Y-2.12
X5.5Y-3.1
X5.51Y-4.41
X5.52Y-2.665
X5.56Y-3.17
X5.57Y-2.38
X5.5857Y-1.87
X5.6Y-2.565
X5.64Y-2.22
X5.685Y-2.46
X5.6939Y-2.5917
X5.72Y-2.31
X5.72Y-3.45
X5.73Y-2.56
X5.74Y-3.28
X5.74Y-3.37
X5.76Y-3.6
X5.7791Y-2.7465
X5.78Y-3.28
X5.79Y-2.18
X5.8076Y-3.2476
X5.83Y-3.45
X5.8353Y-2.4503
X5.84Y-3.41
X5.8454Y-3.2093
X5.88Y-2.7
X5.89Y-3.43
X5.9Y-1.97
X5.905Y-2.5
X5.92Y-2.57
X5.92Y-4.43
X5.95Y-3.31
X5.96Y-4.01
X5.963Y-2.117
X5.98Y-2.675
X5.995Y-2.465
X6.0Y-3.66
X6.02Y-2.77
X6.02Y-3.0
X6.02Y-3.2354
X6.02Y-4.18
X6.06Y-2.42
X6.06Y-3.03
X6.07Y-3.75
X6.095Y-2.86
X6.1Y-3.56
X6.1026Y-3.0004
X6.13Y-3.43
X6.13Y-4.03
X6.14Y-2.34
X6.14Y-4.31
X6.16Y-2.855
X6.16Y-3.78
X6.17Y-4.17
X6.22Y-2.375
X6.255Y-2.775
X6.27Y-2.69
X6.29Y-2.26
X6.2925Y-2.8875
X6.32Y-2.63
X6.33Y-2.45
X6.33Y-3.62
X6.35Y-3.47
X6.35Y-3.56
X6.3673Y-2.9623
X6.41Y-3.14
X6.41Y-3.24
X6.41Y-3.715
X6.4482Y-2.9816
X6.45Y-2.61
X6.46Y-4.31
X6.47Y-3.31
X6.48Y-2.425
X6.49Y-4.14
X6.5Y-2.76
X6.51Y-2.48
X6.5346Y-2.7254
X6.54Y-2.61
X6.57Y-3.91
X6.59Y-2.555
X6.6Y-4.49
X6.605Y-2.655
X6.62Y-4.26
X6.63Y-2.94
X6.665Y-2.86
X6.665Y-3.33
X6.67Y-3.19
X6.67Y-3.41
X6.675Y-3.48
X6.68Y-4.855
X6.71Y-3.03
X6.71Y-4.98
X6.73Y-2.79
X6.74Y-3.91
X6.76Y-3.51
X6.78Y-3.08
X6.78Y-3.44
X6.79Y-2.94
X6.79Y-3.27
X6.8Y-3.675
X6.8Y-4.71
X6.8Y-4.91
X6.82Y-4.47
X6.83Y-3.23
X6.83Y-3.58
X6.85Y-2.89
X6.85Y-3.02
X6.86Y-3.36
X6.86Y-4.0031
X6.86Y-4.1831
X6.89Y-3.09
T2
X6.1102Y-2.5399
X6.1102Y-2.5823
X6.1526Y-2.4974
X6.1526Y-2.5399
X6.1526Y-2.5823
X6.1526Y-2.6248
X6.1951Y-2.4974
X6.1951Y-2.5399
X6.1951Y-2.5823
X6.1951Y-2.6248
X6.2375Y-2.5399
X6.2375Y-2.5823
T3
X4.405Y-2.4087
X5.1555Y-1.8643
X5.18Y-2.02
X5.57Y-3.2825
X5.575Y-3.385
X5.629Y-3.93
X5.63Y-1.87
X5.6395Y-2.015
X6.01Y-2.05
X6.389Y-3.93
T5
X5.622Y-4.5676
X5.622Y-4.6463
X5.622Y-4.725
X5.622Y-4.8038
X5.622Y-4.8825
X5.7008Y-4.5676
X5.7008Y-4.6463
X5.7008Y-4.725
X5.7008Y-4.8038
X5.7008Y-4.8825
X5.7795Y-4.5676
X5.7795Y-4.6463
X5.7795Y-4.725
X5.7795Y-4.8038
X5.7795Y-4.8825
X5.8583Y-4.5676
X5.8583Y-4.6463
X5.8583Y-4.725
X5.8583Y-4.8038
X5.8583Y-4.8825
X5.937Y-4.5676
X5.937Y-4.6463
X5.937Y-4.725
X5.937Y-4.8038
X5.937Y-4.8825
X6.0157Y-4.5676
X6.0157Y-4.6463
X6.0157Y-4.725
X6.0157Y-4.8038
X6.0157Y-4.8825
X6.0945Y-4.5676
X6.0945Y-4.6463
X6.0945Y-4.725
X6.0945Y-4.8038
X6.0945Y-4.8825
X6.1732Y-4.5676
X6.1732Y-4.6463
X6.1732Y-4.725
X6.1732Y-4.8038
X6.1732Y-4.8825
X6.252Y-4.5676
X6.252Y-4.6463
X6.252Y-4.725
X6.252Y-4.8038
X6.252Y-4.8825
X6.3307Y-4.5676
X6.3307Y-4.6463
X6.3307Y-4.725
X6.3307Y-4.8038
X6.3307Y-4.8825
X6.4094Y-4.5676
X6.4094Y-4.6463
X6.4094Y-4.725
X6.4094Y-4.8038
X6.4094Y-4.8825
X6.4882Y-4.5676
X6.4882Y-4.6463
X6.4882Y-4.725
X6.4882Y-4.8038
X6.4882Y-4.8825
T6
X3.8341Y-1.91
X3.8341Y-2.0872
X4.09Y-1.91
X4.09Y-2.0872
T4
G00X4.3448Y-1.9457
M15
G01X4.3448Y-1.9143
M16
G05
G00X4.3448Y-2.1162
M15
G01X4.3448Y-2.0729
M16
G05
G00X4.685Y-1.9457
M15
G01X4.685Y-1.9143
M16
G05
G00X4.685Y-2.1162
M15
G01X4.685Y-2.0729
M16
G05
T0
M30
