%TF.GenerationSoftware,KiCad,Pcbnew,(7.0.0)*%
%TF.CreationDate,2023-02-28T21:09:02-08:00*%
%TF.ProjectId,daq-wireless,6461712d-7769-4726-956c-6573732e6b69,rev?*%
%TF.SameCoordinates,Original*%
%TF.FileFunction,Paste,Bot*%
%TF.FilePolarity,Positive*%
%FSLAX46Y46*%
G04 Gerber Fmt 4.6, Leading zero omitted, Abs format (unit mm)*
G04 Created by KiCad (PCBNEW (7.0.0)) date 2023-02-28 21:09:02*
%MOMM*%
%LPD*%
G01*
G04 APERTURE LIST*
G04 Aperture macros list*
%AMRoundRect*
0 Rectangle with rounded corners*
0 $1 Rounding radius*
0 $2 $3 $4 $5 $6 $7 $8 $9 X,Y pos of 4 corners*
0 Add a 4 corners polygon primitive as box body*
4,1,4,$2,$3,$4,$5,$6,$7,$8,$9,$2,$3,0*
0 Add four circle primitives for the rounded corners*
1,1,$1+$1,$2,$3*
1,1,$1+$1,$4,$5*
1,1,$1+$1,$6,$7*
1,1,$1+$1,$8,$9*
0 Add four rect primitives between the rounded corners*
20,1,$1+$1,$2,$3,$4,$5,0*
20,1,$1+$1,$4,$5,$6,$7,0*
20,1,$1+$1,$6,$7,$8,$9,0*
20,1,$1+$1,$8,$9,$2,$3,0*%
G04 Aperture macros list end*
%ADD10C,0.010000*%
%ADD11RoundRect,0.225000X-0.225000X-0.250000X0.225000X-0.250000X0.225000X0.250000X-0.225000X0.250000X0*%
%ADD12RoundRect,0.200000X-0.275000X0.200000X-0.275000X-0.200000X0.275000X-0.200000X0.275000X0.200000X0*%
%ADD13R,0.700000X1.200000*%
%ADD14R,0.450000X1.200000*%
G04 APERTURE END LIST*
%TO.C,D9*%
G36*
X145302000Y-47298000D02*
G01*
X145752000Y-47298000D01*
X145752000Y-47848000D01*
X145302000Y-47848000D01*
X145302000Y-48098000D01*
X144752000Y-48098000D01*
X144752000Y-46898000D01*
X145302000Y-46898000D01*
X145302000Y-47298000D01*
G37*
D10*
X145302000Y-47298000D02*
X145752000Y-47298000D01*
X145752000Y-47848000D01*
X145302000Y-47848000D01*
X145302000Y-48098000D01*
X144752000Y-48098000D01*
X144752000Y-46898000D01*
X145302000Y-46898000D01*
X145302000Y-47298000D01*
G36*
X142152000Y-48098000D02*
G01*
X141602000Y-48098000D01*
X141602000Y-47848000D01*
X141152000Y-47848000D01*
X141152000Y-47298000D01*
X141602000Y-47298000D01*
X141602000Y-46898000D01*
X142152000Y-46898000D01*
X142152000Y-48098000D01*
G37*
X142152000Y-48098000D02*
X141602000Y-48098000D01*
X141602000Y-47848000D01*
X141152000Y-47848000D01*
X141152000Y-47298000D01*
X141602000Y-47298000D01*
X141602000Y-46898000D01*
X142152000Y-46898000D01*
X142152000Y-48098000D01*
%TO.C,D4*%
G36*
X116582000Y-47552000D02*
G01*
X117032000Y-47552000D01*
X117032000Y-48102000D01*
X116582000Y-48102000D01*
X116582000Y-48352000D01*
X116032000Y-48352000D01*
X116032000Y-47152000D01*
X116582000Y-47152000D01*
X116582000Y-47552000D01*
G37*
X116582000Y-47552000D02*
X117032000Y-47552000D01*
X117032000Y-48102000D01*
X116582000Y-48102000D01*
X116582000Y-48352000D01*
X116032000Y-48352000D01*
X116032000Y-47152000D01*
X116582000Y-47152000D01*
X116582000Y-47552000D01*
G36*
X113432000Y-48352000D02*
G01*
X112882000Y-48352000D01*
X112882000Y-48102000D01*
X112432000Y-48102000D01*
X112432000Y-47552000D01*
X112882000Y-47552000D01*
X112882000Y-47152000D01*
X113432000Y-47152000D01*
X113432000Y-48352000D01*
G37*
X113432000Y-48352000D02*
X112882000Y-48352000D01*
X112882000Y-48102000D01*
X112432000Y-48102000D01*
X112432000Y-47552000D01*
X112882000Y-47552000D01*
X112882000Y-47152000D01*
X113432000Y-47152000D01*
X113432000Y-48352000D01*
%TO.C,D7*%
G36*
X133250000Y-47154000D02*
G01*
X133700000Y-47154000D01*
X133700000Y-47704000D01*
X133250000Y-47704000D01*
X133250000Y-47954000D01*
X132700000Y-47954000D01*
X132700000Y-46754000D01*
X133250000Y-46754000D01*
X133250000Y-47154000D01*
G37*
X133250000Y-47154000D02*
X133700000Y-47154000D01*
X133700000Y-47704000D01*
X133250000Y-47704000D01*
X133250000Y-47954000D01*
X132700000Y-47954000D01*
X132700000Y-46754000D01*
X133250000Y-46754000D01*
X133250000Y-47154000D01*
G36*
X130100000Y-47954000D02*
G01*
X129550000Y-47954000D01*
X129550000Y-47704000D01*
X129100000Y-47704000D01*
X129100000Y-47154000D01*
X129550000Y-47154000D01*
X129550000Y-46754000D01*
X130100000Y-46754000D01*
X130100000Y-47954000D01*
G37*
X130100000Y-47954000D02*
X129550000Y-47954000D01*
X129550000Y-47704000D01*
X129100000Y-47704000D01*
X129100000Y-47154000D01*
X129550000Y-47154000D01*
X129550000Y-46754000D01*
X130100000Y-46754000D01*
X130100000Y-47954000D01*
%TD*%
D11*
%TO.C,C12*%
X131559000Y-51181000D03*
X133109000Y-51181000D03*
%TD*%
D12*
%TO.C,R2*%
X112903000Y-55309000D03*
X112903000Y-56959000D03*
%TD*%
D13*
%TO.C,D9*%
X143001999Y-47497999D03*
D14*
X144026999Y-47497999D03*
%TD*%
D11*
%TO.C,C11*%
X143243000Y-51181000D03*
X144793000Y-51181000D03*
%TD*%
D13*
%TO.C,D4*%
X114281999Y-47751999D03*
D14*
X115306999Y-47751999D03*
%TD*%
D11*
%TO.C,C13*%
X114147000Y-51181000D03*
X115697000Y-51181000D03*
%TD*%
D13*
%TO.C,D7*%
X130949999Y-47353999D03*
D14*
X131974999Y-47353999D03*
%TD*%
D12*
%TO.C,R3*%
X115951000Y-55309000D03*
X115951000Y-56959000D03*
%TD*%
%TO.C,R6*%
X174244000Y-106300000D03*
X174244000Y-107950000D03*
%TD*%
%TO.C,R5*%
X174244000Y-101791000D03*
X174244000Y-103441000D03*
%TD*%
M02*
